<svg width="20" height="24" viewBox="0 0 20 24" fill="none" xmlns="http://www.w3.org/2000/svg">
<path d="M10 0C4.93398 0 0.8125 4.12148 0.8125 9.1875C0.8125 11.6484 2.30345 14.8087 5.24392 18.5802C6.59109 20.3037 8.05 21.9368 9.61122 23.469C9.7159 23.5691 9.85516 23.625 10 23.625C10.1448 23.625 10.2841 23.5691 10.3888 23.469C11.95 21.9368 13.4089 20.3037 14.7561 18.5802C17.6965 14.8087 19.1875 11.6484 19.1875 9.1875C19.1875 4.12148 15.066 0 10 0ZM10 15.75C6.38125 15.75 3.4375 12.8062 3.4375 9.1875C3.4375 5.56875 6.38125 2.625 10 2.625C13.6187 2.625 16.5625 5.56875 16.5625 9.1875C16.5625 12.8062 13.6187 15.75 10 15.75Z" fill="#5B5B5B"/>
<path d="M14.5034 8.39629L10.3784 4.64628C10.2749 4.55215 10.14 4.5 10 4.5C9.8601 4.5 9.72519 4.55215 9.62165 4.64628L5.49665 8.39629C5.40055 8.48368 5.33764 8.60162 5.31859 8.73011C5.29954 8.8586 5.32552 8.98972 5.39212 9.10124C5.44467 9.18614 5.51832 9.25598 5.60589 9.30396C5.69346 9.35193 5.79197 9.37641 5.89181 9.37499H6.43753V12.9375C6.43753 13.0867 6.49679 13.2298 6.60228 13.3352C6.70777 13.4407 6.85084 13.5 7.00003 13.5H8.31253C8.46171 13.5 8.60478 13.4407 8.71027 13.3352C8.81576 13.2298 8.87503 13.0867 8.87503 12.9375V10.875C8.87503 10.7258 8.93429 10.5827 9.03978 10.4772C9.14527 10.3718 9.28834 10.3125 9.43753 10.3125H10.5625C10.7117 10.3125 10.8548 10.3718 10.9603 10.4772C11.0658 10.5827 11.125 10.7258 11.125 10.875V12.9375C11.125 13.0867 11.1843 13.2298 11.2898 13.3352C11.3953 13.4407 11.5383 13.5 11.6875 13.5H13C13.1492 13.5 13.2923 13.4407 13.3978 13.3352C13.5033 13.2298 13.5625 13.0867 13.5625 12.9375V9.37499H14.1082C14.2081 9.37641 14.3066 9.35193 14.3942 9.30396C14.4817 9.25598 14.5554 9.18614 14.6079 9.10124C14.6745 8.98972 14.7005 8.8586 14.6815 8.73011C14.6624 8.60162 14.5995 8.48368 14.5034 8.39629Z" fill="#5B5B5B"/>
</svg>
