<svg width="24" height="24" viewBox="0 0 24 24" fill="none" xmlns="http://www.w3.org/2000/svg">
<path d="M22.4773 13.952C23.3867 13.7227 24 12.9387 24 12C24 11.0613 23.3867 10.2773 22.4773 10.048C22.1387 9.96267 21.8827 9.712 21.792 9.376C21.704 9.04 21.7973 8.69333 22.048 8.45067C22.7227 7.8 22.8613 6.81333 22.392 6C21.9227 5.18667 21 4.81333 20.096 5.072C19.7627 5.168 19.416 5.07733 19.168 4.832C18.9227 4.584 18.832 4.23733 18.928 3.904C19.1867 3 18.8133 2.07733 18 1.608C17.1867 1.13867 16.2 1.27467 15.5467 1.952C15.3067 2.20267 14.96 2.296 14.624 2.208C14.288 2.11733 14.0373 1.86133 13.952 1.52267C13.8373 1.06667 13.584 0.688 13.2427 0.421333C12.9013 0.154667 12.4693 0 12 0C11.0613 0 10.2773 0.613333 10.048 1.52267C9.96267 1.86133 9.712 2.11733 9.376 2.208C9.04 2.296 8.69333 2.20267 8.45067 1.952C7.8 1.27467 6.81333 1.13867 6 1.608C5.18667 2.07733 4.81333 3 5.072 3.904C5.168 4.23733 5.07733 4.584 4.832 4.832C4.584 5.07733 4.23733 5.168 3.904 5.072C3 4.81333 2.07733 5.18667 1.608 6C1.13867 6.81333 1.27733 7.8 1.952 8.45067C2.20267 8.69333 2.296 9.04 2.208 9.376C2.11733 9.712 1.86133 9.96267 1.52267 10.048C0.613333 10.2773 0 11.0613 0 12C0 12.9387 0.613333 13.7227 1.52267 13.952C1.86133 14.0373 2.11733 14.288 2.208 14.624C2.296 14.96 2.20267 15.3067 1.952 15.5467C1.27733 16.2 1.13867 17.1867 1.608 18C2.07733 18.8133 3 19.1867 3.904 18.928C4.23733 18.832 4.584 18.9227 4.832 19.168C5.07733 19.416 5.168 19.7627 5.072 20.096C4.81333 21 5.18667 21.9227 6 22.392C6.81333 22.8613 7.79733 22.7253 8.45067 22.048C8.69333 21.8 9.04 21.704 9.376 21.792C9.712 21.8827 9.96267 22.1387 10.048 22.4773C10.2773 23.3867 11.0613 24 12 24C12.9387 24 13.7227 23.3867 13.952 22.4773C14.0373 22.1387 14.288 21.8827 14.624 21.792C14.96 21.704 15.3067 21.7973 15.5467 22.048C16.2 22.7253 17.1867 22.8613 18 22.392C18.8133 21.9227 19.1867 21 18.928 20.096C18.832 19.7627 18.9227 19.416 19.168 19.168C19.416 18.9227 19.7627 18.832 20.096 18.928C21 19.1867 21.9227 18.8133 22.392 18C22.8613 17.1867 22.7227 16.2 22.048 15.5467C21.7973 15.3067 21.704 14.96 21.792 14.624C21.8827 14.288 22.1387 14.0373 22.4773 13.952ZM21.3067 16.3147C21.6987 16.6933 21.648 17.1573 21.4693 17.4667C21.2907 17.776 20.9147 18.0533 20.3893 17.904C19.6773 17.6987 18.9387 17.8907 18.4133 18.4133C17.8907 18.9387 17.6987 19.6773 17.904 20.3893C18.0533 20.912 17.776 21.2907 17.4667 21.4693C17.1573 21.648 16.6933 21.6987 16.3147 21.3067C15.8 20.7733 15.064 20.5707 14.3467 20.7627C13.632 20.9547 13.096 21.4987 12.9173 22.2187C12.784 22.744 12.3573 22.9333 12 22.9333C11.6427 22.9333 11.216 22.744 11.0827 22.2187C10.904 21.4987 10.368 20.9547 9.65333 20.7627C9.47467 20.7147 9.296 20.6907 9.12 20.6907C8.584 20.6907 8.072 20.9067 7.68533 21.3067C7.30667 21.6987 6.84267 21.6453 6.53333 21.4693C6.224 21.2907 5.94667 20.912 6.096 20.3893C6.30133 19.6773 6.10933 18.9387 5.584 18.4133C5.06133 17.8907 4.32267 17.6987 3.61067 17.904C3.088 18.0507 2.70933 17.776 2.53067 17.4667C2.352 17.1573 2.30133 16.6933 2.69333 16.3147C3.22667 15.8 3.42933 15.064 3.23733 14.3467C3.04533 13.632 2.50133 13.096 1.78133 12.9173C1.256 12.784 1.06667 12.3573 1.06667 12C1.06667 11.6427 1.256 11.216 1.78133 11.0827C2.50133 10.904 3.04533 10.368 3.23733 9.65333C3.42933 8.936 3.22667 8.2 2.69333 7.68533C2.30133 7.30667 2.352 6.84267 2.53067 6.53333C2.70933 6.224 3.088 5.94933 3.61067 6.096C4.32267 6.30133 5.06133 6.10933 5.584 5.584C6.10933 5.06133 6.30133 4.32267 6.096 3.61067C5.94667 3.088 6.224 2.70933 6.53333 2.53067C6.84267 2.35467 7.30667 2.30133 7.68533 2.69333C8.2 3.22667 8.936 3.42933 9.65333 3.23733C10.368 3.04533 10.904 2.50133 11.0827 1.78133C11.216 1.256 11.6427 1.06667 12 1.06667C12.3573 1.06667 12.784 1.256 12.9173 1.78133C13.096 2.50133 13.632 3.04533 14.3467 3.23733C15.064 3.42933 15.8 3.22667 16.3147 2.69333C16.6933 2.30133 17.1573 2.352 17.4667 2.53067C17.776 2.70933 18.0533 3.088 17.904 3.61067C17.6987 4.32267 17.8907 5.06133 18.4133 5.584C18.9387 6.10933 19.6773 6.30133 20.3893 6.096C20.912 5.94667 21.2907 6.224 21.4693 6.53333C21.648 6.84267 21.6987 7.30667 21.3067 7.68533C20.7733 8.2 20.5707 8.936 20.7627 9.65333C20.9547 10.368 21.4987 10.904 22.2187 11.0827C22.744 11.216 22.9333 11.6427 22.9333 12C22.9333 12.3573 22.744 12.784 22.2187 12.9173C21.4987 13.096 20.9547 13.632 20.7627 14.3467C20.5707 15.064 20.7733 15.8 21.3067 16.3147ZM17.2773 9.44C16.3253 7.48533 14.3173 6.13333 12 6.13333C9.68267 6.13333 7.67467 7.48533 6.72267 9.44C5.61333 9.76533 4.8 10.7893 4.8 12C4.8 13.2107 5.61333 14.2347 6.72267 14.56C7.67467 16.5147 9.68267 17.8667 12 17.8667C14.3173 17.8667 16.3253 16.5147 17.2773 14.56C18.3867 14.2347 19.2 13.2107 19.2 12C19.2 10.7893 18.3867 9.76533 17.2773 9.44ZM12 7.2C13.6613 7.2 15.1253 8.048 15.9893 9.33333H8.01067C8.87467 8.048 10.3387 7.2 12 7.2ZM12 16.8C10.3387 16.8 8.87467 15.952 8.01067 14.6667H15.9893C15.1253 15.952 13.6613 16.8 12 16.8ZM16.5333 13.6H7.46667C6.584 13.6 5.86667 12.8827 5.86667 12C5.86667 11.1173 6.584 10.4 7.46667 10.4H16.5333C17.416 10.4 18.1333 11.1173 18.1333 12C18.1333 12.8827 17.416 13.6 16.5333 13.6Z" fill="#E74F30"/>
</svg>
