<svg width="36" height="36" viewBox="0 0 36 36" fill="none" xmlns="http://www.w3.org/2000/svg">
<path d="M25.5108 16.8694V13.0889H23.3008V14.4951H24.8077V18.2757C24.8085 18.8653 25.0206 19.4351 25.4055 19.8817C25.7904 20.3284 26.3226 20.6223 26.9056 20.7101V21.6535H27.6088V19.3039C27.0257 19.216 26.4935 18.9221 26.1086 18.4755C25.7237 18.0288 25.5116 17.459 25.5108 16.8694Z" fill="#F4E3D4"/>
<path d="M23.666 27.3069H23.9511C23.9724 27.097 24.0108 26.8892 24.0657 26.6855C23.9134 26.8797 23.7796 27.0878 23.666 27.3069Z" fill="#F4E3D4"/>
<path d="M26.4138 24.0449C26.868 23.8638 27.3522 23.7694 27.8411 23.7666C27.8735 23.6999 27.8904 23.6268 27.8904 23.5527V22.6387H23.3008V24.0449H26.4138Z" fill="#F4E3D4"/>
<path d="M33.2731 19.3311H28.5938V20.7373H32.57C32.9616 20.7378 33.3371 20.8935 33.614 21.1704C33.8909 21.4474 34.0467 21.8228 34.0471 22.2144V27.3067H34.7502V20.8082C34.7498 20.4166 34.594 20.0411 34.3171 19.7642C34.0402 19.4873 33.6647 19.3315 33.2731 19.3311Z" fill="#F4E3D4"/>
<path d="M33.0625 14.5947H32.0781V18.4619H33.0625V14.5947Z" fill="#E85222"/>
<path d="M6.48084 14.4811C7.75553 14.4811 8.75397 13.5086 8.75397 12.2671C8.75631 11.807 8.61366 11.3578 8.34628 10.9834C8.07889 10.6089 7.70036 10.3282 7.2644 10.181L9.32181 6.53942L14.8532 16.4389L12.6412 22.3068L13.5623 22.6541L15.855 16.572C15.8803 16.505 15.8906 16.4332 15.8853 16.3618C15.8799 16.2903 15.8591 16.2209 15.8241 16.1583L10.1392 5.9841H10.6605L18.309 16.5579V22.4804H19.2934V16.3984C19.2934 16.2948 19.2607 16.194 19.2 16.1101L11.311 5.20391C11.2654 5.14081 11.2054 5.08942 11.1361 5.05397C11.0668 5.01853 10.9901 5.00003 10.9122 5H9.30065C9.17902 4.99971 9.06163 5.04467 8.9713 5.12612C8.88097 5.20757 8.82416 5.31971 8.81191 5.44072L6.06452 10.3035C6.02221 10.3784 6.00027 10.4631 6.00088 10.5491C6.00148 10.6351 6.02461 10.7194 6.06797 10.7937C6.11132 10.868 6.17338 10.9296 6.24797 10.9724C6.32256 11.0153 6.40706 11.0378 6.49307 11.0378C7.22095 11.0378 7.7698 11.5662 7.7698 12.2669C7.7698 12.9565 7.20372 13.4966 6.48105 13.4966C5.93676 13.4966 5.43494 13.0882 5.26084 12.5035C5.22355 12.3784 5.13808 12.2732 5.02324 12.2111C4.9084 12.149 4.7736 12.1351 4.64849 12.1724C4.52338 12.2097 4.41821 12.2951 4.35612 12.41C4.29403 12.5248 4.28009 12.6596 4.31739 12.7847C4.61467 13.7834 5.50434 14.4811 6.48084 14.4811Z" fill="#E85222"/>
<path d="M13.7974 27.3057H10.9922V28.29H13.7974V27.3057Z" fill="#E85222"/>
<path d="M33.2729 18.3466H27.9727C27.581 18.3462 27.2055 18.1904 26.9285 17.9135C26.6516 17.6366 26.4958 17.2611 26.4953 16.8694V15.4083H32.2301C32.6663 15.4054 33.0837 15.2301 33.3912 14.9206C33.6987 14.6112 33.8712 14.1926 33.8712 13.7564C33.8712 13.3201 33.6987 12.9016 33.3912 12.5921C33.0837 12.2826 32.6663 12.1073 32.2301 12.1045H22.8082C22.6777 12.1045 22.5525 12.1563 22.4602 12.2487C22.3679 12.341 22.316 12.4661 22.316 12.5967V23.6526H21.7103V22.5032C21.7103 22.3727 21.6585 22.2475 21.5662 22.1552C21.4739 22.0629 21.3487 22.011 21.2181 22.011H3.86875C3.73821 22.011 3.61302 22.0629 3.52072 22.1552C3.42842 22.2475 3.37656 22.3727 3.37656 22.5032V23.6526H1.90401C1.66432 23.6529 1.43454 23.7482 1.26506 23.9177C1.09559 24.0872 1.00026 24.317 1 24.5567V27.3862C1.00026 27.6259 1.09559 27.8557 1.26507 28.0251C1.43454 28.1946 1.66433 28.29 1.90401 28.2902H4.10078V27.3058H1.98438V24.637H22.3165V27.3058H20.6883V28.2902H22.793C22.7983 28.2902 22.8034 28.291 22.8087 28.291H24.5249V27.3066H23.3009V22.6379H28.1013C28.2319 22.6379 28.357 22.586 28.4493 22.4937C28.5417 22.4014 28.5935 22.2762 28.5935 22.1457V19.3309H33.2729C33.6645 19.3314 34.0399 19.4871 34.3169 19.7641C34.5938 20.041 34.7496 20.4164 34.75 20.8081V27.3066H31.2141V28.291H35.2422C35.3727 28.291 35.4979 28.2391 35.5902 28.1468C35.6825 28.0545 35.7344 27.9293 35.7344 27.7988V20.8081C35.7337 20.1554 35.4741 19.5298 35.0126 19.0683C34.5512 18.6068 33.9255 18.3473 33.2729 18.3466ZM26.4953 13.0889H32.2301C32.4059 13.0907 32.574 13.1618 32.6977 13.2868C32.8214 13.4118 32.8908 13.5805 32.8908 13.7564C32.8908 13.9322 32.8214 14.101 32.6977 14.226C32.574 14.351 32.4059 14.4221 32.2301 14.4239H26.4953V13.0889ZM20.7262 23.6526H4.36094V22.9954H20.7265L20.7262 23.6526ZM27.6089 21.6535H23.3009V13.0889H25.5109V16.8694C25.5117 17.459 25.7238 18.0288 26.1087 18.4755C26.4936 18.9221 27.0258 19.216 27.6089 19.3039V21.6535Z" fill="#4F4F4F"/>
<path d="M27.8692 23.7656C26.825 23.7668 25.8239 24.1822 25.0856 24.9205C24.3472 25.6589 23.9319 26.66 23.9307 27.7042C23.9307 27.7353 23.9307 27.7675 23.9316 27.7963C23.9567 28.8238 24.3825 29.8007 25.1181 30.5186C25.8536 31.2365 26.8407 31.6384 27.8685 31.6386C28.8963 31.6388 29.8834 31.2372 30.6192 30.5195C31.355 29.8019 31.7811 28.825 31.8066 27.7976C31.8073 27.7667 31.8073 27.7349 31.8073 27.7042C31.8073 27.6049 31.8037 27.507 31.7967 27.4148C31.7208 26.4241 31.2744 25.4985 30.5466 24.8222C29.8187 24.1459 28.8628 23.7687 27.8692 23.7656ZM30.8223 27.7734C30.804 28.5448 30.4846 29.2783 29.9324 29.8173C29.3802 30.3562 28.6392 30.6577 27.8676 30.6574C27.096 30.6571 26.3552 30.3549 25.8035 29.8155C25.2518 29.2761 24.933 28.5423 24.9153 27.7709C24.9147 27.7488 24.9148 27.726 24.9148 27.704C24.9148 26.9393 25.2113 26.2044 25.7421 25.6539C26.2728 25.1033 26.9964 24.78 27.7606 24.752C28.5248 24.724 29.2701 24.9934 29.8397 25.5036C30.4094 26.0138 30.759 26.725 30.815 27.4876C30.8203 27.5579 30.8229 27.6282 30.8229 27.704C30.8232 27.7266 30.8233 27.7497 30.8226 27.7736L30.8223 27.7734Z" fill="#4F4F4F"/>
<path d="M17.2423 23.7656C16.725 23.7654 16.2127 23.8671 15.7348 24.0649C15.2568 24.2628 14.8226 24.5529 14.4568 24.9186C14.091 25.2844 13.8009 25.7186 13.6031 26.1966C13.4052 26.6745 13.3035 27.1868 13.3037 27.704C13.3037 27.7365 13.3037 27.7697 13.3048 27.7958C13.3294 28.8239 13.7551 29.8016 14.4909 30.52C15.2267 31.2385 16.2143 31.6406 17.2427 31.6406C18.2711 31.6406 19.2587 31.2385 19.9945 30.52C20.7303 29.8016 21.156 28.8239 21.1805 27.7958C21.1805 27.7919 21.1805 27.7881 21.1805 27.7843V27.704C21.1805 27.6012 21.1774 27.5072 21.1708 27.4144C21.0975 26.4226 20.6518 25.4953 19.9231 24.8185C19.1944 24.1417 18.2367 23.7656 17.2423 23.7656ZM20.1891 27.4852C20.194 27.5531 20.1961 27.6247 20.1961 27.7038V27.7785C20.1766 28.5499 19.856 29.2831 19.3029 29.8213C18.7499 30.3594 18.0082 30.6599 17.2365 30.6583C16.4648 30.6568 15.7244 30.3534 15.1735 29.813C14.6226 29.2727 14.305 28.5382 14.2885 27.7667C14.2877 27.7461 14.2879 27.7245 14.2879 27.7043C14.2878 26.9396 14.5842 26.2046 15.1148 25.654C15.6454 25.1033 16.3688 24.7798 17.133 24.7515C17.8972 24.7232 18.6425 24.9923 19.2124 25.5021C19.7823 26.012 20.1323 26.723 20.1889 27.4856L20.1891 27.4852Z" fill="#4F4F4F"/>
<path d="M7.54577 31.6425C8.57346 31.6423 9.5604 31.2406 10.296 30.523C11.0316 29.8053 11.4577 28.8286 11.4833 27.8012C11.4843 27.7693 11.4844 27.7364 11.4844 27.7044C11.4855 26.7064 11.1066 25.7454 10.4245 25.0167C10.4207 25.0127 10.417 25.0087 10.413 25.0048L10.3981 24.9899C10.0307 24.6028 9.58837 24.2946 9.09801 24.0839C8.60766 23.8733 8.07956 23.7646 7.54587 23.7646C7.01219 23.7646 6.48409 23.8733 5.99373 24.0839C5.50337 24.2946 5.06102 24.6028 4.69361 24.9899L4.6787 25.0048C4.67477 25.0089 4.67083 25.0129 4.66696 25.017C3.98541 25.7458 3.60661 26.7066 3.60742 27.7044C3.60742 27.7364 3.60742 27.7693 3.60848 27.7962C3.63287 28.8244 4.0584 29.8023 4.79414 30.5209C5.52988 31.2396 6.51749 31.642 7.54598 31.6423L7.54577 31.6425ZM4.59159 27.7044C4.59108 26.9585 4.87328 26.2402 5.38134 25.6941L5.39477 25.6807C5.398 25.6775 5.40117 25.6742 5.40426 25.6709C5.61696 25.4456 5.86406 25.2555 6.13635 25.1077C6.56905 24.8734 7.05333 24.7507 7.54538 24.7507C8.03743 24.7507 8.52171 24.8734 8.95441 25.1077C9.22691 25.2554 9.47423 25.4455 9.68713 25.6708L9.69656 25.6806L9.71013 25.6941C10.2184 26.24 10.5006 26.9584 10.4998 27.7043C10.4998 27.7254 10.4998 27.747 10.4991 27.7731C10.4812 28.5449 10.1618 29.2791 9.60936 29.8184C9.0569 30.3577 8.31526 30.6594 7.54319 30.6587C6.77112 30.658 6.02999 30.3552 5.47845 29.8149C4.92692 29.2746 4.60881 28.5399 4.59222 27.768C4.59152 27.7471 4.59159 27.7255 4.59159 27.7044Z" fill="#4F4F4F"/>
</svg>
