<svg width="48" height="48" viewBox="0 0 48 48" fill="none" xmlns="http://www.w3.org/2000/svg">
<rect width="48" height="48" rx="3" fill="#F2F2F2"/>
<path d="M13.5376 30.3573C14.3596 30.1661 15.2129 29.9784 15.4301 29.942C15.8454 29.862 18.2732 29.3181 18.2889 29.3024C18.2941 29.2972 18.1829 29.0035 18.0334 28.6525C17.8892 28.2997 17.7501 27.9591 17.7241 27.8948C17.6754 27.7767 17.6598 27.7836 16.3807 28.225C15.6665 28.47 14.5195 28.8645 13.8313 29.0991C11.5859 29.8724 11.4851 29.9089 11.3774 30.0532C11.2384 30.2287 11.2436 30.2982 11.4208 30.4963C11.6555 30.757 11.8362 30.7466 13.5376 30.3573Z" fill="#2C2C2C"/>
<path d="M31.3047 30.0636C31.3047 29.9038 31.2943 29.8343 31.2838 29.9194C31.2734 29.9993 31.2734 30.1279 31.2838 30.213C31.2943 30.2929 31.3047 30.2234 31.3047 30.0636Z" fill="#2C2C2C"/>
<path d="M25.9352 26.2667C26.5105 25.9417 27.9407 25.078 28.2396 24.8747L28.5438 24.6713L29.3067 24.6227C30.3146 24.5532 31.0185 24.4836 31.6684 24.3881C32.5217 24.2542 32.6017 24.2386 32.6329 24.1847C32.6538 24.1482 32.2802 23.3801 32.195 23.2949C32.1846 23.2845 32.0768 23.3384 31.9604 23.4183C31.8422 23.493 31.7362 23.5573 31.7258 23.5573C31.7101 23.5573 30.9524 22.2609 30.8516 22.0645C30.8464 22.0489 30.975 21.9585 31.1349 21.8612C31.4599 21.663 31.4599 21.6961 31.1662 21.1139C31.0115 20.8045 30.9855 20.7837 30.5267 20.5491C29.2632 19.9095 27.8712 19.4716 26.4149 19.2578C25.433 19.1188 24.9585 19.1987 24.3625 19.6106L24.1174 19.7757L24.3034 19.9043L24.4893 20.0329L24.8525 19.8782C25.3061 19.6871 25.8292 19.5897 26.175 19.6332C26.8424 19.7131 28.7506 20.1928 29.4544 20.4604C29.8645 20.6151 30.1478 20.8549 30.1478 21.0583C30.1478 21.4632 29.6786 21.5483 29.1555 21.2338C28.4569 20.8132 27.7374 20.5195 26.8407 20.3057C26.222 20.1563 25.4173 20.1354 25.1393 20.2623L24.9533 20.3475L25.214 20.523C25.8918 20.9922 26.7451 21.6596 27.011 21.9255C27.2508 22.1705 27.3464 22.32 27.5062 22.7197C27.7513 23.3175 27.7721 23.5991 27.5914 23.792C27.5167 23.8719 27.4055 23.931 27.3255 23.931C26.8876 23.931 24.9307 23.281 23.2937 22.598C23 22.4694 22.536 22.2783 22.2648 22.1653L21.7643 21.962L21.1717 22.4156C20.5374 22.9004 19.7432 23.3227 19.1871 23.4774C18.7335 23.6008 17.875 23.6373 17.3415 23.5626C16.483 23.4392 15.3568 23.0985 14.0135 22.5546C12.8613 22.0906 12.0514 21.7812 11.5596 21.6213C10.3918 21.2373 9.47939 21.1521 8.99452 21.3711C8.76512 21.4719 8.74948 21.4945 8.83984 21.5362C10.3066 22.1653 11.9054 22.9491 12.8508 23.493C13.2141 23.7016 14.2481 24.2873 14.7173 24.5549C14.8563 24.6296 15.0909 24.7634 15.2352 24.8538C15.581 25.0571 16.841 25.7558 17.0756 25.8722L17.2511 25.9678L17.1555 25.8027C16.9574 25.4673 17.2407 25.2535 18.452 24.859C19.4165 24.5445 19.7901 24.4906 21.1874 24.4958C22.1953 24.4958 22.5307 24.5114 22.894 24.5914C24.1105 24.8521 25.3582 25.3752 25.5876 25.7228C25.678 25.867 25.6937 26.1816 25.6137 26.3362C25.539 26.4753 25.5929 26.4648 25.9335 26.2667H25.9352Z" fill="#2C2C2C"/>
<path d="M30.5215 18.0119C30.5215 17.9962 30.4259 17.6869 30.3025 17.3185C29.6786 15.4085 29.6786 15.4085 29.7377 14.9775C29.8385 14.2424 29.6195 13.4847 29.1885 13.052C28.9226 12.7861 28.6446 12.6888 28.4691 12.8069C28.1962 12.9825 28.3248 13.6342 28.8271 14.6369C29.093 15.1809 29.1798 15.3043 29.3276 15.372C29.4979 15.452 29.5135 15.4954 29.8281 16.4756C30.0523 17.1638 30.2174 17.5844 30.3407 17.7668C30.4415 17.9163 30.5215 18.0275 30.5215 18.0119Z" fill="#2C2C2C"/>
<path d="M37.364 35.1523C38.5962 34.9282 39.7692 34.2348 40.5113 33.2911C40.6173 33.1573 40.5426 33.2112 40.3132 33.4354C38.7022 35.0307 36.2865 35.413 34.2706 34.3894C33.353 33.9306 32.5154 33.0722 32.0409 32.1181C31.6464 31.3187 31.5283 30.886 31.497 30.0483C31.4535 29.136 31.5283 28.7206 31.881 27.7439L31.9175 27.6379L31.8376 27.7439C31.742 27.8778 31.5074 28.4686 31.4275 28.7832C31.3962 28.917 31.3527 29.3271 31.3319 29.6903C31.2676 30.8147 31.4379 31.6211 31.9349 32.5439C32.1904 33.0183 32.3242 33.206 32.7569 33.6578C33.9352 34.8847 35.6904 35.4547 37.364 35.1506V35.1523Z" fill="#444444"/>
<path d="M12.6198 35.1526C13.7129 34.9544 14.9294 34.2506 15.6489 33.3973C15.7723 33.2478 15.7132 33.2913 15.4577 33.5259C14.2308 34.6573 12.599 35.163 11.0523 34.8919C9.25011 34.5773 7.84766 33.4842 7.12124 31.8366C6.75803 31.0198 6.60858 29.9545 6.73196 29.1012C6.79626 28.658 7.06737 27.7404 7.16991 27.6396C7.19597 27.6135 7.21856 27.5649 7.21856 27.5388C7.21856 27.4328 7.05346 27.7248 6.89358 28.1088C6.44 29.1968 6.40351 30.7053 6.80843 31.7723C7.08127 32.4918 7.48619 33.1592 7.91196 33.585C8.50457 34.1776 8.83476 34.4226 9.40478 34.6938C10.4875 35.2064 11.5215 35.349 12.6198 35.1526Z" fill="#444444"/>
<path d="M40.1158 31.7063C40.4043 31.1937 40.559 30.6341 40.5902 29.9789C40.6215 29.249 40.5207 28.7259 40.227 28.1177C39.6831 26.9933 38.7812 26.2513 37.5925 25.9576C37.1823 25.8568 37.0172 25.8394 36.4733 25.8672C36.0354 25.8828 35.7208 25.9263 35.4966 26.001L35.1612 26.107L35.0118 25.8342C34.6381 25.1616 34.4626 24.8366 34.4678 24.8106C34.4678 24.7949 34.3444 24.5499 34.195 24.2614C34.0403 23.9782 33.7849 23.4724 33.6198 23.1475C33.4547 22.8173 33.3052 22.5444 33.2896 22.5444C33.2687 22.5444 33.0115 22.7043 32.7196 22.8972L32.1808 23.2552L32.4207 23.6984C32.5545 23.9434 32.6501 24.1676 32.6292 24.1989C32.6136 24.2249 32.6292 24.2354 32.6726 24.2249C32.7213 24.2041 32.7839 24.2944 32.8638 24.4908C32.9333 24.6507 33.0133 24.7845 33.0445 24.7845C33.0758 24.7845 33.081 24.8002 33.0654 24.821C33.0445 24.8366 33.1141 25.0122 33.2201 25.2051C33.3261 25.3962 33.5555 25.8342 33.7275 26.1696L34.0369 26.783L33.8387 26.9864C33.7327 27.0976 33.6841 27.1723 33.7327 27.1567C33.7866 27.1358 33.8283 27.0976 33.8283 27.0767C33.8283 27.0507 33.877 27.0124 33.9343 26.9968C33.9934 26.9759 34.0247 26.9377 34.009 26.9064C33.9882 26.8751 34.0038 26.8578 34.0403 26.8751C34.0768 26.8856 34.2106 27.0837 34.334 27.3079C34.4574 27.532 34.5738 27.7024 34.5999 27.6763C34.6208 27.6554 34.626 27.6659 34.6051 27.7024C34.5738 27.7614 34.8032 28.2897 34.8884 28.3575C34.9092 28.3732 35.0587 28.6669 35.229 29.0127C35.4271 29.4176 35.5592 29.6261 35.5974 29.6053C35.6339 29.5844 35.6409 29.5896 35.6183 29.6261C35.5644 29.7165 35.8425 30.2014 36.051 30.3891C36.3343 30.6341 36.7653 30.5924 36.9199 30.3039C37.059 30.0432 37.0155 29.786 36.734 29.2108C36.5793 28.891 36.4403 28.6773 36.3881 28.6721C36.3343 28.6721 36.3291 28.6616 36.3777 28.6408C36.4264 28.6199 36.4212 28.5765 36.3517 28.4601C36.2978 28.3749 36.2335 28.3054 36.2074 28.3054C36.1813 28.3054 36.1709 28.2897 36.1866 28.2741C36.2074 28.2585 36.0475 27.9057 35.8407 27.4955C35.3454 26.531 35.3124 26.472 35.2759 26.4389C35.2064 26.3799 35.2221 26.2843 35.3124 26.2582C35.6061 26.1678 36.2092 26.0879 36.5758 26.0983C38.0321 26.1296 39.3911 27.0211 40.0202 28.3488C40.5207 29.4106 40.5277 30.7592 40.0411 31.7237C39.8656 32.0695 39.9125 32.0591 40.1158 31.7081V31.7063Z" fill="#444444"/>
<path d="M15.3282 31.734C15.3925 31.6227 15.4568 31.5098 15.4672 31.4785C15.4724 31.4524 15.5472 31.2439 15.6219 31.0249C15.8026 30.5175 15.8617 29.9058 15.7279 29.9058C15.6636 29.9058 15.6427 29.9596 15.6427 30.1299C15.6427 30.4393 15.5419 31.0093 15.4394 31.2926C15.3908 31.4264 15.3491 31.5428 15.3491 31.5584C15.3438 31.5741 15.3004 31.6645 15.2535 31.7618C15.1249 31.9964 15.1788 31.9807 15.3282 31.7357V31.734Z" fill="#444444"/>
<path d="M16.8535 30.0901C16.8535 29.9146 16.8431 29.8503 16.8327 29.9459C16.8222 30.0414 16.8222 30.1857 16.8327 30.2656C16.8431 30.3456 16.8535 30.2656 16.8535 30.0901Z" fill="#444444"/>
<path d="M15.4943 28.533C15.6281 28.5017 15.6177 28.4374 15.4143 28.0377C14.9242 27.0679 14.0657 26.3258 13.0578 26.0113C12.4704 25.8253 11.5441 25.8027 10.9255 25.9574C10.6596 26.0217 10.2911 26.1555 10.0982 26.2511C9.69854 26.4544 9.07465 26.9341 8.88175 27.1948L8.74272 27.3703L8.9026 27.2313C8.98776 27.1513 9.12679 27.028 9.21194 26.948C9.2971 26.8733 9.39789 26.809 9.43612 26.809C9.47957 26.809 9.51085 26.7881 9.51085 26.7603C9.51085 26.7012 10.1139 26.3814 10.2251 26.3814C10.2738 26.3814 10.3103 26.3606 10.3103 26.338C10.3103 26.2685 11.0992 26.1034 11.5042 26.0877C11.7127 26.0825 12.0377 26.0982 12.2288 26.1242C12.5973 26.1781 13.2959 26.3971 13.4923 26.5187C13.5618 26.5622 13.6313 26.5935 13.6469 26.5883C13.6678 26.5883 13.7008 26.6039 13.7164 26.6317C13.7321 26.6578 13.8555 26.7551 13.9893 26.8455C14.3994 27.1235 14.9329 27.7353 15.1519 28.1733C15.2579 28.3922 15.3604 28.5625 15.3761 28.5625C15.3917 28.5573 15.4456 28.5469 15.4943 28.5313V28.533Z" fill="#444444"/>
<path d="M32.0418 27.4502C32.0905 27.365 32.1113 27.2903 32.1009 27.2903C32.0853 27.2903 32.0366 27.365 31.9897 27.4502C31.9411 27.5406 31.9203 27.6102 31.9307 27.6102C31.9463 27.6102 31.9949 27.5406 32.0418 27.4502Z" fill="#444444"/>
<path d="M33.555 27.3774L33.6836 27.2124L33.5341 27.3566C33.449 27.4364 33.3899 27.5111 33.4055 27.5215C33.416 27.5372 33.4855 27.4677 33.555 27.3774Z" fill="#444444"/>
<path d="M27.7004 16.6839C27.796 16.6352 27.9089 16.5396 27.9454 16.4649C28.0845 16.199 27.9993 15.6377 27.796 15.4674C27.5509 15.264 26.9323 15.2536 26.7341 15.4517C26.6542 15.5317 26.543 15.5525 26.1902 15.5629C25.7105 15.5734 25.5611 15.6325 25.4655 15.8566C25.3473 16.1121 25.4168 16.5066 25.615 16.6613C25.7158 16.7464 26.0199 16.7412 26.5047 16.6561C26.7237 16.6196 26.9201 16.6074 26.9688 16.6352C27.1669 16.7464 27.5179 16.769 27.6987 16.6839H27.7004Z" fill="#444444"/>
<path d="M37.3753 34.9178C38.6335 34.7266 39.8813 34.028 40.613 33.1052C41.0127 32.5978 41.355 31.9113 41.461 31.3726C41.4923 31.2284 41.5305 31.0372 41.5514 30.9468C41.6001 30.7383 41.6001 29.5757 41.5514 29.2663C41.461 28.632 41.3967 28.4183 41.1135 27.8257C40.8093 27.1757 40.1211 26.3277 39.6415 25.9957C39.5077 25.9054 39.3756 25.8098 39.3478 25.7872C38.7778 25.3284 37.6517 24.96 36.6541 24.9079C36.2058 24.887 35.9868 24.9026 35.561 24.993C35.2673 25.0573 34.9684 25.1216 34.8937 25.1373C34.8189 25.1529 34.7442 25.1807 34.7234 25.2016C34.6747 25.2502 35.1335 26.0983 35.1978 26.0809C35.2239 26.0757 35.4376 26.0218 35.667 25.9627C36.5099 25.7385 37.6134 25.8515 38.4024 26.2408C39.4469 26.7587 40.2741 27.8135 40.5191 28.9657C40.6529 29.5739 40.6095 30.422 40.4183 30.9972C40.2532 31.4821 39.8952 32.1216 39.5546 32.5439C39.426 32.6986 39.3408 32.8428 39.3634 32.8637C39.3843 32.8897 39.3739 32.8949 39.3478 32.8741C39.3165 32.8584 39.1879 32.9384 39.0645 33.0496C38.9411 33.1678 38.7343 33.3224 38.6005 33.3954C38.4667 33.4754 38.3711 33.5553 38.3815 33.5762C38.3972 33.597 38.3659 33.6127 38.3172 33.6196C38.2686 33.6248 38.0079 33.7048 37.7472 33.8004C37.3319 33.9498 37.1772 33.9759 36.6228 33.9985C35.8808 34.0245 35.3368 33.9185 34.7355 33.6248C34.5444 33.5293 34.3619 33.4545 34.3254 33.4493C34.2941 33.4493 34.2455 33.4285 34.2194 33.4007C34.1933 33.3746 34.209 33.3694 34.2559 33.3902C34.2993 33.4111 34.2767 33.385 34.202 33.3364C34.1273 33.2825 33.877 33.0479 33.6424 32.8133C33.2375 32.4083 33.1245 32.2485 32.9229 31.8314C32.8743 31.7358 32.8222 31.6767 32.7996 31.6976C32.7787 31.7184 32.7683 31.6871 32.7735 31.6281C32.7787 31.5742 32.7248 31.3448 32.6553 31.1276C32.4694 30.5628 32.4642 29.5809 32.6449 29.0057C32.81 28.4722 33.0133 28.0516 33.2253 27.784C33.3209 27.6606 33.4009 27.5389 33.4009 27.5111C33.4009 27.4799 33.4912 27.3773 33.599 27.2817C33.7102 27.1914 33.7641 27.1323 33.7224 27.1584C33.6528 27.1948 33.6528 27.1844 33.7171 27.1097C33.7536 27.061 33.8127 27.035 33.851 27.0558C33.8822 27.0715 33.8944 27.0715 33.8718 27.0454C33.8075 26.9759 33.9309 26.8647 34.0317 26.8959C34.0856 26.9116 34.1012 26.9012 34.0682 26.8751C34.0369 26.8542 34.0143 26.8108 34.0143 26.7795C34.0143 26.7534 33.9083 26.5188 33.7797 26.2668L33.5451 25.8028L33.2948 25.9836C32.9647 26.2182 32.127 27.108 32.1009 27.2522C32.0645 27.4381 32.0001 27.5511 31.9463 27.5181C31.9098 27.4972 31.8976 27.4972 31.915 27.5181C31.9358 27.5389 31.8715 27.7788 31.776 28.0464C31.5309 28.7294 31.4614 29.2246 31.4979 30.0414C31.5292 30.8791 31.6474 31.31 32.0419 32.1112C32.7665 33.5779 34.1481 34.5963 35.7852 34.8848C36.2648 34.9699 36.927 34.9803 37.3736 34.9108L37.3753 34.9178Z" fill="#4F5150"/>
<path d="M12.7791 34.8846C13.5629 34.7456 14.6351 34.2555 15.0939 33.8401C15.1582 33.781 15.233 33.7498 15.2695 33.7706C15.3007 33.7863 15.3181 33.781 15.3129 33.755C15.3025 33.7289 15.4311 33.5638 15.591 33.3918C16.2201 32.7244 16.6945 31.7008 16.7901 30.811C16.8266 30.486 16.8387 29.664 16.8109 29.6692C16.8005 29.6692 16.5711 29.7179 16.3035 29.77L15.8134 29.8656L15.7925 30.2445C15.7769 30.4582 15.7022 30.7989 15.6222 31.023C15.5475 31.242 15.4728 31.461 15.4624 31.5027C15.4519 31.5461 15.4137 31.5774 15.3772 31.567C15.3459 31.5618 15.3285 31.5722 15.3459 31.5983C15.3616 31.6243 15.3025 31.7582 15.2173 31.8972C15.1269 32.0362 15.0574 32.1579 15.0574 32.1805C15.0574 32.2291 14.6039 32.7453 14.3692 32.9695C14.258 33.0807 14.0286 33.2579 13.8566 33.3692C13.6915 33.4804 13.5733 33.5829 13.6011 33.5934C13.622 33.609 13.6115 33.609 13.575 33.5986C13.5386 33.5934 13.4152 33.6299 13.3092 33.6837C12.7287 33.9774 11.4966 34.1043 10.8449 33.934C10.685 33.8905 10.5355 33.8697 10.5147 33.8801C10.4886 33.8957 10.4712 33.8853 10.4712 33.8645C10.4712 33.8158 10.0455 33.6733 9.98638 33.6994C9.97074 33.7098 9.91687 33.6785 9.87516 33.6299C9.8265 33.5812 9.66662 33.47 9.51716 33.3692C9.36771 33.2736 9.17133 33.1293 9.07923 33.0442C8.98886 32.959 8.88806 32.9052 8.84983 32.926C8.81855 32.9417 8.80639 32.9417 8.82898 32.9156C8.84983 32.8947 8.75425 32.7296 8.61522 32.5472C8.15642 31.9719 7.94788 31.5183 7.80538 30.8249C7.70979 30.3609 7.73065 29.5615 7.85925 29.0749C7.97047 28.6422 8.25375 28.0304 8.44665 27.7836C8.50574 27.7089 8.53702 27.629 8.52138 27.6029C8.50573 27.5768 8.52659 27.5542 8.57003 27.5542C8.61348 27.5542 8.68821 27.5056 8.74035 27.4482C8.79422 27.3891 8.82029 27.3422 8.79943 27.3422C8.77858 27.3422 8.83593 27.2466 8.92803 27.1285C9.07749 26.9373 9.25822 26.8191 9.16264 26.979C9.14179 27.0155 9.147 27.0225 9.18871 26.9999C9.21999 26.979 9.23737 26.9408 9.22 26.9147C9.17655 26.8452 9.71006 26.4455 10.0993 26.2474C10.2905 26.1518 10.6589 26.018 10.9266 25.9537C11.5765 25.7886 12.4785 25.8198 13.1128 26.0284C14.1364 26.3586 15.0974 27.2275 15.4971 28.1938C15.5614 28.3432 15.6361 28.4545 15.6674 28.444C15.6987 28.4336 15.902 28.3641 16.1106 28.2946C16.3243 28.2303 16.4999 28.1503 16.4999 28.1295C16.4999 28.1034 16.4251 27.9487 16.3295 27.7767C15.7856 26.8 15.3372 26.2995 14.5482 25.7816C13.9244 25.3767 13.3596 25.1421 12.6505 24.9926C10.9926 24.652 9.20609 25.2272 7.95309 26.5133C7.7237 26.7479 7.47345 27.0468 7.39351 27.1806C7.31878 27.3144 7.23363 27.4309 7.21278 27.4361C7.18671 27.4465 7.18671 27.4795 7.20235 27.5056C7.21799 27.5369 7.20756 27.5855 7.17628 27.6238C7.15021 27.6603 7.05289 27.907 6.96252 28.1677C6.23783 30.3487 7.04768 32.7279 8.95758 34.0556C10.0246 34.7977 11.4966 35.1175 12.7861 34.8829L12.7791 34.8846Z" fill="#4F5150"/>
<path d="M23.6532 29.6001C23.7018 29.5463 23.7644 29.4194 23.7974 29.3064C23.8616 29.1031 24.1761 27.5407 24.1553 27.5198C24.15 27.5146 24.0545 27.5355 23.9416 27.5685C23.7018 27.6432 23.6688 27.7075 23.5958 28.3419C23.5646 28.6078 23.5107 28.9554 23.4846 29.11C23.3839 29.6488 23.4482 29.8348 23.6549 29.6001H23.6532Z" fill="#727272"/>
<path d="M24.8264 29.5846C24.9498 29.5099 25.0558 29.1414 25.1896 28.3577C25.2539 27.9892 25.3234 27.5947 25.3495 27.4783C25.4676 26.983 25.3547 26.7797 25.1044 27.0352C24.9863 27.1464 24.9498 27.301 24.7899 28.2986C24.6891 28.9225 24.6039 29.4768 24.6039 29.5359C24.6039 29.6471 24.6839 29.6645 24.8281 29.5846H24.8264Z" fill="#727272"/>
<path d="M25.7697 29.3907C25.9035 29.2204 25.8879 29.2847 26.1225 28.0248C26.2337 27.4443 26.3084 26.9369 26.2875 26.8882C26.2389 26.7648 26.053 26.7926 25.9574 26.9421C25.8775 27.0655 25.5143 29.0431 25.5091 29.3837C25.5091 29.5697 25.6273 29.5697 25.7697 29.389V29.3907Z" fill="#727272"/>
<path d="M30.0422 21.2809C30.1534 21.1367 30.1534 20.9455 30.037 20.8013C29.9032 20.6414 29.1142 20.3373 28.2817 20.1235C28.207 20.1027 28.0159 20.0488 27.856 20.0053C27.6961 19.9619 27.2633 19.8611 26.8967 19.7864C26.1494 19.6369 25.4681 19.6317 25.1362 19.7812C25.0354 19.8298 24.8703 19.8924 24.773 19.9306C24.5279 20.0262 24.5227 20.0592 24.7521 20.2087C24.9276 20.3321 24.9659 20.3373 25.0667 20.2678C25.2318 20.1565 25.8557 20.1235 26.3683 20.193C26.768 20.2521 27.5414 20.4485 27.8299 20.5719C27.889 20.5927 28.0697 20.6675 28.2296 20.7318C28.3895 20.7961 28.678 20.9403 28.8692 21.0463C29.6269 21.4843 29.8458 21.5312 30.0422 21.2809Z" fill="#808080"/>
<path d="M24.8747 30.9919C24.8747 30.9328 24.8903 30.8216 24.906 30.7313C24.9216 30.6461 24.9372 30.4532 24.9424 30.3055C24.9424 30.1613 24.9737 30.0223 25.0067 30.0014C25.038 29.9805 25.1979 29.9475 25.3526 29.9267C25.6619 29.8902 25.9556 29.7772 26.0947 29.6382C26.2337 29.4992 26.4353 28.9448 26.4996 28.5451C26.5152 28.427 26.543 28.3158 26.5587 28.2949C26.5847 28.241 26.6021 28.1837 26.7342 27.532C26.7985 27.2383 26.8576 26.962 26.868 26.9186C26.9688 26.4859 27.0018 26.3051 27.0279 25.9906C27.0713 25.5961 27.0765 25.6013 26.7881 25.7995C26.7133 25.8533 26.5482 25.9489 26.4144 26.0236C26.2806 26.0983 26.0303 26.2374 25.8548 26.3329C25.6793 26.4337 25.4065 26.6266 25.2518 26.7657C25.0971 26.9047 24.7982 27.1236 24.5792 27.2453L24.19 27.4642L23.9988 28.4287C23.8128 29.388 23.7103 29.6452 23.5139 29.6816C23.4496 29.6973 23.4288 29.6608 23.4288 29.5426C23.4288 29.414 23.5834 28.3001 23.6634 27.8205L23.6894 27.6867L23.3054 27.8205C23.0117 27.9213 22.8101 27.9543 22.4521 27.9543L21.9829 27.9595L22.0194 28.3696C22.035 28.5938 22.0402 28.7954 22.0194 28.8284C21.9985 28.8597 21.9012 28.8597 21.7413 28.8284C21.2773 28.7276 20.9523 28.9344 20.8341 29.3984C20.7751 29.6486 20.6586 29.7876 20.4761 29.8311C20.3319 29.8624 20.2902 29.8415 20.1564 29.6921C20.0069 29.5218 20.0017 29.5009 20.033 29.1638C20.0764 28.6998 20.1129 28.4652 20.139 28.4165C20.1546 28.3957 20.1824 28.2567 20.2033 28.1124C20.2189 27.9682 20.2572 27.7979 20.2832 27.7284C20.3788 27.4729 20.3475 27.4138 20.0486 27.3131C19.6593 27.1845 18.6079 26.7326 18.2187 26.5241C17.9041 26.359 17.878 26.3538 17.7008 26.4233C17.5722 26.4772 17.487 26.5623 17.4227 26.7066L17.3271 26.9203L17.5305 27.4104C17.6417 27.6832 17.7859 28.029 17.8554 28.1785C17.925 28.3279 18.0414 28.599 18.1109 28.7919C18.1804 28.9778 18.3403 29.4001 18.4637 29.7199C18.5819 30.0448 18.6931 30.3333 18.7035 30.3698C18.7192 30.4237 18.8095 30.4445 19.3431 30.5193C19.4612 30.5349 19.6889 30.5731 19.8505 30.5992C20.0104 30.6253 20.4796 30.6896 20.8898 30.733C21.2999 30.7817 21.717 30.8286 21.8178 30.839C22.0837 30.8824 23.6408 31.0145 24.2873 31.058C24.826 31.0892 24.8625 31.084 24.8677 30.9937L24.8747 30.9919ZM24.6018 29.494C24.6018 29.4088 24.687 28.8545 24.7826 28.2619C24.9424 27.2922 24.9737 27.1584 25.0971 27.0402C25.2622 26.8751 25.4012 26.9064 25.4012 27.1097C25.4012 27.2383 25.2518 28.1072 25.0763 29.0074C25.0015 29.381 24.8521 29.6365 24.7078 29.6365C24.6279 29.6365 24.6018 29.6 24.6018 29.4922V29.494ZM25.509 29.3602C25.509 29.2646 25.5889 28.6981 25.6897 28.102C25.8757 26.9881 25.94 26.8108 26.159 26.8108C26.2128 26.8108 26.2702 26.8473 26.2928 26.9012C26.3241 26.9811 25.9678 29.0022 25.8774 29.242C25.7662 29.5461 25.509 29.626 25.509 29.3602Z" fill="#8C8D8F"/>
<path d="M6.63114 26.0216C6.81188 25.7435 7.5383 25.0345 7.81462 24.859C7.93801 24.779 8.05445 24.6991 8.07009 24.6834C8.09615 24.6522 8.58797 24.4054 8.97726 24.2351C9.16321 24.1499 9.8149 23.9414 10.0165 23.8997C10.0756 23.8892 10.1816 23.8684 10.2563 23.851C10.517 23.7919 11.8882 23.7172 12.1489 23.745C12.2931 23.7554 12.6077 23.7815 12.8423 23.7989C13.0769 23.8145 13.3167 23.8423 13.3758 23.8579C13.5252 23.9014 12.7571 23.453 11.9247 23.0203L11.2208 22.6519H10.6977C10.1694 22.6519 9.43953 22.7318 8.97552 22.8378C8.90079 22.8587 8.77218 22.8865 8.68703 22.8969C8.34641 22.9612 7.8824 23.1576 7.86502 23.2497C7.8546 23.3036 7.8963 23.42 7.9606 23.5052L8.07878 23.6703L7.84937 23.9205C7.51397 24.2889 7.51918 24.2785 7.37494 24.4645C7.30021 24.5548 7.18899 24.6991 7.12469 24.7738C7.05518 24.8537 7.0013 24.9337 7.0013 24.9493C7.0013 24.965 6.94221 25.0449 6.8727 25.1249C6.71282 25.3108 6.42955 25.8443 6.41391 25.9834C6.38262 26.2823 6.44518 26.2979 6.62766 26.0199L6.63114 26.0216Z" fill="#8C8D8F"/>
<path d="M32.6168 22.9512C33.1069 22.621 33.5448 22.3168 33.5866 22.2734C33.6561 22.2039 33.6456 22.1674 33.4962 21.9588C33.4006 21.825 33.2929 21.686 33.2564 21.6495C33.2199 21.613 33.1504 21.5105 33.0965 21.4253C33.0478 21.3349 32.9905 21.2654 32.9679 21.2654C32.947 21.2654 32.9036 21.1959 32.8671 21.1056C32.8306 21.0204 32.7976 20.9457 32.7872 20.9457C32.6968 20.9457 32.4413 21.0795 32.4413 21.1212C32.4413 21.1959 32.2502 20.9717 32.1685 20.8119C32.1424 20.7528 32.0729 20.6363 32.0138 20.546C31.9547 20.4608 31.8644 20.3009 31.8053 20.1932C31.7462 20.0924 31.661 19.9742 31.6193 19.9377C31.5707 19.8943 31.5342 19.8473 31.5342 19.8265C31.5342 19.7778 31.1136 19.0688 31.0597 19.0271C31.0441 19.0114 30.9798 18.9089 30.9207 18.8029C30.8616 18.6917 30.7973 18.5996 30.7817 18.5996C30.7608 18.5996 30.7122 18.5144 30.6757 18.4014C30.6444 18.2954 30.4567 17.9809 30.2655 17.7028C29.8068 17.025 29.8502 17.0789 29.4383 16.674C29.0925 16.3282 28.5416 16.0014 28.1593 15.9111C28.0203 15.8798 28.015 15.885 28.015 16.1196C28.015 16.2586 27.9942 16.4133 27.9612 16.4655C27.9177 16.5506 27.9351 16.5715 28.1106 16.6305C28.778 16.8443 29.3097 17.3396 29.7581 18.1442C29.9336 18.4588 30.2012 19.0288 30.2012 19.0827C30.2012 19.1087 30.2221 19.1313 30.2551 19.1313C30.2812 19.1313 30.309 19.1678 30.309 19.2113C30.309 19.2547 30.3681 19.4024 30.4376 19.5415C30.5818 19.8247 31.0076 20.725 31.2648 21.2793C31.3604 21.4775 31.4195 21.6634 31.4038 21.6895C31.3882 21.7155 31.2648 21.8007 31.131 21.8806C31.0024 21.9554 30.8964 22.0353 30.8964 22.0562C30.8964 22.0874 31.4195 23.0328 31.6541 23.4273C31.7236 23.5386 31.7497 23.5281 32.6186 22.9477L32.6168 22.9512Z" fill="#8C8D8F"/>
<path d="M36.8091 31.0183C37.3096 30.815 37.5876 30.2763 37.4382 29.7862C37.3582 29.5134 37.108 29.2318 36.8682 29.1362L36.677 29.0615L36.8525 29.4143C36.9481 29.6124 37.0228 29.8522 37.028 29.9478C37.0333 30.4865 36.4893 30.7576 36.0583 30.4274C35.9628 30.3527 35.8081 30.1546 35.7229 29.9895C35.5631 29.6854 35.4883 29.6211 35.4779 29.7862C35.4779 29.8348 35.4675 29.9513 35.4623 30.0364C35.4188 30.5752 35.9158 31.0809 36.4806 31.0704C36.5919 31.0704 36.7413 31.0444 36.8108 31.0166L36.8091 31.0183Z" fill="#B7B7B7"/>
<path d="M12.0374 30.9971C12.1556 30.9536 12.3207 30.8476 12.4111 30.7625C12.571 30.6026 12.571 30.5974 12.4424 30.6287C12.1018 30.7034 11.7385 30.7138 11.5891 30.6495C11.391 30.5696 11.2589 30.3663 11.2797 30.1856C11.3006 30.0048 11.6482 29.7911 12.1817 29.6364L12.5605 29.5183L12.4007 29.3532C12.2304 29.1777 11.9158 29.0491 11.6586 29.0491C11.4448 29.0491 10.986 29.2785 10.8852 29.4331C10.6072 29.8536 10.6298 30.3715 10.9391 30.7121C11.2589 31.0649 11.5943 31.1552 12.0374 30.9953V30.9971Z" fill="#B7B7B7"/>
<path d="M11.9723 23.7344C11.8768 23.724 11.7325 23.724 11.6526 23.7344C11.5726 23.7448 11.6525 23.7552 11.8281 23.7552C12.0036 23.7552 12.0679 23.7448 11.9723 23.7344Z" fill="#B7B7B7"/>
<path d="M26.508 15.5215C26.4593 15.5111 26.3742 15.5111 26.3221 15.5215C26.2734 15.5372 26.3169 15.5476 26.4176 15.5476C26.5184 15.5476 26.5618 15.5372 26.508 15.5215Z" fill="#B7B7B7"/>
<path d="M37.0008 33.9798C37.0599 33.9642 37.2737 33.9155 37.4805 33.8686C38.3772 33.6653 39.2462 33.0362 39.7519 32.2263C39.9709 31.8735 40.2159 31.2879 40.3115 30.8934C40.4401 30.3494 40.3914 29.3728 40.2107 28.8671C39.9969 28.2588 39.7675 27.8539 39.4165 27.4698C39.0011 27.0215 38.916 26.9467 38.4467 26.6652C37.663 26.1908 36.5803 26.01 35.7009 26.196C35.4819 26.2394 35.296 26.2864 35.2855 26.2968C35.2751 26.3072 35.2855 26.3611 35.3012 26.415C35.3273 26.4845 35.3759 26.4949 35.5045 26.4688C35.5949 26.4532 35.7443 26.4202 35.8347 26.4045L35.9998 26.3785L36.0902 27.263C36.1858 28.1372 36.191 28.1528 36.436 28.6116C36.6341 28.9852 36.7141 29.086 36.841 29.1243C37.2945 29.2685 37.5882 29.8333 37.4596 30.3234C37.225 31.1871 36.052 31.3522 35.5827 30.5788C35.4437 30.3494 35.402 30.0836 35.4715 29.8316C35.5202 29.6456 35.508 29.5865 35.4072 29.3832L35.289 29.1486L35.2039 29.272C35.0979 29.4423 35.0005 29.736 35.0005 29.8907C35.0005 30.0019 34.9797 30.0193 34.8511 29.9915C34.7711 29.9758 34.2758 29.8907 33.7475 29.7933C33.2192 29.703 32.783 29.623 32.7778 29.6178C32.7343 29.5865 32.9968 28.6846 33.1132 28.45C33.2887 28.1094 33.5511 27.7201 33.6085 27.7201C33.6346 27.7201 33.9613 27.9651 34.3384 28.2588C34.7173 28.5577 35.0579 28.8288 35.1013 28.8618C35.1448 28.8931 35.0648 28.7176 34.9258 28.4674C34.7868 28.2171 34.5522 27.7687 34.3975 27.4698C34.248 27.1657 34.0986 26.9207 34.0725 26.9207C33.9821 26.9207 33.2679 27.7097 33.0854 28.0086C32.6596 28.7124 32.4406 29.736 32.5414 30.5145C32.7604 32.1412 33.8744 33.448 35.4002 33.8634C35.7582 33.9642 36.7714 34.0389 37.0008 33.9816V33.9798ZM36.6759 32.7425C36.6063 32.1933 36.5525 31.7084 36.5472 31.6598C36.5472 31.5955 36.6272 31.5538 36.7975 31.5103C36.9417 31.4738 37.1555 31.3817 37.2824 31.307C37.411 31.2375 37.5222 31.1836 37.5274 31.1958C37.6664 31.4043 38.2851 32.3202 38.4763 32.593C38.6153 32.7963 38.7161 32.9823 38.7005 33.0084C38.6362 33.1092 38.1131 33.4081 37.762 33.5471C37.4423 33.6757 36.8722 33.8026 36.8184 33.7609C36.8027 33.7504 36.7384 33.2968 36.6741 32.7425H36.6759ZM35.1187 33.5262C34.905 33.4411 34.5904 33.276 34.4149 33.1578L34.0951 32.9388L34.4844 32.4488C34.6981 32.1759 34.9918 31.8092 35.1344 31.6216C35.2734 31.4356 35.4176 31.2688 35.4489 31.2583C35.4802 31.2479 35.6244 31.2948 35.7687 31.3696C35.9129 31.4443 36.0728 31.5034 36.1267 31.5034C36.1806 31.5034 36.2327 31.5242 36.2501 31.552C36.2657 31.5729 36.224 31.8927 36.1545 32.2559C36.085 32.6191 35.9998 33.1039 35.9633 33.3333L35.8938 33.7539L35.7026 33.7174C35.5966 33.6966 35.3342 33.6114 35.1222 33.5262H35.1187ZM38.5736 31.6911C38.1791 31.3765 37.8107 31.088 37.7568 31.0515C37.6717 30.9925 37.6717 30.9716 37.8003 30.6988C37.875 30.5389 37.9341 30.3686 37.9341 30.3147C37.9341 30.2452 37.9601 30.2243 38.0244 30.2452C38.0783 30.2608 38.5632 30.3564 39.1019 30.4589C39.6407 30.5649 40.0943 30.6623 40.1099 30.6779C40.1464 30.7144 39.9813 31.307 39.8492 31.6111C39.6893 31.9743 39.4113 32.3584 39.3487 32.3097C39.3226 32.2837 38.9698 32.0056 38.5753 31.6911H38.5736ZM33.1028 31.6372C33.0072 31.4339 32.8942 31.1037 32.8525 30.9073L32.7726 30.5493L32.9429 30.518C33.141 30.4867 34.8632 30.2782 34.9432 30.2782C34.9745 30.2782 35.0023 30.3216 35.0023 30.3738C35.0023 30.4224 35.0666 30.5823 35.1413 30.7266C35.216 30.8708 35.2595 30.9994 35.2317 31.0203C35.2056 31.0359 34.9223 31.2288 34.6026 31.446C34.2776 31.665 33.8935 31.9309 33.7493 32.0439L33.4834 32.2472L33.3826 32.129C33.3287 32.0647 33.2018 31.8457 33.1045 31.6389L33.1028 31.6372ZM37.9341 29.8403C37.9341 29.696 37.7047 29.1903 37.6195 29.1364C37.5882 29.1156 37.5604 29.0773 37.5604 29.0565C37.5604 29.0356 37.8055 28.8532 38.1044 28.6516C38.4085 28.4482 38.8134 28.1667 39.0168 28.0225L39.3748 27.7618L39.4808 27.8852C39.6789 28.1198 39.9604 28.7541 40.0786 29.2285C40.1429 29.484 40.1794 29.703 40.169 29.7186C40.1533 29.729 39.8336 29.7777 39.4547 29.8194C38.5319 29.9306 38.4259 29.9428 38.1583 29.948C37.9601 29.9584 37.9341 29.948 37.9341 29.842V29.8403ZM37.0547 28.7037C36.8792 28.6342 36.6811 28.5699 36.622 28.5699H36.5108L36.6289 27.9721C36.6984 27.6419 36.7836 27.1779 36.8149 26.938C36.9053 26.3298 36.8948 26.3402 37.3276 26.4532C37.7603 26.5644 38.266 26.7834 38.5215 26.9659C38.6223 27.0406 38.7196 27.1049 38.73 27.1101C38.7352 27.1205 38.5111 27.4194 38.2226 27.7826C37.9289 28.1459 37.6299 28.5299 37.5448 28.6411C37.4648 28.7471 37.3953 28.8393 37.3849 28.8393C37.3797 28.8393 37.2302 28.7802 37.0547 28.7054V28.7037Z" fill="#E85222"/>
<path d="M12.4702 33.9364C13.3548 33.7227 13.8726 33.4464 14.4757 32.8433C15.11 32.209 15.5375 31.2705 15.6227 30.2886L15.6592 29.8889L15.5306 29.9202C15.4611 29.9358 15.0561 30.0262 14.6286 30.1183C14.2028 30.2139 13.8396 30.3043 13.8118 30.3269C13.791 30.3477 14.1316 30.4329 14.5695 30.5128L15.3637 30.6571L15.2942 30.9612C15.1708 31.4739 14.7555 32.3046 14.6165 32.3046C14.5852 32.3046 14.2863 32.0804 13.9439 31.8093C13.5981 31.5364 13.2192 31.2393 13.0958 31.1419L12.8716 30.9664L13.0054 30.7422C13.075 30.6188 13.134 30.5024 13.134 30.4868C13.134 30.4711 13.0159 30.4815 12.8786 30.5128C12.7135 30.5493 12.5588 30.6362 12.4406 30.7474C12.0409 31.1315 11.556 31.1906 11.1285 30.9073C10.9895 30.8117 10.8296 30.6466 10.7757 30.5441C10.5846 30.1809 10.6854 29.5744 10.9843 29.3067C11.3631 28.9609 12.0461 28.9818 12.4128 29.3432C12.5675 29.4979 12.5883 29.5083 12.7587 29.4492C12.9828 29.3745 13.0037 29.3154 12.8647 29.1555L12.7587 29.0322L13.2435 28.7072C13.5094 28.5264 13.9265 28.2432 14.1663 28.0728L14.5991 27.7635L14.7225 27.913C14.7868 27.9929 14.9032 28.191 14.9779 28.3457C15.1274 28.6394 15.143 28.6498 15.2612 28.5751C15.3724 28.5004 14.9884 27.833 14.5626 27.369C14.0881 26.8563 13.459 26.467 12.7326 26.2446C12.4823 26.1647 12.2477 26.1438 11.6655 26.1438C10.9669 26.149 10.887 26.1594 10.449 26.3141C8.8606 26.8737 7.84047 28.2067 7.76052 29.8281C7.6858 31.1819 8.22975 32.388 9.269 33.177C9.73301 33.535 10.0736 33.7053 10.5811 33.8495C11.0886 33.999 12.0148 34.0355 12.4632 33.9347L12.4702 33.9364ZM11.9957 33.6271C11.9801 33.5315 11.9262 33.0779 11.8845 32.6243C11.8358 32.1708 11.7889 31.745 11.7785 31.6807C11.7576 31.5851 11.7889 31.5573 12.034 31.5052C12.1834 31.4687 12.4024 31.3818 12.5136 31.307C12.6318 31.2375 12.7274 31.1836 12.7378 31.1958C12.8664 31.3453 13.9369 32.9337 13.9369 32.9823C13.9369 33.0623 13.3078 33.4411 12.9776 33.5576C12.7795 33.6323 12.2043 33.7766 12.06 33.7922C12.0392 33.7974 12.0062 33.7175 11.9957 33.6271ZM10.7219 33.6636C10.5516 33.6201 10.2891 33.5194 10.1345 33.4446C9.83554 33.2952 9.3559 32.9858 9.35068 32.9441C9.35068 32.9128 9.62352 32.5496 10.2474 31.7554L10.6958 31.1958L10.8817 31.3244C10.9825 31.3939 11.1546 31.4634 11.2554 31.4843C11.3562 31.5051 11.4535 31.5538 11.4692 31.5903C11.4848 31.6268 11.4205 32.0439 11.3353 32.5027C11.245 32.9667 11.1598 33.4359 11.1372 33.5472C11.1216 33.6532 11.0886 33.7453 11.0677 33.7453C11.0468 33.7453 10.887 33.7088 10.7219 33.6653V33.6636ZM8.33228 31.6372C8.14112 31.2375 7.97428 30.624 8.03859 30.5545C8.07508 30.5232 10.0389 30.2713 10.1397 30.2938C10.1831 30.2991 10.2509 30.4277 10.3048 30.5719C10.3587 30.7214 10.416 30.876 10.4386 30.9247C10.4699 30.9942 10.3326 31.1107 9.81991 31.453C9.45669 31.6981 9.05698 31.9761 8.92316 32.0717C8.63468 32.2855 8.6451 32.2907 8.33054 31.639L8.33228 31.6372ZM9.32461 29.8559C8.01773 29.6265 8.01773 29.6265 8.01773 29.5031C8.01773 29.1451 8.3375 28.3613 8.67291 27.8921L8.83279 27.6679L9.27595 28.0259C9.51578 28.224 9.90506 28.5334 10.1397 28.7193L10.5655 29.06L10.4421 29.2407C10.3726 29.3415 10.2874 29.5605 10.2509 29.7203C10.1866 29.9984 10.1762 30.0141 10.0476 29.981C9.97284 29.9654 9.64264 29.9063 9.32288 29.8524L9.32461 29.8559ZM10.0076 27.7705C9.44279 26.9432 9.43757 27.0284 10.0823 26.726C10.4768 26.54 11.139 26.3367 11.1859 26.3906C11.2015 26.4062 11.2658 26.8389 11.3249 27.3499C11.384 27.8573 11.4431 28.3422 11.4587 28.4222C11.4796 28.5508 11.4587 28.5716 11.2293 28.6516C11.0903 28.695 10.9304 28.7697 10.8765 28.8114C10.7584 28.9018 10.8505 29.0096 10.0076 27.7722V27.7705ZM12.3537 28.735C12.2425 28.6759 12.06 28.6116 11.9488 28.5959C11.8428 28.5751 11.7507 28.5369 11.7507 28.516C11.7507 28.4951 11.782 28.297 11.8254 28.0833C11.8689 27.8643 11.9592 27.3899 12.0235 27.0319L12.1348 26.3697L12.385 26.4062C12.8386 26.4757 13.9369 26.9762 13.9369 27.1205C13.9369 27.1361 13.7075 27.4403 13.4295 27.793C13.1462 28.1458 12.8542 28.523 12.7743 28.6307C12.6944 28.7419 12.6144 28.8288 12.5936 28.834C12.5727 28.834 12.465 28.7854 12.3537 28.7332V28.735Z" fill="#E85222"/>
<path d="M26.5116 32.2554C26.7723 32.1859 27.092 31.9565 27.2467 31.7166C27.3962 31.4925 27.6673 30.773 28.1747 29.2627C28.8629 27.2155 29.3965 25.6949 29.5772 25.2899C29.678 25.0553 29.7805 24.8051 29.8014 24.7355L29.8379 24.6069L29.2088 24.6504L28.5744 24.6869L28.0792 25.0014C27.8133 25.1717 27.5665 25.316 27.5404 25.316C27.45 25.316 27.4292 25.3959 27.3162 26.2805C27.0973 28.0306 26.5741 30.3611 26.3187 30.7278C26.1327 31.0006 25.8755 31.1275 25.5193 31.1275C24.2124 31.1275 18.8632 30.5523 18.7363 30.3976C18.7207 30.3767 18.6251 30.1421 18.5278 29.8745C18.4322 29.6138 18.3366 29.3792 18.314 29.3566C18.2931 29.3305 17.3651 29.506 17.3112 29.5478C17.306 29.553 17.3703 29.8675 17.4555 30.2464C17.5354 30.6305 17.6206 31.025 17.6362 31.131L17.6675 31.3221L18.1628 31.3864C19.7043 31.5776 21.4265 31.7966 23.0271 32.0103C24.845 32.2502 26.1518 32.3405 26.5098 32.2502L26.5116 32.2554Z" fill="#E85222"/>
<path d="M31.2633 28.4013C31.5779 27.4472 32.1479 26.514 32.8257 25.8414L33.2949 25.3774L33.0655 24.9238L32.8309 24.4702L32.6554 24.5814C32.3512 24.7622 31.8125 25.3704 31.6109 25.7649C31.2807 26.394 31.0826 27.4124 31.1208 28.3457L31.1365 28.794L31.2651 28.3995L31.2633 28.4013Z" fill="#E85222"/>
<path d="M17.2851 27.8881C17.4988 27.8186 17.6692 27.7439 17.6587 27.7282C17.584 27.5683 17.2156 26.5916 17.0939 26.251L16.9497 25.8252L16.5343 25.5906C16.305 25.462 16.1086 25.3664 16.0964 25.382C16.086 25.3925 16.2024 25.8078 16.3623 26.3049C16.5222 26.8054 16.7081 27.3928 16.7724 27.617L16.8958 28.0219L17.2851 27.8881Z" fill="#E85222"/>
<path d="M23.3053 27.7976C24.6868 27.3336 25.667 26.5985 25.667 26.0267C25.667 25.7226 25.3785 25.4723 24.7181 25.1943C24.0143 24.8954 23.4269 24.7094 22.8082 24.5913C22.1305 24.4522 20.1789 24.4522 19.5342 24.586C18.627 24.772 17.4748 25.1839 17.2298 25.408C17.0699 25.5523 17.1064 25.7712 17.3306 25.9572C17.8537 26.3951 19.1171 26.9912 20.563 27.4882C22.2382 28.0582 22.4607 28.086 23.3035 27.7976H23.3053ZM24.3184 26.0649C23.7641 25.5575 23.2201 25.3072 22.1218 25.0466C21.557 24.9128 21.5344 24.9075 21.6213 24.8068C21.7117 24.7007 21.8403 24.7112 22.9438 24.9249C24.4696 25.2186 24.991 25.4098 25.163 25.7521C25.2377 25.8912 25.2377 25.9433 25.1839 26.0719C25.1091 26.2631 25.0031 26.3274 24.779 26.3326C24.6504 26.3326 24.5443 26.2683 24.3202 26.0667L24.3184 26.0649ZM19.8487 25.0205C19.7427 24.8919 19.8539 24.7703 20.1528 24.6903C20.4361 24.6156 21.086 24.5895 21.1816 24.6469C21.2303 24.6782 21.2668 24.9354 21.2251 24.951C21.1712 24.9666 20.2171 25.0952 20.0885 25.1004C19.9929 25.1004 19.8904 25.0692 19.8487 25.0205Z" fill="#E85222"/>
<path d="M39.1078 24.9389C38.9322 24.8051 38.1102 24.4002 37.6149 24.2038C36.7669 23.8683 36.3932 23.7988 35.4027 23.7988C34.8222 23.7988 34.4155 23.8249 34.2661 23.8683L34.0419 23.9379L34.2661 24.3758L34.4955 24.819L34.8952 24.713C35.2254 24.6278 35.4826 24.607 36.388 24.607C37.5454 24.6018 37.8339 24.6383 38.7984 24.9163C39.1877 25.0345 39.2242 25.0345 39.1078 24.9424V24.9389Z" fill="#E85222"/>
<path d="M27.5896 23.7869C27.6852 23.6635 27.7008 23.5835 27.6852 23.3715C27.6487 22.9718 27.3445 22.294 27.0613 21.9899C26.8058 21.724 26.0481 21.1209 25.339 20.6361L24.9341 20.3528L24.6456 20.5127C24.4909 20.5978 24.2719 20.6882 24.1607 20.7038C23.9747 20.7403 23.9626 20.7351 23.9626 20.6082C23.9626 20.5074 24.0321 20.4101 24.2024 20.2676C24.3362 20.1616 24.4422 20.0539 24.4422 20.0382C24.4422 20.0226 24.3623 19.9583 24.2667 19.8992L24.0912 19.781L23.7922 20.0591C22.0213 21.6753 21.7711 21.9256 21.851 21.969C22.1916 22.1602 25.3286 23.3872 26.1489 23.6548C26.4895 23.766 27.242 23.9329 27.3967 23.9329C27.4401 23.9329 27.5253 23.8686 27.5878 23.7886L27.5896 23.7869Z" fill="#E85222"/>
<path d="M40.4307 30.0642C40.4307 29.9633 40.4202 29.9198 40.4046 29.9738C40.3942 30.0224 40.3942 30.1077 40.4046 30.1598C40.4202 30.2085 40.4307 30.165 40.4307 30.0642Z" fill="#BA3933"/>
<path d="M39.4277 27.4347C39.4277 27.4243 39.3478 27.3495 39.2522 27.2592L39.082 27.1045L39.2366 27.28C39.386 27.4399 39.4277 27.4782 39.4277 27.4347Z" fill="#BA3933"/>
<path d="M25.9448 32.3198C25.8805 32.3094 25.785 32.3094 25.7311 32.3198C25.6825 32.3355 25.7363 32.3459 25.8544 32.3407C25.9726 32.3407 26.0143 32.3303 25.9448 32.3198Z" fill="#F58F84"/>
<path d="M25.1997 31.0933C25.1353 31.0828 25.0397 31.0828 24.9858 31.0933C24.9372 31.1089 24.9911 31.1193 25.1093 31.1141C25.2275 31.1141 25.2692 31.1037 25.1997 31.0933Z" fill="#F58F84"/>
<path d="M25.0341 26.2769C25.0828 26.2508 25.1523 26.1535 25.1836 26.0684C25.2374 25.9398 25.2374 25.8877 25.1627 25.7486C24.9924 25.408 24.4693 25.2152 22.9434 24.9215C21.8398 24.7077 21.7112 24.6973 21.6208 24.8033C21.5357 24.9041 21.5565 24.9093 22.1214 25.0431C23.2197 25.3038 23.7637 25.5558 24.3181 26.0614C24.617 26.3343 24.8256 26.3968 25.0324 26.2752L25.0341 26.2769Z" fill="#F58F84"/>
<path d="M32.7355 25.9471L32.9492 25.7178L32.7198 25.9315C32.5965 26.0427 32.4957 26.1452 32.4957 26.1556C32.4957 26.199 32.5443 26.1556 32.7355 25.9471Z" fill="#F58F84"/>
<path d="M20.736 25.0239C20.9967 24.9874 21.2209 24.9491 21.2261 24.9491C21.2696 24.9335 21.2313 24.6763 21.1827 24.645C21.0871 24.5859 20.4354 24.6137 20.1538 24.6884C19.8549 24.7684 19.7436 24.8918 19.8497 25.0186C19.9296 25.1142 20.0686 25.1195 20.7343 25.0239H20.736Z" fill="#F58F84"/>
<path d="M24.3415 20.6565C24.517 20.5922 24.9219 20.368 24.9219 20.3367C24.9219 20.3263 24.8263 20.2515 24.7029 20.1768L24.484 20.0273L24.239 20.2411C24.0791 20.3749 23.9836 20.5018 23.9731 20.5939C23.9523 20.7538 24.0322 20.7695 24.3415 20.6582V20.6565Z" fill="#F58F84"/>
</svg>
