<svg width="36" height="24" viewBox="0 0 36 24" fill="none" xmlns="http://www.w3.org/2000/svg">
<path d="M7.53757 18.3573C8.35958 18.1661 9.21287 17.9784 9.4301 17.942C9.84545 17.862 12.2732 17.3181 12.2889 17.3024C12.2941 17.2972 12.1829 17.0035 12.0334 16.6525C11.8892 16.2997 11.7501 15.9591 11.7241 15.8948C11.6754 15.7767 11.6598 15.7836 10.3807 16.225C9.66645 16.47 8.51946 16.8645 7.83126 17.0991C5.58594 17.8724 5.48515 17.9089 5.3774 18.0532C5.23837 18.2287 5.24358 18.2982 5.42084 18.4963C5.65546 18.757 5.8362 18.7466 7.53757 18.3573Z" fill="#2C2C2C"/>
<path d="M25.3047 18.0636C25.3047 17.9038 25.2943 17.8343 25.2838 17.9194C25.2734 17.9993 25.2734 18.1279 25.2838 18.213C25.2943 18.2929 25.3047 18.2234 25.3047 18.0636Z" fill="#2C2C2C"/>
<path d="M19.9352 14.2667C20.5105 13.9417 21.9407 13.078 22.2396 12.8747L22.5438 12.6713L23.3067 12.6227C24.3146 12.5532 25.0185 12.4836 25.6684 12.3881C26.5217 12.2542 26.6017 12.2386 26.6329 12.1847C26.6538 12.1482 26.2802 11.3801 26.195 11.2949C26.1846 11.2845 26.0768 11.3384 25.9604 11.4183C25.8422 11.493 25.7362 11.5573 25.7258 11.5573C25.7101 11.5573 24.9524 10.2609 24.8516 10.0645C24.8464 10.0489 24.975 9.95848 25.1349 9.86116C25.4599 9.66304 25.4599 9.69606 25.1662 9.11387C25.0115 8.80452 24.9855 8.78367 24.5267 8.54905C23.2632 7.90951 21.8712 7.47156 20.4149 7.2578C19.433 7.11877 18.9585 7.19871 18.3625 7.61059L18.1174 7.77569L18.3034 7.90429L18.4893 8.0329L18.8525 7.87823C19.3061 7.68706 19.8292 7.58974 20.175 7.63318C20.8424 7.71313 22.7506 8.19279 23.4544 8.46042C23.8645 8.61509 24.1478 8.85492 24.1478 9.05826C24.1478 9.46318 23.6786 9.54834 23.1555 9.23378C22.4569 8.81321 21.7374 8.51951 20.8407 8.30575C20.222 8.15629 19.4173 8.13543 19.1393 8.2623L18.9533 8.34746L19.214 8.52298C19.8918 8.99222 20.7451 9.65957 21.011 9.92546C21.2508 10.1705 21.3464 10.32 21.5062 10.7197C21.7513 11.3175 21.7721 11.5991 21.5914 11.792C21.5167 11.8719 21.4055 11.931 21.3255 11.931C20.8876 11.931 18.9307 11.281 17.2937 10.598C17 10.4694 16.536 10.2783 16.2648 10.1653L15.7643 9.96196L15.1717 10.4156C14.5374 10.9004 13.7432 11.3227 13.1871 11.4774C12.7335 11.6008 11.875 11.6373 11.3415 11.5626C10.483 11.4392 9.35684 11.0985 8.01347 10.5546C6.86127 10.0906 6.05142 9.78122 5.5596 9.62133C4.39176 9.23726 3.47939 9.1521 2.99452 9.37108C2.76512 9.47187 2.74948 9.49447 2.83984 9.53618C4.3066 10.1653 5.90544 10.9491 6.85084 11.493C7.21405 11.7016 8.24808 12.2873 8.71731 12.5549C8.85633 12.6296 9.09094 12.7634 9.23519 12.8538C9.58102 13.0571 10.841 13.7558 11.0756 13.8722L11.2511 13.9678L11.1555 13.8027C10.9574 13.4673 11.2407 13.2535 12.452 12.859C13.4165 12.5445 13.7901 12.4906 15.1874 12.4958C16.1953 12.4958 16.5307 12.5114 16.894 12.5914C18.1105 12.8521 19.3582 13.3752 19.5876 13.7228C19.678 13.867 19.6937 14.1816 19.6137 14.3362C19.539 14.4753 19.5929 14.4648 19.9335 14.2667H19.9352Z" fill="#2C2C2C"/>
<path d="M24.5215 6.01188C24.5215 5.99623 24.4259 5.68689 24.3025 5.31846C23.6786 3.40854 23.6786 3.40854 23.7377 2.97755C23.8385 2.24243 23.6195 1.48471 23.1885 1.05198C22.9226 0.786087 22.6446 0.688767 22.4691 0.806942C22.1962 0.982467 22.3248 1.63417 22.8271 2.63692C23.093 3.18088 23.1798 3.30427 23.3276 3.37204C23.4979 3.45199 23.5135 3.49543 23.8281 4.47559C24.0523 5.16379 24.2174 5.58436 24.3407 5.76683C24.4415 5.91629 24.5215 6.02752 24.5215 6.01188Z" fill="#2C2C2C"/>
<path d="M31.364 23.1523C32.5962 22.9282 33.7692 22.2348 34.5113 21.2911C34.6173 21.1573 34.5426 21.2112 34.3132 21.4354C32.7022 23.0307 30.2865 23.413 28.2706 22.3894C27.353 21.9306 26.5154 21.0722 26.0409 20.1181C25.6464 19.3187 25.5283 18.886 25.497 18.0483C25.4535 17.136 25.5283 16.7206 25.881 15.7439L25.9175 15.6379L25.8376 15.7439C25.742 15.8778 25.5074 16.4686 25.4275 16.7832C25.3962 16.917 25.3527 17.3271 25.3319 17.6903C25.2676 18.8147 25.4379 19.6211 25.9349 20.5439C26.1904 21.0183 26.3242 21.206 26.7569 21.6578C27.9352 22.8847 29.6904 23.4547 31.364 23.1506V23.1523Z" fill="#444444"/>
<path d="M6.61981 23.1526C7.71292 22.9544 8.92942 22.2506 9.64889 21.3973C9.77228 21.2478 9.71319 21.2913 9.45773 21.5259C8.2308 22.6573 6.59896 23.163 5.05227 22.8919C3.25011 22.5773 1.84766 21.4842 1.12124 19.8366C0.75803 19.0198 0.608576 17.9545 0.731963 17.1012C0.796264 16.658 1.06737 15.7404 1.16991 15.6396C1.19597 15.6135 1.21856 15.5649 1.21856 15.5388C1.21856 15.4328 1.05346 15.7248 0.89358 16.1088C0.440001 17.1968 0.403507 18.7053 0.808428 19.7723C1.08127 20.4918 1.48619 21.1592 1.91196 21.585C2.50457 22.1776 2.83476 22.4226 3.40478 22.6938C4.48746 23.2064 5.52148 23.349 6.61981 23.1526Z" fill="#444444"/>
<path d="M34.1158 19.7063C34.4043 19.1937 34.559 18.6341 34.5902 17.9789C34.6215 17.249 34.5207 16.7259 34.227 16.1177C33.6831 14.9933 32.7812 14.2513 31.5925 13.9576C31.1823 13.8568 31.0172 13.8394 30.4733 13.8672C30.0354 13.8828 29.7208 13.9263 29.4966 14.001L29.1612 14.107L29.0118 13.8342C28.6381 13.1616 28.4626 12.8366 28.4678 12.8106C28.4678 12.7949 28.3444 12.5499 28.195 12.2614C28.0403 11.9782 27.7849 11.4724 27.6198 11.1475C27.4547 10.8173 27.3052 10.5444 27.2896 10.5444C27.2687 10.5444 27.0115 10.7043 26.7196 10.8972L26.1808 11.2552L26.4207 11.6984C26.5545 11.9434 26.6501 12.1676 26.6292 12.1989C26.6136 12.2249 26.6292 12.2354 26.6726 12.2249C26.7213 12.2041 26.7839 12.2944 26.8638 12.4908C26.9333 12.6507 27.0133 12.7845 27.0445 12.7845C27.0758 12.7845 27.081 12.8002 27.0654 12.821C27.0445 12.8366 27.1141 13.0122 27.2201 13.2051C27.3261 13.3962 27.5555 13.8342 27.7275 14.1696L28.0369 14.783L27.8387 14.9864C27.7327 15.0976 27.6841 15.1723 27.7327 15.1567C27.7866 15.1358 27.8283 15.0976 27.8283 15.0767C27.8283 15.0507 27.877 15.0124 27.9343 14.9968C27.9934 14.9759 28.0247 14.9377 28.009 14.9064C27.9882 14.8751 28.0038 14.8578 28.0403 14.8751C28.0768 14.8856 28.2106 15.0837 28.334 15.3079C28.4574 15.532 28.5738 15.7024 28.5999 15.6763C28.6208 15.6554 28.626 15.6659 28.6051 15.7024C28.5738 15.7614 28.8032 16.2897 28.8884 16.3575C28.9092 16.3732 29.0587 16.6669 29.229 17.0127C29.4271 17.4176 29.5592 17.6261 29.5974 17.6053C29.6339 17.5844 29.6409 17.5896 29.6183 17.6261C29.5644 17.7165 29.8425 18.2014 30.051 18.3891C30.3343 18.6341 30.7653 18.5924 30.9199 18.3039C31.059 18.0432 31.0155 17.786 30.734 17.2108C30.5793 16.891 30.4403 16.6773 30.3881 16.6721C30.3343 16.6721 30.3291 16.6616 30.3777 16.6408C30.4264 16.6199 30.4212 16.5765 30.3517 16.4601C30.2978 16.3749 30.2335 16.3054 30.2074 16.3054C30.1813 16.3054 30.1709 16.2897 30.1866 16.2741C30.2074 16.2585 30.0475 15.9057 29.8407 15.4955C29.3454 14.531 29.3124 14.472 29.2759 14.4389C29.2064 14.3799 29.2221 14.2843 29.3124 14.2582C29.6061 14.1678 30.2092 14.0879 30.5758 14.0983C32.0321 14.1296 33.3911 15.0211 34.0202 16.3488C34.5207 17.4106 34.5277 18.7592 34.0411 19.7237C33.8656 20.0695 33.9125 20.0591 34.1158 19.7081V19.7063Z" fill="#444444"/>
<path d="M9.32821 19.734C9.3925 19.6227 9.4568 19.5098 9.46722 19.4785C9.47243 19.4524 9.54715 19.2439 9.62187 19.0249C9.80259 18.5175 9.86167 17.9058 9.72787 17.9058C9.66358 17.9058 9.64272 17.9596 9.64272 18.1299C9.64272 18.4393 9.54194 19.0093 9.43942 19.2926C9.39076 19.4264 9.34906 19.5428 9.34906 19.5584C9.34384 19.5741 9.3004 19.6645 9.25349 19.7618C9.1249 19.9964 9.17877 19.9807 9.32821 19.7357V19.734Z" fill="#444444"/>
<path d="M10.8535 18.0901C10.8535 17.9146 10.8431 17.8503 10.8327 17.9459C10.8222 18.0414 10.8222 18.1857 10.8327 18.2656C10.8431 18.3456 10.8535 18.2656 10.8535 18.0901Z" fill="#444444"/>
<path d="M9.49426 16.533C9.62808 16.5017 9.61765 16.4374 9.41432 16.0377C8.92425 15.0679 8.06575 14.3258 7.0578 14.0113C6.47041 13.8253 5.54413 13.8027 4.92545 13.9574C4.65956 14.0217 4.29115 14.1555 4.09825 14.2511C3.69854 14.4544 3.07465 14.9341 2.88175 15.1948L2.74272 15.3703L2.9026 15.2313C2.98776 15.1513 3.12679 15.028 3.21194 14.948C3.2971 14.8733 3.39789 14.809 3.43612 14.809C3.47957 14.809 3.51085 14.7881 3.51085 14.7603C3.51085 14.7012 4.11388 14.3814 4.2251 14.3814C4.27376 14.3814 4.31026 14.3606 4.31026 14.338C4.31026 14.2685 5.09924 14.1034 5.50416 14.0877C5.7127 14.0825 6.03768 14.0982 6.22884 14.1242C6.59726 14.1781 7.29588 14.3971 7.49226 14.5187C7.56177 14.5622 7.63129 14.5935 7.64693 14.5883C7.66778 14.5883 7.7008 14.6039 7.71644 14.6317C7.73208 14.6578 7.85547 14.7551 7.98929 14.8455C8.39942 15.1235 8.93294 15.7353 9.15191 16.1733C9.25791 16.3922 9.36045 16.5625 9.37609 16.5625C9.39173 16.5573 9.44561 16.5469 9.49426 16.5313V16.533Z" fill="#444444"/>
<path d="M26.0418 15.4502C26.0905 15.365 26.1113 15.2903 26.1009 15.2903C26.0853 15.2903 26.0366 15.365 25.9897 15.4502C25.9411 15.5406 25.9203 15.6102 25.9307 15.6102C25.9463 15.6102 25.9949 15.5406 26.0418 15.4502Z" fill="#444444"/>
<path d="M27.555 15.3774L27.6836 15.2124L27.5341 15.3566C27.449 15.4364 27.3899 15.5111 27.4055 15.5215C27.416 15.5372 27.4855 15.4677 27.555 15.3774Z" fill="#444444"/>
<path d="M21.7004 4.68386C21.796 4.6352 21.9089 4.53962 21.9454 4.46489C22.0845 4.199 21.9993 3.63767 21.796 3.46736C21.5509 3.26403 20.9323 3.2536 20.7341 3.45172C20.6542 3.53166 20.543 3.55251 20.1902 3.56294C19.7105 3.57337 19.5611 3.63245 19.4655 3.85664C19.3473 4.1121 19.4168 4.5066 19.615 4.66127C19.7158 4.74642 20.0199 4.74121 20.5047 4.65605C20.7237 4.61956 20.9201 4.60739 20.9688 4.6352C21.1669 4.74642 21.5179 4.76901 21.6987 4.68386H21.7004Z" fill="#444444"/>
<path d="M31.3753 22.9178C32.6335 22.7266 33.8813 22.028 34.613 21.1052C35.0127 20.5978 35.355 19.9113 35.461 19.3726C35.4923 19.2284 35.5305 19.0372 35.5514 18.9468C35.6001 18.7383 35.6001 17.5757 35.5514 17.2663C35.461 16.632 35.3967 16.4183 35.1135 15.8257C34.8093 15.1757 34.1211 14.3277 33.6415 13.9957C33.5077 13.9054 33.3756 13.8098 33.3478 13.7872C32.7778 13.3284 31.6517 12.96 30.6541 12.9079C30.2058 12.887 29.9868 12.9026 29.561 12.993C29.2673 13.0573 28.9684 13.1216 28.8937 13.1373C28.8189 13.1529 28.7442 13.1807 28.7234 13.2016C28.6747 13.2502 29.1335 14.0983 29.1978 14.0809C29.2239 14.0757 29.4376 14.0218 29.667 13.9627C30.5099 13.7385 31.6134 13.8515 32.4024 14.2408C33.4469 14.7587 34.2741 15.8135 34.5191 16.9657C34.6529 17.5739 34.6095 18.422 34.4183 18.9972C34.2532 19.4821 33.8952 20.1216 33.5546 20.5439C33.426 20.6986 33.3408 20.8428 33.3634 20.8637C33.3843 20.8897 33.3739 20.8949 33.3478 20.8741C33.3165 20.8584 33.1879 20.9384 33.0645 21.0496C32.9411 21.1678 32.7343 21.3224 32.6005 21.3954C32.4667 21.4754 32.3711 21.5553 32.3815 21.5762C32.3972 21.597 32.3659 21.6127 32.3172 21.6196C32.2686 21.6248 32.0079 21.7048 31.7472 21.8004C31.3319 21.9498 31.1772 21.9759 30.6228 21.9985C29.8808 22.0245 29.3368 21.9185 28.7355 21.6248C28.5444 21.5293 28.3619 21.4545 28.3254 21.4493C28.2941 21.4493 28.2455 21.4285 28.2194 21.4007C28.1933 21.3746 28.209 21.3694 28.2559 21.3902C28.2993 21.4111 28.2767 21.385 28.202 21.3364C28.1273 21.2825 27.877 21.0479 27.6424 20.8133C27.2375 20.4083 27.1245 20.2485 26.9229 19.8314C26.8743 19.7358 26.8222 19.6767 26.7996 19.6976C26.7787 19.7184 26.7683 19.6871 26.7735 19.6281C26.7787 19.5742 26.7248 19.3448 26.6553 19.1276C26.4694 18.5628 26.4642 17.5809 26.6449 17.0057C26.81 16.4722 27.0133 16.0516 27.2253 15.784C27.3209 15.6606 27.4009 15.5389 27.4009 15.5111C27.4009 15.4799 27.4912 15.3773 27.599 15.2817C27.7102 15.1914 27.7641 15.1323 27.7224 15.1584C27.6528 15.1948 27.6528 15.1844 27.7171 15.1097C27.7536 15.061 27.8127 15.035 27.851 15.0558C27.8822 15.0715 27.8944 15.0715 27.8718 15.0454C27.8075 14.9759 27.9309 14.8647 28.0317 14.8959C28.0856 14.9116 28.1012 14.9012 28.0682 14.8751C28.0369 14.8542 28.0143 14.8108 28.0143 14.7795C28.0143 14.7534 27.9083 14.5188 27.7797 14.2668L27.5451 13.8028L27.2948 13.9836C26.9647 14.2182 26.127 15.108 26.1009 15.2522C26.0645 15.4381 26.0001 15.5511 25.9463 15.5181C25.9098 15.4972 25.8976 15.4972 25.915 15.5181C25.9358 15.5389 25.8715 15.7788 25.776 16.0464C25.5309 16.7294 25.4614 17.2246 25.4979 18.0414C25.5292 18.8791 25.6474 19.31 26.0419 20.1112C26.7665 21.5779 28.1481 22.5963 29.7852 22.8848C30.2648 22.9699 30.927 22.9803 31.3736 22.9108L31.3753 22.9178Z" fill="#4F5150"/>
<path d="M6.77911 22.8846C7.56288 22.7456 8.63514 22.2555 9.09393 21.8401C9.15824 21.781 9.23296 21.7498 9.26945 21.7706C9.30073 21.7863 9.31811 21.781 9.3129 21.755C9.30247 21.7289 9.43107 21.5638 9.59095 21.3918C10.2201 20.7244 10.6945 19.7008 10.7901 18.811C10.8266 18.486 10.8387 17.664 10.8109 17.6692C10.8005 17.6692 10.5711 17.7179 10.3035 17.77L9.8134 17.8656L9.79255 18.2445C9.77691 18.4582 9.70218 18.7989 9.62224 19.023C9.54751 19.242 9.47278 19.461 9.46235 19.5027C9.45193 19.5461 9.4137 19.5774 9.3772 19.567C9.34592 19.5618 9.32854 19.5722 9.34592 19.5983C9.36156 19.6243 9.30247 19.7582 9.21732 19.8972C9.12695 20.0362 9.05744 20.1579 9.05744 20.1805C9.05744 20.2291 8.60386 20.7453 8.36925 20.9695C8.25802 21.0807 8.02863 21.2579 7.85658 21.3692C7.69148 21.4804 7.57331 21.5829 7.60111 21.5934C7.62197 21.609 7.61154 21.609 7.57505 21.5986C7.53855 21.5934 7.41517 21.6299 7.30916 21.6837C6.72871 21.9774 5.49658 22.1043 4.84489 21.934C4.685 21.8905 4.53555 21.8697 4.5147 21.8801C4.48863 21.8957 4.47125 21.8853 4.47125 21.8645C4.47125 21.8158 4.04547 21.6733 3.98638 21.6994C3.97074 21.7098 3.91687 21.6785 3.87516 21.6299C3.8265 21.5812 3.66662 21.47 3.51716 21.3692C3.36771 21.2736 3.17133 21.1293 3.07923 21.0442C2.98886 20.959 2.88806 20.9052 2.84983 20.926C2.81855 20.9417 2.80639 20.9417 2.82898 20.9156C2.84983 20.8947 2.75425 20.7296 2.61522 20.5472C2.15642 19.9719 1.94788 19.5183 1.80538 18.8249C1.70979 18.3609 1.73065 17.5615 1.85925 17.0749C1.97047 16.6422 2.25375 16.0304 2.44665 15.7836C2.50574 15.7089 2.53702 15.629 2.52138 15.6029C2.50573 15.5768 2.52659 15.5542 2.57003 15.5542C2.61348 15.5542 2.68821 15.5056 2.74035 15.4482C2.79422 15.3891 2.82029 15.3422 2.79943 15.3422C2.77858 15.3422 2.83593 15.2466 2.92803 15.1285C3.07749 14.9373 3.25822 14.8191 3.16264 14.979C3.14179 15.0155 3.147 15.0225 3.18871 14.9999C3.21999 14.979 3.23737 14.9408 3.22 14.9147C3.17655 14.8452 3.71006 14.4455 4.09934 14.2474C4.29051 14.1518 4.65893 14.018 4.92656 13.9537C5.57652 13.7886 6.47847 13.8198 7.11278 14.0284C8.13638 14.3586 9.09741 15.2275 9.49711 16.1938C9.56141 16.3432 9.63614 16.4545 9.66743 16.444C9.69871 16.4336 9.90204 16.3641 10.1106 16.2946C10.3243 16.2303 10.4999 16.1503 10.4999 16.1295C10.4999 16.1034 10.4251 15.9487 10.3295 15.7767C9.78559 14.8 9.33723 14.2995 8.54824 13.7816C7.92435 13.3767 7.35956 13.1421 6.65051 12.9926C4.9926 12.652 3.20609 13.2272 1.95309 14.5133C1.7237 14.7479 1.47345 15.0468 1.39351 15.1806C1.31878 15.3144 1.23363 15.4309 1.21278 15.4361C1.18671 15.4465 1.18671 15.4795 1.20235 15.5056C1.21799 15.5369 1.20756 15.5855 1.17628 15.6238C1.15021 15.6603 1.05289 15.907 0.962519 16.1677C0.237835 18.3487 1.04768 20.7279 2.95758 22.0556C4.02462 22.7977 5.49658 23.1175 6.78606 22.8829L6.77911 22.8846Z" fill="#4F5150"/>
<path d="M17.6532 17.6001C17.7018 17.5463 17.7644 17.4194 17.7974 17.3064C17.8616 17.1031 18.1761 15.5407 18.1553 15.5198C18.15 15.5146 18.0545 15.5355 17.9416 15.5685C17.7018 15.6432 17.6688 15.7075 17.5958 16.3419C17.5646 16.6078 17.5107 16.9554 17.4846 17.11C17.3839 17.6488 17.4482 17.8348 17.6549 17.6001H17.6532Z" fill="#727272"/>
<path d="M18.8264 17.5846C18.9498 17.5099 19.0558 17.1414 19.1896 16.3577C19.2539 15.9892 19.3234 15.5947 19.3495 15.4783C19.4676 14.983 19.3547 14.7797 19.1044 15.0352C18.9863 15.1464 18.9498 15.301 18.7899 16.2986C18.6891 16.9225 18.6039 17.4768 18.6039 17.5359C18.6039 17.6471 18.6839 17.6645 18.8281 17.5846H18.8264Z" fill="#727272"/>
<path d="M19.7697 17.3907C19.9035 17.2204 19.8879 17.2847 20.1225 16.0248C20.2337 15.4443 20.3084 14.9369 20.2875 14.8882C20.2389 14.7648 20.053 14.7926 19.9574 14.9421C19.8775 15.0655 19.5143 17.0431 19.5091 17.3837C19.5091 17.5697 19.6273 17.5697 19.7697 17.389V17.3907Z" fill="#727272"/>
<path d="M24.0422 9.28093C24.1534 9.13669 24.1534 8.94552 24.037 8.80128C23.9032 8.64139 23.1142 8.33727 22.2817 8.12351C22.207 8.10266 22.0159 8.04878 21.856 8.00534C21.6961 7.96189 21.2633 7.86109 20.8967 7.78636C20.1494 7.63691 19.4681 7.63169 19.1362 7.78115C19.0354 7.82981 18.8703 7.89237 18.773 7.93061C18.5279 8.02619 18.5227 8.05921 18.7521 8.20867C18.9276 8.33205 18.9659 8.33727 19.0667 8.26775C19.2318 8.15653 19.8557 8.12351 20.3683 8.19302C20.768 8.25211 21.5414 8.44849 21.8299 8.57188C21.889 8.59273 22.0697 8.66746 22.2296 8.73176C22.3895 8.79606 22.678 8.94031 22.8692 9.04632C23.6269 9.48426 23.8458 9.53118 24.0422 9.28093Z" fill="#808080"/>
<path d="M18.8747 18.9919C18.8747 18.9328 18.8903 18.8216 18.906 18.7313C18.9216 18.6461 18.9372 18.4532 18.9424 18.3055C18.9424 18.1613 18.9737 18.0223 19.0067 18.0014C19.038 17.9805 19.1979 17.9475 19.3526 17.9267C19.6619 17.8902 19.9556 17.7772 20.0947 17.6382C20.2337 17.4992 20.4353 16.9448 20.4996 16.5451C20.5152 16.427 20.543 16.3158 20.5587 16.2949C20.5847 16.241 20.6021 16.1837 20.7342 15.532C20.7985 15.2383 20.8576 14.962 20.868 14.9186C20.9688 14.4859 21.0018 14.3051 21.0279 13.9906C21.0713 13.5961 21.0765 13.6013 20.7881 13.7995C20.7133 13.8533 20.5482 13.9489 20.4144 14.0236C20.2806 14.0983 20.0303 14.2374 19.8548 14.3329C19.6793 14.4337 19.4065 14.6266 19.2518 14.7657C19.0971 14.9047 18.7982 15.1236 18.5792 15.2453L18.19 15.4642L17.9988 16.4287C17.8128 17.388 17.7103 17.6452 17.5139 17.6816C17.4496 17.6973 17.4288 17.6608 17.4288 17.5426C17.4288 17.414 17.5834 16.3001 17.6634 15.8205L17.6894 15.6867L17.3054 15.8205C17.0117 15.9213 16.8101 15.9543 16.4521 15.9543L15.9829 15.9595L16.0194 16.3696C16.035 16.5938 16.0402 16.7954 16.0194 16.8284C15.9985 16.8597 15.9012 16.8597 15.7413 16.8284C15.2773 16.7276 14.9523 16.9344 14.8341 17.3984C14.7751 17.6486 14.6586 17.7876 14.4761 17.8311C14.3319 17.8624 14.2902 17.8415 14.1564 17.6921C14.0069 17.5218 14.0017 17.5009 14.033 17.1638C14.0764 16.6998 14.1129 16.4652 14.139 16.4165C14.1546 16.3957 14.1824 16.2567 14.2033 16.1124C14.2189 15.9682 14.2572 15.7979 14.2832 15.7284C14.3788 15.4729 14.3475 15.4138 14.0486 15.3131C13.6593 15.1845 12.6079 14.7326 12.2187 14.5241C11.9041 14.359 11.878 14.3538 11.7008 14.4233C11.5722 14.4772 11.487 14.5623 11.4227 14.7066L11.3271 14.9203L11.5305 15.4104C11.6417 15.6832 11.7859 16.029 11.8554 16.1785C11.925 16.3279 12.0414 16.599 12.1109 16.7919C12.1804 16.9778 12.3403 17.4001 12.4637 17.7199C12.5819 18.0448 12.6931 18.3333 12.7035 18.3698C12.7192 18.4237 12.8095 18.4445 13.3431 18.5193C13.4612 18.5349 13.6889 18.5731 13.8505 18.5992C14.0104 18.6253 14.4796 18.6896 14.8898 18.733C15.2999 18.7817 15.717 18.8286 15.8178 18.839C16.0837 18.8824 17.6408 19.0145 18.2873 19.058C18.826 19.0892 18.8625 19.084 18.8677 18.9937L18.8747 18.9919ZM18.6018 17.494C18.6018 17.4088 18.687 16.8545 18.7826 16.2619C18.9424 15.2922 18.9737 15.1584 19.0971 15.0402C19.2622 14.8751 19.4012 14.9064 19.4012 15.1097C19.4012 15.2383 19.2518 16.1072 19.0763 17.0074C19.0015 17.381 18.8521 17.6365 18.7078 17.6365C18.6279 17.6365 18.6018 17.6 18.6018 17.4922V17.494ZM19.509 17.3602C19.509 17.2646 19.5889 16.6981 19.6897 16.102C19.8757 14.9881 19.94 14.8108 20.159 14.8108C20.2128 14.8108 20.2702 14.8473 20.2928 14.9012C20.3241 14.9811 19.9678 17.0022 19.8774 17.242C19.7662 17.5461 19.509 17.626 19.509 17.3602Z" fill="#8C8D8F"/>
<path d="M0.631138 14.0216C0.811876 13.7435 1.5383 13.0345 1.81462 12.859C1.93801 12.779 2.05445 12.6991 2.07009 12.6834C2.09615 12.6522 2.58797 12.4054 2.97726 12.2351C3.16321 12.1499 3.8149 11.9414 4.0165 11.8997C4.07558 11.8892 4.18159 11.8684 4.25632 11.851C4.517 11.7919 5.88818 11.7172 6.14886 11.745C6.2931 11.7554 6.60765 11.7815 6.84227 11.7989C7.07688 11.8145 7.3167 11.8423 7.37578 11.8579C7.52524 11.9014 6.7571 11.453 5.92467 11.0203L5.22083 10.6519H4.69774C4.16943 10.6519 3.43953 10.7318 2.97552 10.8378C2.90079 10.8587 2.77218 10.8865 2.68703 10.8969C2.34641 10.9612 1.8824 11.1576 1.86502 11.2497C1.8546 11.3036 1.8963 11.42 1.9606 11.5052L2.07878 11.6703L1.84937 11.9205C1.51397 12.2889 1.51918 12.2785 1.37494 12.4645C1.30021 12.5548 1.18899 12.6991 1.12469 12.7738C1.05518 12.8537 1.0013 12.9337 1.0013 12.9493C1.0013 12.965 0.942214 13.0449 0.8727 13.1249C0.712816 13.3108 0.429546 13.8443 0.413905 13.9834C0.382624 14.2823 0.445183 14.2979 0.627659 14.0199L0.631138 14.0216Z" fill="#8C8D8F"/>
<path d="M26.6168 10.9512C27.1069 10.621 27.5448 10.3168 27.5866 10.2734C27.6561 10.2039 27.6456 10.1674 27.4962 9.95884C27.4006 9.82503 27.2929 9.686 27.2564 9.6495C27.2199 9.61301 27.1504 9.51047 27.0965 9.42532C27.0478 9.33495 26.9905 9.26543 26.9679 9.26543C26.947 9.26543 26.9036 9.19592 26.8671 9.10555C26.8306 9.0204 26.7976 8.94567 26.7872 8.94567C26.6968 8.94567 26.4413 9.07948 26.4413 9.12119C26.4413 9.19592 26.2502 8.97174 26.1685 8.81185C26.1424 8.75276 26.0729 8.63633 26.0138 8.54596C25.9547 8.4608 25.8644 8.30092 25.8053 8.19317C25.7462 8.09238 25.661 7.9742 25.6193 7.93771C25.5707 7.89426 25.5342 7.84734 25.5342 7.82648C25.5342 7.77782 25.1136 7.06877 25.0597 7.02706C25.0441 7.01142 24.9798 6.90889 24.9207 6.80288C24.8616 6.69166 24.7973 6.59955 24.7817 6.59955C24.7608 6.59955 24.7122 6.51439 24.6757 6.40143C24.6444 6.29542 24.4567 5.98087 24.2655 5.70281C23.8068 5.02504 23.8502 5.07892 23.4383 4.674C23.0925 4.32816 22.5416 4.00144 22.1593 3.91107C22.0203 3.87979 22.015 3.88501 22.015 4.11962C22.015 4.25865 21.9942 4.41332 21.9612 4.46545C21.9177 4.55061 21.9351 4.57146 22.1106 4.63055C22.778 4.84431 23.3097 5.3396 23.7581 6.14423C23.9336 6.45878 24.2012 7.0288 24.2012 7.08268C24.2012 7.10874 24.2221 7.13134 24.2551 7.13134C24.2812 7.13134 24.309 7.16783 24.309 7.21128C24.309 7.25472 24.3681 7.40244 24.4376 7.54147C24.5818 7.82474 25.0076 8.72496 25.2648 9.27934C25.3604 9.47745 25.4195 9.6634 25.4038 9.68947C25.3882 9.71554 25.2648 9.8007 25.131 9.88064C25.0024 9.95537 24.8964 10.0353 24.8964 10.0562C24.8964 10.0874 25.4195 11.0328 25.6541 11.4273C25.7236 11.5386 25.7497 11.5281 26.6186 10.9477L26.6168 10.9512Z" fill="#8C8D8F"/>
<path d="M30.8091 19.0183C31.3096 18.815 31.5876 18.2763 31.4382 17.7862C31.3582 17.5134 31.108 17.2318 30.8682 17.1362L30.677 17.0615L30.8525 17.4143C30.9481 17.6124 31.0228 17.8522 31.028 17.9478C31.0333 18.4865 30.4893 18.7576 30.0583 18.4274C29.9628 18.3527 29.8081 18.1546 29.7229 17.9895C29.5631 17.6854 29.4883 17.6211 29.4779 17.7862C29.4779 17.8348 29.4675 17.9513 29.4623 18.0364C29.4188 18.5752 29.9158 19.0809 30.4806 19.0704C30.5919 19.0704 30.7413 19.0444 30.8108 19.0166L30.8091 19.0183Z" fill="#B7B7B7"/>
<path d="M6.03745 18.9971C6.15562 18.9536 6.32072 18.8476 6.41109 18.7625C6.57097 18.6026 6.57098 18.5974 6.44238 18.6287C6.10175 18.7034 5.73854 18.7138 5.58908 18.6495C5.39096 18.5696 5.25889 18.3663 5.27974 18.1856C5.3006 18.0048 5.64817 17.7911 6.1817 17.6364L6.56055 17.5183L6.40067 17.3532C6.23036 17.1777 5.9158 17.0491 5.6586 17.0491C5.44484 17.0491 4.98604 17.2785 4.88525 17.4331C4.60719 17.8536 4.62978 18.3715 4.93912 18.7121C5.25889 19.0649 5.59429 19.1552 6.03745 18.9953V18.9971Z" fill="#B7B7B7"/>
<path d="M5.97235 11.7344C5.87675 11.724 5.7325 11.724 5.65255 11.7344C5.5726 11.7448 5.65255 11.7552 5.82809 11.7552C6.00362 11.7552 6.06794 11.7448 5.97235 11.7344Z" fill="#B7B7B7"/>
<path d="M20.508 3.5215C20.4593 3.51106 20.3742 3.51106 20.3221 3.5215C20.2734 3.53717 20.3169 3.54762 20.4176 3.54762C20.5184 3.54762 20.5618 3.53717 20.508 3.5215Z" fill="#B7B7B7"/>
<path d="M31.0008 21.9798C31.0599 21.9642 31.2737 21.9155 31.4805 21.8686C32.3772 21.6653 33.2462 21.0362 33.7519 20.2263C33.9709 19.8735 34.2159 19.2879 34.3115 18.8934C34.4401 18.3494 34.3914 17.3728 34.2107 16.8671C33.9969 16.2588 33.7675 15.8539 33.4165 15.4698C33.0011 15.0215 32.916 14.9467 32.4467 14.6652C31.663 14.1908 30.5803 14.01 29.7009 14.196C29.4819 14.2394 29.296 14.2864 29.2855 14.2968C29.2751 14.3072 29.2855 14.3611 29.3012 14.415C29.3273 14.4845 29.3759 14.4949 29.5045 14.4688C29.5949 14.4532 29.7443 14.4202 29.8347 14.4045L29.9998 14.3785L30.0902 15.263C30.1858 16.1372 30.191 16.1528 30.436 16.6116C30.6341 16.9852 30.7141 17.086 30.841 17.1243C31.2945 17.2685 31.5882 17.8333 31.4596 18.3234C31.225 19.1871 30.052 19.3522 29.5827 18.5788C29.4437 18.3494 29.402 18.0836 29.4715 17.8316C29.5202 17.6456 29.508 17.5865 29.4072 17.3832L29.289 17.1486L29.2039 17.272C29.0979 17.4423 29.0005 17.736 29.0005 17.8907C29.0005 18.0019 28.9797 18.0193 28.8511 17.9915C28.7711 17.9758 28.2758 17.8907 27.7475 17.7933C27.2192 17.703 26.783 17.623 26.7778 17.6178C26.7343 17.5865 26.9968 16.6846 27.1132 16.45C27.2887 16.1094 27.5511 15.7201 27.6085 15.7201C27.6346 15.7201 27.9613 15.9651 28.3384 16.2588C28.7173 16.5577 29.0579 16.8288 29.1013 16.8618C29.1448 16.8931 29.0648 16.7176 28.9258 16.4674C28.7868 16.2171 28.5522 15.7687 28.3975 15.4698C28.248 15.1657 28.0986 14.9207 28.0725 14.9207C27.9821 14.9207 27.2679 15.7097 27.0854 16.0086C26.6596 16.7124 26.4406 17.736 26.5414 18.5145C26.7604 20.1412 27.8744 21.448 29.4002 21.8634C29.7582 21.9642 30.7714 22.0389 31.0008 21.9816V21.9798ZM30.6759 20.7425C30.6063 20.1933 30.5525 19.7084 30.5472 19.6598C30.5472 19.5955 30.6272 19.5538 30.7975 19.5103C30.9417 19.4738 31.1555 19.3817 31.2824 19.307C31.411 19.2375 31.5222 19.1836 31.5274 19.1958C31.6664 19.4043 32.2851 20.3202 32.4763 20.593C32.6153 20.7963 32.7161 20.9823 32.7005 21.0084C32.6362 21.1092 32.1131 21.4081 31.762 21.5471C31.4423 21.6757 30.8722 21.8026 30.8184 21.7609C30.8027 21.7504 30.7384 21.2968 30.6741 20.7425H30.6759ZM29.1187 21.5262C28.905 21.4411 28.5904 21.276 28.4149 21.1578L28.0951 20.9388L28.4844 20.4488C28.6981 20.1759 28.9918 19.8092 29.1344 19.6216C29.2734 19.4356 29.4176 19.2688 29.4489 19.2583C29.4802 19.2479 29.6244 19.2948 29.7687 19.3696C29.9129 19.4443 30.0728 19.5034 30.1267 19.5034C30.1806 19.5034 30.2327 19.5242 30.2501 19.552C30.2657 19.5729 30.224 19.8927 30.1545 20.2559C30.085 20.6191 29.9998 21.1039 29.9633 21.3333L29.8938 21.7539L29.7026 21.7174C29.5966 21.6966 29.3342 21.6114 29.1222 21.5262H29.1187ZM32.5736 19.6911C32.1791 19.3765 31.8107 19.088 31.7568 19.0515C31.6717 18.9925 31.6717 18.9716 31.8003 18.6988C31.875 18.5389 31.9341 18.3686 31.9341 18.3147C31.9341 18.2452 31.9601 18.2243 32.0244 18.2452C32.0783 18.2608 32.5632 18.3564 33.1019 18.4589C33.6407 18.5649 34.0943 18.6623 34.1099 18.6779C34.1464 18.7144 33.9813 19.307 33.8492 19.6111C33.6893 19.9743 33.4113 20.3584 33.3487 20.3097C33.3226 20.2837 32.9698 20.0056 32.5753 19.6911H32.5736ZM27.1028 19.6372C27.0072 19.4339 26.8942 19.1037 26.8525 18.9073L26.7726 18.5493L26.9429 18.518C27.141 18.4867 28.8632 18.2782 28.9432 18.2782C28.9745 18.2782 29.0023 18.3216 29.0023 18.3738C29.0023 18.4224 29.0666 18.5823 29.1413 18.7266C29.216 18.8708 29.2595 18.9994 29.2317 19.0203C29.2056 19.0359 28.9223 19.2288 28.6026 19.446C28.2776 19.665 27.8935 19.9309 27.7493 20.0439L27.4834 20.2472L27.3826 20.129C27.3287 20.0647 27.2018 19.8457 27.1045 19.6389L27.1028 19.6372ZM31.9341 17.8403C31.9341 17.696 31.7047 17.1903 31.6195 17.1364C31.5882 17.1156 31.5604 17.0773 31.5604 17.0565C31.5604 17.0356 31.8055 16.8532 32.1044 16.6516C32.4085 16.4482 32.8134 16.1667 33.0168 16.0225L33.3748 15.7618L33.4808 15.8852C33.6789 16.1198 33.9604 16.7541 34.0786 17.2285C34.1429 17.484 34.1794 17.703 34.169 17.7186C34.1533 17.729 33.8336 17.7777 33.4547 17.8194C32.5319 17.9306 32.4259 17.9428 32.1583 17.948C31.9601 17.9584 31.9341 17.948 31.9341 17.842V17.8403ZM31.0547 16.7037C30.8792 16.6342 30.6811 16.5699 30.622 16.5699H30.5108L30.6289 15.9721C30.6984 15.6419 30.7836 15.1779 30.8149 14.938C30.9053 14.3298 30.8948 14.3402 31.3276 14.4532C31.7603 14.5644 32.266 14.7834 32.5215 14.9659C32.6223 15.0406 32.7196 15.1049 32.73 15.1101C32.7352 15.1205 32.5111 15.4194 32.2226 15.7826C31.9289 16.1459 31.6299 16.5299 31.5448 16.6411C31.4648 16.7471 31.3953 16.8393 31.3849 16.8393C31.3797 16.8393 31.2302 16.7802 31.0547 16.7054V16.7037Z" fill="#E85222"/>
<path d="M6.47017 21.9364C7.35475 21.7227 7.87264 21.4464 8.47568 20.8433C9.11001 20.209 9.53753 19.2705 9.62268 18.2886L9.65918 17.8889L9.53057 17.9202C9.46105 17.9358 9.05613 18.0262 8.62861 18.1183C8.20283 18.2139 7.83962 18.3043 7.81181 18.3269C7.79096 18.3477 8.13158 18.4329 8.56953 18.5128L9.36374 18.6571L9.29423 18.9612C9.17084 19.4739 8.75548 20.3046 8.61645 20.3046C8.58517 20.3046 8.28625 20.0804 7.94389 19.8093C7.59805 19.5364 7.2192 19.2393 7.09581 19.1419L6.87162 18.9664L7.00544 18.7422C7.07495 18.6188 7.13404 18.5024 7.13404 18.4868C7.13404 18.4711 7.01587 18.4815 6.87858 18.5128C6.71348 18.5493 6.5588 18.6362 6.44063 18.7474C6.04091 19.1315 5.55605 19.1906 5.12853 18.9073C4.9895 18.8117 4.82962 18.6466 4.77574 18.5441C4.58458 18.1809 4.68537 17.5744 4.98429 17.3067C5.36315 16.9609 6.04613 16.9818 6.41282 17.3432C6.56749 17.4979 6.58834 17.5083 6.75865 17.4492C6.98284 17.3745 7.0037 17.3154 6.86467 17.1555L6.75865 17.0322L7.24353 16.7072C7.50942 16.5264 7.92651 16.2432 8.16634 16.0728L8.59907 15.7635L8.72246 15.913C8.78676 15.9929 8.9032 16.191 8.97793 16.3457C9.12739 16.6394 9.14302 16.6498 9.2612 16.5751C9.37242 16.5004 8.98836 15.833 8.56258 15.369C8.08814 14.8563 7.45902 14.467 6.73259 14.2446C6.48233 14.1647 6.24772 14.1438 5.66553 14.1438C4.9669 14.149 4.88696 14.1594 4.44902 14.3141C2.8606 14.8737 1.84047 16.2067 1.76052 17.8281C1.6858 19.1819 2.22975 20.388 3.269 21.177C3.73301 21.535 4.07364 21.7053 4.5811 21.8495C5.08856 21.999 6.01484 22.0355 6.46322 21.9347L6.47017 21.9364ZM5.99573 21.6271C5.98009 21.5315 5.92621 21.0779 5.88451 20.6243C5.83584 20.1708 5.78892 19.745 5.77849 19.6807C5.75764 19.5851 5.78892 19.5573 6.03396 19.5052C6.18342 19.4687 6.4024 19.3818 6.51362 19.307C6.6318 19.2375 6.72738 19.1836 6.73781 19.1958C6.86641 19.3453 7.93694 20.9337 7.93694 20.9823C7.93694 21.0623 7.30783 21.4411 6.97763 21.5576C6.77951 21.6323 6.20428 21.7766 6.06003 21.7922C6.03918 21.7974 6.00616 21.7175 5.99573 21.6271ZM4.72187 21.6636C4.55155 21.6201 4.28913 21.5194 4.13446 21.4446C3.83554 21.2952 3.3559 20.9858 3.35068 20.9441C3.35068 20.9128 3.62352 20.5496 4.24742 19.7554L4.6958 19.1958L4.88175 19.3244C4.98254 19.3939 5.15459 19.4634 5.25539 19.4843C5.35619 19.5051 5.45351 19.5538 5.46915 19.5903C5.4848 19.6268 5.42049 20.0439 5.33533 20.5027C5.24496 20.9667 5.15981 21.4359 5.13722 21.5472C5.12158 21.6532 5.08856 21.7453 5.0677 21.7453C5.04685 21.7453 4.88697 21.7088 4.72187 21.6653V21.6636ZM2.33228 19.6372C2.14112 19.2375 1.97428 18.624 2.03859 18.5545C2.07508 18.5232 4.03888 18.2713 4.13968 18.2938C4.18312 18.2991 4.2509 18.4277 4.30478 18.5719C4.35865 18.7214 4.416 18.876 4.43859 18.9247C4.46987 18.9942 4.33258 19.1107 3.81991 19.453C3.45669 19.6981 3.05698 19.9761 2.92316 20.0717C2.63468 20.2855 2.6451 20.2907 2.33054 19.639L2.33228 19.6372ZM3.32461 17.8559C2.01773 17.6265 2.01773 17.6265 2.01773 17.5031C2.01773 17.1451 2.3375 16.3613 2.67291 15.8921L2.83279 15.6679L3.27595 16.0259C3.51578 16.224 3.90506 16.5334 4.13968 16.7193L4.56546 17.06L4.44207 17.2407C4.37255 17.3415 4.2874 17.5605 4.2509 17.7203C4.1866 17.9984 4.17617 18.0141 4.04756 17.981C3.97284 17.9654 3.64264 17.9063 3.32288 17.8524L3.32461 17.8559ZM4.0076 15.7705C3.44279 14.9432 3.43757 15.0284 4.08232 14.726C4.47682 14.54 5.13895 14.3367 5.18587 14.3906C5.20152 14.4062 5.26582 14.8389 5.32491 15.3499C5.38399 15.8573 5.44308 16.3422 5.45873 16.4222C5.47958 16.5508 5.45872 16.5716 5.22932 16.6516C5.09029 16.695 4.93041 16.7697 4.87654 16.8114C4.75836 16.9018 4.85047 17.0096 4.0076 15.7722V15.7705ZM6.35373 16.735C6.24251 16.6759 6.06003 16.6116 5.94881 16.5959C5.8428 16.5751 5.75069 16.5369 5.75069 16.516C5.75069 16.4951 5.78197 16.297 5.82542 16.0833C5.86887 15.8643 5.95923 15.3899 6.02354 15.0319L6.13476 14.3697L6.38501 14.4062C6.8386 14.4757 7.93694 14.9762 7.93694 15.1205C7.93694 15.1361 7.70754 15.4403 7.42948 15.793C7.1462 16.1458 6.85424 16.523 6.7743 16.6307C6.69436 16.7419 6.61441 16.8288 6.59356 16.834C6.5727 16.834 6.46496 16.7854 6.35373 16.7332V16.735Z" fill="#E85222"/>
<path d="M20.5116 20.2554C20.7723 20.1859 21.092 19.9565 21.2467 19.7166C21.3962 19.4925 21.6673 18.773 22.1747 17.2627C22.8629 15.2155 23.3965 13.6949 23.5772 13.2899C23.678 13.0553 23.7805 12.8051 23.8014 12.7355L23.8379 12.6069L23.2088 12.6504L22.5744 12.6869L22.0792 13.0014C21.8133 13.1717 21.5665 13.316 21.5404 13.316C21.45 13.316 21.4292 13.3959 21.3162 14.2805C21.0973 16.0306 20.5741 18.3611 20.3187 18.7278C20.1327 19.0006 19.8755 19.1275 19.5193 19.1275C18.2124 19.1275 12.8632 18.5523 12.7363 18.3976C12.7207 18.3767 12.6251 18.1421 12.5278 17.8745C12.4322 17.6138 12.3366 17.3792 12.314 17.3566C12.2931 17.3305 11.3651 17.506 11.3112 17.5478C11.306 17.553 11.3703 17.8675 11.4555 18.2464C11.5354 18.6305 11.6206 19.025 11.6362 19.131L11.6675 19.3221L12.1628 19.3864C13.7043 19.5776 15.4265 19.7966 17.0271 20.0103C18.845 20.2502 20.1518 20.3405 20.5098 20.2502L20.5116 20.2554Z" fill="#E85222"/>
<path d="M25.2633 16.4013C25.5779 15.4472 26.1479 14.514 26.8257 13.8414L27.2949 13.3774L27.0655 12.9238L26.8309 12.4702L26.6554 12.5814C26.3512 12.7622 25.8125 13.3704 25.6109 13.7649C25.2807 14.394 25.0826 15.4124 25.1208 16.3457L25.1365 16.794L25.2651 16.3995L25.2633 16.4013Z" fill="#E85222"/>
<path d="M11.2851 15.8881C11.4988 15.8186 11.6692 15.7439 11.6587 15.7282C11.584 15.5683 11.2156 14.5916 11.0939 14.251L10.9497 13.8252L10.5343 13.5906C10.305 13.462 10.1086 13.3664 10.0964 13.382C10.086 13.3925 10.2024 13.8078 10.3623 14.3049C10.5222 14.8054 10.7081 15.3928 10.7724 15.617L10.8958 16.0219L11.2851 15.8881Z" fill="#E85222"/>
<path d="M17.3053 15.7976C18.6868 15.3336 19.667 14.5985 19.667 14.0267C19.667 13.7226 19.3785 13.4723 18.7181 13.1943C18.0143 12.8954 17.4269 12.7094 16.8082 12.5913C16.1305 12.4522 14.1789 12.4522 13.5342 12.586C12.627 12.772 11.4748 13.1839 11.2298 13.408C11.0699 13.5523 11.1064 13.7712 11.3306 13.9572C11.8537 14.3951 13.1171 14.9912 14.563 15.4882C16.2382 16.0582 16.4607 16.086 17.3035 15.7976H17.3053ZM18.3184 14.0649C17.7641 13.5575 17.2201 13.3072 16.1218 13.0466C15.557 12.9128 15.5344 12.9075 15.6213 12.8068C15.7117 12.7007 15.8403 12.7112 16.9438 12.9249C18.4696 13.2186 18.991 13.4098 19.163 13.7521C19.2377 13.8912 19.2377 13.9433 19.1839 14.0719C19.1091 14.2631 19.0031 14.3274 18.779 14.3326C18.6504 14.3326 18.5443 14.2683 18.3202 14.0667L18.3184 14.0649ZM13.8487 13.0205C13.7427 12.8919 13.8539 12.7703 14.1528 12.6903C14.4361 12.6156 15.086 12.5895 15.1816 12.6469C15.2303 12.6782 15.2668 12.9354 15.2251 12.951C15.1712 12.9666 14.2171 13.0952 14.0885 13.1004C13.9929 13.1004 13.8904 13.0692 13.8487 13.0205Z" fill="#E85222"/>
<path d="M33.1078 12.9389C32.9322 12.8051 32.1102 12.4002 31.6149 12.2038C30.7669 11.8683 30.3932 11.7988 29.4027 11.7988C28.8222 11.7988 28.4155 11.8249 28.2661 11.8683L28.0419 11.9379L28.2661 12.3758L28.4955 12.819L28.8952 12.713C29.2254 12.6278 29.4826 12.607 30.388 12.607C31.5454 12.6018 31.8339 12.6383 32.7984 12.9163C33.1877 13.0345 33.2242 13.0345 33.1078 12.9424V12.9389Z" fill="#E85222"/>
<path d="M21.5896 11.7869C21.6852 11.6635 21.7008 11.5835 21.6852 11.3715C21.6487 10.9718 21.3445 10.294 21.0613 9.98988C20.8058 9.72398 20.0481 9.12093 19.339 8.63605L18.9341 8.35278L18.6456 8.51266C18.4909 8.59782 18.2719 8.68819 18.1607 8.70383C17.9747 8.74033 17.9626 8.73512 17.9626 8.60825C17.9626 8.50745 18.0321 8.41013 18.2024 8.26762C18.3362 8.16161 18.4422 8.05386 18.4422 8.03822C18.4422 8.02257 18.3623 7.95827 18.2667 7.89918L18.0912 7.78101L17.7922 8.05907C16.0213 9.67532 15.7711 9.92558 15.851 9.96903C16.1916 10.1602 19.3286 11.3872 20.1489 11.6548C20.4895 11.766 21.242 11.9329 21.3967 11.9329C21.4401 11.9329 21.5253 11.8686 21.5878 11.7886L21.5896 11.7869Z" fill="#E85222"/>
<path d="M34.4307 18.0642C34.4307 17.9633 34.4202 17.9198 34.4046 17.9738C34.3942 18.0224 34.3942 18.1077 34.4046 18.1598C34.4202 18.2085 34.4307 18.165 34.4307 18.0642Z" fill="#BA3933"/>
<path d="M33.4277 15.4347C33.4277 15.4243 33.3478 15.3495 33.2522 15.2592L33.082 15.1045L33.2366 15.28C33.386 15.4399 33.4277 15.4782 33.4277 15.4347Z" fill="#BA3933"/>
<path d="M19.9448 20.3198C19.8805 20.3094 19.785 20.3094 19.7311 20.3198C19.6825 20.3355 19.7363 20.3459 19.8544 20.3407C19.9726 20.3407 20.0143 20.3303 19.9448 20.3198Z" fill="#F58F84"/>
<path d="M19.1997 19.0933C19.1353 19.0828 19.0397 19.0828 18.9858 19.0933C18.9372 19.1089 18.9911 19.1193 19.1093 19.1141C19.2275 19.1141 19.2692 19.1037 19.1997 19.0933Z" fill="#F58F84"/>
<path d="M19.0341 14.2769C19.0828 14.2508 19.1523 14.1535 19.1836 14.0684C19.2374 13.9398 19.2374 13.8877 19.1627 13.7486C18.9924 13.408 18.4693 13.2152 16.9434 12.9215C15.8398 12.7077 15.7112 12.6973 15.6208 12.8033C15.5357 12.9041 15.5565 12.9093 16.1214 13.0431C17.2197 13.3038 17.7637 13.5558 18.3181 14.0614C18.617 14.3343 18.8256 14.3968 19.0324 14.2752L19.0341 14.2769Z" fill="#F58F84"/>
<path d="M26.7355 13.9471L26.9492 13.7178L26.7198 13.9315C26.5965 14.0427 26.4957 14.1452 26.4957 14.1556C26.4957 14.199 26.5443 14.1556 26.7355 13.9471Z" fill="#F58F84"/>
<path d="M14.736 13.0239C14.9967 12.9874 15.2209 12.9491 15.2261 12.9491C15.2696 12.9335 15.2313 12.6763 15.1827 12.645C15.0871 12.5859 14.4354 12.6137 14.1538 12.6884C13.8549 12.7684 13.7436 12.8918 13.8497 13.0186C13.9296 13.1142 14.0686 13.1195 14.7343 13.0239H14.736Z" fill="#F58F84"/>
<path d="M18.3415 8.6565C18.517 8.5922 18.9219 8.36799 18.9219 8.33671C18.9219 8.32628 18.8263 8.25155 18.7029 8.17681L18.484 8.02734L18.239 8.24112C18.0791 8.37494 17.9836 8.50182 17.9731 8.59393C17.9523 8.75383 18.0322 8.76947 18.3415 8.65824V8.6565Z" fill="#F58F84"/>
</svg>
