<svg width="24" height="24" viewBox="0 0 24 24" fill="none" xmlns="http://www.w3.org/2000/svg">
<path d="M16.281 10.7191C16.3508 10.7888 16.4062 10.8716 16.444 10.9627C16.4818 11.0538 16.5013 11.1515 16.5013 11.2501C16.5013 11.3488 16.4818 11.4465 16.444 11.5376C16.4062 11.6287 16.3508 11.7115 16.281 11.7811L11.781 16.2811C11.7113 16.351 11.6285 16.4064 11.5374 16.4442C11.4463 16.482 11.3486 16.5015 11.25 16.5015C11.1513 16.5015 11.0536 16.482 10.9625 16.4442C10.8714 16.4064 10.7886 16.351 10.719 16.2811L8.46897 14.0311C8.39924 13.9614 8.34392 13.8786 8.30619 13.7875C8.26845 13.6964 8.24902 13.5987 8.24902 13.5001C8.24902 13.4015 8.26845 13.3039 8.30619 13.2127C8.34392 13.1216 8.39924 13.0389 8.46897 12.9691C8.6098 12.8283 8.80081 12.7492 8.99997 12.7492C9.09859 12.7492 9.19624 12.7686 9.28735 12.8063C9.37846 12.8441 9.46124 12.8994 9.53097 12.9691L11.25 14.6896L15.219 10.7191C15.2886 10.6493 15.3714 10.5939 15.4625 10.5561C15.5536 10.5182 15.6513 10.4988 15.75 10.4988C15.8486 10.4988 15.9463 10.5182 16.0374 10.5561C16.1285 10.5939 16.2113 10.6493 16.281 10.7191Z" fill="#E74F30"/>
<path d="M5.25 0C5.44891 0 5.63968 0.0790176 5.78033 0.21967C5.92098 0.360322 6 0.551088 6 0.75V1.5H18V0.75C18 0.551088 18.079 0.360322 18.2197 0.21967C18.3603 0.0790176 18.5511 0 18.75 0C18.9489 0 19.1397 0.0790176 19.2803 0.21967C19.421 0.360322 19.5 0.551088 19.5 0.75V1.5H21C21.7956 1.5 22.5587 1.81607 23.1213 2.37868C23.6839 2.94129 24 3.70435 24 4.5V21C24 21.7956 23.6839 22.5587 23.1213 23.1213C22.5587 23.6839 21.7956 24 21 24H3C2.20435 24 1.44129 23.6839 0.87868 23.1213C0.316071 22.5587 0 21.7956 0 21V4.5C0 3.70435 0.316071 2.94129 0.87868 2.37868C1.44129 1.81607 2.20435 1.5 3 1.5H4.5V0.75C4.5 0.551088 4.57902 0.360322 4.71967 0.21967C4.86032 0.0790176 5.05109 0 5.25 0V0ZM1.5 6V21C1.5 21.3978 1.65804 21.7794 1.93934 22.0607C2.22064 22.342 2.60218 22.5 3 22.5H21C21.3978 22.5 21.7794 22.342 22.0607 22.0607C22.342 21.7794 22.5 21.3978 22.5 21V6H1.5Z" fill="#E74F30"/>
</svg>
