<svg width="24" height="24" viewBox="0 0 24 24" fill="none" xmlns="http://www.w3.org/2000/svg">
<path d="M20.4873 15.1401L16.4223 11.4441C16.0233 11.0811 15.4073 11.1001 15.0313 11.4871L12.6383 13.9481C12.0623 13.8381 10.9043 13.4771 9.71228 12.2881C8.52028 11.0951 8.15928 9.93412 8.05228 9.36212L10.5113 6.96812C10.8993 6.59212 10.9173 5.97712 10.5543 5.57712L6.85928 1.51312C6.49628 1.11212 5.87928 1.07412 5.46828 1.42612L3.29828 3.28712C3.12528 3.46112 3.02228 3.69112 3.00828 3.93612C2.99328 4.18612 2.70728 10.1081 7.29928 14.7021C11.3053 18.7071 16.3233 19.0001 17.7053 19.0001C17.9073 19.0001 18.0313 18.9941 18.0643 18.9921C18.3093 18.9781 18.5393 18.8751 18.7123 18.7011L20.5723 16.5301C20.9263 16.1191 20.8873 15.5031 20.4873 15.1401Z" fill="white"/>
</svg>
