<svg width="24" height="24" viewBox="0 0 24 24" fill="none" xmlns="http://www.w3.org/2000/svg">
<path d="M17.7064 12.293C17.3154 11.902 16.6834 11.902 16.2924 12.293L14.6984 13.887C13.9594 13.667 12.5804 13.167 11.7064 12.293C10.8324 11.419 10.3324 10.04 10.1124 9.30101L11.7064 7.70701C12.0974 7.31601 12.0974 6.68401 11.7064 6.29301L7.70636 2.29301C7.31536 1.90201 6.68336 1.90201 6.29236 2.29301L3.58036 5.00501C3.20036 5.38501 2.98636 5.90701 2.99436 6.44001C3.01736 7.86401 3.39436 12.81 7.29236 16.708C11.1904 20.606 16.1364 20.982 17.5614 21.006C17.5664 21.006 17.5844 21.006 17.5894 21.006C18.1174 21.006 18.6164 20.798 18.9944 20.42L21.7064 17.708C22.0974 17.317 22.0974 16.685 21.7064 16.294L17.7064 12.293ZM17.5794 19.005C16.3314 18.984 12.0614 18.649 8.70636 15.293C5.34036 11.927 5.01436 7.64201 4.99436 6.41901L6.99936 4.41401L9.58536 7.00001L8.29236 8.29301C8.05336 8.53101 7.95136 8.87501 8.02036 9.20501C8.04436 9.32001 8.63136 12.047 10.2914 13.707C11.9514 15.367 14.6784 15.954 14.7934 15.978C15.1264 16.049 15.4674 15.946 15.7054 15.707L16.9994 14.414L19.5854 17L17.5794 19.005Z" fill="white"/>
</svg>
