<svg width="36" height="36" viewBox="0 0 36 36" fill="none" xmlns="http://www.w3.org/2000/svg">
<path d="M10.5133 28.9277V15.0375C10.5137 14.8663 10.5484 14.6969 10.6153 14.5394C10.6823 14.3818 10.7801 14.2393 10.903 14.1201L16.0569 9.10896C16.2942 8.87868 16.6121 8.75021 16.9428 8.75093H19.4057C19.5362 8.75093 19.6614 8.69907 19.7537 8.60677C19.846 8.51447 19.8979 8.38928 19.8979 8.25874V5.96191C19.8983 5.62409 20.0326 5.3002 20.2715 5.0613C20.5103 4.82239 20.8342 4.68797 21.172 4.6875H29.3652C29.2593 4.47642 29.0968 4.2989 28.8959 4.17475C28.695 4.05059 28.4636 3.98469 28.2274 3.98438H19.0626C18.7247 3.98477 18.4008 4.11916 18.1619 4.35807C17.923 4.59699 17.7886 4.92091 17.7882 5.25879V7.55541C17.7882 7.68594 17.7364 7.81113 17.6441 7.90344C17.5517 7.99574 17.4266 8.04759 17.296 8.04759H14.8329C14.5022 8.04687 14.1843 8.17534 13.947 8.40562L8.79306 13.4168C8.67014 13.5359 8.57233 13.6785 8.50539 13.8361C8.43846 13.9936 8.40375 14.163 8.40332 14.3342V28.2246C8.40425 29.0309 8.72502 29.804 9.29524 30.3741C9.86546 30.9442 10.6386 31.2648 11.4449 31.2656H11.612C11.2682 30.9807 10.9915 30.6235 10.8015 30.2194C10.6116 29.8153 10.5132 29.3742 10.5133 28.9277Z" fill="#F4E3D4"/>
<path d="M11.2687 32.25H26.2848C27.352 32.2488 28.3752 31.8243 29.1298 31.0697C29.8845 30.315 30.309 29.2918 30.3102 28.2246V5.25879C30.3095 4.6599 30.0713 4.08574 29.6478 3.66227C29.2243 3.23881 28.6501 3.00063 28.0512 3H18.8864C18.2876 3.00067 17.7134 3.23886 17.29 3.66232C16.8665 4.08578 16.6283 4.65993 16.6276 5.25879V7.06322H14.6567C14.0702 7.06212 13.5065 7.29024 13.0859 7.69891L12.1085 8.64905L11.1865 7.66116L10.4669 8.33285L11.403 9.33516L9.87074 10.825L8.97862 9.86953L8.25897 10.5412L9.1648 11.5115L7.93223 12.7102C7.7148 12.9212 7.54181 13.1736 7.42347 13.4526C7.30513 13.7315 7.24382 14.0314 7.24316 14.3344V28.2246C7.24437 29.2919 7.66888 30.3151 8.42356 31.0697C9.17823 31.8244 10.2014 32.2488 11.2687 32.25ZM8.22768 14.3344C8.22811 14.1632 8.26282 13.9938 8.32975 13.8363C8.39669 13.6787 8.4945 13.5362 8.61742 13.417L13.7713 8.40584C14.0087 8.17556 14.3266 8.04708 14.6573 8.0478H17.1201C17.2506 8.0478 17.3758 7.99595 17.4681 7.90365C17.5604 7.81134 17.6123 7.68615 17.6123 7.55562V5.25879C17.6127 4.92096 17.747 4.59708 17.9859 4.35817C18.2247 4.11927 18.5486 3.98484 18.8864 3.98438H28.0512C28.3891 3.98475 28.713 4.11914 28.952 4.35805C29.1909 4.59697 29.3253 4.92091 29.3256 5.25879V28.2246C29.3247 29.0308 29.004 29.8038 28.434 30.3739C27.8639 30.944 27.091 31.2647 26.2848 31.2656H11.2687C10.4625 31.2647 9.6895 30.944 9.1194 30.3739C8.5493 29.8038 8.22861 29.0309 8.22768 28.2246V14.3344Z" fill="#4F4F4F"/>
<path d="M19.9456 8.85927H23.706C24.5668 8.85826 25.3921 8.51584 26.0008 7.90714C26.6095 7.29843 26.9518 6.47313 26.9528 5.6123C26.9528 5.48177 26.9009 5.35658 26.8086 5.26428C26.7163 5.17197 26.5911 5.12012 26.4606 5.12012H20.8286C20.4639 5.12053 20.1143 5.26557 19.8564 5.52343C19.5986 5.78129 19.4535 6.1309 19.4531 6.49557V8.36708C19.4531 8.43174 19.4659 8.49576 19.4906 8.5555C19.5154 8.61523 19.5516 8.6695 19.5974 8.71521C19.6431 8.76092 19.6974 8.79716 19.7572 8.82188C19.8169 8.8466 19.8809 8.8593 19.9456 8.85927ZM20.4378 6.49557C20.4379 6.39188 20.4791 6.29248 20.5524 6.21916C20.6258 6.14584 20.7252 6.1046 20.8289 6.10449H25.9146C25.802 6.60641 25.522 7.0551 25.1206 7.37683C24.7192 7.69857 24.2204 7.8742 23.706 7.87489H20.4379L20.4378 6.49557Z" fill="#4F4F4F"/>
<path d="M7.91073 11.0771C8.00228 11.1686 8.12619 11.2204 8.25564 11.2212C8.38508 11.222 8.50964 11.1718 8.60233 11.0814L12.0903 7.68056C12.137 7.63507 12.1741 7.58077 12.1996 7.52081C12.2252 7.46085 12.2385 7.39642 12.2389 7.33126C12.2393 7.2661 12.2268 7.2015 12.202 7.14123C12.1773 7.08095 12.1408 7.02618 12.0948 6.98011L10.3281 5.2135C10.2366 5.12195 10.1127 5.07016 9.98321 5.06935C9.85375 5.06853 9.72918 5.11876 9.63648 5.20914L6.14856 8.61009C6.10192 8.65558 6.06477 8.70987 6.03927 8.76983C6.01376 8.82978 6.00042 8.8942 6.00001 8.95936C5.9996 9.02451 6.01213 9.08909 6.03687 9.14937C6.06161 9.20964 6.09807 9.2644 6.14413 9.31047L7.91073 11.0771ZM9.97574 6.25322L11.0463 7.324L8.26314 10.0374L7.19263 8.96693L9.97574 6.25322Z" fill="#E85222"/>
<path d="M14.3032 16.395H15.4332C15.5498 16.395 15.6465 16.4233 15.7232 16.48C15.8032 16.5333 15.8565 16.6067 15.8832 16.7L17.1132 21.025C17.1432 21.1317 17.1698 21.2483 17.1932 21.375C17.2198 21.4983 17.2448 21.63 17.2682 21.77C17.2948 21.63 17.3232 21.4983 17.3532 21.375C17.3865 21.2483 17.4215 21.1317 17.4582 21.025L18.8782 16.7C18.9048 16.6233 18.9565 16.5533 19.0332 16.49C19.1132 16.4267 19.2098 16.395 19.3232 16.395H19.7182C19.8348 16.395 19.9315 16.4233 20.0082 16.48C20.0848 16.5333 20.1382 16.6067 20.1682 16.7L21.5782 21.025C21.6515 21.2383 21.7148 21.475 21.7682 21.735C21.7915 21.605 21.8148 21.48 21.8382 21.36C21.8648 21.24 21.8915 21.1283 21.9182 21.025L23.1482 16.7C23.1715 16.6167 23.2232 16.545 23.3032 16.485C23.3832 16.425 23.4798 16.395 23.5932 16.395H24.6482L22.4032 23.625H21.1882L19.6082 18.685C19.5882 18.6217 19.5665 18.5533 19.5432 18.48C19.5232 18.4067 19.5032 18.3283 19.4832 18.245C19.4632 18.3283 19.4415 18.4067 19.4182 18.48C19.3982 18.5533 19.3782 18.6217 19.3582 18.685L17.7632 23.625H16.5482L14.3032 16.395Z" fill="#E85222"/>
</svg>
