<svg width="40" height="40" viewBox="0 0 40 40" fill="none" xmlns="http://www.w3.org/2000/svg">
<circle cx="20" cy="20" r="20" fill="#E85222" fill-opacity="0.4"/>
<path opacity="0.5" d="M20 40C31.0457 40 40 31.0457 40 20C40 8.9543 31.0457 0 20 0V40Z" fill="#E85222"/>
<g clip-path="url(#clip0)">
<path d="M17.142 30.5501C15.9785 30.5501 15.0322 29.6036 15.0322 28.4403C15.0322 27.2769 15.9785 26.3306 17.142 26.3306C18.3052 26.3306 19.2515 27.2769 19.2515 28.4403C19.2515 29.6036 18.3052 30.5501 17.142 30.5501Z" fill="#9F9F9F"/>
<path d="M17.1418 29.1437C16.7538 29.1437 16.4385 28.8286 16.4385 28.4406C16.4385 28.0526 16.7538 27.7373 17.1418 27.7373C17.5298 27.7373 17.8449 28.0526 17.8449 28.4406C17.8449 28.8286 17.5298 29.1437 17.1418 29.1437Z" fill="#465A61"/>
<path d="M27.0814 30.5501C25.9182 30.5501 24.9717 29.6036 24.9717 28.4403C24.9717 27.2769 25.9182 26.3306 27.0814 26.3306C28.2447 26.3306 29.1912 27.2769 29.1912 28.4403C29.1912 29.6036 28.2447 30.5501 27.0814 30.5501Z" fill="#B5B5B5"/>
<path d="M27.0812 29.1437C26.6932 29.1437 26.3779 28.8286 26.3779 28.4406C26.3779 28.0526 26.6932 27.7373 27.0812 27.7373C27.4692 27.7373 27.7844 28.0526 27.7844 28.4406C27.7844 28.8286 27.4692 29.1437 27.0812 29.1437Z" fill="#3B4A51"/>
<path d="M29.3032 25.6273C29.3032 26.0211 28.9937 26.3306 28.6 26.3306H15.1449C13.9774 26.3306 13.0352 25.3881 13.0352 24.2208C13.0352 23.152 13.8227 22.2658 14.8635 22.1393C14.9479 22.1111 15.0464 22.1111 15.1449 22.1111C15.3135 22.1111 15.4824 22.1816 15.595 22.294L15.1729 23.5177C15.159 23.5177 15.159 23.5177 15.1449 23.5177C14.751 23.5177 14.4416 23.827 14.4416 24.2208C14.4416 24.6147 14.751 24.9241 15.1449 24.9241H28.6C28.9937 24.9241 29.3032 25.2334 29.3032 25.6273Z" fill="#465A61"/>
<path d="M12.667 12.2674C12.7117 12.3236 13.469 12.6657 14.2315 13.0006C14.2342 12.9399 14.2419 12.8799 14.2282 12.818L13.6094 10.0049C13.5386 9.68213 13.2529 9.45288 12.9226 9.45288H8.70331C8.31458 9.45288 8 9.76746 8 10.1562C8 10.5447 8.31458 10.8593 8.70331 10.8593H12.3574L12.667 12.2674Z" fill="#465A61"/>
<path d="M29.3027 25.6272C29.3027 26.0211 28.9933 26.3305 28.5996 26.3305H21.9844V24.9241H28.5996C28.9933 24.9241 29.3027 25.2333 29.3027 25.6272Z" fill="#3B4A51"/>
<path d="M31.8626 12.5475C31.722 12.3646 31.525 12.2661 31.2999 12.2661H12.6689L14.8631 22.1395L15.1725 23.5179H28.4871C28.7965 23.5179 29.0778 23.3068 29.1622 23.0115L31.975 13.1663C32.0314 12.9553 31.9891 12.7162 31.8626 12.5475Z" fill="#FFC800"/>
<path d="M31.975 13.1663L29.1621 23.0115C29.0777 23.3068 28.7964 23.5179 28.487 23.5179H21.9844V12.2661H31.2999C31.5249 12.2661 31.7219 12.3646 31.8625 12.5475C31.9891 12.7162 32.0314 12.9553 31.975 13.1663Z" fill="#FFDE67"/>
</g>
<defs>
<clipPath id="clip0">
<rect width="24" height="24" fill="white" transform="translate(8 8)"/>
</clipPath>
</defs>
</svg>
