<svg width="16" height="16" viewBox="0 0 16 16" fill="none" xmlns="http://www.w3.org/2000/svg">
<path d="M3.49974 13.6507C3.36839 13.6507 3.24034 13.5987 3.14634 13.5041C3.02769 13.386 2.97703 13.216 3.00975 13.0526L3.48106 10.6953C3.50035 10.5981 3.54832 10.5093 3.61766 10.44L10.5224 3.53604C11.237 2.82132 12.3998 2.82132 13.1151 3.53604C13.461 3.88199 13.6517 4.34207 13.6517 4.83206C13.6517 5.32205 13.461 5.78201 13.1144 6.12808L6.21043 13.0327C6.1411 13.1027 6.05174 13.1501 5.95506 13.1693L3.59837 13.6407C3.56566 13.6474 3.53233 13.6507 3.49974 13.6507ZM5.85704 12.6794H5.86375H5.85704ZM4.43174 11.0401L4.13768 12.5133L5.61033 12.2187L12.4077 5.42142C12.565 5.26334 12.6517 5.05472 12.6517 4.83206C12.6517 4.60941 12.565 4.40067 12.4077 4.24271C12.0837 3.918 11.555 3.918 11.2291 4.24271L4.43174 11.0401Z" fill="white"/>
<path d="M11.8187 7.21802C11.6908 7.21802 11.5627 7.16931 11.4655 7.07129L9.58008 5.1853C9.38477 4.98999 9.38477 4.67334 9.58008 4.47803C9.77539 4.28271 10.092 4.28271 10.2875 4.47803L12.1727 6.36401C12.368 6.55933 12.368 6.87598 12.1727 7.07129C12.0747 7.1687 11.9468 7.21802 11.8187 7.21802Z" fill="white"/>
</svg>
