<svg width="36" height="36" viewBox="0 0 36 36" fill="none" xmlns="http://www.w3.org/2000/svg">
<path d="M19.3825 4.00005C19.267 4.00005 19.1562 4.04722 19.0745 4.13119C18.9929 4.21515 18.947 4.32903 18.947 4.44777C18.947 4.56651 18.9929 4.68039 19.0745 4.76435C19.1562 4.84832 19.267 4.89549 19.3825 4.89549C26.4111 4.89549 32.1289 10.7741 32.1289 18C32.1289 25.2259 26.4111 31.1046 19.3825 31.1046C16.3389 31.1078 13.3948 29.99 11.0839 27.9537C8.77288 25.9174 7.24785 23.0974 6.78511 20.0047H9.32864C9.40668 20.0047 9.48326 19.9831 9.5504 19.9422C9.61753 19.9013 9.67274 19.8426 9.71026 19.7722C9.74778 19.7019 9.76622 19.6225 9.76365 19.5423C9.76109 19.4621 9.73762 19.3841 9.69569 19.3164L6.74915 14.5617C6.70981 14.4982 6.65553 14.4459 6.59133 14.4097C6.52714 14.3735 6.4551 14.3546 6.38188 14.3546C6.30866 14.3546 6.23663 14.3735 6.17243 14.4097C6.10824 14.4459 6.05396 14.4982 6.01461 14.5617L3.0682 19.3164C3.02627 19.3841 3.0028 19.4621 3.00023 19.5423C2.99767 19.6225 3.01611 19.7019 3.05363 19.7722C3.09114 19.8426 3.14636 19.9013 3.21349 19.9422C3.28062 19.9831 3.35721 20.0047 3.43525 20.0047H5.9045C6.85982 26.8712 12.5862 32 19.3825 32C22.0757 32 24.7085 31.179 26.9479 29.6406C29.1873 28.1023 30.9327 25.9158 31.9634 23.3576C32.9941 20.7995 33.2638 17.9845 32.7383 15.2688C32.2129 12.5531 30.916 10.0585 29.0116 8.10056C27.75 6.79644 26.2494 5.76252 24.5965 5.05867C22.9437 4.35481 21.1715 3.995 19.3825 4.00005ZM6.28169 19.1093H4.22957L6.3821 15.6355L8.53463 19.1093H6.28169Z" fill="#4F4F4F"/>
<path d="M13.9093 21.6376H17.4529C17.6321 21.6376 17.8013 21.4087 17.8013 21.1598C17.8013 20.911 17.6321 20.702 17.4529 20.702H14.5264V20.3237C14.5264 19.179 17.7516 18.4822 17.7516 16.3422C17.7516 15.1477 16.7761 14.3613 15.6214 14.3613C14.5364 14.3613 13.5808 15.0581 13.5808 16.1232C13.5808 16.5711 13.7799 16.7105 14.0586 16.7105C14.407 16.7105 14.616 16.5114 14.616 16.3124C14.616 15.6355 15.064 15.3269 15.6214 15.3269C16.3779 15.3269 16.6964 15.8844 16.6964 16.3721C16.6964 17.905 13.4414 18.7112 13.4414 20.3239V21.2894C13.4414 21.4983 13.7102 21.6376 13.9093 21.6376Z" fill="#E85222"/>
<path d="M21.1844 17.2978C20.9156 17.2978 20.6568 17.3973 20.6568 17.6462V19.0198H19.1936L21.2441 14.9287C21.2728 14.8802 21.2898 14.8257 21.2939 14.7694C21.2939 14.5206 20.9654 14.3613 20.7663 14.3613C20.6705 14.3609 20.5765 14.3879 20.4954 14.439C20.4143 14.4902 20.3495 14.5633 20.3085 14.65L17.8996 19.3981C17.8614 19.4648 17.8409 19.5402 17.8398 19.6171C17.8398 19.856 17.9991 20.0053 18.2081 20.0053H20.6569V21.2894C20.6569 21.5184 20.9157 21.6378 21.1844 21.6378C21.4432 21.6378 21.712 21.5184 21.712 21.2894V20.0053H22.1997C22.3889 20.0053 22.5581 19.7565 22.5581 19.5176C22.5581 19.2687 22.4386 19.0199 22.1997 19.0199H21.712V17.6462C21.712 17.3973 21.4432 17.2978 21.1844 17.2978Z" fill="#E85222"/>
<path d="M22.8611 16.5868C23.0329 16.5868 23.1863 16.4763 23.1863 16.372V14.85C23.1863 14.4511 23.481 14.2118 23.7755 14.2118C24.113 14.2118 24.3953 14.5309 24.3953 14.85V16.372C24.3953 16.5131 24.5672 16.5868 24.7144 16.5868C24.874 16.5868 25.0397 16.5131 25.0397 16.372V14.85C25.0397 14.1873 24.5488 13.641 23.9719 13.641C23.8103 13.6373 23.651 13.6791 23.5121 13.7616C23.3732 13.8441 23.2603 13.964 23.1863 14.1076V12.1559C23.1863 12.0332 23.0329 11.9473 22.8611 11.9473C22.6709 11.9473 22.542 12.0332 22.542 12.1559V16.372C22.542 16.4763 22.6709 16.5868 22.8611 16.5868Z" fill="#E85222"/>
<path d="M26.0034 13.6776C25.8193 13.6776 25.6904 13.7636 25.6904 13.8863V16.3717C25.6904 16.476 25.8193 16.5865 26.0034 16.5865C26.1875 16.5865 26.3348 16.476 26.3348 16.3717V15.1137C26.3348 14.5552 26.703 14.2116 27.0774 14.2116H27.2737C27.4026 14.2116 27.5192 14.0828 27.5192 13.9232C27.5192 13.7698 27.4026 13.6409 27.2737 13.6409H27.0775C26.7154 13.6409 26.427 13.8986 26.2981 14.1564V13.8864C26.298 13.7636 26.163 13.6776 26.0034 13.6776Z" fill="#E85222"/>
</svg>
