<svg width="36" height="36" viewBox="0 0 36 36" fill="none" xmlns="http://www.w3.org/2000/svg">
<path d="M26.2451 12.3153L22.7625 15.7979C22.4713 15.6539 22.1437 15.5725 21.7974 15.5725C21.451 15.5725 21.1235 15.6539 20.8323 15.7979L19.2736 14.2392C18.999 13.9647 18.5539 13.9647 18.2792 14.2392C18.0046 14.5138 18.0046 14.959 18.2792 15.2336L19.8378 16.7922C19.6937 17.0835 19.6125 17.4111 19.6125 17.7574C19.6125 18.9621 20.5926 19.9423 21.7974 19.9423C23.0022 19.9423 23.9823 18.9621 23.9823 17.7574C23.9823 17.4111 23.901 17.0835 23.757 16.7922L27.1374 13.4118L27.2395 13.3097C27.5141 13.0351 27.5141 12.5899 27.2395 12.3153C26.9649 12.0407 26.5199 12.0407 26.2451 12.3153ZM21.7974 18.5361C21.368 18.5361 21.0187 18.1868 21.0187 17.7574C21.0187 17.3281 21.368 16.9788 21.7974 16.9788C22.2267 16.9788 22.576 17.3281 22.576 17.7574C22.576 18.1868 22.2267 18.5361 21.7974 18.5361Z" fill="#E85222"/>
<path d="M29.3155 17.0635H28.6641C28.2758 17.0635 27.9609 17.3783 27.9609 17.7666C27.9609 18.1549 28.2758 18.4697 28.6641 18.4697H29.3155C29.7038 18.4697 30.0186 18.1549 30.0186 17.7666C30.0186 17.3783 29.7038 17.0635 29.3155 17.0635Z" fill="#E85222"/>
<path d="M14.9307 17.0459H14.2793C13.891 17.0459 13.5762 17.3607 13.5762 17.749C13.5762 18.1374 13.891 18.4521 14.2793 18.4521H14.9307C15.3189 18.4521 15.6338 18.1374 15.6338 17.749C15.6338 17.3607 15.3189 17.0459 14.9307 17.0459Z" fill="#E85222"/>
<path d="M21.8057 11.5938C22.1939 11.5938 22.5088 11.279 22.5088 10.8906V10.2393C22.5088 9.85092 22.1939 9.53613 21.8057 9.53613C21.4174 9.53613 21.1025 9.85092 21.1025 10.2393V10.8906C21.1025 11.279 21.4174 11.5938 21.8057 11.5938Z" fill="#E85222"/>
<path d="M21.7891 23.9209C21.4008 23.9209 21.0859 24.2357 21.0859 24.624V25.2754C21.0859 25.6637 21.4008 25.9785 21.7891 25.9785C22.1773 25.9785 22.4922 25.6637 22.4922 25.2754V24.624C22.4922 24.2357 22.1773 23.9209 21.7891 23.9209Z" fill="#E85222"/>
<path fill-rule="evenodd" clip-rule="evenodd" d="M9.04939 17.7109C9.04939 10.6906 14.7405 4.99951 21.7608 4.99951C28.7812 4.99951 34.4723 10.6906 34.4723 17.7109C34.4723 20.0271 33.8533 22.1971 32.772 24.0663C32.6337 24.3053 32.7154 24.6112 32.9545 24.7495C33.1935 24.8877 33.4993 24.8061 33.6376 24.567C34.8046 22.5498 35.4723 20.2076 35.4723 17.7109C35.4723 10.1383 29.3334 3.99951 21.7608 3.99951C16.1818 3.99951 11.3811 7.3315 9.23999 12.114C9.16715 12.0726 9.08287 12.0489 8.99307 12.0489H4.33102C4.05488 12.0489 3.83102 12.2728 3.83102 12.5489C3.83102 12.825 4.05488 13.0489 4.33102 13.0489H8.86233C8.54023 13.9399 8.30782 14.8738 8.17601 15.8398C8.13557 15.8292 8.09314 15.8236 8.04939 15.8236H1.5C1.22386 15.8236 1 16.0475 1 16.3236C1 16.5997 1.22386 16.8236 1.5 16.8236H8.04939C8.05889 16.8236 8.06833 16.8233 8.0777 16.8228C8.05892 17.1164 8.04939 17.4126 8.04939 17.7109C8.04939 18.3573 8.09411 18.9932 8.18063 19.6157C8.13881 19.6044 8.09481 19.5983 8.04939 19.5983H6.21837C5.94223 19.5983 5.71837 19.8222 5.71837 20.0983C5.71837 20.3744 5.94223 20.5983 6.21837 20.5983H8.04939C8.1556 20.5983 8.25407 20.5652 8.33505 20.5087C8.54213 21.5076 8.85787 22.4666 9.26936 23.373H5.2747C4.99855 23.373 4.7747 23.5969 4.7747 23.873C4.7747 24.1491 4.99855 24.373 5.2747 24.373H9.7738C12.1158 28.5779 16.6061 31.4224 21.7608 31.4224C24.5475 31.4224 27.1415 30.5905 29.306 29.1614C29.5365 29.0093 29.5999 28.6991 29.4478 28.4687C29.2956 28.2383 28.9855 28.1748 28.755 28.3269C26.749 29.6514 24.3457 30.4224 21.7608 30.4224C14.7405 30.4224 9.04939 24.7313 9.04939 17.7109ZM32.2638 26.5256C32.4415 26.3142 32.4141 25.9988 32.2026 25.8212C31.9912 25.6436 31.6758 25.671 31.4982 25.8824C31.3683 26.0369 31.2349 26.1883 31.098 26.3365C30.9353 26.5125 30.7677 26.6839 30.5954 26.8505C30.3969 27.0424 30.3916 27.3589 30.5835 27.5575C30.7755 27.756 31.092 27.7613 31.2905 27.5694C31.4763 27.3898 31.657 27.205 31.8324 27.0152C31.98 26.8555 32.1239 26.6923 32.2638 26.5256ZM3.18102 24.673C3.54001 24.673 3.83102 24.382 3.83102 24.023C3.83102 23.664 3.54001 23.373 3.18102 23.373H2.59367C2.23469 23.373 1.94367 23.664 1.94367 24.023C1.94367 24.382 2.23469 24.673 2.59367 24.673H3.18102Z" fill="#4F4F4F"/>
<circle cx="21.7998" cy="17.6494" r="10" stroke="#4F4F4F"/>
</svg>
