<svg width="24" height="26" viewBox="0 0 24 26" fill="none" xmlns="http://www.w3.org/2000/svg">
<circle cx="12" cy="12" r="12" fill="#F3EFEF"/>
<g filter="url(#filter0_d)">
<path d="M17.4191 9.16567H15.9013V7.13191C15.9013 6.78349 15.6407 6.5 15.3204 6.5H6.58092C6.2606 6.5 6 6.78346 6 7.13191V14.6424C6 14.8094 6.09169 14.9587 6.23358 15.0226C6.28066 15.0438 6.32993 15.0541 6.37875 15.0541C6.477 15.0541 6.57335 15.0123 6.64589 14.9334L7.84908 13.6247H8.09872V15.6585C8.09872 16.0069 8.35932 16.2904 8.67966 16.2904H12.339C12.4361 16.2904 12.5148 16.2048 12.5148 16.0992C12.5148 15.9936 12.4361 15.908 12.339 15.908H8.67966C8.55319 15.908 8.45028 15.796 8.45028 15.6585V13.6247H15.3204C15.6407 13.6247 15.9013 13.3412 15.9013 12.9928V11.6341C15.9013 11.5285 15.8226 11.4429 15.7255 11.4429C15.6284 11.4429 15.5497 11.5285 15.5497 11.6341V12.9928C15.5497 13.1303 15.4469 13.2423 15.3204 13.2423H7.77628C7.72967 13.2423 7.68495 13.2624 7.652 13.2983L6.39731 14.663C6.39352 14.6671 6.38461 14.6768 6.36811 14.6693C6.35156 14.6618 6.35156 14.6482 6.35156 14.6423V7.13191C6.35156 6.99434 6.45445 6.8824 6.58092 6.8824H15.3204C15.4468 6.8824 15.5497 6.99432 15.5497 7.13191V10.793C15.5497 10.8986 15.6284 10.9842 15.7255 10.9842C15.8226 10.9842 15.9013 10.8986 15.9013 10.793V9.5481H17.4191C17.5456 9.5481 17.6485 9.66002 17.6485 9.79758V17.308C17.6485 17.3139 17.6485 17.3275 17.6319 17.335C17.6154 17.3424 17.6065 17.3328 17.6027 17.3286L16.348 15.9639C16.3151 15.928 16.2704 15.9079 16.2237 15.9079H13.1122C13.0151 15.9079 12.9364 15.9935 12.9364 16.0991C12.9364 16.2047 13.0151 16.2903 13.1122 16.2903H16.1509L17.3541 17.599C17.4267 17.6779 17.523 17.7198 17.6213 17.7198C17.6701 17.7198 17.7194 17.7094 17.7664 17.6882C17.9083 17.6243 18 17.475 18 17.308V9.79758C18 9.44916 17.7394 9.16567 17.4191 9.16567Z" fill="#02040F"/>
<path d="M11.2013 12.0289C11.1197 12.0745 11.0354 12.1184 10.9506 12.1593C10.8659 12.1184 10.7816 12.0745 10.7 12.0289C10.2886 11.7989 9.9233 11.5128 9.6143 11.1787C9.54546 11.1042 9.43416 11.1045 9.36572 11.1794C9.29728 11.2543 9.29759 11.3754 9.36642 11.4498C9.70109 11.8117 10.0957 12.121 10.5393 12.369C10.6293 12.4193 10.7224 12.4677 10.8158 12.5125C10.8587 12.5331 10.9047 12.5434 10.9506 12.5434C10.9966 12.5434 11.0426 12.5331 11.0854 12.5126C11.1789 12.4676 11.2719 12.4193 11.362 12.369C12.7752 11.5788 13.5146 10.2523 13.5146 9.35041C13.5146 8.37465 12.8259 7.58081 11.9792 7.58081C11.5966 7.58081 11.2312 7.74471 10.9506 8.03663C10.6701 7.74471 10.3047 7.58081 9.92201 7.58081C9.07533 7.58081 8.38647 8.37465 8.38647 9.35041C8.38647 9.76948 8.55665 10.2885 8.85337 10.7744C8.90709 10.8624 9.01622 10.8863 9.09705 10.8279C9.17794 10.7695 9.19995 10.6508 9.14623 10.5628C8.88682 10.138 8.73801 9.69608 8.73801 9.35039C8.73801 8.58548 9.26913 7.96319 9.92199 7.96319C10.2638 7.96319 10.5889 8.13652 10.814 8.43874C10.8474 8.48356 10.8976 8.50959 10.9506 8.50959C11.0036 8.50959 11.0538 8.48356 11.0872 8.43874C11.3123 8.13652 11.6375 7.96319 11.9792 7.96319C12.632 7.96319 13.163 8.58548 13.163 9.35039C13.163 9.96193 12.6305 11.2298 11.2013 12.0289Z" fill="#02040F"/>
<path d="M16.4401 14.44C16.5372 14.44 16.6159 14.3544 16.6159 14.2488C16.6159 14.1432 16.5372 14.0576 16.4401 14.0576H14.3354C14.2384 14.0576 14.1597 14.1432 14.1597 14.2488C14.1597 14.3544 14.2384 14.44 14.3354 14.44H16.4401Z" fill="#02040F"/>
<path d="M13.5584 14.2488C13.5584 14.1432 13.4797 14.0576 13.3826 14.0576H9.28882C9.19174 14.0576 9.11304 14.1432 9.11304 14.2488C9.11304 14.3544 9.19174 14.44 9.28882 14.44H13.3826C13.4797 14.44 13.5584 14.3544 13.5584 14.2488Z" fill="#02040F"/>
<path d="M11.5 15.1986H16.44C16.5371 15.1986 16.6158 15.113 16.6158 15.0074C16.6158 14.9018 16.5371 14.8162 16.44 14.8162H11.5C11.4029 14.8162 11.3242 14.9018 11.3242 15.0074C11.3242 15.113 11.4029 15.1986 11.5 15.1986Z" fill="#02040F"/>
<path d="M9.28882 14.8162C9.19174 14.8162 9.11304 14.9018 9.11304 15.0074C9.11304 15.113 9.19174 15.1986 9.28882 15.1986H10.5409C10.638 15.1986 10.7167 15.113 10.7167 15.0074C10.7167 14.9018 10.638 14.8162 10.5409 14.8162H9.28882Z" fill="#02040F"/>
<path d="M13.238 12.5435H13.5271C13.6242 12.5435 13.7029 12.4579 13.7029 12.3523C13.7029 12.2467 13.6242 12.1611 13.5271 12.1611H13.238C13.141 12.1611 13.0623 12.2467 13.0623 12.3523C13.0623 12.4579 13.141 12.5435 13.238 12.5435Z" fill="#02040F"/>
</g>
<defs>
<filter id="filter0_d" x="2" y="6.5" width="20" height="19.2198" filterUnits="userSpaceOnUse" color-interpolation-filters="sRGB">
<feFlood flood-opacity="0" result="BackgroundImageFix"/>
<feColorMatrix in="SourceAlpha" type="matrix" values="0 0 0 0 0 0 0 0 0 0 0 0 0 0 0 0 0 0 127 0"/>
<feOffset dy="4"/>
<feGaussianBlur stdDeviation="2"/>
<feColorMatrix type="matrix" values="0 0 0 0 0 0 0 0 0 0 0 0 0 0 0 0 0 0 0.1 0"/>
<feBlend mode="normal" in2="BackgroundImageFix" result="effect1_dropShadow"/>
<feBlend mode="normal" in="SourceGraphic" in2="effect1_dropShadow" result="shape"/>
</filter>
</defs>
</svg>
