<svg width="40" height="40" viewBox="0 0 40 40" fill="none" xmlns="http://www.w3.org/2000/svg">
<circle cx="20" cy="20" r="20" fill="#E85222" fill-opacity="0.4"/>
<path opacity="0.5" d="M20 40C31.0457 40 40 31.0457 40 20C40 8.9543 31.0457 0 20 0V40Z" fill="#E85222"/>
<g clip-path="url(#clip0)">
<path d="M25.3584 24.8318L19.4492 18.9226L18.7935 19.9988L18.0763 17.5497L15.452 14.9253L13.9675 18.5771L13.1407 18.1225L10.8383 24.2637V24.2642L10.9053 26.1391L10.0588 26.342V26.3425L8.29409 31.048C8.18863 31.3293 8.27346 31.6091 8.4558 31.7914C8.63766 31.9737 8.91655 32.0595 9.19919 31.9531L12.9223 30.5573L13.0652 29.6859L14.3931 30.0056L17.2819 28.9224V27.842L18.7935 28.3557L21.5946 27.3053L21.8889 26.4672L23.0547 26.7573H23.0551L25.1081 25.9877C25.5876 25.8077 25.7189 25.1922 25.3584 24.8318Z" fill="#FFC800"/>
<path d="M25.1084 25.9875L23.0554 26.7571C23.0554 26.7571 23.0554 26.7571 23.0549 26.7571L21.8892 26.467L21.5948 27.3051L18.7937 28.3555L17.2821 27.8418V28.9222L14.3934 30.0054L13.0655 29.6857L12.9225 30.5571L9.19945 31.9529C8.91681 32.0593 8.63792 31.9736 8.45605 31.7912L20.3874 19.8604L25.3587 24.8316C25.7191 25.1921 25.5879 25.8076 25.1084 25.9875Z" fill="#FFDE67"/>
<path d="M23.0543 26.7567L21.5943 27.3046C20.1037 25.7649 19.0275 23.8562 18.4716 21.7746C18.1102 20.4214 17.9687 18.9946 18.076 17.5491L19.4489 18.922C19.4695 19.491 19.5333 20.0544 19.6388 20.6075C20.0854 22.9525 21.2755 25.1124 23.0543 26.7567Z" fill="#F0F7FF"/>
<path d="M23.0544 26.7568L21.5943 27.3048C20.1038 25.765 19.0276 23.8564 18.4717 21.7748L19.6388 20.6077C20.0855 22.9527 21.2756 25.1126 23.0544 26.7568Z" fill="#DFE7F4"/>
<path d="M18.7932 28.3555L17.2815 28.9222C16.219 27.9707 15.327 26.8495 14.6408 25.6059C13.3814 23.325 12.857 20.6951 13.1404 18.1223L14.2592 15.1389C14.4387 14.6613 15.0532 14.5267 15.4151 14.8886L15.4517 14.9251C14.0344 18.1222 14.2041 21.6446 15.6813 24.5654C16.4243 26.0362 17.485 27.3309 18.7932 28.3555Z" fill="#F0F7FF"/>
<path d="M18.793 28.3555L17.2814 28.9222C16.2188 27.9707 15.3268 26.8495 14.6406 25.606L15.6812 24.5654C16.4241 26.0363 17.4848 27.3309 18.793 28.3555Z" fill="#DFE7F4"/>
<path d="M14.3929 30.0056L12.922 30.5572C12.3736 30.0252 11.874 29.4436 11.4296 28.8173C10.9253 28.1163 10.4367 27.2547 10.0586 26.3425V26.342L10.8381 24.2642C11.1592 25.5475 11.7001 26.7456 12.4303 27.8166C12.9806 28.6246 13.6392 29.3601 14.3929 30.0056Z" fill="#F0F7FF"/>
<path d="M14.393 30.0054L12.9221 30.557C12.3737 30.025 11.874 29.4434 11.4297 28.8171L12.4304 27.8164C12.9807 28.6244 13.6393 29.3599 14.393 30.0054Z" fill="#DFE7F4"/>
<path d="M19.1161 15.6627C18.8415 15.3881 18.8415 14.943 19.1161 14.6684C21.7612 12.0233 20.9434 9.44772 20.9349 9.42199C20.8121 9.05362 21.0112 8.65544 21.3796 8.53263C21.7478 8.40978 22.1461 8.60894 22.2689 8.97731C22.3151 9.11596 23.3632 12.4099 20.1104 15.6627C19.8359 15.9372 19.3907 15.9373 19.1161 15.6627Z" fill="#734444"/>
<path d="M24.5838 21.1313C24.8584 21.4059 25.3036 21.4059 25.5781 21.1313C28.2232 18.4862 30.7988 19.304 30.8246 19.3125C31.1929 19.4352 31.5911 19.2362 31.7139 18.8678C31.8368 18.4995 31.6376 18.1013 31.2692 17.9785C31.1306 17.9323 27.8367 16.8841 24.5839 20.137C24.3093 20.4115 24.3093 20.8567 24.5838 21.1313Z" fill="#734444"/>
<path d="M31.4203 11.3123C30.8007 11.932 29.6954 11.2739 29.3087 11.4384C29.1442 11.8265 29.8028 12.9304 29.1831 13.5495C28.5635 14.1692 27.4587 13.5111 27.0715 13.6756C26.9065 14.0637 27.5655 15.1671 26.9459 15.7868C26.3262 16.4064 25.2205 15.7483 24.8343 15.9129C24.6693 16.301 25.3283 17.4043 24.7087 18.024C24.0764 18.6563 22.9585 17.9696 22.5915 18.1524C22.4082 18.3329 22.1494 18.3929 21.9165 18.3305C21.8012 18.3001 21.692 18.2391 21.6015 18.1487C21.3268 17.874 21.3268 17.4287 21.6015 17.154C22.1382 16.6173 22.8896 16.7022 23.4441 16.803C23.4619 16.8062 23.4797 16.8095 23.497 16.8128C23.4937 16.7955 23.4905 16.7776 23.4872 16.7598C23.3869 16.2053 23.3016 15.454 23.8387 14.9168C24.3754 14.3801 25.1268 14.465 25.6813 14.5657C25.6991 14.569 25.7169 14.5723 25.7342 14.5756C25.731 14.5582 25.7277 14.5404 25.7244 14.5226C25.6241 13.9681 25.5388 13.2168 26.0759 12.6796C26.6126 12.1429 27.364 12.2277 27.9185 12.3285C27.9363 12.3318 27.9541 12.3351 27.9715 12.3384C27.9682 12.321 27.9649 12.3032 27.9616 12.2854C27.8613 11.7309 27.776 10.9795 28.3132 10.4424C28.8498 9.90569 29.6012 9.99053 30.1557 10.0913C30.1735 10.0946 30.1913 10.0979 30.2087 10.1012C30.2054 10.0838 30.2021 10.066 30.1988 10.0482C30.0985 9.49369 30.0132 8.74232 30.5504 8.20516C30.8246 7.93096 31.2699 7.93096 31.5445 8.20516C31.635 8.29563 31.6959 8.40484 31.7264 8.52062C31.7887 8.7531 31.7297 9.01184 31.5487 9.19558C31.3678 9.55926 32.0465 10.6861 31.4203 11.3123Z" fill="#FFC800"/>
<path d="M31.4208 11.3122C30.8012 11.9319 29.6959 11.2738 29.3092 11.4383C29.1447 11.8264 29.8033 12.9303 29.1836 13.5494C28.564 14.1691 27.4592 13.511 27.072 13.6755C26.907 14.0636 27.5661 15.167 26.9464 15.7867C26.3267 16.4063 25.221 15.7482 24.8348 15.9127C24.6698 16.3008 25.3288 17.4042 24.7092 18.0239C24.0769 18.6562 22.959 17.9695 22.592 18.1523C22.4087 18.3328 22.1499 18.3928 21.917 18.3304L23.4446 16.8029C23.4624 16.8061 23.4802 16.8094 23.4975 16.8127C23.4942 16.7954 23.491 16.7775 23.4877 16.7597L25.6818 14.5656C25.6996 14.5689 25.7174 14.5722 25.7347 14.5755C25.7315 14.5581 25.7282 14.5403 25.7249 14.5225L27.919 12.3284C27.9368 12.3317 27.9546 12.335 27.972 12.3383C27.9687 12.3209 27.9654 12.3031 27.9621 12.2853L30.1562 10.0912C30.174 10.0945 30.1918 10.0978 30.2092 10.101C30.2059 10.0837 30.2026 10.0659 30.1993 10.0481L31.7269 8.52051C31.7893 8.75299 31.7302 9.01173 31.5493 9.19547C31.3683 9.55915 32.0471 10.686 31.4208 11.3122Z" fill="#FFDE67"/>
<path d="M25.081 11.3942C25.4693 11.3942 25.7841 11.0794 25.7841 10.6911C25.7841 10.3028 25.4693 9.98804 25.081 9.98804C24.6927 9.98804 24.3779 10.3028 24.3779 10.6911C24.3779 11.0794 24.6927 11.3942 25.081 11.3942Z" fill="#FFE470"/>
<path d="M30.0527 16.3656C30.441 16.3656 30.7558 16.0509 30.7558 15.6626C30.7558 15.2743 30.441 14.9595 30.0527 14.9595C29.6644 14.9595 29.3496 15.2743 29.3496 15.6626C29.3496 16.0509 29.6644 16.3656 30.0527 16.3656Z" fill="#FFE470"/>
<path d="M29.0586 23.3259C29.4469 23.3259 29.7616 23.0111 29.7616 22.6228C29.7616 22.2345 29.4469 21.9197 29.0586 21.9197C28.6703 21.9197 28.3555 22.2345 28.3555 22.6228C28.3555 23.0111 28.6703 23.3259 29.0586 23.3259Z" fill="#FFE470"/>
<path d="M18.122 12.3883C18.5103 12.3883 18.8251 12.0736 18.8251 11.6853C18.8251 11.297 18.5103 10.9822 18.122 10.9822C17.7337 10.9822 17.4189 11.297 17.4189 11.6853C17.4189 12.0736 17.7337 12.3883 18.122 12.3883Z" fill="#FFE470"/>
</g>
<defs>
<clipPath id="clip0">
<rect width="24" height="24" fill="white" transform="translate(8 8)"/>
</clipPath>
</defs>
</svg>
