<svg width="40" height="40" viewBox="0 0 40 40" fill="none" xmlns="http://www.w3.org/2000/svg">
<circle cx="20" cy="20" r="20" fill="#E85222" fill-opacity="0.4"/>
<path opacity="0.5" d="M20 40C31.0457 40 40 31.0457 40 20C40 8.9543 31.0457 0 20 0V40Z" fill="#E85222"/>
<path d="M8.75 17.75V24.5377C8.75 26.588 10.412 28.25 12.4623 28.25C13.4469 28.25 14.3911 27.8589 15.0873 27.1627L18.6287 23.6213C19.0265 23.2235 19.25 22.6839 19.25 22.1213V17.75H8.75Z" fill="#FFC800"/>
<path d="M31.25 17.75V24.5377C31.25 26.588 29.588 28.25 27.5377 28.25C26.5531 28.25 25.6089 27.8589 24.9127 27.1627L21.3713 23.6213C20.9735 23.2235 20.75 22.6839 20.75 22.1213V17.75H31.25Z" fill="#FFC800"/>
<path d="M26 12.5H14C11.1005 12.5 8.75 14.8505 8.75 17.75V23.568C8.75 25.3254 10.1746 26.75 11.932 26.75C12.7759 26.75 13.5853 26.4148 14.182 25.818L16.3787 23.6213C16.3805 23.6195 16.3823 23.6177 16.3841 23.6159C16.7683 23.2288 17.2835 23 17.829 23H22.1711C22.7165 23 23.2317 23.2288 23.6159 23.6159C23.6178 23.6177 23.6195 23.6195 23.6214 23.6213L25.8181 25.818C26.4148 26.4148 27.2241 26.75 28.0681 26.75C29.8254 26.75 31.25 25.3254 31.25 23.568V17.75C31.25 14.8505 28.8995 12.5 26 12.5Z" fill="#FFE999"/>
<path d="M21.7094 14.75H18.2906C17.9677 14.75 17.6811 14.5434 17.579 14.2372L17 12.5H23L22.421 14.2372C22.3189 14.5434 22.0323 14.75 21.7094 14.75Z" fill="#FFC800"/>
<path d="M17 22.25C18.0355 22.25 18.875 21.4105 18.875 20.375C18.875 19.3395 18.0355 18.5 17 18.5C15.9645 18.5 15.125 19.3395 15.125 20.375C15.125 21.4105 15.9645 22.25 17 22.25Z" fill="#FFC800"/>
<path d="M18.125 19.8125H17.5625V19.25C17.5625 19.0429 17.3946 18.875 17.1875 18.875H16.8125C16.6054 18.875 16.4375 19.0429 16.4375 19.25V19.8125H15.875C15.6679 19.8125 15.5 19.9804 15.5 20.1875V20.5625C15.5 20.7696 15.6679 20.9375 15.875 20.9375H16.4375V21.5C16.4375 21.7071 16.6054 21.875 16.8125 21.875H17.1875C17.3946 21.875 17.5625 21.7071 17.5625 21.5V20.9375H18.125C18.3321 20.9375 18.5 20.7696 18.5 20.5625V20.1875C18.5 19.9804 18.3321 19.8125 18.125 19.8125Z" fill="#555A6E"/>
<path d="M23 22.25C24.0355 22.25 24.875 21.4105 24.875 20.375C24.875 19.3395 24.0355 18.5 23 18.5C21.9645 18.5 21.125 19.3395 21.125 20.375C21.125 21.4105 21.9645 22.25 23 22.25Z" fill="#463C4B"/>
<path d="M23 21.5C23.6213 21.5 24.125 20.9963 24.125 20.375C24.125 19.7537 23.6213 19.25 23 19.25C22.3787 19.25 21.875 19.7537 21.875 20.375C21.875 20.9963 22.3787 21.5 23 21.5Z" fill="#555A6E"/>
<path d="M13.25 18.75C14.2855 18.75 15.125 17.9105 15.125 16.875C15.125 15.8395 14.2855 15 13.25 15C12.2145 15 11.375 15.8395 11.375 16.875C11.375 17.9105 12.2145 18.75 13.25 18.75Z" fill="#463C4B"/>
<path d="M13.25 18C13.8713 18 14.375 17.4963 14.375 16.875C14.375 16.2537 13.8713 15.75 13.25 15.75C12.6287 15.75 12.125 16.2537 12.125 16.875C12.125 17.4963 12.6287 18 13.25 18Z" fill="#555A6E"/>
<path d="M26.75 16C27.1642 16 27.5 15.6642 27.5 15.25C27.5 14.8358 27.1642 14.5 26.75 14.5C26.3358 14.5 26 14.8358 26 15.25C26 15.6642 26.3358 16 26.75 16Z" fill="#00D2D2"/>
<path d="M26.75 19C27.1642 19 27.5 18.6642 27.5 18.25C27.5 17.8358 27.1642 17.5 26.75 17.5C26.3358 17.5 26 17.8358 26 18.25C26 18.6642 26.3358 19 26.75 19Z" fill="#00D2D2"/>
<path d="M25.25 17.5C25.6642 17.5 26 17.1642 26 16.75C26 16.3358 25.6642 16 25.25 16C24.8358 16 24.5 16.3358 24.5 16.75C24.5 17.1642 24.8358 17.5 25.25 17.5Z" fill="#FF6E91"/>
<path d="M28.25 17.5C28.6642 17.5 29 17.1642 29 16.75C29 16.3358 28.6642 16 28.25 16C27.8358 16 27.5 16.3358 27.5 16.75C27.5 17.1642 27.8358 17.5 28.25 17.5Z" fill="#FF6E91"/>
<path d="M18.5 17.375C18.9142 17.375 19.25 17.0392 19.25 16.625C19.25 16.2108 18.9142 15.875 18.5 15.875C18.0858 15.875 17.75 16.2108 17.75 16.625C17.75 17.0392 18.0858 17.375 18.5 17.375Z" fill="#A5C3DC"/>
<path d="M21.5 17.375C21.9142 17.375 22.25 17.0392 22.25 16.625C22.25 16.2108 21.9142 15.875 21.5 15.875C21.0858 15.875 20.75 16.2108 20.75 16.625C20.75 17.0392 21.0858 17.375 21.5 17.375Z" fill="#A5C3DC"/>
<path d="M16.25 11.75H14.75C14.3358 11.75 14 12.0858 14 12.5H17C17 12.0858 16.6642 11.75 16.25 11.75Z" fill="#555A6E"/>
<path d="M25.25 11.75H23.75C23.3358 11.75 23 12.0858 23 12.5H26C26 12.0858 25.6642 11.75 25.25 11.75Z" fill="#555A6E"/>
</svg>
