<svg width="36" height="36" viewBox="0 0 36 36" fill="none" xmlns="http://www.w3.org/2000/svg">
<path d="M32.4335 18.5424C31.9948 18.5428 31.5628 18.4342 31.1765 18.2263C30.7902 18.0185 30.4615 17.7178 30.2201 17.3515C30.1753 17.2837 30.1143 17.228 30.0427 17.1895C29.971 17.151 29.891 17.1309 29.8096 17.1309H18.8211C18.7208 17.1308 18.6229 17.1615 18.5404 17.2187C18.458 17.2758 18.3951 17.3568 18.36 17.4508C18.1531 18.0024 17.8391 18.5077 17.4361 18.9375C17.0331 19.3673 16.549 19.7131 16.0118 19.9549C15.4745 20.1968 14.8947 20.33 14.3058 20.3468C13.7169 20.3636 13.1304 20.2637 12.5803 20.0528L12.2955 20.4803C12.2506 20.5478 12.1897 20.6031 12.1182 20.6414C12.0467 20.6797 11.9669 20.6997 11.8859 20.6997H9.92871C10.3436 21.248 10.8802 21.6923 11.4964 21.9975C12.1125 22.3027 12.7912 22.4603 13.4787 22.458C14.3868 22.4555 15.2726 22.177 16.0188 21.6594C16.7649 21.1419 17.3361 20.4098 17.6567 19.5602C17.6918 19.4662 17.7548 19.3852 17.8372 19.328C17.9196 19.2709 18.0175 19.2402 18.1178 19.2402H29.1066C29.1879 19.2402 29.268 19.2604 29.3396 19.2989C29.4112 19.3374 29.4722 19.3931 29.5171 19.4609C29.8448 19.9586 30.3307 20.3313 30.8963 20.519C31.4619 20.7067 32.0742 20.6984 32.6345 20.4954C33.1947 20.2924 33.6703 19.9066 33.9844 19.4002C34.2985 18.8938 34.4328 18.2963 34.3658 17.7042C34.1183 17.9688 33.8191 18.1798 33.4867 18.3239C33.1543 18.4681 32.7958 18.5425 32.4335 18.5424Z" fill="#F4E3D4"/>
<path d="M22.4536 23.351C23.0494 22.3722 23.4794 21.3017 23.7262 20.1827C23.7336 20.1485 23.7374 20.1136 23.7374 20.0786V19.7326C23.7374 19.6021 23.6855 19.4769 23.5932 19.3846C23.5009 19.2923 23.3757 19.2404 23.2452 19.2404C23.1146 19.2404 22.9894 19.2923 22.8971 19.3846C22.8048 19.4769 22.753 19.6021 22.753 19.7326V20.0253C22.5009 21.1285 22.0546 22.1781 21.4349 23.125C21.3782 23.2129 21.351 23.3166 21.3572 23.421C21.3634 23.5254 21.4027 23.6251 21.4694 23.7057L22.9051 25.4395L20.9726 27.3718L19.2389 25.936C19.1574 25.8685 19.0562 25.8291 18.9505 25.8236C18.8447 25.8181 18.74 25.8469 18.6519 25.9056C17.6952 26.5386 16.629 26.988 15.5078 27.2308C15.4058 27.2529 15.3135 27.3068 15.2441 27.3848C15.1747 27.4627 15.1319 27.5608 15.1219 27.6646L14.9049 29.9157H12.161L11.9441 27.6646C11.9341 27.5608 11.8913 27.4628 11.822 27.3848C11.7526 27.3068 11.6603 27.2529 11.5583 27.2308C10.4367 26.9813 9.3695 26.531 8.40825 25.9016C8.32035 25.8448 8.21666 25.8176 8.11222 25.8238C8.00779 25.83 7.90805 25.8693 7.82747 25.936L6.09335 27.3718L4.16109 25.4395L5.59687 23.7057C5.66438 23.6242 5.7038 23.523 5.70927 23.4173C5.71474 23.3116 5.68598 23.2069 5.62725 23.1188C4.99421 22.1621 4.54485 21.0959 4.30214 19.9746C4.28008 19.8726 4.22617 19.7803 4.14818 19.7109C4.0702 19.6416 3.97219 19.5988 3.86831 19.5888L1.61719 19.3719V16.6278L3.86824 16.4108C3.97212 16.4008 4.07013 16.358 4.14811 16.2886C4.22609 16.2193 4.28001 16.1269 4.30207 16.0249C4.55136 14.9033 5.00159 13.8361 5.63098 12.8749C5.68769 12.787 5.71492 12.6833 5.70872 12.5789C5.70253 12.4745 5.66323 12.3748 5.59652 12.2942L4.16109 10.5602L6.09335 8.62789L7.82712 10.0636C7.90866 10.1311 8.00982 10.1706 8.11556 10.1761C8.2213 10.1815 8.32599 10.1528 8.41409 10.094C9.37082 9.46102 10.437 9.01163 11.5583 8.76887C11.6603 8.74681 11.7526 8.69289 11.822 8.61491C11.8913 8.53693 11.9341 8.43892 11.9441 8.33504L12.161 6.08398H14.9049L15.1219 8.33504C15.1319 8.43893 15.1747 8.53695 15.2441 8.61493C15.3135 8.69291 15.4058 8.74682 15.5078 8.76887C16.6294 9.0183 17.6966 9.46851 18.6578 10.0978C18.7457 10.1545 18.8494 10.1817 18.9539 10.1755C19.0583 10.1694 19.158 10.13 19.2386 10.0633L20.9701 8.62944L22.8741 10.5578L21.4367 12.294C21.3692 12.3755 21.3298 12.4767 21.3243 12.5824C21.3188 12.6881 21.3476 12.7928 21.4063 12.8809C22.0298 13.8231 22.4752 14.8717 22.7204 15.9746V16.2674C22.7204 16.3979 22.7722 16.5231 22.8645 16.6154C22.9568 16.7077 23.082 16.7596 23.2125 16.7596C23.3431 16.7596 23.4683 16.7077 23.5606 16.6154C23.6529 16.5231 23.7047 16.3979 23.7047 16.2674V15.9214C23.7047 15.8864 23.701 15.8515 23.6936 15.8173C23.4504 14.6967 23.0212 13.6246 22.4239 12.6458L23.9165 10.8434C23.9943 10.7494 24.0345 10.6298 24.0291 10.5079C24.0238 10.386 23.9734 10.2704 23.8876 10.1836L21.3539 7.61722C21.2674 7.52961 21.1512 7.47759 21.0283 7.47142C20.9053 7.46525 20.7846 7.50538 20.6897 7.58389L18.884 9.07923C18.0084 8.54742 17.0595 8.14668 16.0677 7.88975L15.8418 5.54455C15.83 5.42275 15.7733 5.3097 15.6827 5.22744C15.5922 5.14518 15.4742 5.0996 15.3518 5.09961H11.7141C11.5917 5.0996 11.4737 5.14518 11.3831 5.22744C11.2926 5.3097 11.2359 5.42275 11.2241 5.54455L10.9981 7.88954C10.0043 8.14224 9.05394 8.54233 8.17861 9.07648L6.37615 7.58389C6.28174 7.50572 6.16156 7.46559 6.03912 7.47135C5.91669 7.47711 5.80081 7.52835 5.71416 7.61504L3.1481 10.1811C3.06143 10.2678 3.01022 10.3837 3.00449 10.5061C2.99875 10.6285 3.03891 10.7487 3.11709 10.8431L4.6125 12.6486C4.08063 13.5243 3.67987 14.4731 3.42295 15.4649L1.07782 15.6909C0.956013 15.7027 0.842943 15.7593 0.760666 15.8499C0.67839 15.9405 0.632808 16.0585 0.632813 16.1809V19.8188C0.632807 19.9412 0.678379 20.0592 0.76064 20.1497C0.842902 20.2403 0.955955 20.297 1.07775 20.3088L3.42274 20.5347C3.67537 21.5286 4.07546 22.479 4.60969 23.3543L3.11709 25.1567C3.03891 25.2511 2.99875 25.3712 3.00449 25.4937C3.01022 25.6161 3.06143 25.732 3.1481 25.8187L5.71416 28.385C5.80081 28.4717 5.91669 28.5229 6.03912 28.5287C6.16156 28.5344 6.28174 28.4943 6.37615 28.4161L8.18177 26.9207C9.05746 27.4526 10.0063 27.8534 10.9981 28.1103L11.2241 30.4555C11.2359 30.5773 11.2926 30.6903 11.3831 30.7726C11.4737 30.8549 11.5917 30.9004 11.7141 30.9004H15.352C15.4743 30.9004 15.5923 30.8549 15.6829 30.7726C15.7735 30.6903 15.8302 30.5773 15.8419 30.4555L16.0679 28.1105C17.0617 27.8578 18.0121 27.4577 18.8874 26.9235L20.6898 28.4161C20.7842 28.4943 20.9044 28.5345 21.0268 28.5287C21.1493 28.523 21.2651 28.4717 21.3518 28.3851L23.9182 25.8187C24.0049 25.732 24.0561 25.6161 24.0618 25.4937C24.0676 25.3712 24.0274 25.2511 23.9492 25.1567L22.4536 23.351Z" fill="#4F4F4F"/>
<path d="M13.5333 11.409C15.0014 11.4068 16.4281 11.8956 17.5864 12.7976C18.7446 13.6997 19.568 14.9632 19.9254 16.3871C19.9411 16.4498 19.9691 16.5088 20.0077 16.5606C20.0462 16.6125 20.0946 16.6563 20.1501 16.6895C20.2056 16.7227 20.267 16.7446 20.331 16.754C20.3949 16.7634 20.4601 16.7602 20.5228 16.7444C20.5855 16.7286 20.6444 16.7007 20.6963 16.6621C20.7482 16.6236 20.792 16.5752 20.8252 16.5197C20.8583 16.4642 20.8803 16.4028 20.8897 16.3388C20.8991 16.2749 20.8958 16.2097 20.8801 16.147C20.4282 14.3558 19.3373 12.7914 17.8127 11.7482C16.2881 10.705 14.4348 10.2549 12.6015 10.4826C10.7682 10.7102 9.08132 11.6 7.85818 12.9844C6.63503 14.3689 5.95996 16.1526 5.95996 17.9999C5.95996 19.8473 6.63503 21.631 7.85818 23.0154C9.08132 24.3999 10.7682 25.2896 12.6015 25.5173C14.4348 25.745 16.2881 25.2949 17.8127 24.2517C19.3373 23.2085 20.4282 21.6441 20.8801 19.8529C20.9119 19.7263 20.8922 19.5922 20.8252 19.4802C20.7582 19.3681 20.6494 19.2873 20.5228 19.2555C20.3962 19.2236 20.2621 19.2434 20.1501 19.3104C20.038 19.3774 19.9572 19.4862 19.9254 19.6128C19.6235 20.8096 18.9915 21.8977 18.1015 22.753C17.2116 23.6083 16.0993 24.1966 14.8914 24.4508C13.6835 24.7049 12.4284 24.6148 11.2692 24.1907C10.11 23.7666 9.09319 23.0255 8.33453 22.0518C7.57586 21.0781 7.10585 19.9109 6.97801 18.6832C6.85017 17.4555 7.06963 16.2165 7.61141 15.1074C8.15319 13.9983 8.99552 13.0636 10.0425 12.4097C11.0894 11.7559 12.299 11.4091 13.5333 11.409Z" fill="#4F4F4F"/>
<path d="M31.7311 14.3629C31.1756 14.3623 30.6274 14.4892 30.1287 14.734C29.63 14.9787 29.1942 15.3347 28.8548 15.7745H18.4486C18.0162 14.8179 17.3179 14.006 16.4368 13.4354C15.5558 12.8649 14.5292 12.5598 13.4795 12.5567C12.4652 12.5533 11.4703 12.8348 10.6082 13.3692C9.74607 13.9036 9.05133 14.6694 8.60311 15.5793C8.56584 15.6544 8.54835 15.7378 8.55231 15.8216C8.55626 15.9054 8.58153 15.9868 8.62572 16.0581C8.6699 16.1294 8.73155 16.1882 8.80483 16.2291C8.8781 16.2699 8.96058 16.2913 9.04446 16.2914H9.04622L11.537 16.2825L12.7522 18.0196L11.6232 19.7152H9.0477C8.96375 19.7151 8.88118 19.7364 8.80782 19.7773C8.73446 19.8181 8.67276 19.877 8.62858 19.9483C8.5844 20.0197 8.55921 20.1012 8.5554 20.1851C8.5516 20.2689 8.5693 20.3524 8.60684 20.4274C9.06705 21.3503 9.77986 22.1235 10.6623 22.657C11.5448 23.1906 12.5607 23.4626 13.5917 23.4413C14.6227 23.4201 15.6265 23.1065 16.4862 22.537C17.346 21.9676 18.0263 21.1657 18.4481 20.2247H28.8544C29.2323 20.7131 29.7283 21.0973 30.2958 21.341C30.8633 21.5847 31.4834 21.6798 32.0978 21.6175C32.7123 21.5551 33.3007 21.3373 33.8076 20.9846C34.3146 20.6319 34.7233 20.1559 34.9954 19.6015C35.2674 19.047 35.3938 18.4325 35.3626 17.8157C35.3314 17.1989 35.1436 16.6002 34.817 16.0761C34.4903 15.552 34.0356 15.1197 33.4957 14.8199C32.9557 14.5202 32.3483 14.3629 31.7307 14.3629H31.7311ZM31.7311 20.6518C31.2924 20.6522 30.8605 20.5436 30.4741 20.3358C30.0878 20.1279 29.7592 19.8273 29.5178 19.4609C29.4729 19.3931 29.4119 19.3375 29.3403 19.299C29.2687 19.2604 29.1886 19.2403 29.1073 19.2403H18.1187C18.0184 19.2403 17.9205 19.2709 17.8381 19.3281C17.7557 19.3853 17.6927 19.4663 17.6576 19.5602C17.3371 20.4098 16.7658 21.142 16.0196 21.6595C15.2735 22.177 14.3876 22.4555 13.4795 22.4581C12.7919 22.4603 12.1132 22.3026 11.4971 21.9974C10.881 21.6922 10.3443 21.2479 9.92949 20.6996H11.8865C11.9676 20.6996 12.0474 20.6795 12.1188 20.6413C12.1903 20.603 12.2512 20.5477 12.2961 20.4802L13.7579 18.2854C13.8127 18.203 13.8415 18.1059 13.8403 18.0069C13.8392 17.9079 13.8082 17.8116 13.7515 17.7305L12.1962 15.5071C12.1508 15.4422 12.0904 15.3892 12.0202 15.3526C11.95 15.3161 11.872 15.297 11.7928 15.297H11.7911L9.9259 15.3036C10.3406 14.754 10.8777 14.3085 11.4945 14.0026C12.1113 13.6966 12.791 13.5386 13.4795 13.541C14.3876 13.5436 15.2734 13.8221 16.0196 14.3396C16.7657 14.8572 17.3369 15.5893 17.6575 16.4389C17.6926 16.5329 17.7555 16.6138 17.838 16.671C17.9204 16.7282 18.0183 16.7588 18.1186 16.7588H29.1074C29.1887 16.7588 29.2687 16.7387 29.3404 16.7002C29.412 16.6617 29.473 16.606 29.5178 16.5382C29.7707 16.1553 30.1185 15.8445 30.5273 15.6363C30.9362 15.428 31.392 15.3294 31.8504 15.35C32.3088 15.3706 32.754 15.5098 33.1424 15.7539C33.5309 15.9981 33.8494 16.3388 34.0668 16.7429C34.2842 17.1469 34.3931 17.6005 34.3828 18.0592C34.3724 18.5179 34.2433 18.9661 34.008 19.36C33.7726 19.7539 33.4391 20.0799 33.04 20.3064C32.641 20.5328 32.19 20.6518 31.7311 20.6518Z" fill="#E85222"/>
<path d="M31.7307 16.46C31.426 16.46 31.1282 16.5503 30.875 16.7196C30.6217 16.8889 30.4242 17.1294 30.3077 17.4109C30.1911 17.6924 30.1606 18.0021 30.22 18.3009C30.2795 18.5996 30.4262 18.8741 30.6416 19.0895C30.857 19.3049 31.1315 19.4516 31.4303 19.511C31.7291 19.5705 32.0388 19.54 32.3202 19.4234C32.6017 19.3068 32.8423 19.1094 33.0115 18.8561C33.1808 18.6028 33.2711 18.3049 33.2711 18.0003C33.2715 17.7979 33.232 17.5974 33.1547 17.4103C33.0775 17.2232 32.964 17.0532 32.8209 16.9101C32.6778 16.767 32.5078 16.6536 32.3207 16.5763C32.1336 16.4991 31.9331 16.4595 31.7307 16.46ZM31.7307 18.5563C31.6207 18.5563 31.5133 18.5236 31.4218 18.4625C31.3304 18.4014 31.2592 18.3146 31.2171 18.213C31.175 18.1114 31.164 17.9996 31.1855 17.8918C31.207 17.784 31.2599 17.6849 31.3377 17.6072C31.4154 17.5294 31.5145 17.4765 31.6223 17.455C31.7302 17.4336 31.842 17.4446 31.9435 17.4867C32.0451 17.5287 32.1319 17.6 32.193 17.6914C32.2541 17.7829 32.2867 17.8903 32.2867 18.0003C32.2868 18.0733 32.2725 18.1457 32.2445 18.2132C32.2166 18.2806 32.1757 18.342 32.124 18.3936C32.0724 18.4452 32.011 18.4862 31.9436 18.5141C31.8761 18.542 31.8037 18.5563 31.7307 18.5563Z" fill="#E85222"/>
</svg>
