<svg width="31" height="30" viewBox="0 0 31 30" fill="none" xmlns="http://www.w3.org/2000/svg">
<path d="M13.9844 3H12.4844V4.875H13.9844H14.7344V5.625V7.125H16.6094V5.625V4.875H17.3594H18.8594V3H17.3594H16.6094V2.25V0.75H14.7344V2.25V3H13.9844Z" stroke="#4F4F4F" stroke-width="1.5"/>
<path d="M13.5523 17.1695C13.1141 17.1695 13.5321 16.3698 13.2754 16.7419L13.3132 16.3698C13.2879 16.2206 13.2754 16.067 13.2754 15.912C13.2754 15.511 13.3643 15.1091 13.5321 14.7499L15.7677 9.96948L18.0033 14.7494C18.1711 15.1091 18.26 15.5114 18.26 15.912C18.26 16.5994 18.0104 17.2406 17.5692 17.7233" stroke="#4F4F4F" stroke-linecap="round" stroke-linejoin="round"/>
<path d="M3.74033 27.6338L2.62559 18.4932H1.04785L2.33408 29.04H7.56174L7.13297 27.6338H3.74033Z" fill="#F4E3D4"/>
<path d="M27.3572 18.3445L24.7684 19.7411L22.6278 21.2106C22.5909 21.2883 22.5342 21.3549 22.4633 21.4035C22.3924 21.4522 22.3099 21.4813 22.2241 21.4879L19.8727 23.1023C18.7465 23.6489 17.4761 23.8246 16.2438 23.6043L10.9929 22.6375C10.3914 22.4897 9.75621 22.5761 9.21609 22.8793C9.20835 22.8836 9.20076 22.8881 9.1933 22.8928L7.11719 24.2053L7.59025 25.757L9.8965 24.2991C9.90395 24.2944 9.91155 24.2898 9.91928 24.2855C10.4594 23.9824 11.0946 23.8959 11.6961 24.0437L16.947 25.0106C18.1793 25.2309 19.4497 25.0551 20.5759 24.5086L29.2193 18.5742C28.9714 18.347 28.6587 18.2028 28.325 18.1616C27.9912 18.1204 27.6529 18.1843 27.3572 18.3445Z" fill="#F4E3D4"/>
<path d="M4.73047 28.667C4.99469 28.667 5.25298 28.5886 5.47268 28.4418C5.69237 28.2951 5.8636 28.0864 5.96471 27.8423C6.06583 27.5982 6.09228 27.3296 6.04074 27.0704C5.98919 26.8113 5.86195 26.5732 5.67512 26.3864C5.48828 26.1996 5.25024 26.0723 4.9911 26.0208C4.73195 25.9692 4.46334 25.9957 4.21923 26.0968C3.97512 26.1979 3.76647 26.3692 3.61968 26.5888C3.47288 26.8085 3.39453 27.0668 3.39453 27.3311C3.39494 27.6852 3.53582 28.0248 3.78627 28.2753C4.03672 28.5257 4.37628 28.6666 4.73047 28.667ZM4.73047 26.9795C4.8 26.9795 4.86797 27.0001 4.92579 27.0387C4.9836 27.0774 5.02866 27.1323 5.05527 27.1965C5.08188 27.2608 5.08884 27.3314 5.07528 27.3996C5.06171 27.4678 5.02823 27.5305 4.97906 27.5796C4.92989 27.6288 4.86725 27.6623 4.79905 27.6759C4.73086 27.6894 4.66017 27.6825 4.59593 27.6559C4.53169 27.6292 4.47679 27.5842 4.43815 27.5264C4.39952 27.4686 4.37891 27.4006 4.37891 27.3311C4.37902 27.2379 4.41609 27.1485 4.482 27.0826C4.54791 27.0167 4.63726 26.9796 4.73047 26.9795Z" fill="#4F4F4F"/>
<path d="M5.42049 20.2785C6.12366 20.1487 6.77782 19.8287 7.31189 19.3532L8.16872 18.5904C8.9509 18.0034 9.87982 17.6435 10.8533 17.5502C11.8268 17.457 12.8072 17.634 13.6866 18.0619L14.0478 18.2366C14.6803 18.5415 15.3733 18.7003 16.0755 18.7012H19.5788C20.0488 18.7018 20.5053 18.8589 20.8763 19.1477C21.2472 19.4365 21.5114 19.8405 21.6272 20.2961L19.2173 20.187C18.2881 20.1452 17.357 20.1881 16.4356 20.3155C16.3715 20.3244 16.3099 20.3458 16.2541 20.3785C16.1984 20.4111 16.1496 20.4545 16.1106 20.506C16.0716 20.5576 16.0431 20.6163 16.0268 20.6789C16.0105 20.7414 16.0066 20.8066 16.0155 20.8706C16.0244 20.9346 16.0457 20.9963 16.0784 21.052C16.1111 21.1078 16.1545 21.1566 16.206 21.1956C16.2576 21.2346 16.3163 21.2631 16.3788 21.2794C16.4414 21.2957 16.5065 21.2995 16.5706 21.2907C17.4325 21.1715 18.3036 21.1313 19.1728 21.1704L22.1611 21.3056C22.1682 21.3056 22.176 21.3061 22.1833 21.3061C22.3139 21.3061 22.4391 21.2543 22.5314 21.162C22.6237 21.0697 22.6755 20.9445 22.6755 20.814C22.6755 20.7701 22.6741 20.7265 22.6723 20.683L23.0266 20.4962L27.3557 18.1607C27.6514 18.0006 27.9897 17.9366 28.3235 17.9778C28.6572 18.019 28.9698 18.1632 29.2177 18.3904L20.5744 24.3248C19.4482 24.8714 18.1778 25.0471 16.9455 24.8268L11.6945 23.8599C11.093 23.7122 10.4578 23.7987 9.91768 24.1018C9.91001 24.1061 9.90235 24.1106 9.89497 24.1153L7.04316 25.9182C6.98852 25.9527 6.94123 25.9977 6.90397 26.0505C6.86671 26.1033 6.84022 26.1629 6.82601 26.226C6.8118 26.289 6.81015 26.3543 6.82115 26.418C6.83215 26.4817 6.85559 26.5426 6.89012 26.5972C6.92466 26.6518 6.96962 26.6991 7.02244 26.7364C7.07526 26.7736 7.1349 26.8001 7.19795 26.8143C7.26101 26.8286 7.32624 26.8302 7.38994 26.8192C7.45363 26.8082 7.51453 26.7848 7.56917 26.7502L10.4089 24.9549C10.7329 24.7768 11.1123 24.7281 11.4707 24.8186C11.4808 24.8212 11.4911 24.8235 11.5014 24.8256L16.7684 25.7955C18.2207 26.0554 19.7181 25.844 21.0417 25.1922C21.0626 25.182 21.0827 25.1702 21.1019 25.1571L30.212 18.9021C30.3154 18.8311 30.3878 18.7233 30.4144 18.6007C30.441 18.4781 30.4198 18.35 30.3551 18.2425C30.0105 17.6685 29.4578 17.2496 28.8121 17.073C28.1663 16.8964 27.4774 16.9757 26.8887 17.2945L26.8039 17.3402C26.1408 16.5915 25.039 16.3119 24.1937 16.7405L24.1827 16.7462L23.8751 16.912C23.4226 16.5468 22.8704 16.327 22.2908 16.2814C21.7112 16.2357 21.1314 16.3663 20.6273 16.6561L18.6768 17.7168H16.0752C15.5215 17.7161 14.9749 17.5909 14.4761 17.3504L14.1149 17.1757C13.0698 16.6671 11.9043 16.4577 10.7475 16.5707C9.59074 16.6836 8.48776 17.1145 7.56073 17.8155C7.5499 17.8236 7.53964 17.8322 7.52937 17.8411L6.65707 18.618C6.25743 18.9739 5.7679 19.2133 5.24168 19.3105C5.17812 19.3222 5.11749 19.3463 5.06326 19.3815C5.00903 19.4167 4.96225 19.4622 4.92561 19.5154C4.88896 19.5687 4.86316 19.6286 4.84969 19.6919C4.83621 19.7551 4.83531 19.8203 4.84705 19.8839C4.85879 19.9475 4.88294 20.0081 4.91811 20.0623C4.95328 20.1166 4.99879 20.1633 5.05204 20.2C5.15958 20.274 5.29211 20.3022 5.42049 20.2785V20.2785ZM25.8913 17.8325L22.5638 19.6276L22.4608 19.682C22.3647 19.4381 22.2379 19.2074 22.0836 18.9955L24.6436 17.6161C25.043 17.4169 25.5369 17.5509 25.8913 17.8325ZM21.103 17.5178C21.1069 17.5157 21.1109 17.5136 21.1147 17.5114C21.3823 17.3566 21.6837 17.2695 21.9927 17.2578C22.3017 17.246 22.6088 17.31 22.8875 17.4441L21.3476 18.2738C21.0844 18.0895 20.794 17.9475 20.4869 17.8529L21.103 17.5178Z" fill="#E85222"/>
<path d="M1.40951 29.4082C1.42406 29.5275 1.48178 29.6374 1.57178 29.7171C1.66177 29.7968 1.77783 29.8408 1.89805 29.8408H8.22617C8.30311 29.8409 8.37898 29.8229 8.44771 29.7883C8.51643 29.7537 8.57609 29.7035 8.6219 29.6417C8.66771 29.5799 8.69839 29.5082 8.71148 29.4324C8.72456 29.3565 8.7197 29.2787 8.69726 29.2051L5.18164 17.6739C5.15089 17.573 5.08854 17.4847 5.00379 17.4219C4.91904 17.3591 4.81637 17.3252 4.7109 17.3252H0.492147C0.422489 17.3252 0.353624 17.34 0.290108 17.3686C0.226591 17.3972 0.169868 17.4389 0.12369 17.4911C0.0775123 17.5433 0.0429306 17.6046 0.0222315 17.6711C0.00153242 17.7376 -0.00481229 17.8078 0.00361643 17.8769L1.40951 29.4082ZM4.34605 18.3096L7.56158 28.8564H2.33384L1.04762 18.3096H4.34605Z" fill="#4F4F4F"/>
</svg>
