<svg width="36" height="36" viewBox="0 0 36 36" fill="none" xmlns="http://www.w3.org/2000/svg">
<path d="M11.5 30C9 29.5 8.73354 29.697 8.05106 28.5009C7.35562 27.3048 7.37339 20.777 7.5 19.5009C7.74638 17.1511 9.60606 15.327 12.1865 13.6735C14.4951 12.1889 14.5 12.0001 18 10.5006C15.5 8.5008 15 8.5001 14.5 9.00064C11.5 10.5006 12.0969 11.9512 9.41592 13.6735C6.8354 15.3271 5.27484 17.5371 5.02852 19.887C4.90192 21.1631 4.33325 23.8048 5.0287 25.0009C5.71117 26.197 3.97893 30.4649 5.50007 31.5009L12.4385 32.0009L19.5 32L20 31.0009L11.5 30Z" fill="#F4E3D4"/>
<path d="M2 21.1111L15.1111 8" stroke="#4F4F4F" stroke-width="1.3" stroke-linecap="round"/>
<path d="M18.999 32.0002L18.9998 25.0005C18.9999 23.8958 18.1044 23.0002 16.9998 23.0002H14C12.8954 23.0002 12 23.8957 12 25.0002V32.0002" stroke="#4F4F4F" stroke-width="1.3"/>
<path d="M5.27734 17.8333V31.5999H24.944V27.6666" stroke="#4F4F4F" stroke-width="1.3" stroke-linecap="round" stroke-linejoin="round"/>
<path d="M21.6464 18.295C20.7593 17.3653 20.1079 16.3508 19.7106 15.2794C19.3058 14.2083 19.1344 13.063 19.208 11.9203C19.3516 9.81424 20.2607 7.83349 21.764 6.35153C22.9884 5.13967 24.5612 4.34097 26.262 4.06724C25.81 3.99391 25.3528 3.95708 24.8948 3.95711C22.6999 3.94756 20.5907 4.80861 19.0296 6.35153C17.5263 7.83349 16.6172 9.81424 16.4736 11.9203C16.4001 13.063 16.5714 14.2083 16.9762 15.2794C17.3735 16.3508 18.0249 17.3654 18.912 18.295L24.8949 24.5636L26.2621 23.131L21.6464 18.295Z" fill="#F4E3D4"/>
<mask id="path-6-inside-1" fill="white">
<path d="M31.4323 5.67038C29.6867 3.95876 27.3394 3 24.8947 3C22.4499 3 20.1027 3.95876 18.3571 5.67038C16.6877 7.3164 15.6782 9.51632 15.5189 11.8553C15.4359 13.1332 15.6268 14.4141 16.0789 15.6122C16.5219 16.8063 17.2421 17.9312 18.2198 18.9557L24.5488 25.5873C24.5935 25.6341 24.6472 25.6714 24.7067 25.6968C24.7662 25.7223 24.8302 25.7354 24.895 25.7354C24.9597 25.7354 25.0237 25.7223 25.0832 25.6968C25.1427 25.6714 25.1964 25.6341 25.2411 25.5873L31.5697 18.9556C32.5472 17.9313 33.2675 16.8063 33.7106 15.6121C34.1626 14.414 34.3536 13.1331 34.2707 11.8553C34.1113 9.51625 33.1018 7.31635 31.4323 5.67038ZM32.8132 15.2793C32.4157 16.3508 31.7645 17.3654 30.8774 18.2949L24.8945 24.5635L18.9117 18.2949C18.0246 17.3652 17.3732 16.3507 16.9759 15.2793C16.5711 14.2082 16.3997 13.0629 16.4733 11.9202C16.6168 9.81415 17.526 7.83339 19.0292 6.35144C20.5957 4.81666 22.7014 3.95705 24.8945 3.95705C27.0875 3.95705 29.1932 4.81666 30.7597 6.35144C32.263 7.83338 33.1722 9.81414 33.3157 11.9202C33.3894 13.0629 33.2181 14.2082 32.8134 15.2793H32.8132Z"/>
</mask>
<path d="M31.4323 5.67038C29.6867 3.95876 27.3394 3 24.8947 3C22.4499 3 20.1027 3.95876 18.3571 5.67038C16.6877 7.3164 15.6782 9.51632 15.5189 11.8553C15.4359 13.1332 15.6268 14.4141 16.0789 15.6122C16.5219 16.8063 17.2421 17.9312 18.2198 18.9557L24.5488 25.5873C24.5935 25.6341 24.6472 25.6714 24.7067 25.6968C24.7662 25.7223 24.8302 25.7354 24.895 25.7354C24.9597 25.7354 25.0237 25.7223 25.0832 25.6968C25.1427 25.6714 25.1964 25.6341 25.2411 25.5873L31.5697 18.9556C32.5472 17.9313 33.2675 16.8063 33.7106 15.6121C34.1626 14.414 34.3536 13.1331 34.2707 11.8553C34.1113 9.51625 33.1018 7.31635 31.4323 5.67038ZM32.8132 15.2793C32.4157 16.3508 31.7645 17.3654 30.8774 18.2949L24.8945 24.5635L18.9117 18.2949C18.0246 17.3652 17.3732 16.3507 16.9759 15.2793C16.5711 14.2082 16.3997 13.0629 16.4733 11.9202C16.6168 9.81415 17.526 7.83339 19.0292 6.35144C20.5957 4.81666 22.7014 3.95705 24.8945 3.95705C27.0875 3.95705 29.1932 4.81666 30.7597 6.35144C32.263 7.83338 33.1722 9.81414 33.3157 11.9202C33.3894 13.0629 33.2181 14.2082 32.8134 15.2793H32.8132Z" fill="#4F4F4F"/>
<path d="M24.8947 3V1V3ZM18.3571 5.67038L16.9568 4.24231L16.9529 4.24622L18.3571 5.67038ZM15.5189 11.8553L13.5235 11.7195L13.5231 11.7256L15.5189 11.8553ZM16.0789 15.6122L17.9541 14.9166L17.9501 14.906L16.0789 15.6122ZM18.2198 18.9557L16.773 20.3365L16.773 20.3365L18.2198 18.9557ZM24.5488 25.5873L25.9956 24.2065L25.9956 24.2065L24.5488 25.5873ZM25.2411 25.5873L26.688 26.9681L26.688 26.9681L25.2411 25.5873ZM31.5697 18.9556L30.1229 17.5748L30.1228 17.5748L31.5697 18.9556ZM33.7106 15.6121L31.8393 14.9061L31.8355 14.9165L33.7106 15.6121ZM34.2707 11.8553L36.2665 11.7258L36.266 11.7194L34.2707 11.8553ZM32.8132 15.2793V13.2793H31.4219L30.938 14.5838L32.8132 15.2793ZM30.8774 18.2949L32.3242 19.6758L32.3242 19.6758L30.8774 18.2949ZM24.8945 24.5635L23.4478 25.9443L24.8946 27.4602L26.3413 25.9443L24.8945 24.5635ZM18.9117 18.2949L17.4647 19.6756L17.4649 19.6758L18.9117 18.2949ZM16.9759 15.2793L18.8511 14.5839L18.8467 14.5723L16.9759 15.2793ZM16.4733 11.9202L14.4779 11.7842L14.4774 11.7917L16.4733 11.9202ZM19.0292 6.35144L17.6296 4.92283L17.6252 4.92715L19.0292 6.35144ZM30.7597 6.35144L32.1638 4.92714L32.1594 4.92283L30.7597 6.35144ZM33.3157 11.9202L35.3116 11.7916L35.3111 11.7842L33.3157 11.9202ZM32.8134 15.2793V17.2793H34.1957L34.6843 15.9862L32.8134 15.2793ZM32.8325 4.24232C30.713 2.16411 27.863 1 24.8947 1V5C26.8158 5 28.6603 5.75342 30.0321 7.09843L32.8325 4.24232ZM24.8947 1C21.9263 1 19.0763 2.16411 16.9568 4.24232L19.7573 7.09843C21.129 5.75342 22.9736 5 24.8947 5V1ZM16.9529 4.24622C14.9357 6.23511 13.7159 8.89327 13.5235 11.7195L17.5143 11.9912C17.6404 10.1394 18.4396 8.39769 19.7613 7.09453L16.9529 4.24622ZM13.5231 11.7256C13.4216 13.2878 13.655 14.8536 14.2077 16.3183L17.9501 14.906C17.5986 13.9745 17.4501 12.9786 17.5147 11.985L13.5231 11.7256ZM14.2038 16.3077C14.7514 17.7841 15.6284 19.1372 16.773 20.3365L19.6666 17.5749C18.8559 16.7253 18.2923 15.8285 17.9541 14.9166L14.2038 16.3077ZM16.773 20.3365L23.1019 26.9681L25.9956 24.2065L19.6666 17.5749L16.773 20.3365ZM23.1019 26.9681C23.3334 27.2106 23.6116 27.4037 23.9198 27.5355L25.4936 23.8581C25.6827 23.9391 25.8535 24.0576 25.9956 24.2065L23.1019 26.9681ZM23.9198 27.5355C24.228 27.6674 24.5597 27.7354 24.895 27.7354V23.7354C25.1008 23.7354 25.3044 23.7772 25.4936 23.8581L23.9198 27.5355ZM24.895 27.7354C25.2302 27.7354 25.5619 27.6674 25.8701 27.5355L24.2963 23.8581C24.4855 23.7772 24.6892 23.7354 24.895 23.7354V27.7354ZM25.8701 27.5355C26.1783 27.4037 26.4565 27.2106 26.688 26.9681L23.7943 24.2065C23.9364 24.0576 24.1072 23.9391 24.2963 23.8581L25.8701 27.5355ZM26.688 26.9681L33.0166 20.3364L30.1228 17.5748L23.7942 24.2065L26.688 26.9681ZM33.0166 20.3364C34.161 19.1372 35.038 17.7842 35.5857 16.3077L31.8355 14.9165C31.4971 15.8285 30.9335 16.7254 30.1229 17.5748L33.0166 20.3364ZM35.5818 16.3181C36.1344 14.8535 36.3678 13.2878 36.2665 11.7258L32.2748 11.9848C32.3393 12.9784 32.1908 13.9744 31.8393 14.9061L35.5818 16.3181ZM36.266 11.7194C36.0735 8.89314 34.8537 6.235 32.8365 4.24618L30.0281 7.09457C31.3499 8.3977 32.1491 10.1394 32.2753 11.9912L36.266 11.7194ZM30.938 14.5838C30.6463 15.3702 30.153 16.1571 29.4305 16.9141L32.3242 19.6758C33.3759 18.5738 34.1852 17.3313 34.6883 15.9749L30.938 14.5838ZM29.4306 16.9141L23.4477 23.1826L26.3413 25.9443L32.3242 19.6758L29.4306 16.9141ZM26.3413 23.1826L20.3585 16.9141L17.4649 19.6758L23.4478 25.9443L26.3413 23.1826ZM20.3586 16.9142C19.6359 16.1568 19.1426 15.37 18.8511 14.5839L15.1006 15.9747C15.6038 17.3314 16.4133 18.5737 17.4647 19.6756L20.3586 16.9142ZM18.8467 14.5723C18.5426 13.7676 18.4139 12.9072 18.4692 12.0487L14.4774 11.7917C14.3855 13.2186 14.5995 14.6488 15.105 15.9864L18.8467 14.5723ZM18.4687 12.0562C18.579 10.4374 19.2778 8.91484 20.4333 7.77572L17.6252 4.92715C15.7741 6.75194 14.6547 9.19094 14.4779 11.7842L18.4687 12.0562ZM20.4289 7.78005C21.6216 6.61153 23.2248 5.95705 24.8945 5.95705V1.95705C22.1781 1.95705 19.5699 3.0218 17.6296 4.92283L20.4289 7.78005ZM24.8945 5.95705C26.5642 5.95705 28.1674 6.61153 29.36 7.78005L32.1594 4.92283C30.2191 3.0218 27.6109 1.95705 24.8945 1.95705V5.95705ZM29.3557 7.77574C30.5112 8.91485 31.21 10.4374 31.3204 12.0562L35.3111 11.7842C35.1343 9.19091 34.0149 6.75192 32.1638 4.92714L29.3557 7.77574ZM31.3199 12.0488C31.3752 12.9073 31.2465 13.7677 30.9425 14.5724L34.6843 15.9862C35.1897 14.6486 35.4036 13.2185 35.3116 11.7916L31.3199 12.0488ZM32.8134 13.2793H32.8132V17.2793H32.8134V13.2793Z" fill="#E85222" mask="url(#path-6-inside-1)"/>
<path d="M27.0044 18.2372C27.0048 17.9679 26.9348 17.7022 26.7999 17.4604C26.665 17.2186 26.4688 17.0073 26.2264 16.8428L26.2264 11.7979C26.7536 11.5883 27.2012 11.2498 27.5156 10.8226C27.8301 10.3955 27.9982 9.89781 28 9.38894C28.0018 8.89721 27.8467 8.4149 27.5521 7.99695C27.2576 7.579 26.8355 7.24219 26.334 7.0249C26.2926 7.00683 26.2466 6.99835 26.2004 7.00027C26.1543 7.00218 26.1094 7.01443 26.0701 7.03585C26.0308 7.05728 25.9984 7.08716 25.9759 7.12269C25.9534 7.15821 25.9415 7.1982 25.9415 7.23886L25.9464 8.44722L24.989 9.03634L24.0544 8.48904L24.0544 7.24043C24.0545 7.19973 24.0427 7.1597 24.0202 7.12414C23.9977 7.08857 23.9652 7.05866 23.9259 7.03724C23.8865 7.01582 23.8416 7.00361 23.7954 7.00177C23.7492 6.99992 23.7032 7.00851 23.6618 7.0267C23.1532 7.24981 22.727 7.59538 22.4329 8.0232C22.1388 8.45101 21.9889 8.94349 22.0006 9.44332C22.0123 9.94315 22.1852 10.4298 22.4991 10.8466C22.8129 11.2634 23.2549 11.5932 23.7736 11.7977L23.7736 14.3202L23.7736 16.8426C23.5043 17.0258 23.2926 17.2663 23.1583 17.5414C23.024 17.8165 22.9715 18.1171 23.0059 18.415C23.0403 18.7129 23.1603 18.9981 23.3547 19.2439C23.5491 19.4897 23.8115 19.6878 24.1171 19.8197C24.4227 19.9516 24.7614 20.0129 25.1013 19.9977C25.4413 19.9826 25.7713 19.8916 26.0602 19.7332C26.349 19.5749 26.5873 19.3544 26.7525 19.0927C26.9177 18.8309 27.0044 18.5366 27.0044 18.2372ZM23.5381 18.2372C23.5379 18.0245 23.5978 17.8151 23.7124 17.6278C23.8269 17.4406 23.9926 17.2812 24.1945 17.1642C24.2319 17.1425 24.2626 17.1129 24.2838 17.0782C24.305 17.0434 24.3161 17.0046 24.3161 16.9652L24.3161 11.638C24.3161 11.5894 24.2993 11.5419 24.2677 11.502C24.2362 11.462 24.1916 11.4315 24.1398 11.4145C23.6715 11.2591 23.268 10.9821 22.9827 10.6204C22.6975 10.2586 22.544 9.82918 22.5426 9.38894C22.5413 9.05561 22.6282 8.72659 22.7965 8.4279C22.9647 8.1292 23.2096 7.86902 23.5118 7.66792L23.5118 8.61666C23.5118 8.65596 23.5229 8.69465 23.544 8.7293C23.5651 8.76394 23.5956 8.79347 23.6327 8.81525L24.8425 9.52389C24.8879 9.55049 24.9414 9.56442 24.9959 9.56387C25.0505 9.56331 25.1036 9.5483 25.1483 9.52079L26.3738 8.76678C26.4096 8.74478 26.4388 8.71553 26.4589 8.68149C26.4791 8.64745 26.4896 8.60964 26.4896 8.57126L26.4859 7.66618C26.7889 7.86723 27.0344 8.12759 27.203 8.42663C27.3717 8.72566 27.4588 9.05514 27.4574 9.38894C27.456 9.82916 27.3025 10.2586 27.0173 10.6203C26.732 10.9821 26.3285 11.259 25.8602 11.4144C25.8084 11.4314 25.7638 11.4619 25.7323 11.5019C25.7007 11.5418 25.6839 11.5893 25.6839 11.6379L25.6839 16.9652C25.6839 17.0047 25.695 17.0435 25.7162 17.0782C25.7374 17.1129 25.7681 17.1425 25.8055 17.1642C26.0165 17.2868 26.1878 17.4554 26.3026 17.6536C26.4174 17.8518 26.4717 18.0728 26.4604 18.2951C26.449 18.5173 26.3723 18.7331 26.2377 18.9214C26.1032 19.1098 25.9154 19.2642 25.6926 19.3696C25.4699 19.475 25.22 19.5277 24.9671 19.5227C24.7143 19.5177 24.4673 19.4551 24.2502 19.341C24.0331 19.2269 23.8533 19.0652 23.7285 18.8718C23.6037 18.6783 23.5381 18.4597 23.5381 18.2372Z" fill="#4F4F4F"/>
</svg>
