<svg width="24" height="24" viewBox="0 0 24 24" fill="none" xmlns="http://www.w3.org/2000/svg">
<path d="M21.7429 10.3309L12.7429 0.330904C12.3639 -0.0910957 11.6359 -0.0910957 11.2569 0.330904L2.25693 10.3309C1.99193 10.6239 1.92593 11.0459 2.08693 11.4069C2.24693 11.7679 2.60493 11.9999 2.99993 11.9999H4.99993V18.9999C4.99993 19.5519 5.44693 19.9999 5.99993 19.9999H8.99993C9.55293 19.9999 9.99993 19.5519 9.99993 18.9999V14.9999H13.9999V18.9999C13.9999 19.5519 14.4469 19.9999 14.9999 19.9999H17.9999C18.5529 19.9999 18.9999 19.5519 18.9999 18.9999V11.9999H20.9999C21.3949 11.9999 21.7529 11.7679 21.9129 11.4069C22.0739 11.0459 22.0079 10.6249 21.7429 10.3309Z" fill="white"/>
</svg>
