<svg width="36" height="36" viewBox="0 0 36 36" fill="none" xmlns="http://www.w3.org/2000/svg">
<path d="M26.6979 20.7129V10.0852H20.9413L16.0703 8.31396L19.688 10.4846C20.2263 10.8076 20.7229 11.1953 21.1668 11.6392C22.4508 12.9232 23.2381 14.6208 23.3889 16.4304L23.4604 17.2876C23.5516 18.3828 23.4622 19.4856 23.1957 20.5518L23.0361 21.1901C22.5315 23.2082 21.5836 25.0886 20.2611 26.6945L16.0703 31.7833L22.7126 27.7979L26.6979 20.7129Z" fill="#F4E3D4"/>
<path d="M20.4334 29.4219L16.0794 32.3246L9.54461 27.7503C7.10372 26.0416 5.65 23.2496 5.65 20.2701V10.0432C9.34797 10.9498 13.2473 9.96678 16.0704 7.43744C18.8936 9.96678 22.7929 10.9498 26.4909 10.0432V20.2118C25.8032 23.975 23.6178 27.299 20.4334 29.4219Z" stroke="#4F4F4F" stroke-width="1.3" stroke-linecap="round" stroke-linejoin="round"/>
<rect x="14.7422" y="14.5132" width="2.65691" height="9.74199" fill="#E85222"/>
<rect x="20.9414" y="18.0559" width="2.65691" height="9.74199" transform="rotate(90 20.9414 18.0559)" fill="#E85222"/>
<path fill-rule="evenodd" clip-rule="evenodd" d="M27.8666 29.2879C27.8666 28.9543 28.1371 28.6838 28.4707 28.6838C28.8043 28.6838 29.0748 28.9543 29.0748 29.2879V29.8535C29.2101 30.0125 29.358 30.1603 29.517 30.2955H30.0807C30.4143 30.2955 30.6848 30.566 30.6848 30.8996C30.6848 31.2332 30.4143 31.5037 30.0807 31.5037H29.514C29.3561 31.6382 29.2092 31.7851 29.0748 31.9431V32.5097C29.0748 32.8433 28.8043 33.1137 28.4707 33.1137C28.1371 33.1137 27.8666 32.8433 27.8666 32.5097V31.9438C27.732 31.7856 27.5849 31.6384 27.4267 31.5037H26.859C26.5253 31.5037 26.2549 31.2332 26.2549 30.8996C26.2549 30.566 26.5253 30.2955 26.859 30.2955H27.4237C27.583 30.1601 27.7311 30.012 27.8666 29.8528V29.2879Z" fill="#4F4F4F"/>
<path fill-rule="evenodd" clip-rule="evenodd" d="M28.1073 4.24732C28.1073 4.04736 28.2694 3.88525 28.4693 3.88525C28.6693 3.88525 28.8314 4.04736 28.8314 4.24732V4.5866C28.9125 4.68179 29.0011 4.7703 29.0964 4.85126H29.4347C29.6347 4.85126 29.7968 5.01336 29.7968 5.21333C29.7968 5.41329 29.6347 5.57539 29.4347 5.57539H29.0935C28.9993 5.65568 28.9117 5.74335 28.8314 5.83756V6.17836C28.8314 6.37833 28.6693 6.54043 28.4693 6.54043C28.2694 6.54043 28.1073 6.37833 28.1073 6.17836V5.83948C28.0266 5.74454 27.9384 5.65623 27.8435 5.57539H27.5037C27.3037 5.57539 27.1416 5.41329 27.1416 5.21333C27.1416 5.01336 27.3037 4.85126 27.5037 4.85126H27.8406C27.9366 4.76975 28.0257 4.6806 28.1073 4.58468V4.24732Z" fill="#4F4F4F"/>
<path fill-rule="evenodd" clip-rule="evenodd" d="M8.06068 3.48307C8.06068 3.21628 8.27696 3 8.54376 3C8.81055 3 9.02683 3.21628 9.02683 3.48307V3.93661C9.13489 4.06346 9.25299 4.18142 9.37996 4.28933H9.83095C10.0977 4.28933 10.314 4.50561 10.314 4.77241C10.314 5.0392 10.0977 5.25548 9.83095 5.25548H9.377C9.25116 5.36271 9.13405 5.47983 9.02683 5.60568V6.05947C9.02683 6.32626 8.81055 6.54254 8.54376 6.54254C8.27696 6.54254 8.06068 6.32626 8.06068 6.05947V5.6082C7.95288 5.48139 7.83506 5.36343 7.70837 5.25548H7.25456C6.98776 5.25548 6.77148 5.0392 6.77148 4.77241C6.77148 4.50561 6.98776 4.28933 7.25456 4.28933H7.70541C7.83323 4.18071 7.95205 4.0619 8.06068 3.93409V3.48307Z" fill="#4F4F4F"/>
<path fill-rule="evenodd" clip-rule="evenodd" d="M6.61173 30.1732C6.61173 29.8395 6.88219 29.5691 7.21581 29.5691C7.54943 29.5691 7.81989 29.8395 7.81989 30.1732V30.7388C7.95519 30.8977 8.10309 31.0456 8.26213 31.1808H8.82583C9.15945 31.1808 9.42991 31.4512 9.42991 31.7848C9.42991 32.1185 9.15945 32.3889 8.82583 32.3889H8.25914C8.10124 32.5234 7.95434 32.6704 7.81989 32.8283V33.3949C7.81989 33.7285 7.54944 33.999 7.21581 33.999C6.88219 33.999 6.61173 33.7285 6.61173 33.3949V32.8291C6.4771 32.6709 6.32999 32.5236 6.17183 32.3889H5.60408C5.27046 32.3889 5 32.1185 5 31.7848C5 31.4512 5.27046 31.1808 5.60408 31.1808H6.16884C6.32813 31.0453 6.47626 30.8973 6.61173 30.738V30.1732Z" fill="#4F4F4F"/>
<circle cx="25.8129" cy="4.32807" r="0.442818" fill="#4F4F4F"/>
<circle cx="30.6835" cy="26.912" r="0.885635" fill="#4F4F4F"/>
</svg>
