<svg width="36" height="36" viewBox="0 0 36 36" fill="none" xmlns="http://www.w3.org/2000/svg">
<path d="M14.3118 29.4907H13.2501V31.9212C13.2501 31.9708 13.2304 32.0185 13.1953 32.0536C13.1601 32.0888 13.1125 32.1085 13.0628 32.1085H4.70996V32.5457C4.70996 32.5953 4.7297 32.643 4.76483 32.6781C4.79997 32.7133 4.84762 32.733 4.89731 32.733H14.3118C14.3615 32.733 14.4091 32.7133 14.4443 32.6781C14.4794 32.643 14.4991 32.5953 14.4991 32.5457V29.6781C14.4991 29.6284 14.4794 29.5807 14.4443 29.5456C14.4091 29.5105 14.3615 29.4907 14.3118 29.4907Z" fill="#F4E3D4"/>
<path d="M14.6939 23.6003V25.0061C14.6933 25.4162 14.5302 25.8093 14.2402 26.0992C13.9502 26.3892 13.5571 26.5523 13.147 26.5528C13.0311 26.5528 12.9199 26.5989 12.8379 26.6808C12.7559 26.7628 12.7098 26.874 12.7098 26.9899V27.9921H6.34668V28.6166H13.2094V27.6144C13.2094 27.4985 13.2555 27.3873 13.3375 27.3053C13.4195 27.2234 13.5307 27.1773 13.6466 27.1773C14.0566 27.1767 14.4497 27.0136 14.7397 26.7237C15.0296 26.4337 15.1927 26.0406 15.1933 25.6306V23.6003H14.6939Z" fill="#F4E3D4"/>
<path d="M13.6401 16.7509V4.69296C13.6404 4.45765 13.734 4.23206 13.9004 4.06567C14.0668 3.89928 14.2924 3.80568 14.5277 3.80542H13.9032C13.6679 3.80568 13.4423 3.89928 13.2759 4.06567C13.1095 4.23206 13.0159 4.45765 13.0156 4.69296V16.9212L13.1713 16.7978C13.2368 16.7461 13.3158 16.7141 13.3989 16.7058C13.4819 16.6975 13.5657 16.7132 13.6401 16.7509Z" fill="#F4E3D4"/>
<path d="M13.6404 21.8389V20.9921L14.7273 19.9055C15.0878 19.5442 15.2903 19.0546 15.2903 18.5442C15.2903 18.0338 15.0878 17.5443 14.7273 17.183L14.3766 16.8323C14.3008 16.7564 14.1997 16.711 14.0926 16.7048C13.9855 16.6986 13.8799 16.732 13.7958 16.7987L13.7525 16.833L14.1023 17.1827C14.4628 17.5441 14.6654 18.0337 14.6654 18.5441C14.6654 19.0546 14.4628 19.5442 14.1023 19.9056L13.0156 20.9922V21.839C13.0159 22.0743 13.1095 22.2999 13.2758 22.4663C13.4422 22.6327 13.6678 22.7263 13.9032 22.7266H14.5277C14.2924 22.7262 14.0668 22.6326 13.9005 22.4662C13.7342 22.2998 13.6406 22.0742 13.6404 21.8389Z" fill="#F4E3D4"/>
<path d="M6.34696 19.4984C6.34603 19.1014 6.49869 18.7194 6.773 18.4324L12.8516 13.5831L12.3064 12.8997L6.20583 17.7664C6.19208 17.7774 6.17899 17.7893 6.16661 17.8018C5.72059 18.2537 5.47117 18.8635 5.47266 19.4984V29.0538H6.34696V19.4984Z" fill="#4F4F4F"/>
<path d="M14.0843 28.0127C14.6409 27.9098 15.144 27.6153 15.5063 27.1803C15.8687 26.7454 16.0674 26.1974 16.0681 25.6313V23.1807H15.1938V25.6313C15.1933 26.0413 15.0301 26.4344 14.7402 26.7243C14.4502 27.0143 14.0572 27.1774 13.6471 27.178C13.5312 27.178 13.42 27.224 13.338 27.306C13.256 27.388 13.21 27.4992 13.21 27.6151V29.0544H14.0843V28.0127Z" fill="#4F4F4F"/>
<path d="M15.3737 32.5457V29.6781C15.3734 29.3966 15.2614 29.1268 15.0624 28.9278C14.8634 28.7287 14.5935 28.6168 14.3121 28.6165H4.89759C4.61612 28.6168 4.34627 28.7287 4.14723 28.9278C3.9482 29.1268 3.83625 29.3966 3.83594 29.6781V32.5457C3.83625 32.8272 3.9482 33.097 4.14723 33.296C4.34627 33.4951 4.61612 33.607 4.89759 33.6073H14.3121C14.5935 33.607 14.8634 33.4951 15.0624 33.296C15.2614 33.097 15.3734 32.8272 15.3737 32.5457ZM4.71024 32.5457V29.6781C4.71024 29.6284 4.72998 29.5808 4.76511 29.5456C4.80025 29.5105 4.8479 29.4908 4.89759 29.4908H14.3121C14.3618 29.4908 14.4094 29.5105 14.4445 29.5456C14.4797 29.5808 14.4994 29.6284 14.4994 29.6781V32.5457C14.4994 32.5954 14.4797 32.643 14.4445 32.6782C14.4094 32.7133 14.3618 32.733 14.3121 32.733H4.89759C4.8479 32.733 4.80025 32.7133 4.76511 32.6782C4.72998 32.643 4.71024 32.5954 4.71024 32.5457Z" fill="#E85222"/>
<path d="M6.43048 29.9558C6.19091 29.9508 5.95528 30.0173 5.75365 30.1468C5.55202 30.2763 5.39352 30.4629 5.29838 30.6828C5.20323 30.9027 5.17575 31.146 5.21943 31.3816C5.26312 31.6172 5.37599 31.8345 5.54366 32.0057C5.71133 32.1769 5.92619 32.2943 6.16084 32.3428C6.39548 32.3914 6.63929 32.369 6.86114 32.2785C7.083 32.1879 7.27287 32.0333 7.40651 31.8345C7.54016 31.6356 7.61154 31.4014 7.61154 31.1617C7.61444 30.8453 7.49173 30.5407 7.27032 30.3146C7.04892 30.0885 6.74689 29.9595 6.43048 29.9558ZM6.43048 31.4934C6.3638 31.4985 6.2971 31.4835 6.23909 31.4502C6.18107 31.4169 6.13444 31.3669 6.10529 31.3067C6.07613 31.2465 6.0658 31.179 6.07564 31.1128C6.08549 31.0466 6.11505 30.985 6.16047 30.9359C6.20589 30.8868 6.26506 30.8525 6.33025 30.8376C6.39544 30.8226 6.46363 30.8276 6.52591 30.852C6.58819 30.8764 6.64167 30.919 6.67937 30.9743C6.71707 31.0295 6.73724 31.0949 6.73724 31.1617C6.7403 31.2463 6.70975 31.3287 6.65227 31.3908C6.59479 31.453 6.51506 31.4898 6.43048 31.4934Z" fill="#E85222"/>
<path d="M28.21 16.8594C27.9763 16.8596 27.7429 16.8767 27.5117 16.9107V8.66732C27.5117 8.60991 27.5004 8.55306 27.4784 8.50002C27.4565 8.44698 27.4243 8.39878 27.3837 8.35819L22.0851 3.05918C22.0445 3.01858 21.9963 2.98637 21.9432 2.96441C21.8902 2.94244 21.8333 2.93114 21.7759 2.93115H13.9034C13.4363 2.93168 12.9885 3.11747 12.6582 3.44777C12.3279 3.77806 12.1421 4.22589 12.1416 4.69299V17.8821H13.0159V4.69299C13.0162 4.45768 13.1098 4.23209 13.2761 4.0657C13.4425 3.89931 13.6681 3.80572 13.9034 3.80545H21.3387V7.34238C21.3393 7.80948 21.5251 8.25729 21.8554 8.58758C22.1857 8.91787 22.6335 9.10367 23.1006 9.10422H26.6376V17.1246C25.5214 17.5117 24.5879 18.298 24.0168 19.3321C23.4457 20.3662 23.2773 21.5751 23.544 22.726H13.9034C13.6681 22.7257 13.4425 22.6321 13.2761 22.4657C13.1097 22.2993 13.0162 22.0737 13.0159 21.8383V20.6942H12.1416V21.8383C12.1421 22.3055 12.3279 22.7533 12.6582 23.0836C12.9885 23.4139 13.4363 23.5997 13.9034 23.6003H23.8376C24.1888 24.3872 24.7458 25.0648 25.45 25.5616C26.1542 26.0584 26.9793 26.356 27.8385 26.423C28.6977 26.49 29.559 26.3239 30.3317 25.9423C31.1043 25.5606 31.7597 24.9776 32.2286 24.2546C32.6976 23.5316 32.9628 22.6955 32.9963 21.8343C33.0297 20.9732 32.8302 20.119 32.4187 19.3618C32.0072 18.6046 31.3991 17.9725 30.6584 17.5321C29.9176 17.0916 29.0718 16.8592 28.21 16.8594ZM23.1006 8.22992C22.8653 8.22967 22.6397 8.13608 22.4733 7.96969C22.3069 7.8033 22.2133 7.57769 22.213 7.34238V4.42365L26.0194 8.22992H23.1006ZM28.21 25.5646C27.4356 25.5646 26.6785 25.3349 26.0346 24.9047C25.3907 24.4744 24.8888 23.8629 24.5924 23.1474C24.2961 22.4319 24.2185 21.6446 24.3696 20.885C24.5207 20.1255 24.8936 19.4278 25.4412 18.8802C25.9889 18.3326 26.6866 17.9596 27.4461 17.8086C28.2057 17.6575 28.993 17.735 29.7084 18.0314C30.4239 18.3277 31.0355 18.8296 31.4657 19.4735C31.896 20.1175 32.1256 20.8745 32.1256 21.6489C32.1245 22.6871 31.7116 23.6824 30.9775 24.4165C30.2434 25.1505 29.2481 25.5634 28.21 25.5646Z" fill="#E85222"/>
<path d="M23.6325 18.495C23.6325 18.3791 23.5865 18.2679 23.5045 18.1859C23.4225 18.1039 23.3113 18.0579 23.1954 18.0579H16.3883C16.2724 18.0579 16.1612 18.1039 16.0792 18.1859C15.9972 18.2679 15.9512 18.3791 15.9512 18.495C15.9512 18.6109 15.9972 18.7221 16.0792 18.8041C16.1612 18.8861 16.2724 18.9322 16.3883 18.9322H23.1954C23.3113 18.9322 23.4225 18.8861 23.5045 18.8041C23.5865 18.7221 23.6325 18.6109 23.6325 18.495Z" fill="#4F4F4F"/>
<path d="M16.3883 21.118H20.2602C20.3762 21.118 20.4874 21.0719 20.5693 20.9899C20.6513 20.9079 20.6974 20.7967 20.6974 20.6808C20.6974 20.5649 20.6513 20.4537 20.5693 20.3717C20.4874 20.2897 20.3762 20.2437 20.2602 20.2437H16.3883C16.2724 20.2437 16.1612 20.2897 16.0792 20.3717C15.9972 20.4537 15.9512 20.5649 15.9512 20.6808C15.9512 20.7967 15.9972 20.9079 16.0792 20.9899C16.1612 21.0719 16.2724 21.118 16.3883 21.118Z" fill="#4F4F4F"/>
<path d="M29.6468 19.8826C29.7627 19.8826 29.8739 19.8365 29.9559 19.7546C30.0379 19.6726 30.0839 19.5614 30.0839 19.4455C30.0839 19.3295 30.0379 19.2183 29.9559 19.1363C29.8739 19.0544 29.7627 19.0083 29.6468 19.0083H26.7741C26.6581 19.0083 26.5469 19.0544 26.465 19.1363C26.383 19.2183 26.3369 19.3295 26.3369 19.4455C26.3369 19.5614 26.383 19.6726 26.465 19.7546C26.5469 19.8365 26.6581 19.8826 26.7741 19.8826H27.5961C27.7277 19.8827 27.8573 19.9155 27.9732 19.978C28.089 20.0405 28.1875 20.1308 28.2599 20.2408H26.7741C26.6581 20.2408 26.5469 20.2869 26.465 20.3689C26.383 20.4508 26.3369 20.562 26.3369 20.678C26.3369 20.7939 26.383 20.9051 26.465 20.9871C26.5469 21.0691 26.6581 21.1151 26.7741 21.1151H28.2604C28.188 21.2251 28.0895 21.3154 27.9737 21.3779C27.8578 21.4405 27.7282 21.4732 27.5966 21.4733H26.7741C26.6866 21.4734 26.6012 21.4998 26.5288 21.5489C26.4565 21.5981 26.4006 21.6678 26.3683 21.7491C26.336 21.8304 26.3289 21.9195 26.3478 22.0049C26.3667 22.0903 26.4107 22.1681 26.4743 22.2282L28.5289 24.1697C28.6132 24.249 28.7256 24.2917 28.8413 24.2883C28.9571 24.2849 29.0667 24.2357 29.1462 24.1516C29.2258 24.0674 29.2687 23.9551 29.2655 23.8394C29.2623 23.7236 29.2134 23.6139 29.1294 23.5342L27.8525 22.3281C28.1712 22.2779 28.4687 22.1368 28.7091 21.9216C28.9495 21.7064 29.1226 21.4264 29.2077 21.1152H29.6468C29.7627 21.1152 29.8739 21.0691 29.9559 20.9871C30.0379 20.9052 30.0839 20.794 30.0839 20.678C30.0839 20.5621 30.0379 20.4509 29.9559 20.3689C29.8739 20.2869 29.7627 20.2409 29.6468 20.2409H29.2074C29.1736 20.1163 29.1254 19.9961 29.0637 19.8827L29.6468 19.8826Z" fill="#4F4F4F"/>
<path d="M14.1027 19.9055C14.4632 19.5442 14.6657 19.0546 14.6657 18.5442C14.6657 18.0338 14.4632 17.5443 14.1027 17.183L13.752 16.8323C13.6762 16.7564 13.5751 16.711 13.468 16.7048C13.3609 16.6986 13.2553 16.732 13.1712 16.7987L8.40696 20.5714C8.31607 20.6434 8.2575 20.7485 8.24413 20.8637C8.23076 20.9789 8.26369 21.0946 8.33567 21.1855C8.40765 21.2764 8.51279 21.335 8.62796 21.3483C8.74312 21.3617 8.85888 21.3288 8.94977 21.2568L13.4092 17.7258L13.4846 17.8012C13.5823 17.8988 13.6597 18.0147 13.7126 18.1422C13.7654 18.2697 13.7926 18.4064 13.7926 18.5444C13.7926 18.6824 13.7654 18.8191 13.7126 18.9466C13.6597 19.0741 13.5823 19.19 13.4846 19.2876L11.3805 21.3917C11.3046 21.4676 11.2592 21.5686 11.2531 21.6757L11.2266 22.1345C11.2261 22.1428 11.2258 22.1511 11.2258 22.1594C11.2279 22.5161 11.3092 22.8679 11.4637 23.1893C11.6267 23.5394 11.6972 23.9254 11.6684 24.3105C11.6396 24.6956 11.5125 25.0669 11.2993 25.3888C11.2514 25.4606 11.2258 25.545 11.2258 25.6313V26.6232C11.2258 26.7391 11.2719 26.8503 11.3539 26.9323C11.4358 27.0143 11.547 27.0603 11.663 27.0603C11.7789 27.0603 11.8901 27.0143 11.9721 26.9323C12.0541 26.8503 12.1001 26.7391 12.1001 26.6232V25.7578C12.3646 25.3178 12.5169 24.8195 12.5439 24.3068C12.5709 23.7942 12.4717 23.2827 12.2549 22.8173C12.1572 22.6156 12.1044 22.3951 12.1002 22.1709L12.1163 21.8918L14.1027 19.9055Z" fill="#4F4F4F"/>
<path fill-rule="evenodd" clip-rule="evenodd" d="M19.3066 16.4936C21.2687 16.4936 22.8593 14.903 22.8593 12.9409C22.8593 10.9788 21.2687 9.38818 19.3066 9.38818C17.3445 9.38818 15.7539 10.9788 15.7539 12.9409C15.7539 14.903 17.3445 16.4936 19.3066 16.4936ZM21.4485 11.9491C21.6369 11.7472 21.626 11.4308 21.4241 11.2424C21.2223 11.054 20.9059 11.0649 20.7175 11.2668L18.5961 13.5397L17.8958 12.7893C17.7074 12.5875 17.391 12.5766 17.1891 12.765C16.9872 12.9534 16.9763 13.2698 17.1647 13.4717L18.2306 14.6136C18.3251 14.7149 18.4575 14.7724 18.5961 14.7724C18.7347 14.7724 18.8671 14.7149 18.9616 14.6136L21.4485 11.9491Z" fill="#4F4F4F"/>
</svg>
