<svg width="24" height="26" viewBox="0 0 24 26" fill="none" xmlns="http://www.w3.org/2000/svg">
<circle cx="12" cy="12" r="12" fill="#F3EFEF"/>
<g filter="url(#filter0_d)">
<path d="M7.64837 6.00528C7.70353 5.99551 7.76003 6.00015 7.81321 6.01881C7.86639 6.03747 7.91473 6.06962 7.95424 6.11261L8.40951 6.60858L8.86478 6.11261C8.89751 6.07691 8.9364 6.04859 8.97921 6.02927C9.02202 6.00995 9.06791 6 9.11426 6C9.16061 6 9.20651 6.00995 9.24932 6.02927C9.29213 6.04859 9.33101 6.07691 9.36375 6.11261L9.81902 6.60858L10.2743 6.11261C10.307 6.07691 10.3459 6.04859 10.3887 6.02927C10.4315 6.00995 10.4774 6 10.5238 6C10.5701 6 10.616 6.00995 10.6588 6.02927C10.7016 6.04859 10.7405 6.07691 10.7733 6.11261L11.2285 6.60858L11.6838 6.11261C11.7165 6.07691 11.7554 6.04859 11.7982 6.02927C11.841 6.00995 11.8869 6 11.9333 6C11.9796 6 12.0255 6.00995 12.0683 6.02927C12.1111 6.04859 12.15 6.07691 12.1828 6.11261L12.638 6.60858L13.0933 6.11261C13.126 6.07691 13.1649 6.04859 13.2077 6.02927C13.2505 6.00995 13.2964 6 13.3428 6C13.3891 6 13.435 6.00995 13.4778 6.02927C13.5207 6.04859 13.5595 6.07691 13.5923 6.11261L14.0475 6.60858L14.5028 6.11261C14.5356 6.07691 14.5744 6.04859 14.6172 6.02927C14.6601 6.00995 14.706 6 14.7523 6C14.7987 6 14.8445 6.00995 14.8874 6.02927C14.9302 6.04859 14.9691 6.07691 15.0018 6.11261L15.4571 6.60858L15.9123 6.11261C15.9518 6.06963 16.0001 6.03747 16.0533 6.01879C16.1064 6.00012 16.1629 5.99545 16.218 6.00519C16.2732 6.01492 16.3254 6.03877 16.3704 6.07478C16.4154 6.11078 16.4519 6.1579 16.4768 6.21226L16.8292 6.97884C16.8538 7.03213 16.8666 7.09093 16.8666 7.15055V16.3495C16.8666 16.4091 16.8538 16.4679 16.8292 16.5212L16.4768 17.2877C16.4518 17.342 16.4154 17.389 16.3705 17.4249C16.3255 17.4608 16.2734 17.4846 16.2183 17.4943C16.1633 17.504 16.1069 17.4994 16.0539 17.4808C16.0008 17.4622 15.9525 17.4302 15.913 17.3874L15.4571 16.8914L15.0018 17.3874C14.9691 17.4231 14.9302 17.4514 14.8874 17.4707C14.8445 17.4901 14.7987 17.5 14.7523 17.5C14.706 17.5 14.6601 17.4901 14.6172 17.4707C14.5744 17.4514 14.5356 17.4231 14.5028 17.3874L14.0475 16.8914L13.5923 17.3874C13.5595 17.4231 13.5207 17.4514 13.4778 17.4707C13.435 17.4901 13.3891 17.5 13.3428 17.5C13.2964 17.5 13.2505 17.4901 13.2077 17.4707C13.1649 17.4514 13.126 17.4231 13.0933 17.3874L12.638 16.8914L12.1828 17.3874C12.15 17.4231 12.1111 17.4514 12.0683 17.4707C12.0255 17.4901 11.9796 17.5 11.9333 17.5C11.8869 17.5 11.841 17.4901 11.7982 17.4707C11.7554 17.4514 11.7165 17.4231 11.6838 17.3874L11.2285 16.8914L10.7733 17.3874C10.7405 17.4231 10.7016 17.4514 10.6588 17.4707C10.616 17.4901 10.5701 17.5 10.5238 17.5C10.4774 17.5 10.4315 17.4901 10.3887 17.4707C10.3459 17.4514 10.307 17.4231 10.2743 17.3874L9.81902 16.8914L9.36375 17.3874C9.33101 17.4231 9.29213 17.4514 9.24932 17.4707C9.20651 17.4901 9.16061 17.5 9.11426 17.5C9.06791 17.5 9.02202 17.4901 8.97921 17.4707C8.9364 17.4514 8.89751 17.4231 8.86478 17.3874L8.40951 16.8914L7.95424 17.3874C7.91475 17.4304 7.86644 17.4625 7.81329 17.4812C7.76013 17.4999 7.70366 17.5045 7.64852 17.4948C7.59338 17.4851 7.54116 17.4612 7.49617 17.4252C7.45117 17.3892 7.41469 17.3421 7.38973 17.2877L7.03735 16.5212C7.01279 16.4679 7 16.4091 7 16.3495V7.15055C7 7.09093 7.01279 7.03213 7.03735 6.97884L7.38973 6.21226C7.41469 6.15794 7.45115 6.11085 7.49612 6.07487C7.54109 6.03888 7.59327 6.01503 7.64837 6.00528ZM7.80131 7.03096L7.70475 7.241V16.259L7.80131 16.469L8.16073 16.0781C8.22681 16.0062 8.31642 15.9659 8.40986 15.9659C8.5033 15.9659 8.59291 16.0062 8.65899 16.0781L9.11426 16.5741L9.56954 16.0789C9.60227 16.0432 9.64115 16.0148 9.68396 15.9955C9.72677 15.9762 9.77267 15.9662 9.81902 15.9662C9.86537 15.9662 9.91126 15.9762 9.95407 15.9955C9.99688 16.0148 10.0358 16.0432 10.0685 16.0789L10.5238 16.5741L10.979 16.0789C11.0118 16.0432 11.0507 16.0148 11.0935 15.9955C11.1363 15.9762 11.1822 15.9662 11.2285 15.9662C11.2749 15.9662 11.3208 15.9762 11.3636 15.9955C11.4064 16.0148 11.4453 16.0432 11.478 16.0789L11.9333 16.5741L12.3886 16.0789C12.4213 16.0432 12.4602 16.0148 12.503 15.9955C12.5458 15.9762 12.5917 15.9662 12.638 15.9662C12.6844 15.9662 12.7303 15.9762 12.7731 15.9955C12.8159 16.0148 12.8548 16.0432 12.8875 16.0789L13.3428 16.5741L13.7981 16.0789C13.8308 16.0432 13.8697 16.0148 13.9125 15.9955C13.9553 15.9762 14.0012 15.9662 14.0475 15.9662C14.0939 15.9662 14.1398 15.9762 14.1826 15.9955C14.2254 16.0148 14.2643 16.0432 14.297 16.0789L14.7523 16.5741L15.2076 16.0789C15.2403 16.0432 15.2792 16.0148 15.322 15.9955C15.3648 15.9762 15.4107 15.9662 15.4571 15.9662C15.5034 15.9662 15.5493 15.9762 15.5921 15.9955C15.6349 16.0148 15.6738 16.0432 15.7065 16.0789L16.0653 16.469L16.1618 16.259V7.241L16.0653 7.03096L15.7058 7.42192C15.6398 7.49377 15.5501 7.53414 15.4567 7.53414C15.3633 7.53414 15.2737 7.49377 15.2076 7.42192L14.7523 6.92594L14.297 7.42192C14.2643 7.45761 14.2254 7.48593 14.1826 7.50525C14.1398 7.52457 14.0939 7.53452 14.0475 7.53452C14.0012 7.53452 13.9553 7.52457 13.9125 7.50525C13.8697 7.48593 13.8308 7.45761 13.7981 7.42192L13.3428 6.92594L12.8875 7.42192C12.8548 7.45761 12.8159 7.48593 12.7731 7.50525C12.7303 7.52457 12.6844 7.53452 12.638 7.53452C12.5917 7.53452 12.5458 7.52457 12.503 7.50525C12.4602 7.48593 12.4213 7.45761 12.3886 7.42192L11.9333 6.92594L11.478 7.42192C11.4453 7.45761 11.4064 7.48593 11.3636 7.50525C11.3208 7.52457 11.2749 7.53452 11.2285 7.53452C11.1822 7.53452 11.1363 7.52457 11.0935 7.50525C11.0507 7.48593 11.0118 7.45761 10.979 7.42192L10.5238 6.92594L10.0685 7.42192C10.0358 7.45761 9.99688 7.48593 9.95407 7.50525C9.91126 7.52457 9.86537 7.53452 9.81902 7.53452C9.77267 7.53452 9.72677 7.52457 9.68396 7.50525C9.64115 7.48593 9.60227 7.45761 9.56954 7.42192L9.11426 6.92594L8.65899 7.42192C8.62626 7.45761 8.58737 7.48593 8.54456 7.50525C8.50175 7.52457 8.45586 7.53452 8.40951 7.53452C8.36316 7.53452 8.31727 7.52457 8.27445 7.50525C8.23164 7.48593 8.19276 7.45761 8.16003 7.42192L7.80131 7.03096Z" fill="#02040F"/>
<path d="M8.40942 9.06688C8.40942 8.96523 8.44655 8.86774 8.51263 8.79586C8.57872 8.72398 8.66834 8.68359 8.7618 8.68359H12.9903C13.0838 8.68359 13.1734 8.72398 13.2395 8.79586C13.3056 8.86774 13.3427 8.96523 13.3427 9.06688C13.3427 9.16854 13.3056 9.26603 13.2395 9.33791C13.1734 9.40979 13.0838 9.45017 12.9903 9.45017H8.7618C8.66834 9.45017 8.57872 9.40979 8.51263 9.33791C8.44655 9.26603 8.40942 9.16854 8.40942 9.06688ZM8.40942 10.6C8.40942 10.4984 8.44655 10.4009 8.51263 10.329C8.57872 10.2571 8.66834 10.2167 8.7618 10.2167H12.9903C13.0838 10.2167 13.1734 10.2571 13.2395 10.329C13.3056 10.4009 13.3427 10.4984 13.3427 10.6C13.3427 10.7017 13.3056 10.7992 13.2395 10.8711C13.1734 10.9429 13.0838 10.9833 12.9903 10.9833H8.7618C8.66834 10.9833 8.57872 10.9429 8.51263 10.8711C8.44655 10.7992 8.40942 10.7017 8.40942 10.6ZM8.40942 12.1332C8.40942 12.0315 8.44655 11.934 8.51263 11.8622C8.57872 11.7903 8.66834 11.7499 8.7618 11.7499H12.9903C13.0838 11.7499 13.1734 11.7903 13.2395 11.8622C13.3056 11.934 13.3427 12.0315 13.3427 12.1332C13.3427 12.2348 13.3056 12.3323 13.2395 12.4042C13.1734 12.4761 13.0838 12.5165 12.9903 12.5165H8.7618C8.66834 12.5165 8.57872 12.4761 8.51263 12.4042C8.44655 12.3323 8.40942 12.2348 8.40942 12.1332ZM8.40942 13.6663C8.40942 13.5647 8.44655 13.4672 8.51263 13.3953C8.57872 13.3234 8.66834 13.283 8.7618 13.283H12.9903C13.0838 13.283 13.1734 13.3234 13.2395 13.3953C13.3056 13.4672 13.3427 13.5647 13.3427 13.6663C13.3427 13.768 13.3056 13.8655 13.2395 13.9374C13.1734 14.0092 13.0838 14.0496 12.9903 14.0496H8.7618C8.66834 14.0496 8.57872 14.0092 8.51263 13.9374C8.44655 13.8655 8.40942 13.768 8.40942 13.6663ZM14.0475 9.06688C14.0475 8.96523 14.0846 8.86774 14.1507 8.79586C14.2168 8.72398 14.3064 8.68359 14.3998 8.68359H15.1046C15.1981 8.68359 15.2877 8.72398 15.3538 8.79586C15.4198 8.86774 15.457 8.96523 15.457 9.06688C15.457 9.16854 15.4198 9.26603 15.3538 9.33791C15.2877 9.40979 15.1981 9.45017 15.1046 9.45017H14.3998C14.3064 9.45017 14.2168 9.40979 14.1507 9.33791C14.0846 9.26603 14.0475 9.16854 14.0475 9.06688ZM14.0475 10.6C14.0475 10.4984 14.0846 10.4009 14.1507 10.329C14.2168 10.2571 14.3064 10.2167 14.3998 10.2167H15.1046C15.1981 10.2167 15.2877 10.2571 15.3538 10.329C15.4198 10.4009 15.457 10.4984 15.457 10.6C15.457 10.7017 15.4198 10.7992 15.3538 10.8711C15.2877 10.9429 15.1981 10.9833 15.1046 10.9833H14.3998C14.3064 10.9833 14.2168 10.9429 14.1507 10.8711C14.0846 10.7992 14.0475 10.7017 14.0475 10.6ZM14.0475 12.1332C14.0475 12.0315 14.0846 11.934 14.1507 11.8622C14.2168 11.7903 14.3064 11.7499 14.3998 11.7499H15.1046C15.1981 11.7499 15.2877 11.7903 15.3538 11.8622C15.4198 11.934 15.457 12.0315 15.457 12.1332C15.457 12.2348 15.4198 12.3323 15.3538 12.4042C15.2877 12.4761 15.1981 12.5165 15.1046 12.5165H14.3998C14.3064 12.5165 14.2168 12.4761 14.1507 12.4042C14.0846 12.3323 14.0475 12.2348 14.0475 12.1332ZM14.0475 13.6663C14.0475 13.5647 14.0846 13.4672 14.1507 13.3953C14.2168 13.3234 14.3064 13.283 14.3998 13.283H15.1046C15.1981 13.283 15.2877 13.3234 15.3538 13.3953C15.4198 13.4672 15.457 13.5647 15.457 13.6663C15.457 13.768 15.4198 13.8655 15.3538 13.9374C15.2877 14.0092 15.1981 14.0496 15.1046 14.0496H14.3998C14.3064 14.0496 14.2168 14.0092 14.1507 13.9374C14.0846 13.8655 14.0475 13.768 14.0475 13.6663Z" fill="#02040F"/>
</g>
<defs>
<filter id="filter0_d" x="3" y="6" width="17.8666" height="19.5" filterUnits="userSpaceOnUse" color-interpolation-filters="sRGB">
<feFlood flood-opacity="0" result="BackgroundImageFix"/>
<feColorMatrix in="SourceAlpha" type="matrix" values="0 0 0 0 0 0 0 0 0 0 0 0 0 0 0 0 0 0 127 0"/>
<feOffset dy="4"/>
<feGaussianBlur stdDeviation="2"/>
<feColorMatrix type="matrix" values="0 0 0 0 0 0 0 0 0 0 0 0 0 0 0 0 0 0 0.1 0"/>
<feBlend mode="normal" in2="BackgroundImageFix" result="effect1_dropShadow"/>
<feBlend mode="normal" in="SourceGraphic" in2="effect1_dropShadow" result="shape"/>
</filter>
</defs>
</svg>
