<svg width="24" height="24" viewBox="0 0 24 24" fill="none" xmlns="http://www.w3.org/2000/svg">
<path d="M5 6.00134C5 5.80243 5.07902 5.61167 5.21967 5.47101C5.36032 5.33036 5.55109 5.25134 5.75 5.25134H14.75C14.9489 5.25134 15.1397 5.33036 15.2803 5.47101C15.421 5.61167 15.5 5.80243 15.5 6.00134C15.5 6.20026 15.421 6.39102 15.2803 6.53167C15.1397 6.67233 14.9489 6.75134 14.75 6.75134H5.75C5.55109 6.75134 5.36032 6.67233 5.21967 6.53167C5.07902 6.39102 5 6.20026 5 6.00134ZM5 9.00134C5 8.80243 5.07902 8.61167 5.21967 8.47101C5.36032 8.33036 5.55109 8.25134 5.75 8.25134H14.75C14.9489 8.25134 15.1397 8.33036 15.2803 8.47101C15.421 8.61167 15.5 8.80243 15.5 9.00134C15.5 9.20026 15.421 9.39102 15.2803 9.53167C15.1397 9.67233 14.9489 9.75134 14.75 9.75134H5.75C5.55109 9.75134 5.36032 9.67233 5.21967 9.53167C5.07902 9.39102 5 9.20026 5 9.00134ZM5 12.0013C5 11.8024 5.07902 11.6117 5.21967 11.471C5.36032 11.3304 5.55109 11.2513 5.75 11.2513H14.75C14.9489 11.2513 15.1397 11.3304 15.2803 11.471C15.421 11.6117 15.5 11.8024 15.5 12.0013C15.5 12.2003 15.421 12.391 15.2803 12.5317C15.1397 12.6723 14.9489 12.7513 14.75 12.7513H5.75C5.55109 12.7513 5.36032 12.6723 5.21967 12.5317C5.07902 12.391 5 12.2003 5 12.0013ZM5 15.0013C5 14.8024 5.07902 14.6117 5.21967 14.471C5.36032 14.3304 5.55109 14.2513 5.75 14.2513H14.75C14.9489 14.2513 15.1397 14.3304 15.2803 14.471C15.421 14.6117 15.5 14.8024 15.5 15.0013C15.5 15.2003 15.421 15.391 15.2803 15.5317C15.1397 15.6723 14.9489 15.7513 14.75 15.7513H5.75C5.55109 15.7513 5.36032 15.6723 5.21967 15.5317C5.07902 15.391 5 15.2003 5 15.0013ZM5 18.0013C5 17.8024 5.07902 17.6117 5.21967 17.471C5.36032 17.3304 5.55109 17.2513 5.75 17.2513H14.75C14.9489 17.2513 15.1397 17.3304 15.2803 17.471C15.421 17.6117 15.5 17.8024 15.5 18.0013C15.5 18.2003 15.421 18.391 15.2803 18.5317C15.1397 18.6723 14.9489 18.7513 14.75 18.7513H5.75C5.55109 18.7513 5.36032 18.6723 5.21967 18.5317C5.07902 18.391 5 18.2003 5 18.0013ZM17.75 5.25134C17.5511 5.25134 17.3603 5.33036 17.2197 5.47101C17.079 5.61167 17 5.80243 17 6.00134C17 6.20026 17.079 6.39102 17.2197 6.53167C17.3603 6.67233 17.5511 6.75134 17.75 6.75134H19.25C19.4489 6.75134 19.6397 6.67233 19.7803 6.53167C19.921 6.39102 20 6.20026 20 6.00134C20 5.80243 19.921 5.61167 19.7803 5.47101C19.6397 5.33036 19.4489 5.25134 19.25 5.25134H17.75ZM17.75 8.25134C17.5511 8.25134 17.3603 8.33036 17.2197 8.47101C17.079 8.61167 17 8.80243 17 9.00134C17 9.20026 17.079 9.39102 17.2197 9.53167C17.3603 9.67233 17.5511 9.75134 17.75 9.75134H19.25C19.4489 9.75134 19.6397 9.67233 19.7803 9.53167C19.921 9.39102 20 9.20026 20 9.00134C20 8.80243 19.921 8.61167 19.7803 8.47101C19.6397 8.33036 19.4489 8.25134 19.25 8.25134H17.75ZM17.75 11.2513C17.5511 11.2513 17.3603 11.3304 17.2197 11.471C17.079 11.6117 17 11.8024 17 12.0013C17 12.2003 17.079 12.391 17.2197 12.5317C17.3603 12.6723 17.5511 12.7513 17.75 12.7513H19.25C19.4489 12.7513 19.6397 12.6723 19.7803 12.5317C19.921 12.391 20 12.2003 20 12.0013C20 11.8024 19.921 11.6117 19.7803 11.471C19.6397 11.3304 19.4489 11.2513 19.25 11.2513H17.75ZM17.75 14.2513C17.5511 14.2513 17.3603 14.3304 17.2197 14.471C17.079 14.6117 17 14.8024 17 15.0013C17 15.2003 17.079 15.391 17.2197 15.5317C17.3603 15.6723 17.5511 15.7513 17.75 15.7513H19.25C19.4489 15.7513 19.6397 15.6723 19.7803 15.5317C19.921 15.391 20 15.2003 20 15.0013C20 14.8024 19.921 14.6117 19.7803 14.471C19.6397 14.3304 19.4489 14.2513 19.25 14.2513H17.75ZM17.75 17.2513C17.5511 17.2513 17.3603 17.3304 17.2197 17.471C17.079 17.6117 17 17.8024 17 18.0013C17 18.2003 17.079 18.391 17.2197 18.5317C17.3603 18.6723 17.5511 18.7513 17.75 18.7513H19.25C19.4489 18.7513 19.6397 18.6723 19.7803 18.5317C19.921 18.391 20 18.2003 20 18.0013C20 17.8024 19.921 17.6117 19.7803 17.471C19.6397 17.3304 19.4489 17.2513 19.25 17.2513H17.75Z" fill="#E74F30"/>
<path d="M3.531 0.220341C3.44696 0.13624 3.34414 0.0733216 3.231 0.036776C3.11787 0.000230516 2.99767 -0.0088954 2.88031 0.010151C2.76296 0.0291974 2.65181 0.0758704 2.55604 0.14632C2.46027 0.21677 2.38262 0.308979 2.3295 0.415341L1.5795 1.91534C1.52723 2.01963 1.50001 2.13468 1.5 2.25134V21.7513H0.75C0.551088 21.7513 0.360322 21.8304 0.21967 21.971C0.0790176 22.1117 0 22.3024 0 22.5013C0 22.7003 0.0790176 22.891 0.21967 23.0317C0.360322 23.1723 0.551088 23.2513 0.75 23.2513H23.25C23.4489 23.2513 23.6397 23.1723 23.7803 23.0317C23.921 22.891 24 22.7003 24 22.5013C24 22.3024 23.921 22.1117 23.7803 21.971C23.6397 21.8304 23.4489 21.7513 23.25 21.7513H22.5V2.25134C22.5 2.13468 22.4728 2.01963 22.4205 1.91534L21.6705 0.415341C21.6173 0.309249 21.5397 0.217294 21.4441 0.147032C21.3484 0.0767709 21.2375 0.0302091 21.1203 0.0111738C21.0032 -0.00786148 20.8832 0.0011732 20.7702 0.0375354C20.6573 0.0738975 20.5545 0.136549 20.4705 0.220341L19.5 1.19084L18.531 0.220341C18.4613 0.150496 18.3786 0.0950815 18.2874 0.0572719C18.1963 0.0194622 18.0987 0 18 0C17.9013 0 17.8037 0.0194622 17.7126 0.0572719C17.6214 0.0950815 17.5387 0.150496 17.469 0.220341L16.5 1.19084L15.531 0.220341C15.4613 0.150496 15.3786 0.0950815 15.2874 0.0572719C15.1963 0.0194622 15.0987 0 15 0C14.9013 0 14.8037 0.0194622 14.7126 0.0572719C14.6214 0.0950815 14.5387 0.150496 14.469 0.220341L13.5 1.19084L12.531 0.220341C12.4613 0.150496 12.3786 0.0950815 12.2874 0.0572719C12.1963 0.0194622 12.0987 0 12 0C11.9013 0 11.8037 0.0194622 11.7125 0.0572719C11.6214 0.0950815 11.5387 0.150496 11.469 0.220341L10.5 1.19084L9.531 0.220341C9.46133 0.150496 9.37857 0.0950815 9.28745 0.0572719C9.19633 0.0194622 9.09865 0 9 0C8.90135 0 8.80367 0.0194622 8.71255 0.0572719C8.62143 0.0950815 8.53867 0.150496 8.469 0.220341L7.5 1.19084L6.531 0.220341C6.46133 0.150496 6.37857 0.0950815 6.28745 0.0572719C6.19633 0.0194622 6.09865 0 6 0C5.90135 0 5.80367 0.0194622 5.71255 0.0572719C5.62143 0.0950815 5.53867 0.150496 5.469 0.220341L4.5 1.19084L3.531 0.220341ZM3.2055 2.01734L3.9705 2.78234C4.11115 2.92294 4.30188 3.00193 4.50075 3.00193C4.69962 3.00193 4.89035 2.92294 5.031 2.78234L6 1.81184L6.969 2.78234C7.03867 2.85219 7.12143 2.9076 7.21255 2.94541C7.30367 2.98322 7.40135 3.00268 7.5 3.00268C7.59865 3.00268 7.69633 2.98322 7.78745 2.94541C7.87857 2.9076 7.96133 2.85219 8.031 2.78234L9 1.81184L9.969 2.78234C10.0387 2.85219 10.1214 2.9076 10.2125 2.94541C10.3037 2.98322 10.4013 3.00268 10.5 3.00268C10.5987 3.00268 10.6963 2.98322 10.7875 2.94541C10.8786 2.9076 10.9613 2.85219 11.031 2.78234L12 1.81184L12.969 2.78234C13.0387 2.85219 13.1214 2.9076 13.2126 2.94541C13.3037 2.98322 13.4013 3.00268 13.5 3.00268C13.5987 3.00268 13.6963 2.98322 13.7874 2.94541C13.8786 2.9076 13.9613 2.85219 14.031 2.78234L15 1.81184L15.969 2.78234C16.0387 2.85219 16.1214 2.9076 16.2126 2.94541C16.3037 2.98322 16.4013 3.00268 16.5 3.00268C16.5987 3.00268 16.6963 2.98322 16.7874 2.94541C16.8786 2.9076 16.9613 2.85219 17.031 2.78234L18 1.81184L18.969 2.78234C19.0387 2.85219 19.1214 2.9076 19.2126 2.94541C19.3037 2.98322 19.4013 3.00268 19.5 3.00268C19.5987 3.00268 19.6963 2.98322 19.7874 2.94541C19.8786 2.9076 19.9613 2.85219 20.031 2.78234L20.7945 2.01734L21 2.42834V21.7513H3V2.42834L3.2055 2.01734Z" fill="#E74F30"/>
</svg>
