<svg width="24" height="22" viewBox="0 0 24 22" fill="none" xmlns="http://www.w3.org/2000/svg">
<path d="M1.69232 11.0014C1.69207 9.36746 2.12195 7.76222 2.93877 6.34707C3.75559 4.93192 4.93054 3.75673 6.34553 2.93964C7.76052 2.12254 9.36568 1.69234 10.9996 1.69228C12.6336 1.69221 14.2388 2.12229 15.6539 2.93927C15.8481 3.04971 16.0781 3.07883 16.2938 3.02029C16.5094 2.96175 16.6931 2.82029 16.8049 2.62678C16.9166 2.43328 16.9472 2.20344 16.8901 1.98742C16.833 1.7714 16.6928 1.58674 16.5 1.47373C14.403 0.263028 11.9651 -0.22192 9.56439 0.094099C7.16369 0.410118 4.93434 1.50945 3.22209 3.22159C1.50984 4.93373 0.410365 7.16301 0.0941912 9.56369C-0.221982 11.9644 0.262809 14.4023 1.47338 16.4994C2.68395 18.5965 4.55266 20.2355 6.78968 21.1623C9.0267 22.0891 11.507 22.2519 13.846 21.6255C16.185 20.999 18.2519 19.6182 19.7261 17.6974C21.2004 15.7765 21.9997 13.4228 22 11.0014C22 10.777 21.9109 10.5618 21.7522 10.4031C21.5935 10.2444 21.3783 10.1553 21.1538 10.1553C20.9294 10.1553 20.7142 10.2444 20.5555 10.4031C20.3968 10.5618 20.3077 10.777 20.3077 11.0014C20.3077 13.47 19.3271 15.8374 17.5815 17.5829C15.836 19.3285 13.4686 20.3091 11 20.3091C8.53146 20.3091 6.16401 19.3285 4.41848 17.5829C2.67295 15.8374 1.69232 13.47 1.69232 11.0014Z" fill="#E74F30"/>
<path d="M23.7468 3.49532C23.827 3.41398 23.8907 3.31742 23.9342 3.21115C23.9776 3.10487 24 2.99097 24 2.87594C24 2.76091 23.9776 2.647 23.9342 2.54073C23.8907 2.43446 23.827 2.33789 23.7468 2.25656C23.6665 2.17522 23.5712 2.1107 23.4663 2.06668C23.3614 2.02266 23.2489 2 23.1354 2C23.0218 2 22.9094 2.02266 22.8045 2.06668C22.6996 2.1107 22.6043 2.17522 22.524 2.25656L11.0459 13.8866L6.47601 9.25522C6.39572 9.17388 6.30041 9.10936 6.19551 9.06534C6.09061 9.02132 5.97817 8.99867 5.86463 8.99867C5.75108 8.99867 5.63865 9.02132 5.53375 9.06534C5.42885 9.10936 5.33353 9.17388 5.25324 9.25522C5.17296 9.33656 5.10927 9.43312 5.06582 9.5394C5.02236 9.64567 5 9.75957 5 9.8746C5 9.98963 5.02236 10.1035 5.06582 10.2098C5.10927 10.3161 5.17296 10.4126 5.25324 10.494L10.4345 15.743C10.5147 15.8245 10.61 15.8891 10.7149 15.9332C10.8198 15.9773 10.9323 16 11.0459 16C11.1594 16 11.2719 15.9773 11.3768 15.9332C11.4817 15.8891 11.577 15.8245 11.6572 15.743L23.7468 3.49532Z" fill="#E74F30"/>
</svg>
