<svg width="24" height="26" viewBox="0 0 24 26" fill="none" xmlns="http://www.w3.org/2000/svg">
<circle cx="12" cy="12" r="12" fill="#F3EFEF"/>
<g filter="url(#filter0_d)">
<path d="M14.7749 9.8259C14.6608 9.8259 14.5684 9.72532 14.5684 9.60129V8.06543C14.5684 7.9414 14.6608 7.84082 14.7749 7.84082C14.8889 7.84082 14.9814 7.9414 14.9814 8.06543V9.60129C14.9814 9.72532 14.8889 9.8259 14.7749 9.8259Z" fill="#02040F"/>
<path d="M14.7744 7.56714C14.8884 7.56714 14.9809 7.46658 14.9809 7.34253C14.9809 7.21848 14.8884 7.11792 14.7744 7.11792C14.6603 7.11792 14.5679 7.21848 14.5679 7.34253C14.5679 7.46658 14.6603 7.56714 14.7744 7.56714Z" fill="#02040F"/>
<path d="M16.943 8.35968C16.943 7.05854 15.97 6 14.774 6C14.279 6 13.8222 6.18135 13.4567 6.48619H8.2515C7.83712 6.48619 7.5 6.85286 7.5 7.30361V15.4743C7.5 15.925 7.83712 16.2917 8.2515 16.2917H8.90673V16.6826C8.90673 17.1333 9.24386 17.5 9.65823 17.5H15.0573C15.4717 17.5 15.8088 17.1333 15.8088 16.6826V13.5672C15.8088 13.4432 15.7163 13.3426 15.6023 13.3426C15.4883 13.3426 15.3958 13.4432 15.3958 13.5672V16.6826C15.3958 16.8856 15.2439 17.0508 15.0573 17.0508H9.65823C9.47158 17.0508 9.31972 16.8856 9.31972 16.6826V16.2917H13.6506C14.065 16.2917 14.4021 15.925 14.4021 15.4743V10.6846C14.523 10.7075 14.6472 10.7194 14.774 10.7194C14.99 10.7194 15.1988 10.6848 15.3958 10.6206V11.5365C15.3958 11.6605 15.4883 11.7611 15.6023 11.7611C15.7163 11.7611 15.8088 11.6605 15.8088 11.5365V10.4331C16.4839 10.0327 16.943 9.25342 16.943 8.35968ZM13.9891 15.4743C13.9891 15.6773 13.8372 15.8425 13.6506 15.8425H8.2515C8.06485 15.8425 7.91299 15.6774 7.91299 15.4743V7.30361C7.91299 7.10059 8.06485 6.93541 8.2515 6.93541H13.0457C12.7865 7.30675 12.626 7.76384 12.607 8.26002H9.09053C8.97651 8.26002 8.88404 8.3606 8.88404 8.48463V9.43324C8.88404 9.55727 8.97651 9.65785 9.09053 9.65785H12.8115C12.8585 9.65785 12.9018 9.64081 12.9365 9.6121C13.1831 10.0389 13.5519 10.3742 13.9891 10.5595V15.4743ZM12.605 8.70924V9.20863H9.29703V8.70924H12.605ZM14.774 10.2701C13.8058 10.2701 13.018 9.4131 13.018 8.35966C13.018 7.30624 13.8058 6.4492 14.774 6.4492C15.7423 6.4492 16.53 7.30622 16.53 8.35966C16.53 9.4131 15.7423 10.2701 14.774 10.2701Z" fill="#02040F"/>
<path d="M15.6023 12.7725C15.5172 12.7725 15.4392 12.7132 15.4092 12.6269C15.3784 12.5383 15.4037 12.434 15.4714 12.3741C15.5392 12.3141 15.6369 12.3068 15.7113 12.3571C15.7855 12.4072 15.8235 12.5061 15.8034 12.5988C15.7817 12.6991 15.6972 12.7725 15.6023 12.7725Z" fill="#02040F"/>
<path d="M12.8113 10.8884H9.09028C8.97626 10.8884 8.88379 10.7879 8.88379 10.6638C8.88379 10.5398 8.97626 10.4392 9.09028 10.4392H12.8113C12.9253 10.4392 13.0178 10.5398 13.0178 10.6638C13.0178 10.7878 12.9253 10.8884 12.8113 10.8884Z" fill="#02040F"/>
<path d="M12.8113 11.9539H9.09028C8.97626 11.9539 8.88379 11.8533 8.88379 11.7292C8.88379 11.6052 8.97626 11.5046 9.09028 11.5046H12.8113C12.9253 11.5046 13.0178 11.6052 13.0178 11.7292C13.0178 11.8533 12.9253 11.9539 12.8113 11.9539Z" fill="#02040F"/>
<path d="M12.8113 13.0193H9.09028C8.97626 13.0193 8.88379 12.9187 8.88379 12.7947C8.88379 12.6706 8.97626 12.5701 9.09028 12.5701H12.8113C12.9253 12.5701 13.0178 12.6706 13.0178 12.7947C13.0178 12.9187 12.9253 13.0193 12.8113 13.0193Z" fill="#02040F"/>
<path d="M12.8113 14.0842H9.09028C8.97626 14.0842 8.88379 13.9836 8.88379 13.8596C8.88379 13.7356 8.97626 13.635 9.09028 13.635H12.8113C12.9253 13.635 13.0178 13.7356 13.0178 13.8596C13.0178 13.9836 12.9253 14.0842 12.8113 14.0842Z" fill="#02040F"/>
</g>
<defs>
<filter id="filter0_d" x="3.5" y="6" width="17.443" height="19.5" filterUnits="userSpaceOnUse" color-interpolation-filters="sRGB">
<feFlood flood-opacity="0" result="BackgroundImageFix"/>
<feColorMatrix in="SourceAlpha" type="matrix" values="0 0 0 0 0 0 0 0 0 0 0 0 0 0 0 0 0 0 127 0"/>
<feOffset dy="4"/>
<feGaussianBlur stdDeviation="2"/>
<feColorMatrix type="matrix" values="0 0 0 0 0 0 0 0 0 0 0 0 0 0 0 0 0 0 0.1 0"/>
<feBlend mode="normal" in2="BackgroundImageFix" result="effect1_dropShadow"/>
<feBlend mode="normal" in="SourceGraphic" in2="effect1_dropShadow" result="shape"/>
</filter>
</defs>
</svg>
