<svg width="36" height="36" viewBox="0 0 36 36" fill="none" xmlns="http://www.w3.org/2000/svg">
<g clip-path="url(#clip0)">
<path d="M6.41346 14.0481H4.7322C4.24188 14.0486 3.7718 14.2186 3.42509 14.5207C3.07838 14.8229 2.88336 15.2326 2.88281 15.66V25.5227H4.56408V15.66C4.56462 15.2326 4.75965 14.8229 5.10636 14.5207C5.45306 14.2186 5.92314 14.0486 6.41346 14.0481Z" fill="#F4E3D4"/>
<path d="M27.5768 28.1208H6.80496C6.26026 28.1203 5.73805 27.9581 5.35289 27.6698C4.96774 27.3815 4.75109 26.9906 4.7505 26.5828V25.5222H2.88281V27.5149C2.88341 27.9227 3.10005 28.3136 3.4852 28.6019C3.87036 28.8902 4.39258 29.0524 4.93727 29.0529H25.7091C26.1111 29.0526 26.5042 28.9641 26.8398 28.7984C27.1754 28.6326 27.4388 28.3969 27.5974 28.1204C27.5905 28.1204 27.5837 28.1208 27.5768 28.1208Z" fill="#F4E3D4"/>
<rect x="2.6" y="13.7648" width="25.2799" height="15.5706" rx="2.4" stroke="#4F4F4F" stroke-width="1.2"/>
<path d="M20.2297 20.6355C21.0245 20.9864 21.0245 22.1142 20.2297 22.4651L12.4517 25.8991C11.7907 26.191 11.0478 25.7069 11.0478 24.9843L11.0478 18.1163C11.0478 17.3937 11.7907 16.9096 12.4517 17.2015L20.2297 20.6355Z" fill="#E85222"/>
<path d="M27.0604 11.549V11.549C28.8009 11.6575 30.1239 13.1564 30.0154 14.8969V14.8969" stroke="#E85222" stroke-width="0.8" stroke-linecap="round"/>
<path d="M27.6841 10.0049V10.0049C30.0047 10.1496 31.7687 12.1481 31.624 14.4687V14.4687" stroke="#E85222" stroke-width="0.8" stroke-linecap="round"/>
<path d="M28.3077 8.46245V8.46245C31.2085 8.64331 33.4135 11.1415 33.2326 14.0423V14.0423" stroke="#E85222" stroke-width="0.8" stroke-linecap="round"/>
</g>
<defs>
<clipPath id="clip0">
<rect width="36" height="36" fill="white"/>
</clipPath>
</defs>
</svg>
