<svg width="24" height="24" viewBox="0 0 24 24" fill="none" xmlns="http://www.w3.org/2000/svg">
<path d="M22.4616 19.6924H1.53848C0.688594 19.6924 0 20.381 0 21.2308C0 22.0806 0.688594 22.7693 1.53848 22.7693H22.4616C23.3114 22.7693 24 22.0807 24 21.2308C24 20.3809 23.3114 19.6924 22.4616 19.6924Z" fill="#E74F30"/>
<path d="M13.8462 10.4616H1.53848C0.688594 10.4616 0 11.1502 0 12.0001C0 12.8499 0.688594 13.5386 1.53848 13.5386H13.8462C14.696 13.5386 15.3847 12.85 15.3847 12.0001C15.3847 11.1502 14.696 10.4616 13.8462 10.4616Z" fill="#E74F30"/>
<path d="M22.4615 10.4616H19.9999C19.1501 10.4616 18.4614 11.1502 18.4614 12.0001C18.4614 12.85 19.15 13.5386 19.9999 13.5386H22.4615C23.3113 13.5386 23.9999 12.85 23.9999 12.0001C23.9999 11.1502 23.3113 10.4616 22.4615 10.4616Z" fill="#E74F30"/>
<path d="M22.4616 1.23064H1.53848C0.688594 1.23064 0 1.91928 0 2.76913C0 3.61897 0.688594 4.30762 1.53848 4.30762H22.4616C23.3114 4.30762 24 3.61902 24 2.76913C24 1.91928 23.3114 1.23064 22.4616 1.23064Z" fill="#E74F30"/>
</svg>
