<svg width="24" height="18" viewBox="0 0 24 18" fill="none" xmlns="http://www.w3.org/2000/svg">
<path d="M16.8749 7.49674H22.7729C22.8441 7.49677 22.9139 7.51709 22.974 7.55534C23.0341 7.59359 23.0821 7.64817 23.1123 7.71271C23.1425 7.77724 23.1538 7.84904 23.1446 7.91971C23.1355 7.99038 23.1065 8.05699 23.0609 8.11174L20.1119 11.6517C20.0767 11.6939 20.0326 11.7279 19.9829 11.7512C19.9331 11.7745 19.8788 11.7866 19.8239 11.7866C19.7689 11.7866 19.7146 11.7745 19.6649 11.7512C19.6151 11.7279 19.5711 11.6939 19.5359 11.6517L16.5869 8.11174C16.5413 8.05699 16.5122 7.99038 16.5031 7.91971C16.494 7.84904 16.5052 7.77724 16.5354 7.71271C16.5656 7.64817 16.6136 7.59359 16.6737 7.55534C16.7338 7.51709 16.8036 7.49677 16.8749 7.49674ZM0.37486 10.4967H6.27286C6.34412 10.4967 6.41389 10.4764 6.47401 10.4381C6.53413 10.3999 6.58211 10.3453 6.61233 10.2808C6.64255 10.2162 6.65375 10.1444 6.64464 10.0738C6.63552 10.0031 6.60646 9.93649 6.56086 9.88174L3.61186 6.34174C3.57667 6.29954 3.53263 6.26559 3.48286 6.24229C3.43309 6.21899 3.37881 6.20691 3.32386 6.20691C3.26891 6.20691 3.21463 6.21899 3.16486 6.24229C3.11509 6.26559 3.07105 6.29954 3.03586 6.34174L0.0868597 9.88174C0.0412562 9.93649 0.0121957 10.0031 0.0030809 10.0738C-0.00603387 10.1444 0.00517444 10.2162 0.0353934 10.2808C0.0656124 10.3453 0.113591 10.3999 0.173711 10.4381C0.233831 10.4764 0.303604 10.4967 0.37486 10.4967Z" fill="#E74F30"/>
<path fill-rule="evenodd" clip-rule="evenodd" d="M11.8755 1.49669C9.5475 1.49669 7.4655 2.55719 6.09 4.22369C6.02858 4.3033 5.95178 4.36974 5.86416 4.41908C5.77655 4.46841 5.67991 4.49962 5.57999 4.51085C5.48006 4.52209 5.37891 4.51312 5.28252 4.48447C5.18614 4.45582 5.0965 4.40809 5.01894 4.34411C4.94137 4.28012 4.87746 4.2012 4.83101 4.11202C4.78456 4.02284 4.75652 3.92523 4.74855 3.825C4.74058 3.72477 4.75285 3.62396 4.78462 3.52856C4.81639 3.43316 4.86702 3.34512 4.9335 3.26969C6.03178 1.93998 7.48888 0.953704 9.1315 0.42817C10.7741 -0.0973626 12.5331 -0.140038 14.1993 0.30522C15.8654 0.750479 17.3686 1.66493 18.5301 2.93982C19.6916 4.2147 20.4624 5.79637 20.751 7.49669H19.2255C18.8792 5.8029 17.9586 4.28068 16.6193 3.1874C15.28 2.09413 13.6043 1.4969 11.8755 1.49669ZM4.5255 10.4967C4.80947 11.8836 5.48003 13.1619 6.45972 14.1839C7.4394 15.2059 8.68824 15.9298 10.0619 16.2721C11.4356 16.6144 12.8782 16.5611 14.2228 16.1183C15.5675 15.6754 16.7595 14.8612 17.661 13.7697C17.7224 13.6901 17.7992 13.6236 17.8868 13.5743C17.9745 13.525 18.0711 13.4938 18.171 13.4825C18.2709 13.4713 18.3721 13.4803 18.4685 13.5089C18.5649 13.5375 18.6545 13.5853 18.7321 13.6493C18.8096 13.7133 18.8735 13.7922 18.92 13.8814C18.9664 13.9705 18.9945 14.0681 19.0024 14.1684C19.0104 14.2686 18.9982 14.3694 18.9664 14.4648C18.9346 14.5602 18.884 14.6482 18.8175 14.7237C17.7192 16.0534 16.2621 17.0397 14.6195 17.5652C12.9769 18.0907 11.2179 18.1334 9.55174 17.6882C7.88557 17.2429 6.38236 16.3284 5.22088 15.0536C4.05941 13.7787 3.28855 12.197 3 10.4967H4.5255Z" fill="#E74F30"/>
</svg>
