<svg width="10" height="10" viewBox="0 0 10 10" fill="none" xmlns="http://www.w3.org/2000/svg">
<path d="M2.28397 0.830158C2.24708 0.782698 2.20051 0.743631 2.14735 0.715553C2.0942 0.687474 2.03568 0.671026 1.97568 0.667302C1.91568 0.663578 1.85558 0.672663 1.79936 0.693953C1.74314 0.715243 1.6921 0.748251 1.64962 0.790785L1.00339 1.43764C0.701522 1.74013 0.590276 2.16824 0.722147 2.54385C1.26947 4.09855 2.15979 5.51007 3.32706 6.67373C4.49073 7.84099 5.90225 8.7313 7.45694 9.27864C7.83255 9.41051 8.26066 9.29927 8.56315 8.9974L9.20938 8.35117C9.25191 8.30869 9.28492 8.25765 9.30621 8.20143C9.3275 8.14521 9.33659 8.08511 9.33286 8.02511C9.32914 7.96511 9.31269 7.90659 9.28461 7.85344C9.25653 7.80028 9.21747 7.75371 9.17001 7.71682L7.72818 6.5956C7.67747 6.55628 7.6185 6.52898 7.55571 6.51577C7.49291 6.50256 7.42794 6.50379 7.36569 6.51936L5.99698 6.86122C5.81429 6.90688 5.62288 6.90446 5.4414 6.85419C5.25992 6.80392 5.09455 6.70751 4.96139 6.57435L3.42644 5.03878C3.29317 4.90568 3.19665 4.74034 3.14627 4.55885C3.09588 4.37737 3.09336 4.18593 3.13895 4.00318L3.48144 2.63448C3.497 2.57223 3.49823 2.50725 3.48502 2.44446C3.47181 2.38167 3.44451 2.32269 3.40519 2.27199L2.28397 0.830158ZM1.17776 0.319549C1.28713 0.210146 1.41852 0.125262 1.56321 0.0705329C1.7079 0.0158039 1.86258 -0.00751742 2.01697 0.00211746C2.17136 0.0117523 2.32194 0.054123 2.45871 0.126416C2.59547 0.198709 2.71529 0.29927 2.81021 0.421421L3.93142 1.86263C4.13704 2.12699 4.20954 2.47136 4.12829 2.79635L3.78643 4.16505C3.76875 4.23595 3.76971 4.3102 3.7892 4.38062C3.80869 4.45103 3.84606 4.51521 3.89767 4.56692L5.43325 6.10249C5.48502 6.15421 5.5493 6.19164 5.61984 6.21114C5.69037 6.23063 5.76475 6.23153 5.83574 6.21374L7.20382 5.87188C7.3642 5.83178 7.53159 5.82866 7.69335 5.86277C7.85511 5.89687 8.007 5.96731 8.13754 6.06874L9.57874 7.18996C10.0969 7.59307 10.1444 8.35867 9.68062 8.82178L9.03439 9.46801C8.5719 9.9305 7.88067 10.1336 7.23632 9.90675C5.58711 9.32647 4.08971 8.38232 2.8552 7.14434C1.6173 5.91001 0.673153 4.41283 0.0927914 2.76385C-0.133451 2.12012 0.0696672 1.42826 0.532153 0.965779L1.17838 0.319549H1.17776Z" fill="#5B5B5B"/>
</svg>

