<svg width="36" height="36" viewBox="0 0 36 36" fill="none" xmlns="http://www.w3.org/2000/svg">
<path d="M15.3142 19.8463C14.4018 18.89 13.7317 17.8465 13.3231 16.7445C12.9067 15.6428 12.7305 14.4648 12.8062 13.2894C12.9538 11.1232 13.8889 9.08584 15.4351 7.56155C16.6946 6.31506 18.3122 5.49354 20.0617 5.21199C19.5968 5.13657 19.1265 5.09869 18.6555 5.09871C16.3978 5.08889 14.2284 5.97454 12.6226 7.56155C11.0764 9.08584 10.1413 11.1232 9.99365 13.2894C9.91797 14.4648 10.0942 15.6428 10.5106 16.7445C10.9192 17.8465 11.5893 18.8901 12.5017 19.8463L18.6555 26.2939L20.0618 24.8205L15.3142 19.8463Z" fill="#F4E3D4"/>
<path d="M18.6546 8.71973C16.2345 8.71973 14.2656 10.7063 14.2656 13.1481C14.2656 15.59 16.2344 17.5767 18.6546 17.5767C21.0748 17.5767 23.0436 15.5901 23.0436 13.1481C23.0436 10.7062 21.0747 8.71973 18.6546 8.71973ZM18.6546 16.5923C16.7773 16.5923 15.25 15.0473 15.25 13.1481C15.25 11.249 16.7773 9.7041 18.6546 9.7041C20.5319 9.7041 22.0592 11.2491 22.0592 13.1481C22.0592 15.0472 20.5319 16.5923 18.6546 16.5923Z" fill="#E85222"/>
<path d="M29.8622 20.299C29.8226 20.2141 29.7596 20.1423 29.6806 20.0919C29.6016 20.0416 29.5098 20.0149 29.4162 20.0149H24.6376V20.9993H29.1024L31.6937 26.5515H12.073L13.4346 20.9012L12.6893 20.7216V20.0149H7.60525C7.51158 20.0149 7.41987 20.0416 7.34086 20.0919C7.26186 20.1423 7.19886 20.2141 7.15925 20.299L2.10379 31.1322C2.06879 31.2072 2.05327 31.2898 2.05866 31.3724C2.06406 31.455 2.0902 31.5349 2.13466 31.6047C2.17912 31.6745 2.24046 31.732 2.31302 31.7718C2.38558 31.8116 2.46701 31.8325 2.54978 31.8325H34.4716C34.5544 31.8325 34.6359 31.8117 34.7084 31.7719C34.781 31.732 34.8424 31.6746 34.8868 31.6048C34.9313 31.5349 34.9574 31.455 34.9628 31.3724C34.9682 31.2898 34.9527 31.2072 34.9177 31.1322L29.8622 20.299ZM23.6169 27.5359L24.7208 30.8482H9.20668L10.3108 27.5359H23.6169ZM7.9187 20.9993H12.3983L11.0712 26.5065L11.258 26.5515H5.32768L7.9187 20.9993ZM4.86833 27.5359H9.27313L8.16922 30.8482H3.32258L4.86833 27.5359ZM25.7586 30.8482L24.6546 27.5359H32.1531L33.6988 30.8482H25.7586Z" fill="#4F4F4F"/>
<path d="M25.3797 6.86093C23.5842 5.10042 21.1699 4.11426 18.6553 4.11426C16.1407 4.11426 13.7264 5.10042 11.9309 6.86093C10.2138 8.55398 9.17544 10.8168 9.01165 13.2226C8.92624 14.537 9.12262 15.8544 9.58765 17.0868C10.0433 18.315 10.7841 19.4721 11.7897 20.5258L18.2995 27.3469C18.3455 27.3951 18.4007 27.4334 18.4619 27.4596C18.5231 27.4858 18.589 27.4993 18.6556 27.4993C18.7221 27.4993 18.788 27.4858 18.8492 27.4596C18.9104 27.4334 18.9657 27.3951 19.0116 27.3469L25.521 20.5257C26.5265 19.4722 27.2674 18.315 27.7231 17.0867C28.188 15.8543 28.3844 14.5369 28.2991 13.2225C28.1353 10.8167 27.0969 8.55393 25.3797 6.86093ZM26.8 16.7444C26.3912 17.8465 25.7213 18.8901 24.8089 19.8462L18.6551 26.2938L12.5013 19.8462C11.5889 18.8899 10.9189 17.8464 10.5102 16.7444C10.0938 15.6427 9.9176 14.4647 9.99328 13.2893C10.1409 11.1231 11.076 9.08575 12.6223 7.56145C14.2335 5.98282 16.3994 5.09865 18.6551 5.09865C20.9108 5.09865 23.0766 5.98282 24.6879 7.56145C26.2341 9.08574 27.1693 11.1231 27.3169 13.2893C27.3927 14.4647 27.2165 15.6426 26.8002 16.7444H26.8Z" fill="#4F4F4F"/>
</svg>
