<svg width="40" height="40" viewBox="0 0 40 40" fill="none" xmlns="http://www.w3.org/2000/svg">
<circle cx="20" cy="20" r="20" fill="#E85222" fill-opacity="0.4"/>
<path opacity="0.5" d="M20 40C31.0457 40 40 31.0457 40 20C40 8.9543 31.0457 0 20 0V40Z" fill="#E85222"/>
<path d="M26.7381 22.9506C26.8297 21.8423 26.6608 20.7318 26.1701 19.7336C24.9025 17.155 25.1932 16.9678 25.1539 14.4086C25.1539 13.8856 24.73 13.4619 24.2072 13.4619C23.6843 13.4619 23.2606 13.8856 23.2606 14.4086C23.2606 14.7462 23.2606 23.9632 23.2606 23.9271C23.2606 24.0747 23.2448 24.2188 23.2157 24.3578V25.7205C23.2157 26.8687 22.2815 27.8031 21.1332 27.8031C20.3706 27.8031 17.7407 27.8031 15.9512 27.8031C16.7471 28.9102 17.8362 29.7772 19.1002 30.3021C19.1081 30.3052 19.116 30.3085 19.1238 30.3118C19.8843 30.6332 20.4649 31.2391 20.7707 31.9737C23.2333 31.8105 25.4838 30.8718 27.2794 29.3985L26.5739 26.8066C26.4731 26.4362 26.4376 26.0511 26.4689 25.6686L26.7381 22.9506Z" fill="#F9CFA9"/>
<path d="M12.4344 13.4953L12.146 13.2282C11.7016 12.8162 11.0009 12.8429 10.5891 13.2875C10.1773 13.7319 10.204 14.4326 10.6484 14.8444L12.4344 16.4993V13.4953Z" fill="#F9CFA9"/>
<path d="M21.9044 8H13.8083C13.0228 8 12.3838 8.63922 12.3838 9.42474V26.4863C12.3838 27.2719 13.0228 27.9111 13.8083 27.9111H21.9044C22.6899 27.9111 23.3291 27.2719 23.3291 26.4863V9.42474C23.3291 8.63922 22.6899 8 21.9044 8V8Z" fill="#3D4EC6"/>
<path d="M15.1271 9.05652C15.05 8.94189 15.0049 8.80402 15.0049 8.65552C15.0049 8.36401 15.1785 8.11353 15.4276 8H13.8085C13.0217 8 12.3838 8.63794 12.3838 9.42474V26.4863C12.3838 27.2731 13.0217 27.9109 13.8085 27.9109H15.5297V10.3051C15.5297 9.85706 15.3772 9.42841 15.1271 9.05652Z" fill="#2B3894"/>
<path d="M13.209 16.9985V26.486C13.209 26.8174 13.4776 27.086 13.8088 27.086H21.9048C22.2361 27.086 22.5047 26.8174 22.5047 26.486C22.5047 26.1604 22.5047 21.4077 22.5047 16.9985H13.209Z" fill="#E6F7FE"/>
<path d="M13.209 16.9985V26.486C13.209 26.8174 13.4776 27.086 13.8088 27.086H15.2279V16.9985H13.209Z" fill="#D5F1FE"/>
<path d="M16.4696 19.8605C16.4696 20.3796 16.0488 20.8004 15.5297 20.8004C15.0106 20.8004 14.5898 20.3796 14.5898 19.8605C14.5898 19.3414 15.0106 18.9204 15.5297 18.9204C16.0488 18.9204 16.4696 19.3414 16.4696 19.8605Z" fill="#3D4EC6"/>
<path d="M16.4696 23.3464C16.4696 23.8655 16.0488 24.2864 15.5297 24.2864C15.0106 24.2864 14.5898 23.8655 14.5898 23.3464C14.5898 22.8273 15.0106 22.4065 15.5297 22.4065C16.0488 22.4065 16.4696 22.8273 16.4696 23.3464Z" fill="#3D4EC6"/>
<path d="M15.4235 18.9268C14.9544 18.9797 14.5898 19.3772 14.5898 19.8604C14.5898 20.3795 15.0106 20.8003 15.5297 20.8003C15.8535 20.8003 16.1387 20.6366 16.3077 20.3876C15.4973 20.4789 14.9813 19.5781 15.4235 18.9268Z" fill="#2B3894"/>
<path d="M15.4235 22.4128C14.9544 22.4656 14.5898 22.8633 14.5898 23.3463C14.5898 23.8656 15.0106 24.2864 15.5297 24.2864C15.8535 24.2864 16.1387 24.1227 16.3077 23.8737C15.5023 23.9643 14.9784 23.0684 15.4235 22.4128Z" fill="#2B3894"/>
<path d="M19.3706 19.4702H18.0361C17.842 19.4702 17.6846 19.3127 17.6846 19.1187C17.6846 18.9244 17.842 18.7671 18.0361 18.7671H19.3706C19.5647 18.7671 19.7222 18.9244 19.7222 19.1187C19.7222 19.3127 19.5647 19.4702 19.3706 19.4702Z" fill="#11DFEF"/>
<path d="M20.7051 20.9548H18.0361C17.8419 20.9548 17.6846 20.7974 17.6846 20.6033C17.6846 20.409 17.8419 20.2517 18.0361 20.2517H20.7051C20.8992 20.2517 21.0566 20.409 21.0566 20.6033C21.0566 20.7974 20.8992 20.9548 20.7051 20.9548Z" fill="#11DFEF"/>
<path d="M19.3706 22.9556H18.0361C17.842 22.9556 17.6846 22.7983 17.6846 22.604C17.6846 22.4097 17.842 22.2524 18.0361 22.2524H19.3706C19.5647 22.2524 19.7222 22.4097 19.7222 22.604C19.7222 22.7983 19.5647 22.9556 19.3706 22.9556Z" fill="#11DFEF"/>
<path d="M20.7051 24.4399H18.0361C17.8419 24.4399 17.6846 24.2827 17.6846 24.0884C17.6846 23.8943 17.8419 23.7368 18.0361 23.7368H20.7051C20.8992 23.7368 21.0566 23.8943 21.0566 24.0884C21.0566 24.2827 20.8992 24.4399 20.7051 24.4399Z" fill="#11DFEF"/>
<path d="M21.9 8.82495H20.6968C20.5833 8.82495 20.4913 8.91687 20.4913 9.03021C20.4913 9.30249 20.2687 9.52515 19.9966 9.52515H15.7077C15.4354 9.52515 15.2128 9.30249 15.2128 9.03021C15.2128 8.91687 15.1208 8.82495 15.0073 8.82495H13.8041C13.4727 8.82495 13.2041 9.09357 13.2041 9.4248V17.0927H22.5V9.4248C22.5 9.09357 22.2314 8.82495 21.9 8.82495Z" fill="#FFC800"/>
<path d="M15.2278 9.14886C15.2183 9.11078 15.2128 9.07123 15.2128 9.0304C15.2128 8.91687 15.1208 8.82495 15.0073 8.82495H13.8041C13.4727 8.82495 13.2041 9.09357 13.2041 9.4248V17.0927H15.2278V9.14886Z" fill="#FFDE67"/>
<path d="M21.8998 8.82495H20.6966C20.5831 8.82495 20.4911 8.91687 20.4911 9.03021C20.4911 9.30249 20.2685 9.52515 19.9964 9.52515H17.6309L22.4998 15.6284V9.4248C22.4998 9.09357 22.2312 8.82495 21.8998 8.82495Z" fill="#FFDE67"/>
<path d="M16.34 11.6189H14.7188C14.5247 11.6189 14.3672 11.4616 14.3672 11.2673C14.3672 11.0731 14.5247 10.9158 14.7188 10.9158H16.34C16.5341 10.9158 16.6915 11.0731 16.6915 11.2673C16.6915 11.4614 16.5341 11.6189 16.34 11.6189Z" fill="#F9F9F9"/>
<path d="M14.0377 19.3057C13.6753 19.6967 13.0645 19.7201 12.6733 19.3577L11.0563 17.8594C10.6652 17.497 10.642 16.8862 11.0043 16.4951C11.3667 16.1039 11.9775 16.0807 12.3687 16.443L13.9857 17.9414C14.3766 18.3038 14.4 18.9146 14.0377 19.3057Z" fill="#F9CFA9"/>
<path d="M13.9866 17.9412L13.2174 17.2285C13.3187 17.5953 13.2346 18.004 12.9572 18.3033C12.6796 18.6029 12.2784 18.7177 11.9053 18.6448L12.6743 19.3575C13.0654 19.7198 13.6761 19.6964 14.0386 19.3055C14.401 18.9144 14.3776 18.3035 13.9866 17.9412Z" fill="#FBBC8D"/>
<path d="M14.0377 21.9386C13.6753 22.3297 13.0645 22.353 12.6733 21.9906L11.0563 20.4922C10.6652 20.1299 10.642 19.519 11.0043 19.1281C11.3667 18.737 11.9775 18.7137 12.3687 19.0761L13.9857 20.5745C14.3766 20.9368 14.4 21.5475 14.0377 21.9386Z" fill="#F9CFA9"/>
<path d="M14.0377 24.5716C13.6753 24.9627 13.0645 24.9859 12.6733 24.6236L11.0563 23.1252C10.6652 22.7629 10.642 22.152 11.0043 21.7609C11.3667 21.3698 11.9775 21.3466 12.3687 21.7089L13.9857 23.2073C14.3766 23.5696 14.4 24.1805 14.0377 24.5716Z" fill="#F9CFA9"/>
<path d="M26.5734 26.8068C26.5234 26.6226 26.4895 26.4349 26.4717 26.2456C24.6828 29.1826 21.2097 30.5466 17.9473 29.6984C18.3111 29.9323 18.6965 30.1348 19.0997 30.3023C19.1076 30.3056 19.1155 30.3089 19.1234 30.3122C19.8838 30.6334 20.4644 31.2393 20.7702 31.9741C23.2328 31.8109 25.4833 30.8719 27.2789 29.3987L26.5734 26.8068Z" fill="#FBBC8D"/>
<path d="M13.9866 20.5742L13.2174 19.8616C13.3187 20.2282 13.2346 20.6368 12.9572 20.9364C12.6796 21.236 12.2784 21.3508 11.9053 21.2779L12.6743 21.9904C13.0654 22.3527 13.6763 22.3295 14.0386 21.9384C14.401 21.5472 14.3776 20.9366 13.9866 20.5742Z" fill="#FBBC8D"/>
<path d="M13.9866 23.2083L13.2174 22.4956C13.3187 22.8624 13.2346 23.2711 12.9572 23.5704C12.6796 23.87 12.2784 23.985 11.9053 23.9119L12.6743 24.6246C13.0654 24.9869 13.6763 24.9637 14.0386 24.5726C14.401 24.1815 14.3776 23.5706 13.9866 23.2083Z" fill="#FBBC8D"/>
</svg>
