<svg width="40" height="40" viewBox="0 0 40 40" fill="none" xmlns="http://www.w3.org/2000/svg">
<circle cx="20" cy="20" r="20" fill="#E85222" fill-opacity="0.4"/>
<path opacity="0.5" d="M20 40C31.0457 40 40 31.0457 40 20C40 8.9543 31.0457 0 20 0V40Z" fill="#E85222"/>
<g clip-path="url(#clip0)">
<path d="M30.9871 31.3927C29.8139 32.3413 28.0983 32.1571 27.152 30.984C14.6178 15.4472 21.1233 23.5111 16.3047 17.5378C16.3858 17.5261 16.4617 17.4923 16.5273 17.4398L20.3601 14.3554C20.4295 14.2996 20.4801 14.227 20.5087 14.1445C21.9291 15.8957 30.2102 26.1021 31.3898 27.556C32.3403 28.7272 32.1599 30.4445 30.9871 31.3927Z" fill="#FFC800"/>
<path d="M31.0208 31.365C30.587 30.8273 19.1608 16.6634 18.5039 15.8496L20.3605 14.3554C20.4299 14.2996 20.4805 14.227 20.5091 14.1445C20.5091 14.1445 27.9854 23.3602 31.3902 27.556C32.3319 28.716 32.1636 30.4117 31.0208 31.365Z" fill="#FFDE67"/>
<path d="M23.1187 17.3618L18.8987 20.7537L18.0156 19.6589L22.2328 16.2703L23.1187 17.3618Z" fill="#FFDE67"/>
<path d="M23.1185 17.3618L21.0589 19.0172L20.1758 17.9228L22.2326 16.2703C22.524 16.629 22.3429 16.4058 23.1185 17.3618Z" fill="white"/>
<path d="M25.1702 9.56572C21.5059 7.41402 18.0728 7.48087 15.242 9.75913L12.2549 12.1633C11.9514 12.4075 11.9044 12.8524 12.1502 13.1545C12.3906 13.4501 12.3521 13.888 12.0433 14.1365C11.7408 14.38 11.2963 14.3329 11.0524 14.0314C10.8086 13.7302 10.3672 13.6829 10.0652 13.9256L8.78593 14.9539C7.87786 15.6846 7.73532 17.0101 8.47013 17.9166L10.2392 20.0985C10.9707 21.0008 12.3016 21.1409 13.2054 20.4135L14.4843 19.3855C14.7876 19.1417 14.8352 18.6973 14.59 18.3948C14.3461 18.0941 14.3937 17.6556 14.6951 17.4129C14.998 17.1692 15.4431 17.2162 15.6876 17.5177C15.9316 17.8186 16.3728 17.8654 16.6747 17.6226L20.5072 14.5381C20.8103 14.2942 20.8575 13.85 20.6125 13.5478L19.7376 12.4686C21.338 11.276 22.4353 10.9607 24.8394 10.8745C25.1518 10.8633 25.4193 10.6473 25.4959 10.3442C25.5724 10.0412 25.4398 9.72402 25.1702 9.56572Z" fill="#3E5159"/>
<path d="M25.4967 10.3444C25.4203 10.6471 25.1527 10.8632 24.8405 10.8745C22.4364 10.9607 21.3387 11.2762 19.7384 12.4689L20.6135 13.5479C20.8606 13.8528 20.8088 14.2972 20.5081 14.5382L18.6519 16.0324C18.4121 15.7353 14.4107 10.7757 14.2412 10.5656L15.2429 9.75947C18.0735 7.4812 21.507 7.41417 25.171 9.56592C25.4405 9.72431 25.5731 10.0411 25.4967 10.3444Z" fill="#293439"/>
</g>
<defs>
<clipPath id="clip0">
<rect width="24" height="24" fill="white" transform="translate(8 8)"/>
</clipPath>
</defs>
</svg>
