<svg width="40" height="40" viewBox="0 0 40 40" fill="none" xmlns="http://www.w3.org/2000/svg">
<circle cx="20" cy="20" r="20" fill="#E85222" fill-opacity="0.4"/>
<path opacity="0.5" d="M20 40C31.0457 40 40 31.0457 40 20C40 8.9543 31.0457 0 20 0V40Z" fill="#E85222"/>
<g clip-path="url(#clip0)">
<path d="M29.8902 8H27.8634L26.4246 9.40625H29.8902C30.2782 9.40625 30.5934 9.72137 30.5934 10.1094V11.1805C30.5934 12.5978 30.1059 13.9875 29.2201 15.0944C28.464 16.04 27.4575 16.7416 26.3094 17.1241L25.3179 17.4545C24.9498 17.5773 24.7506 17.9756 24.8729 18.3444C24.9711 18.639 25.2457 18.825 25.5404 18.825C25.6138 18.825 25.6887 18.8133 25.7628 18.7893L26.7544 18.4583C28.1599 17.9901 29.3924 17.1304 30.3187 15.9733C31.4023 14.618 31.9996 12.9156 31.9996 11.1805V10.1094C31.9996 8.94629 31.0533 8 29.8902 8Z" fill="#FFC800"/>
<path d="M14.6817 17.4545L13.6902 17.1249C12.5421 16.7416 11.5356 16.04 10.7795 15.0944C9.89368 13.9875 9.40625 12.5978 9.40625 11.1805V10.1094C9.40625 9.72137 9.72137 9.40625 10.1094 9.40625H13.7429L12.1362 8H10.1094C8.94629 8 8 8.94629 8 10.1094V11.1805C8 12.9156 8.59729 14.618 9.68091 15.9733C10.6072 17.1304 11.8397 17.9901 13.2452 18.459L14.2368 18.7893C14.3109 18.8133 14.3858 18.825 14.4592 18.825C14.7538 18.825 15.0285 18.639 15.1266 18.3444C15.249 17.9756 15.0497 17.5773 14.6817 17.4545Z" fill="#FFE999"/>
<path d="M22.1567 21.725V22.7656C22.1567 23.1593 22.4659 23.4688 22.8598 23.4688C24.0271 23.4688 24.9692 24.4108 24.9692 25.5781V26.9844C24.9692 27.3781 24.6599 27.6875 24.2661 27.6875H15.7348C15.3409 27.6875 15.0317 27.3781 15.0317 26.9844V25.5781C15.0317 24.4108 15.9738 23.4688 17.1411 23.4688C17.5349 23.4688 17.8442 23.1593 17.8442 22.7656V21.725C15.2285 20.8952 13.3162 18.589 13.0067 15.8468L12.1348 8H27.8661L26.9941 15.8468C26.6847 18.589 24.7723 20.8952 22.1567 21.725Z" fill="#FFC800"/>
<path d="M24.2656 27.6875H20V8H27.8657L26.9937 15.8468C26.6843 18.589 24.7719 20.8952 22.1562 21.725V22.7656C22.1562 23.1593 22.4655 23.4688 22.8594 23.4688C24.0267 23.4688 24.9688 24.4108 24.9688 25.5781V26.9844C24.9688 27.3781 24.6595 27.6875 24.2656 27.6875Z" fill="#FFDE67"/>
<path d="M23.4878 13.3015C23.4034 13.0344 23.1785 12.8516 22.9114 12.8095L21.3363 12.5845L20.6332 11.1921C20.5066 10.9532 20.2534 10.8406 20.0003 10.8406C19.7473 10.8406 19.4941 10.9532 19.3675 11.1921L18.6644 12.5845L17.0893 12.8093C16.8222 12.8516 16.5973 13.0344 16.5129 13.3015C16.4426 13.5547 16.5129 13.8358 16.7098 14.0187L17.8348 15.1016L17.5676 16.6203C17.5253 16.8735 17.6238 17.1407 17.8489 17.3095C18.0598 17.4641 18.3551 17.4922 18.58 17.3657L20.0003 16.6344L21.4207 17.3657C21.6596 17.4922 21.9409 17.4641 22.152 17.3095C22.3769 17.1407 22.4754 16.8735 22.4331 16.6203L22.1659 15.1016L23.2909 14.0187C23.4878 13.836 23.5583 13.5547 23.4878 13.3015Z" fill="#FFE999"/>
<path d="M26.375 26.9844V31.2407H13.625V26.9844C13.625 26.5905 13.9343 26.2812 14.3281 26.2812H25.6719C26.0657 26.2812 26.375 26.5905 26.375 26.9844Z" fill="#9C9C9C"/>
<path d="M21.4203 17.3657L20 16.6344V10.8406C20.2531 10.8406 20.5063 10.9532 20.6328 11.1921L21.3359 12.5845L22.911 12.8095C23.1782 12.8516 23.403 13.0344 23.4874 13.3015C23.5577 13.5547 23.4874 13.836 23.2906 14.0187L22.1656 15.1016L22.4327 16.6205C22.475 16.8735 22.3765 17.1407 22.1515 17.3095C21.9406 17.4641 21.6593 17.4922 21.4203 17.3657Z" fill="#FF7A5F"/>
<path d="M26.375 26.9844V31.2407H20V26.2812H25.6719C26.0657 26.2812 26.375 26.5905 26.375 26.9844Z" fill="#696969"/>
<path d="M27.7812 31.2969C27.7812 31.6906 27.472 32 27.0781 32H12.9219C12.528 32 12.2188 31.6906 12.2188 31.2969C12.2188 30.903 12.528 30.5938 12.9219 30.5938H27.0781C27.472 30.5938 27.7812 30.903 27.7812 31.2969Z" fill="#697C86"/>
<path d="M27.7812 31.2969C27.7812 31.6906 27.472 32 27.0781 32H20V30.5938H27.0781C27.472 30.5938 27.7812 30.903 27.7812 31.2969Z" fill="#465A61"/>
</g>
<defs>
<clipPath id="clip0">
<rect width="24" height="24" fill="white" transform="translate(8 8)"/>
</clipPath>
</defs>
</svg>
