<svg width="32" height="24" viewBox="0 0 32 24" fill="none" xmlns="http://www.w3.org/2000/svg">
<path d="M4.8165 23.7013C4.31741 23.544 3.71047 23.1912 3.50389 22.9334C3.4655 22.8713 3.50389 22.895 3.60444 22.9791C3.86221 23.193 4.32839 23.4453 4.6867 23.5623C4.92802 23.6464 5.15836 23.6684 5.75251 23.6684C6.6611 23.6684 7.03769 23.5623 7.68851 23.129C8.5971 22.5184 9.14189 21.608 9.25889 20.4873C9.28082 20.2734 9.32105 20.1052 9.34847 20.1052C9.44902 20.1052 9.39965 20.8182 9.25889 21.2881C9.03402 22.0687 8.68668 22.6172 8.1419 23.0559C7.42892 23.6227 6.92435 23.8073 6.00479 23.842C5.38139 23.864 5.29182 23.853 4.81467 23.7013H4.8165Z" fill="#444444"/>
<path d="M27.2113 23.8234C26.6007 23.6717 26.0102 23.3865 25.6409 23.0428L25.416 22.8417L25.6957 23.0373C26.3685 23.509 26.9645 23.6936 27.7999 23.6936C28.3722 23.6936 28.8658 23.5821 29.3027 23.3627C30.8237 22.5894 31.5641 20.9953 31.1711 19.3573C31.065 18.9021 31.076 18.8363 31.204 19.1946C31.3886 19.7156 31.4508 20.4231 31.3612 20.9679C31.2497 21.6296 30.8402 22.4102 30.3685 22.8691C29.6555 23.5528 28.8658 23.8673 27.8658 23.8563C27.5678 23.8508 27.2716 23.8399 27.2094 23.8234H27.2113Z" fill="#444444"/>
<path d="M25.399 21.4801C25.304 21.2716 25.3204 21.2278 25.4209 21.4124C25.4721 21.502 25.4995 21.5861 25.4831 21.5971C25.4721 21.608 25.4319 21.5587 25.399 21.4801Z" fill="#444444"/>
<path d="M25.1962 20.9404C25.0664 20.5199 25.0847 19.8636 25.2236 19.3975C25.4485 18.6516 25.9073 18.136 26.6551 17.7704C27.092 17.551 27.103 17.551 27.7721 17.551H28.4448L28.922 17.7869C29.2529 17.9496 29.4832 18.1123 29.6788 18.3134L29.9585 18.6114L29.6551 18.3426C29.2839 18.0227 29.1212 17.9331 28.6459 17.7978C27.9786 17.6077 27.2035 17.6863 26.6094 18.0117C26.2218 18.2201 25.6953 18.7795 25.4923 19.1891C25.262 19.6497 25.1779 20.2384 25.2565 20.7887C25.2839 21.0136 25.3077 21.2092 25.2949 21.2146C25.2894 21.2256 25.2382 21.1031 25.1944 20.9404H25.1962Z" fill="#444444"/>
<path d="M3.16683 20.9074C3.04982 20.4924 3.07176 19.8087 3.21801 19.337C3.35878 18.8818 3.54891 18.6185 3.67323 18.6971C3.73539 18.7355 3.7299 18.7758 3.62752 18.9165C3.44288 19.1743 3.32953 19.4778 3.2564 19.8928C3.18328 20.2913 3.18328 20.4028 3.25092 20.88C3.27835 21.0372 3.28383 21.1725 3.26738 21.1725C3.25641 21.1725 3.20522 21.0555 3.16683 20.9092V20.9074Z" fill="#444444"/>
<path d="M13.9872 13.6994C13.8519 13.5988 13.6344 13.4416 13.4936 13.3465C13.3528 13.257 13.2358 13.1619 13.2249 13.1381C13.2139 13.1107 13.1737 13.0924 13.1353 13.0924C13.0896 13.0924 13 13.0467 12.9269 12.9919C12.8537 12.9352 12.6179 12.7908 12.4004 12.672C12.1865 12.555 11.958 12.4252 11.8958 12.3849C11.8336 12.3392 11.755 12.3063 11.7166 12.3063C11.6782 12.3063 11.4918 12.2332 11.2962 12.1436C10.8245 11.9242 10.3309 11.767 9.98904 11.7231C9.83731 11.7012 9.54663 11.661 9.34371 11.6281C8.69837 11.533 6.35835 11.4983 5.18102 11.5714C4.00369 11.6445 3.89583 11.6336 3.6728 11.3758C3.56128 11.2405 3.4717 10.9663 3.49913 10.8365C3.51558 10.7469 3.53203 10.7469 3.64538 10.82C3.80808 10.9261 3.95433 10.9316 5.4461 10.8529C7.15176 10.7634 8.86291 10.842 9.92872 11.0486C10.6472 11.1948 11.5996 11.5879 12.4077 12.0815C12.6033 12.2058 12.7843 12.3063 12.7952 12.3063C12.8117 12.3063 13.0987 12.4964 13.4296 12.7323L14.0292 13.1528L14.4333 13.1308C14.9726 13.0924 15.2687 12.9462 15.6947 12.5202C16.0658 12.1491 16.3291 11.7012 16.3912 11.3246L16.4296 11.0997L16.5027 11.3794C16.6764 12.0028 16.4863 12.6135 15.9579 13.1418C15.5265 13.5787 15.3528 13.6866 14.9488 13.7871C14.415 13.9169 14.2706 13.9041 13.989 13.6975L13.9872 13.6994Z" fill="#444444"/>
<path d="M11.4577 9.6862C11.5583 9.67524 11.7374 9.67524 11.8508 9.6862C11.9678 9.69717 11.8892 9.70813 11.6716 9.70813C11.4577 9.70813 11.3627 9.69717 11.4577 9.6862Z" fill="#444444"/>
<path d="M5.07913 23.6608C4.59102 23.5657 3.96761 23.2787 3.62026 22.9826C3.5252 22.9039 3.45208 22.8582 3.45208 22.882C3.45208 22.9039 3.34055 22.7815 3.19979 22.6133C3.05902 22.4396 2.9475 22.2879 2.9475 22.2659C2.9475 22.2495 2.88535 22.1416 2.81222 22.0246C2.47036 21.5036 2.31861 20.5274 2.44841 19.6846C2.51605 19.2751 2.88534 18.4945 3.00966 18.5292C3.05536 18.5402 3.11569 18.5511 3.14494 18.5566C3.17785 18.5621 3.28571 18.5895 3.38626 18.6133L3.56542 18.659L3.4539 18.7998C3.26377 19.0466 3.09559 19.6919 3.09559 20.191C3.0901 20.6334 3.20161 21.1727 3.29119 21.1727C3.31862 21.1727 3.3241 21.2056 3.30764 21.2458C3.29119 21.2915 3.3698 21.4542 3.48132 21.6169C3.58735 21.7796 3.67693 21.9204 3.67693 21.9314C3.67693 21.9369 3.81221 22.0831 3.97492 22.2513C4.33872 22.6279 4.70985 22.8454 5.19796 22.9698C6.45939 23.2952 7.73909 22.7175 8.30033 21.5731C8.51971 21.1252 8.57456 20.8656 8.56908 20.3226L8.56359 19.9405L8.71533 19.9734C8.79942 19.9899 8.96213 20.0301 9.08644 20.063L9.30034 20.1142L9.26194 20.4908C9.14494 21.6078 8.60015 22.5219 7.69704 23.127C7.08644 23.5365 6.70984 23.648 5.89631 23.6718C5.5252 23.6827 5.16139 23.6772 5.08278 23.6663L5.07913 23.6608Z" fill="#4F5150"/>
<path d="M26.9258 23.6115C26.3536 23.4872 25.5729 23.0338 25.2365 22.6243C25.1525 22.5182 25.0519 22.3994 25.0117 22.361C24.8764 22.2202 24.5455 21.4798 24.5181 21.2549C24.5016 21.1306 24.4724 20.9752 24.4614 20.9076C24.423 20.7284 24.423 19.9423 24.4614 19.7412C24.5784 19.1416 24.8874 18.5127 25.2749 18.0629C25.3865 17.9331 25.7521 17.626 26.0885 17.3664C26.1726 17.3042 26.7503 17.0684 26.8069 17.0794C26.8124 17.0794 26.8965 17.0519 26.9861 17.0172C27.434 16.8435 27.9788 16.8161 28.5071 16.9386C29.0062 17.0501 28.9788 17.0446 29.0903 17.0903C29.136 17.1068 29.2365 17.1415 29.3152 17.1689C29.7923 17.3262 30.6278 18.0666 30.8965 18.5657C31.2548 19.233 31.3682 20.2878 31.1653 21.0794C30.8508 22.3135 29.8362 23.3226 28.6296 23.6096C28.1982 23.7102 27.3846 23.7102 26.9239 23.6096L26.9258 23.6115ZM28.7941 22.9095C29.2091 22.7796 29.3664 22.6846 29.7302 22.3482C30.1068 22.0008 30.2859 21.7138 30.4486 21.2257C30.7009 20.4688 30.6278 19.6772 30.2402 19.0154C30.0263 18.6571 29.4267 18.0172 29.3316 18.0501C29.2859 18.0666 29.2695 18.0556 29.2859 18.0282C29.3078 17.9953 29.1287 17.8765 28.8819 17.7594C28.4559 17.5583 28.434 17.551 27.7704 17.551C27.1031 17.551 27.0921 17.551 26.6534 17.7704C25.593 18.286 25.0611 19.1836 25.1159 20.3463C25.1378 20.7394 25.178 20.9515 25.2951 21.244C25.3846 21.4524 25.4742 21.6206 25.5035 21.6206C25.5309 21.6206 25.5547 21.648 25.5547 21.6827C25.5547 21.7778 25.9751 22.2824 26.211 22.4743C26.4907 22.6992 27.03 22.9515 27.3773 23.0191C27.7594 23.0923 28.37 23.0466 28.7905 22.9131L28.7941 22.9095Z" fill="#4F5150"/>
<path d="M13.4263 12.7339C13.0954 12.4981 12.8084 12.3079 12.7919 12.3079C12.7809 12.3079 12.6018 12.2074 12.4043 12.0831C11.2435 11.3756 10.3001 11.0556 8.89246 10.9003C8.18496 10.8216 4.98752 10.8162 4.45004 10.8948C4.04054 10.9569 3.7261 10.9112 3.56339 10.765C3.4793 10.6864 3.47381 10.648 3.53049 10.467C3.59264 10.2531 3.88881 9.8381 3.9729 9.8381C4.00033 9.8381 4.0899 9.78691 4.18131 9.72658C4.38241 9.58032 5.12464 9.34998 5.60544 9.28416C6.14475 9.20555 7.32756 9.25674 8.19228 9.38471C8.5963 9.44687 9.10087 9.51451 9.31476 9.53096C9.53414 9.5529 9.74621 9.57666 9.79191 9.58763C10.0844 9.66624 10.8797 9.69367 12.4683 9.67722C14.1393 9.66625 14.3751 9.67721 14.982 9.8125C15.2745 9.87466 15.419 9.94778 15.684 10.1708C16.0314 10.4633 16.1722 10.6187 16.3184 10.8948C16.5378 11.3043 16.2563 11.9935 15.6402 12.584C15.2416 12.9606 14.9436 13.094 14.4336 13.1343L14.0296 13.1562L13.4299 12.7357L13.4263 12.7339Z" fill="#4F5150"/>
<path d="M20.3654 6.73031C20.338 6.71385 20.2136 6.69192 20.1021 6.67363C19.923 6.64073 19.8772 6.60051 19.7548 6.34821C19.4293 5.70285 19.603 5.54014 20.72 5.43411C21.0784 5.4012 21.2246 5.33356 21.2703 5.16536C21.327 4.94049 21.5629 4.82349 21.9888 4.80703C22.5501 4.79058 22.8353 4.95329 23.0327 5.39571C23.1497 5.65898 23.1845 6.02462 23.0894 6.02462C23.062 6.02462 23.0327 6.05753 23.0327 6.09775C23.0272 6.19282 22.8079 6.42865 22.6342 6.51824C22.4879 6.59685 22.1406 6.61879 21.9376 6.56943C21.8755 6.55846 21.8023 6.56394 21.7694 6.58588C21.742 6.60782 21.6396 6.64255 21.5446 6.66449C21.3307 6.7102 20.4385 6.75956 20.3672 6.73214L20.3654 6.73031Z" fill="#4F5150"/>
<path d="M13.3718 9.63151C13.4669 9.62055 13.635 9.62055 13.7356 9.63151C13.8307 9.64248 13.752 9.65344 13.5509 9.65344C13.3499 9.65344 13.2712 9.64248 13.3718 9.63151Z" fill="#727272"/>
<path d="M6.7902 22.2823C6.69513 22.1305 6.56533 21.9002 6.49769 21.7722L6.37338 21.5364L5.98032 21.5583C5.76643 21.5638 5.54339 21.5473 5.48124 21.5126C5.36423 21.4505 5.22346 21.5638 5.07721 21.86C5.03882 21.9441 4.98214 22.0117 4.95289 22.0117C4.93095 22.0117 4.90719 22.0446 4.90719 22.0848C4.90719 22.1177 4.85052 22.2256 4.77739 22.3097L4.65307 22.4669L4.3953 22.2768C3.97482 21.9514 3.59823 21.3627 3.5251 20.8965L3.49219 20.6717L3.70609 20.6333C3.95289 20.5876 4.02053 20.5766 4.53059 20.4651C4.62017 20.4486 4.68232 20.3975 4.68781 20.3408C4.70426 19.9587 4.92913 19.5492 5.22163 19.381C5.35692 19.2969 5.41177 19.2348 5.38983 19.1726C5.36789 19.1104 5.38434 19.094 5.45747 19.1159C5.50865 19.1324 5.79934 19.211 6.10281 19.2896C6.42274 19.3792 6.70245 19.4852 6.77009 19.5529C6.9328 19.7156 7.0955 20.1031 7.0955 20.3444C7.0955 20.456 7.11196 20.5528 7.14121 20.5583C7.24176 20.5693 7.38801 20.604 7.78655 20.7265C8.2966 20.8782 8.3021 20.9057 8.04981 21.4395C7.88162 21.7978 7.44468 22.2749 7.11378 22.4724L6.95108 22.5674L6.78837 22.2804L6.7902 22.2823ZM6.36972 21.0592C6.85784 20.7119 6.79569 19.9148 6.25821 19.6461C5.70793 19.3719 5.08086 19.7631 5.08086 20.381C5.08086 21.0483 5.82675 21.4468 6.37155 21.0592H6.36972Z" fill="#8C8D8F"/>
<path d="M28.9101 22.4212C28.8644 22.3645 28.72 22.1415 28.5902 21.9221L28.3598 21.529L28.0234 21.551C27.8443 21.5619 27.6194 21.551 27.5244 21.5181C27.3617 21.4614 27.3562 21.4669 27.0874 21.8544C26.9412 22.0738 26.7949 22.2969 26.762 22.3535C26.7346 22.4157 26.6889 22.4596 26.667 22.4596C26.645 22.4596 26.4768 22.3188 26.2904 22.1451C25.943 21.8252 25.6066 21.253 25.528 20.8545L25.4951 20.6808L25.9613 20.5857C26.6066 20.4504 26.6341 20.4449 26.6505 20.4285C26.656 20.4175 26.7072 20.2603 26.7565 20.0811C26.8352 19.8124 26.9083 19.6991 27.1496 19.4706L27.4476 19.1908L27.3233 18.7923C27.2501 18.5729 27.1825 18.3206 27.1715 18.2311C27.1551 18.0848 27.177 18.0574 27.3507 18.0117C27.709 17.9166 28.5225 17.9952 28.8717 18.1525C29.0454 18.2311 29.2026 18.3207 29.2191 18.3481C29.252 18.3993 29.113 18.7009 28.8479 19.1616C28.7127 19.3919 28.6907 19.5985 28.8022 19.5985C28.9083 19.5985 29.071 20.0025 29.1112 20.3846C29.1222 20.4742 29.1734 20.5364 29.2629 20.5638C30.2118 20.8435 30.2392 20.8618 30.2227 21.03C30.177 21.4066 29.7456 22.0226 29.2922 22.359C29.0344 22.5437 29.0234 22.5437 28.9101 22.4212ZM28.3543 21.0757C28.5792 20.9075 28.7639 20.5089 28.7255 20.2731C28.6359 19.7905 28.3836 19.5766 27.9119 19.5766C27.5481 19.5711 27.3013 19.7173 27.1606 20.0135C26.9979 20.3609 27.0655 20.71 27.3617 20.9843C27.6359 21.242 28.0692 21.2822 28.3543 21.0738V21.0757Z" fill="#8C8D8F"/>
<path d="M23.0634 5.39022C22.9683 5.17084 22.8001 4.9862 22.5862 4.88017C22.4399 4.80156 22.3229 4.61691 22.0871 4.06115C22.025 3.92039 21.897 3.64068 21.8001 3.43775C21.705 3.22934 21.6264 3.03373 21.6264 2.99534C21.6264 2.96244 21.599 2.88382 21.5643 2.82167C21.5076 2.71563 21.4966 2.72112 21.3632 2.92222C21.184 3.18547 21.1383 3.2202 20.9152 3.2202C20.5057 3.2202 20.2589 2.9405 20.0633 2.24945C19.8385 1.45238 19.8001 0.633366 19.9737 0.296986C20.0633 0.123311 20.0743 0.123313 20.3997 0.145251C20.7032 0.167188 20.758 0.190954 20.9719 0.40302C21.2242 0.649821 21.4436 1.12148 21.4875 1.51454C21.5039 1.64434 21.6173 1.92953 21.7398 2.15987C21.8641 2.39022 21.992 2.63702 22.0268 2.71563C22.1383 2.96792 22.6154 3.87103 22.6941 3.97706C22.716 4.00997 22.8787 4.31344 23.0579 4.64982C23.237 4.99169 23.4052 5.29516 23.4345 5.32807C23.4857 5.39571 23.4125 5.47432 23.2443 5.53648C23.1657 5.5639 23.12 5.52551 23.0652 5.39022H23.0634ZM20.4216 1.23849C20.4838 0.991684 20.5624 0.958779 20.8878 1.05933C20.9993 1.09772 21.0121 1.08127 21.0121 0.874684C21.0121 0.690041 20.9792 0.622397 20.811 0.470661C20.4399 0.145249 20.0651 0.340862 20.0542 0.863714C20.0487 1.15622 20.0816 1.31161 20.1712 1.48163C20.2553 1.64434 20.3449 1.56024 20.4235 1.24031L20.4216 1.23849Z" fill="#8C8D8F"/>
<path d="M5.57884 23.0229C5.40516 23.0009 5.07975 22.9113 4.84941 22.8218C4.51851 22.692 4.36129 22.5859 4.0633 22.2952C3.41796 21.6609 3.26074 21.2806 3.26074 20.3537C3.26074 19.7925 3.2717 19.7029 3.41796 19.372C3.62637 18.9113 3.77627 18.7266 3.93898 18.7486C4.06329 18.765 4.0633 18.7705 3.9006 18.9954C3.03588 20.1855 3.51302 21.9077 4.89328 22.5859C5.2516 22.7596 5.30279 22.7706 5.89145 22.7706C6.47463 22.7706 6.53131 22.7596 6.87866 22.5914C7.80919 22.1307 8.41065 21.1051 8.30279 20.1563L8.26439 19.8363L8.41614 19.8692L8.56787 19.8967L8.54593 20.4634C8.5185 20.979 8.49474 21.074 8.29365 21.5073C7.80553 22.5567 6.73423 23.1563 5.57884 23.0229Z" fill="#B7B7B7"/>
<path d="M27.5467 23.0171C26.9581 22.944 26.3639 22.6533 25.9983 22.2548C25.8027 22.0409 25.448 21.4979 25.4151 21.3627C25.1957 20.4431 25.1848 20.1854 25.3584 19.5949C25.6893 18.4505 26.9069 17.6095 28.0787 17.7101C29.7003 17.8508 30.81 19.2914 30.5302 20.891C30.4681 21.2274 30.1482 21.8782 29.9196 22.1305C29.2963 22.8142 28.4608 23.1232 27.5467 23.0171ZM28.8813 22.5912C29.9745 22.0756 30.5467 20.8746 30.2451 19.7247C30.0714 19.0848 29.5723 18.5016 28.9215 18.1817C28.5741 18.0135 28.5229 18.0026 27.9124 18.0026C27.3018 18.0026 27.2451 18.0135 26.8849 18.1817C26.3858 18.4175 25.9416 18.86 25.7076 19.359C25.5394 19.7173 25.5284 19.7795 25.5284 20.3572C25.5284 20.9349 25.5394 20.997 25.7076 21.3499C26.0056 21.9842 26.5211 22.4559 27.161 22.6844C27.671 22.8636 28.373 22.8252 28.8831 22.5893L28.8813 22.5912Z" fill="#B7B7B7"/>
<path d="M27.6307 21.1651C27.1591 20.9695 26.9525 20.4576 27.1591 20.0152C27.2998 19.7172 27.5466 19.5728 27.9104 19.5783C28.3821 19.5783 28.6344 19.7922 28.724 20.2748C28.7624 20.5106 28.5777 20.9092 28.3529 21.0774C28.1792 21.2017 27.819 21.2511 27.6289 21.167L27.6307 21.1651Z" fill="#B7B7B7"/>
<path d="M5.51156 21.114C4.9229 20.7941 4.93386 19.9422 5.52801 19.6442C6.2355 19.2859 6.95945 20.0318 6.61576 20.7557C6.42015 21.1597 5.90827 21.3279 5.50973 21.114H5.51156Z" fill="#B7B7B7"/>
<path d="M25.5726 7.86373C25.5671 6.89297 25.5104 6.40485 25.3258 5.78328C25.2637 5.56938 25.2253 5.38473 25.2362 5.37377C25.2472 5.35731 25.3368 5.40667 25.4264 5.48528C25.6347 5.65896 25.8632 6.08492 25.9766 6.5054C26.0826 6.89846 26.1009 7.80706 26.0095 8.13248C25.9418 8.37379 25.7353 8.72114 25.6329 8.75588C25.5945 8.76685 25.5762 8.47617 25.5708 7.86373H25.5726Z" fill="#B7B7B7"/>
<path d="M20.1191 1.28944C20.013 0.868967 20.0405 0.592918 20.1977 0.443011C20.2708 0.364402 20.3714 0.302246 20.4171 0.302246C20.7095 0.302246 21.0112 0.622168 21.0112 0.936607C21.0112 1.11028 20.9271 1.13222 20.7808 0.998764C20.6236 0.857997 20.4225 1.00973 20.3714 1.30772C20.3257 1.61667 20.1977 1.6057 20.1191 1.29126V1.28944Z" fill="#C9C9C9"/>
<path d="M14.297 13.8949C14.3482 13.884 14.4377 13.884 14.4926 13.8949C14.5438 13.9113 14.4981 13.9223 14.392 13.9223C14.286 13.9223 14.2403 13.9113 14.297 13.8949Z" fill="#E2E2E2"/>
<path d="M29.5889 16.0484C29.4152 15.8912 29.2123 15.7175 29.141 15.6664C29.0295 15.5878 29.0167 15.5603 29.0844 15.4817C29.258 15.2733 29.6565 15.4305 29.9088 15.8071C30.0496 16.0082 30.077 16.2898 29.96 16.3281C29.9326 16.3336 29.7644 16.2111 29.5889 16.0484Z" fill="#F58F84"/>
<path d="M26.0165 15.5781C25.8318 15.4154 25.8154 15.2582 25.9781 15.0681C26.3547 14.6202 27.6216 14.5964 28.554 15.0224C28.7277 15.101 28.852 15.1961 28.852 15.2473C28.852 15.3716 28.7734 15.3825 28.4205 15.3313C27.6856 15.2308 27.2377 15.2802 26.7148 15.5397C26.3839 15.697 26.1755 15.7079 26.0183 15.5781H26.0165Z" fill="#F58F84"/>
<path d="M24.5962 6.18718C24.4225 5.9678 24.4061 5.95683 24.1702 5.99705C23.896 6.03544 23.7607 5.96963 23.7607 5.79595C23.7607 5.65518 23.9509 5.53817 24.311 5.45956C24.5633 5.40837 24.6255 5.41386 24.7479 5.49247C24.949 5.62227 25.0679 5.92941 25.0222 6.19998C24.971 6.49249 24.832 6.487 24.5962 6.18901V6.18718Z" fill="#F58F84"/>
<path d="M7.0098 13.626C6.92022 13.4011 7.22369 13.306 8.39005 13.2C9.58017 13.0885 10.465 13.2 10.465 13.4633C10.465 13.5419 10.4028 13.5474 9.94946 13.509C9.19809 13.4358 8.42296 13.4706 7.80139 13.5986C7.14508 13.7339 7.05002 13.7393 7.0098 13.626Z" fill="#F58F84"/>
<path d="M11.5868 20.6096C11.5868 20.4688 11.7385 20.2568 11.9177 20.1434C12.1078 20.0264 12.1919 20.0191 14.084 19.9862C16.2376 19.9405 16.9908 19.8911 18.7129 19.6772C21.5959 19.3244 22.8135 18.7906 23.7458 17.467C24.5594 16.3171 24.936 14.7412 24.7842 13.1251C24.638 11.5602 24.1005 9.5456 23.287 7.48161C22.8555 6.39386 22.8555 6.38838 22.9835 6.26955C23.0457 6.21287 23.1078 6.07393 23.1243 5.9551C23.1462 5.8381 23.1864 5.74121 23.2138 5.74121C23.3436 5.74121 23.5904 6.10501 23.7349 6.50904C23.819 6.75035 24.0219 7.28966 24.1828 7.70465C24.3455 8.11964 24.6709 8.97887 24.9122 9.61141C25.148 10.2458 25.5301 11.244 25.7531 11.8271C26.2797 13.1964 26.3418 13.3865 26.3418 13.6279C26.3418 13.8125 26.2248 14.0648 25.3034 15.8107C25.1572 16.0904 24.967 16.4451 24.8829 16.5968C24.7989 16.754 24.5904 17.1416 24.4222 17.467C22.9067 20.361 22.8903 20.3902 22.5594 20.5529C22.3235 20.6644 22.2394 20.6644 16.9542 20.6644C13.5886 20.6644 11.585 20.6425 11.585 20.6078L11.5868 20.6096Z" fill="#E85222" fill-opacity="0.6"/>
<path d="M1.14014 17.4908C1.03959 17.2769 1.19681 17.0429 1.85312 16.3847C3.32295 14.9259 4.96647 13.8034 6.33027 13.3226C7.76172 12.8235 10.0999 12.7504 11.1219 13.1763C11.3961 13.2933 11.8184 13.7102 11.9409 13.9899C12.0871 14.3098 12.0926 14.9496 11.9573 15.4213C11.7891 16.0045 11.323 16.8016 10.7745 17.4414C10.6502 17.5822 10.6685 17.531 10.8641 17.116C11.1895 16.4323 11.2224 15.999 10.9884 15.4944C10.7581 15.0063 10.4546 14.7211 9.87689 14.4341L9.38329 14.1873L8.62095 14.1709C7.70139 14.1434 6.98841 14.2714 6.11821 14.6133C5.45641 14.871 4.45824 15.4158 3.79645 15.8747C3.53868 16.0593 3.22424 16.2787 3.09444 16.3683C2.97013 16.4524 2.70139 16.6608 2.50029 16.8235C1.86044 17.3336 1.42351 17.637 1.31747 17.637C1.25532 17.637 1.1767 17.5749 1.1438 17.4908H1.14014ZM7.80011 13.5968C8.42351 13.467 9.19682 13.4341 9.94819 13.5072C10.4034 13.5456 10.4637 13.5401 10.4637 13.4615C10.4637 13.1983 9.57707 13.0849 8.38877 13.1983C7.22241 13.3043 6.91893 13.3994 7.00851 13.6242C7.0469 13.7357 7.1438 13.7303 7.80011 13.5968Z" fill="#E85222" fill-opacity="0.6"/>
<path d="M22.1668 20.6716C22.5306 20.6095 22.7719 20.4705 22.9401 20.2164C23.0644 20.0427 23.5452 19.1396 24.4154 17.4669C24.5891 17.1415 24.7792 16.7777 24.8524 16.6534C24.92 16.5291 25.1504 16.1031 25.3569 15.6991C25.8908 14.6845 25.9621 14.5547 26.0589 14.5163C26.2783 14.4322 27.1759 14.4267 27.6695 14.5163C29.4977 14.8362 30.4465 15.5876 31.143 17.2768C31.2783 17.6022 31.3898 17.9057 31.3898 17.9495C31.3898 17.9879 31.3441 18.0501 31.2838 18.0793C31.2052 18.125 31.154 18.1122 31.0754 18.0227C30.8176 17.7356 30.0937 17.1872 29.7573 17.0245C28.9109 16.6095 27.5525 16.5145 26.7061 16.8106C25.9145 17.0848 25.4611 17.3499 25.0791 17.7539C24.6531 18.2091 24.4282 18.6515 24.1028 19.6844C23.973 20.0884 23.8505 20.4413 23.8286 20.4815C23.739 20.6223 23.4301 20.6771 22.6677 20.6954C22.1175 20.7118 21.9712 20.7064 22.1687 20.6734L22.1668 20.6716ZM30.0315 16.1616C30.0535 15.988 29.8414 15.6461 29.611 15.4998C29.4154 15.3701 29.1851 15.3646 29.0845 15.4834C29.0169 15.562 29.0279 15.5894 29.1412 15.668C29.2143 15.7192 29.4154 15.8929 29.5891 16.0501C29.7628 16.2128 29.931 16.3371 29.9602 16.3298C29.9931 16.3188 30.0224 16.2457 30.0333 16.1616H30.0315ZM26.8067 15.4998C27.2728 15.2914 27.6988 15.2421 28.2929 15.3262C28.7354 15.3883 28.8652 15.3719 28.8652 15.2476C28.8652 15.0337 27.8268 14.7211 27.1211 14.7211C26.5434 14.7211 26.1723 14.8326 25.9767 15.0684C25.814 15.2585 25.8304 15.4158 26.0151 15.5785C26.1778 15.7137 26.3515 15.6955 26.8067 15.4998Z" fill="#E85222"/>
<path d="M10.3238 20.3573C9.67845 20.1946 8.18667 19.8125 7.013 19.5164C5.84115 19.2129 4.64006 18.9112 4.34755 18.8436C3.10258 18.5456 1.16656 18.0191 1.01482 17.9295C0.795445 17.7997 0.588867 17.403 0.588867 17.0995C0.588867 16.7796 0.89782 15.9935 1.39691 15.0301C2.14828 13.5767 2.86126 12.7029 3.76985 12.1014C4.63457 11.5347 4.4938 11.5566 6.70404 11.5566C9.28539 11.5511 10.0532 11.6517 11.236 12.1343C12.2909 12.5603 14.2817 13.7888 14.1812 13.9515C14.1593 13.9899 13.9965 14.2092 13.8229 14.4396C12.8869 15.69 12.5834 16.7851 12.9764 17.531C13.1062 17.7833 13.1958 17.8729 13.4975 18.0465C14.4006 18.573 15.8869 18.765 17.587 18.5621C18.9783 18.3994 19.8759 18.0849 20.6949 17.4798C21.7717 16.6772 22.1318 16.1836 22.5523 14.9277C23.2488 12.829 23.1867 11.6169 22.2214 8.71201C22.0258 8.11238 21.7954 7.45608 21.7168 7.24218C21.6382 7.03378 21.5706 6.81623 21.5706 6.75955C21.5706 6.62976 21.8119 6.56394 22.0861 6.6133C22.2543 6.64621 22.4572 6.59685 22.821 6.44511C22.8887 6.41769 22.9161 6.42866 22.9161 6.4835C22.9161 6.52921 23.0678 6.95517 23.258 7.43231C24.0934 9.54199 24.6273 11.5438 24.779 13.127C24.9307 14.7431 24.5541 16.3189 23.7406 17.4688C22.8101 18.7924 21.5925 19.3262 18.7077 19.6791C16.9856 19.893 16.2342 19.9423 14.0788 19.988C12.1666 20.0209 12.1099 20.0264 11.907 20.1507C11.7772 20.2293 11.6711 20.3518 11.6273 20.4761C11.5943 20.5767 11.5486 20.6663 11.5267 20.6608C11.5103 20.6608 10.9709 20.52 10.3201 20.3573H10.3238ZM1.77351 17.3793C1.96912 17.233 2.29453 16.9862 2.49746 16.8235C2.69855 16.6608 2.96912 16.4524 3.09161 16.3683C3.22141 16.2787 3.53402 16.0593 3.79362 15.8747C4.45541 15.414 5.45358 14.871 6.11537 14.6133C6.98557 14.2714 7.69672 14.1416 8.61811 14.1709L9.38046 14.1873L9.87406 14.4341C10.4518 14.7211 10.7552 15.0063 10.9856 15.4944C11.2214 15.999 11.1867 16.4304 10.8613 17.116C10.6656 17.531 10.6474 17.5822 10.7717 17.4414C11.322 16.8016 11.7863 16.0045 11.9545 15.4213C12.0898 14.9496 12.0843 14.3098 11.938 13.9899C11.8137 13.7102 11.3933 13.2933 11.119 13.1763C10.4006 12.8784 8.73512 12.8052 7.5066 13.0246C5.92525 13.3116 4.7406 13.9222 2.93438 15.3975C2.25614 15.9533 1.3183 16.8893 1.18485 17.1471C1.08978 17.3153 1.0843 17.3719 1.13914 17.4889C1.23421 17.6974 1.36949 17.6736 1.77351 17.3774V17.3793Z" fill="#E85222"/>
<path d="M24.5579 8.71188C24.3787 8.17806 23.6602 6.30606 23.5487 6.08669C23.4975 5.98066 23.386 5.85086 23.2964 5.80698C23.2123 5.7558 23.1501 5.68267 23.1556 5.6388C23.183 5.49255 24.3732 5.18359 24.9235 5.18359C25.0862 5.18359 25.1246 5.21102 25.1923 5.36823C25.4665 6.03002 25.6475 7.40477 25.5798 8.37002C25.5341 8.96964 25.5232 8.98061 25.0076 9.0318L24.6822 9.06471L24.5579 8.71188ZM25.0241 6.1982C25.0625 5.95141 24.9619 5.65891 24.7827 5.4962C24.6712 5.40114 24.631 5.39566 24.3403 5.45781C23.9417 5.53642 23.7626 5.64794 23.7626 5.82161C23.7626 5.9898 23.8869 6.0355 24.1776 5.99528C24.397 5.96238 24.4189 5.97334 24.5926 6.18541C24.8339 6.48339 24.9747 6.48888 25.0241 6.19638V6.1982Z" fill="#E85222"/>
</svg>
