<svg width="48" height="48" viewBox="0 0 48 48" fill="none" xmlns="http://www.w3.org/2000/svg">
<rect width="48" height="48" rx="3" fill="#F2F2F2"/>
<path d="M13.8165 35.7013C13.3174 35.544 12.7105 35.1912 12.5039 34.9334C12.4655 34.8713 12.5039 34.895 12.6044 34.9791C12.8622 35.193 13.3284 35.4453 13.6867 35.5623C13.928 35.6464 14.1584 35.6684 14.7525 35.6684C15.6611 35.6684 16.0377 35.5623 16.6885 35.129C17.5971 34.5184 18.1419 33.608 18.2589 32.4873C18.2808 32.2734 18.3211 32.1052 18.3485 32.1052C18.449 32.1052 18.3997 32.8182 18.2589 33.2881C18.034 34.0687 17.6867 34.6172 17.1419 35.0559C16.4289 35.6227 15.9243 35.8073 15.0048 35.842C14.3814 35.864 14.2918 35.853 13.8147 35.7013H13.8165Z" fill="#444444"/>
<path d="M36.2113 35.8234C35.6007 35.6717 35.0102 35.3865 34.6409 35.0428L34.416 34.8417L34.6957 35.0373C35.3685 35.509 35.9645 35.6936 36.7999 35.6936C37.3722 35.6936 37.8658 35.5821 38.3027 35.3627C39.8237 34.5894 40.5641 32.9953 40.1711 31.3573C40.065 30.9021 40.076 30.8363 40.204 31.1946C40.3886 31.7156 40.4508 32.4231 40.3612 32.9679C40.2497 33.6296 39.8402 34.4102 39.3685 34.8691C38.6555 35.5528 37.8658 35.8673 36.8658 35.8563C36.5678 35.8508 36.2716 35.8399 36.2094 35.8234H36.2113Z" fill="#444444"/>
<path d="M34.399 33.4801C34.304 33.2716 34.3204 33.2278 34.4209 33.4124C34.4721 33.502 34.4995 33.5861 34.4831 33.5971C34.4721 33.608 34.4319 33.5587 34.399 33.4801Z" fill="#444444"/>
<path d="M34.1962 32.9404C34.0664 32.5199 34.0847 31.8636 34.2236 31.3975C34.4485 30.6516 34.9073 30.136 35.6551 29.7704C36.092 29.551 36.103 29.551 36.7721 29.551H37.4448L37.922 29.7869C38.2529 29.9496 38.4832 30.1123 38.6788 30.3134L38.9585 30.6114L38.6551 30.3426C38.2839 30.0227 38.1212 29.9331 37.6459 29.7978C36.9786 29.6077 36.2035 29.6863 35.6094 30.0117C35.2218 30.2201 34.6953 30.7795 34.4923 31.1891C34.262 31.6497 34.1779 32.2384 34.2565 32.7887C34.2839 33.0136 34.3077 33.2092 34.2949 33.2146C34.2894 33.2256 34.2382 33.1031 34.1944 32.9404H34.1962Z" fill="#444444"/>
<path d="M12.1668 32.9074C12.0498 32.4924 12.0718 31.8087 12.218 31.337C12.3588 30.8818 12.5489 30.6185 12.6732 30.6971C12.7354 30.7355 12.7299 30.7758 12.6275 30.9165C12.4429 31.1743 12.3295 31.4778 12.2564 31.8928C12.1833 32.2913 12.1833 32.4028 12.2509 32.88C12.2783 33.0372 12.2838 33.1725 12.2674 33.1725C12.2564 33.1725 12.2052 33.0555 12.1668 32.9092V32.9074Z" fill="#444444"/>
<path d="M22.9872 25.6994C22.8519 25.5988 22.6344 25.4416 22.4936 25.3465C22.3528 25.257 22.2358 25.1619 22.2249 25.1381C22.2139 25.1107 22.1737 25.0924 22.1353 25.0924C22.0896 25.0924 22 25.0467 21.9269 24.9919C21.8537 24.9352 21.6179 24.7908 21.4004 24.672C21.1865 24.555 20.958 24.4252 20.8958 24.3849C20.8336 24.3392 20.755 24.3063 20.7166 24.3063C20.6782 24.3063 20.4918 24.2332 20.2962 24.1436C19.8245 23.9242 19.3309 23.767 18.989 23.7231C18.8373 23.7012 18.5466 23.661 18.3437 23.6281C17.6984 23.533 15.3583 23.4983 14.181 23.5714C13.0037 23.6445 12.8958 23.6336 12.6728 23.3758C12.5613 23.2405 12.4717 22.9663 12.4991 22.8365C12.5156 22.7469 12.532 22.7469 12.6454 22.82C12.8081 22.9261 12.9543 22.9316 14.4461 22.8529C16.1518 22.7634 17.8629 22.842 18.9287 23.0486C19.6472 23.1948 20.5996 23.5879 21.4077 24.0815C21.6033 24.2058 21.7843 24.3063 21.7952 24.3063C21.8117 24.3063 22.0987 24.4964 22.4296 24.7323L23.0292 25.1528L23.4333 25.1308C23.9726 25.0924 24.2687 24.9462 24.6947 24.5202C25.0658 24.1491 25.3291 23.7012 25.3912 23.3246L25.4296 23.0997L25.5027 23.3794C25.6764 24.0028 25.4863 24.6135 24.9579 25.1418C24.5265 25.5787 24.3528 25.6866 23.9488 25.7871C23.415 25.9169 23.2706 25.9041 22.989 25.6975L22.9872 25.6994Z" fill="#444444"/>
<path d="M20.4577 21.6862C20.5583 21.6752 20.7374 21.6752 20.8508 21.6862C20.9678 21.6972 20.8892 21.7081 20.6716 21.7081C20.4577 21.7081 20.3627 21.6972 20.4577 21.6862Z" fill="#444444"/>
<path d="M14.0791 35.6608C13.591 35.5657 12.9676 35.2787 12.6203 34.9826C12.5252 34.9039 12.4521 34.8582 12.4521 34.882C12.4521 34.9039 12.3406 34.7815 12.1998 34.6133C12.059 34.4396 11.9475 34.2879 11.9475 34.2659C11.9475 34.2495 11.8853 34.1416 11.8122 34.0246C11.4704 33.5036 11.3186 32.5274 11.4484 31.6846C11.5161 31.2751 11.8853 30.4945 12.0097 30.5292C12.0554 30.5402 12.1157 30.5511 12.1449 30.5566C12.1778 30.5621 12.2857 30.5895 12.3863 30.6133L12.5654 30.659L12.4539 30.7998C12.2638 31.0466 12.0956 31.6919 12.0956 32.191C12.0901 32.6334 12.2016 33.1727 12.2912 33.1727C12.3186 33.1727 12.3241 33.2056 12.3076 33.2458C12.2912 33.2915 12.3698 33.4542 12.4813 33.6169C12.5874 33.7796 12.6769 33.9204 12.6769 33.9314C12.6769 33.9369 12.8122 34.0831 12.9749 34.2513C13.3387 34.6279 13.7098 34.8454 14.198 34.9698C15.4594 35.2952 16.7391 34.7175 17.3003 33.5731C17.5197 33.1252 17.5746 32.8656 17.5691 32.3226L17.5636 31.9405L17.7153 31.9734C17.7994 31.9899 17.9621 32.0301 18.0864 32.063L18.3003 32.1142L18.2619 32.4908C18.1449 33.6078 17.6002 34.5219 16.697 35.127C16.0864 35.5365 15.7098 35.648 14.8963 35.6718C14.5252 35.6827 14.1614 35.6772 14.0828 35.6663L14.0791 35.6608Z" fill="#4F5150"/>
<path d="M35.9258 35.6115C35.3536 35.4872 34.5729 35.0338 34.2365 34.6243C34.1525 34.5182 34.0519 34.3994 34.0117 34.361C33.8764 34.2202 33.5455 33.4798 33.5181 33.2549C33.5016 33.1306 33.4724 32.9752 33.4614 32.9076C33.423 32.7284 33.423 31.9423 33.4614 31.7412C33.5784 31.1416 33.8874 30.5127 34.2749 30.0629C34.3865 29.9331 34.7521 29.626 35.0885 29.3664C35.1726 29.3042 35.7503 29.0684 35.8069 29.0794C35.8124 29.0794 35.8965 29.0519 35.9861 29.0172C36.434 28.8435 36.9788 28.8161 37.5071 28.9386C38.0062 29.0501 37.9788 29.0446 38.0903 29.0903C38.136 29.1068 38.2365 29.1415 38.3152 29.1689C38.7923 29.3262 39.6278 30.0666 39.8965 30.5657C40.2548 31.233 40.3682 32.2878 40.1653 33.0794C39.8508 34.3135 38.8362 35.3226 37.6296 35.6096C37.1982 35.7102 36.3846 35.7102 35.9239 35.6096L35.9258 35.6115ZM37.7941 34.9095C38.2091 34.7796 38.3664 34.6846 38.7302 34.3482C39.1068 34.0008 39.2859 33.7138 39.4486 33.2257C39.7009 32.4688 39.6278 31.6772 39.2402 31.0154C39.0263 30.6571 38.4267 30.0172 38.3316 30.0501C38.2859 30.0666 38.2695 30.0556 38.2859 30.0282C38.3078 29.9953 38.1287 29.8765 37.8819 29.7594C37.4559 29.5583 37.434 29.551 36.7704 29.551C36.1031 29.551 36.0921 29.551 35.6534 29.7704C34.593 30.286 34.0611 31.1836 34.1159 32.3463C34.1378 32.7394 34.178 32.9515 34.2951 33.244C34.3846 33.4524 34.4742 33.6206 34.5035 33.6206C34.5309 33.6206 34.5547 33.648 34.5547 33.6827C34.5547 33.7778 34.9751 34.2824 35.211 34.4743C35.4907 34.6992 36.03 34.9515 36.3773 35.0191C36.7594 35.0923 37.37 35.0466 37.7905 34.9131L37.7941 34.9095Z" fill="#4F5150"/>
<path d="M22.4263 24.7339C22.0954 24.4981 21.8084 24.3079 21.7919 24.3079C21.7809 24.3079 21.6018 24.2074 21.4043 24.0831C20.2435 23.3756 19.3001 23.0556 17.8925 22.9003C17.185 22.8216 13.9875 22.8162 13.45 22.8948C13.0405 22.9569 12.7261 22.9112 12.5634 22.765C12.4793 22.6864 12.4738 22.648 12.5305 22.467C12.5926 22.2531 12.8888 21.8381 12.9729 21.8381C13.0003 21.8381 13.0899 21.7869 13.1813 21.7266C13.3824 21.5803 14.1246 21.35 14.6054 21.2842C15.1447 21.2056 16.3276 21.2567 17.1923 21.3847C17.5963 21.4469 18.1009 21.5145 18.3148 21.531C18.5341 21.5529 18.7462 21.5767 18.7919 21.5876C19.0844 21.6662 19.8797 21.6937 21.4683 21.6772C23.1393 21.6662 23.3751 21.6772 23.982 21.8125C24.2745 21.8747 24.419 21.9478 24.684 22.1708C25.0314 22.4633 25.1722 22.6187 25.3184 22.8948C25.5378 23.3043 25.2563 23.9935 24.6402 24.584C24.2416 24.9606 23.9436 25.094 23.4336 25.1343L23.0296 25.1562L22.4299 24.7357L22.4263 24.7339Z" fill="#4F5150"/>
<path d="M29.3654 18.7303C29.338 18.7139 29.2136 18.6919 29.1021 18.6736C28.923 18.6407 28.8772 18.6005 28.7548 18.3482C28.4293 17.7029 28.603 17.5401 29.72 17.4341C30.0784 17.4012 30.2246 17.3336 30.2703 17.1654C30.327 16.9405 30.5629 16.8235 30.9888 16.807C31.5501 16.7906 31.8353 16.9533 32.0327 17.3957C32.1497 17.659 32.1845 18.0246 32.0894 18.0246C32.062 18.0246 32.0327 18.0575 32.0327 18.0977C32.0272 18.1928 31.8079 18.4287 31.6342 18.5182C31.4879 18.5968 31.1406 18.6188 30.9376 18.5694C30.8755 18.5585 30.8023 18.5639 30.7694 18.5859C30.742 18.6078 30.6396 18.6426 30.5446 18.6645C30.3307 18.7102 29.4385 18.7596 29.3672 18.7321L29.3654 18.7303Z" fill="#4F5150"/>
<path d="M22.3718 21.6315C22.4669 21.6205 22.635 21.6205 22.7356 21.6315C22.8307 21.6425 22.752 21.6534 22.5509 21.6534C22.3499 21.6534 22.2712 21.6425 22.3718 21.6315Z" fill="#727272"/>
<path d="M15.7902 34.2823C15.6951 34.1305 15.5653 33.9002 15.4977 33.7722L15.3734 33.5364L14.9803 33.5583C14.7664 33.5638 14.5434 33.5473 14.4812 33.5126C14.3642 33.4505 14.2235 33.5638 14.0772 33.86C14.0388 33.9441 13.9821 34.0117 13.9529 34.0117C13.931 34.0117 13.9072 34.0446 13.9072 34.0848C13.9072 34.1177 13.8505 34.2256 13.7774 34.3097L13.6531 34.4669L13.3953 34.2768C12.9748 33.9514 12.5982 33.3627 12.5251 32.8965L12.4922 32.6717L12.7061 32.6333C12.9529 32.5876 13.0205 32.5766 13.5306 32.4651C13.6202 32.4486 13.6823 32.3975 13.6878 32.3408C13.7043 31.9587 13.9291 31.5492 14.2216 31.381C14.3569 31.2969 14.4118 31.2348 14.3898 31.1726C14.3679 31.1104 14.3843 31.094 14.4575 31.1159C14.5087 31.1324 14.7993 31.211 15.1028 31.2896C15.4227 31.3792 15.7025 31.4852 15.7701 31.5529C15.9328 31.7156 16.0955 32.1031 16.0955 32.3444C16.0955 32.456 16.112 32.5528 16.1412 32.5583C16.2418 32.5693 16.388 32.604 16.7865 32.7265C17.2966 32.8782 17.3021 32.9057 17.0498 33.4395C16.8816 33.7978 16.4447 34.2749 16.1138 34.4724L15.9511 34.5674L15.7884 34.2804L15.7902 34.2823ZM15.3697 33.0592C15.8578 32.7119 15.7957 31.9148 15.2582 31.6461C14.7079 31.3719 14.0809 31.7631 14.0809 32.381C14.0809 33.0483 14.8268 33.4468 15.3715 33.0592H15.3697Z" fill="#8C8D8F"/>
<path d="M37.9101 34.4212C37.8644 34.3645 37.72 34.1415 37.5902 33.9221L37.3598 33.529L37.0234 33.551C36.8443 33.5619 36.6194 33.551 36.5244 33.5181C36.3617 33.4614 36.3562 33.4669 36.0874 33.8544C35.9412 34.0738 35.7949 34.2969 35.762 34.3535C35.7346 34.4157 35.6889 34.4596 35.667 34.4596C35.645 34.4596 35.4768 34.3188 35.2904 34.1451C34.943 33.8252 34.6066 33.253 34.528 32.8545L34.4951 32.6808L34.9613 32.5857C35.6066 32.4504 35.6341 32.4449 35.6505 32.4285C35.656 32.4175 35.7072 32.2603 35.7565 32.0811C35.8352 31.8124 35.9083 31.6991 36.1496 31.4706L36.4476 31.1908L36.3233 30.7923C36.2501 30.5729 36.1825 30.3206 36.1715 30.2311C36.1551 30.0848 36.177 30.0574 36.3507 30.0117C36.709 29.9166 37.5225 29.9952 37.8717 30.1525C38.0454 30.2311 38.2026 30.3207 38.2191 30.3481C38.252 30.3993 38.113 30.7009 37.8479 31.1616C37.7127 31.3919 37.6907 31.5985 37.8022 31.5985C37.9083 31.5985 38.071 32.0025 38.1112 32.3846C38.1222 32.4742 38.1734 32.5364 38.2629 32.5638C39.2118 32.8435 39.2392 32.8618 39.2227 33.03C39.177 33.4066 38.7456 34.0226 38.2922 34.359C38.0344 34.5437 38.0234 34.5437 37.9101 34.4212ZM37.3543 33.0757C37.5792 32.9075 37.7639 32.5089 37.7255 32.2731C37.6359 31.7905 37.3836 31.5766 36.9119 31.5766C36.5481 31.5711 36.3013 31.7173 36.1606 32.0135C35.9979 32.3609 36.0655 32.71 36.3617 32.9843C36.6359 33.242 37.0692 33.2822 37.3543 33.0738V33.0757Z" fill="#8C8D8F"/>
<path d="M32.0634 17.3902C31.9683 17.1708 31.8001 16.9862 31.5862 16.8802C31.4399 16.8016 31.3229 16.6169 31.0871 16.0612C31.025 15.9204 30.897 15.6407 30.8001 15.4378C30.705 15.2293 30.6264 15.0337 30.6264 14.9953C30.6264 14.9624 30.599 14.8838 30.5643 14.8217C30.5076 14.7156 30.4966 14.7211 30.3632 14.9222C30.184 15.1855 30.1383 15.2202 29.9152 15.2202C29.5057 15.2202 29.2589 14.9405 29.0633 14.2495C28.8385 13.4524 28.8001 12.6334 28.9737 12.297C29.0633 12.1233 29.0743 12.1233 29.3997 12.1453C29.7032 12.1672 29.758 12.191 29.9719 12.403C30.2242 12.6498 30.4436 13.1215 30.4875 13.5145C30.5039 13.6443 30.6173 13.9295 30.7398 14.1599C30.8641 14.3902 30.992 14.637 31.0268 14.7156C31.1383 14.9679 31.6154 15.871 31.6941 15.9771C31.716 16.01 31.8787 16.3134 32.0579 16.6498C32.237 16.9917 32.4052 17.2952 32.4345 17.3281C32.4857 17.3957 32.4125 17.4743 32.2443 17.5365C32.1657 17.5639 32.12 17.5255 32.0652 17.3902H32.0634ZM29.4216 13.2385C29.4838 12.9917 29.5624 12.9588 29.8878 13.0593C29.9993 13.0977 30.0121 13.0813 30.0121 12.8747C30.0121 12.69 29.9792 12.6224 29.811 12.4707C29.4399 12.1452 29.0651 12.3409 29.0542 12.8637C29.0487 13.1562 29.0816 13.3116 29.1712 13.4816C29.2553 13.6443 29.3449 13.5602 29.4235 13.2403L29.4216 13.2385Z" fill="#8C8D8F"/>
<path d="M14.5788 35.0229C14.4052 35.0009 14.0798 34.9113 13.8494 34.8218C13.5185 34.692 13.3613 34.5859 13.0633 34.2952C12.418 33.6609 12.2607 33.2806 12.2607 32.3537C12.2607 31.7925 12.2717 31.7029 12.418 31.372C12.6264 30.9113 12.7763 30.7266 12.939 30.7486C13.0633 30.765 13.0633 30.7705 12.9006 30.9954C12.0359 32.1855 12.513 33.9077 13.8933 34.5859C14.2516 34.7596 14.3028 34.7706 14.8915 34.7706C15.4746 34.7706 15.5313 34.7596 15.8787 34.5914C16.8092 34.1307 17.4106 33.1051 17.3028 32.1563L17.2644 31.8363L17.4161 31.8692L17.5679 31.8967L17.5459 32.4634C17.5185 32.979 17.4947 33.074 17.2936 33.5073C16.8055 34.5567 15.7342 35.1563 14.5788 35.0229Z" fill="#B7B7B7"/>
<path d="M36.5467 35.0171C35.9581 34.944 35.3639 34.6533 34.9983 34.2548C34.8027 34.0409 34.448 33.4979 34.4151 33.3627C34.1957 32.4431 34.1848 32.1854 34.3584 31.5949C34.6893 30.4505 35.9069 29.6095 37.0787 29.7101C38.7003 29.8508 39.81 31.2914 39.5302 32.891C39.4681 33.2274 39.1482 33.8782 38.9196 34.1305C38.2963 34.8142 37.4608 35.1232 36.5467 35.0171ZM37.8813 34.5912C38.9745 34.0756 39.5467 32.8746 39.2451 31.7247C39.0714 31.0848 38.5723 30.5016 37.9215 30.1817C37.5741 30.0135 37.5229 30.0026 36.9124 30.0026C36.3018 30.0026 36.2451 30.0135 35.8849 30.1817C35.3858 30.4175 34.9416 30.86 34.7076 31.359C34.5394 31.7173 34.5284 31.7795 34.5284 32.3572C34.5284 32.9349 34.5394 32.997 34.7076 33.3499C35.0056 33.9842 35.5211 34.4559 36.161 34.6844C36.671 34.8636 37.373 34.8252 37.8831 34.5893L37.8813 34.5912Z" fill="#B7B7B7"/>
<path d="M36.6307 33.1651C36.1591 32.9695 35.9525 32.4576 36.1591 32.0152C36.2998 31.7172 36.5466 31.5728 36.9104 31.5783C37.3821 31.5783 37.6344 31.7922 37.724 32.2748C37.7624 32.5106 37.5777 32.9092 37.3529 33.0774C37.1792 33.2017 36.819 33.2511 36.6289 33.167L36.6307 33.1651Z" fill="#B7B7B7"/>
<path d="M14.5116 33.114C13.9229 32.7941 13.9339 31.9422 14.528 31.6442C15.2355 31.2859 15.9594 32.0318 15.6158 32.7557C15.4201 33.1597 14.9083 33.3279 14.5097 33.114H14.5116Z" fill="#B7B7B7"/>
<path d="M34.5726 19.8637C34.5671 18.893 34.5104 18.4049 34.3258 17.7833C34.2637 17.5694 34.2253 17.3847 34.2362 17.3738C34.2472 17.3573 34.3368 17.4067 34.4264 17.4853C34.6347 17.659 34.8632 18.0849 34.9766 18.5054C35.0826 18.8985 35.1009 19.8071 35.0095 20.1325C34.9418 20.3738 34.7353 20.7211 34.6329 20.7559C34.5945 20.7668 34.5762 20.4762 34.5708 19.8637H34.5726Z" fill="#B7B7B7"/>
<path d="M29.1191 13.2894C29.013 12.869 29.0405 12.5929 29.1977 12.443C29.2708 12.3644 29.3714 12.3022 29.4171 12.3022C29.7095 12.3022 30.0112 12.6222 30.0112 12.9366C30.0112 13.1103 29.9271 13.1322 29.7808 12.9988C29.6236 12.858 29.4225 13.0097 29.3714 13.3077C29.3257 13.6167 29.1977 13.6057 29.1191 13.2913V13.2894Z" fill="#C9C9C9"/>
<path d="M23.297 25.8949C23.3482 25.884 23.4377 25.884 23.4926 25.8949C23.5438 25.9113 23.4981 25.9223 23.392 25.9223C23.286 25.9223 23.2403 25.9113 23.297 25.8949Z" fill="#E2E2E2"/>
<path d="M38.5889 28.0484C38.4152 27.8912 38.2123 27.7175 38.141 27.6664C38.0295 27.5878 38.0167 27.5603 38.0844 27.4817C38.258 27.2733 38.6565 27.4305 38.9088 27.8071C39.0496 28.0082 39.077 28.2898 38.96 28.3281C38.9326 28.3336 38.7644 28.2111 38.5889 28.0484Z" fill="#F58F84"/>
<path d="M35.0165 27.5781C34.8318 27.4154 34.8154 27.2582 34.9781 27.0681C35.3547 26.6202 36.6216 26.5964 37.554 27.0224C37.7277 27.101 37.852 27.1961 37.852 27.2473C37.852 27.3716 37.7734 27.3825 37.4205 27.3313C36.6856 27.2308 36.2377 27.2802 35.7148 27.5397C35.3839 27.697 35.1755 27.7079 35.0183 27.5781H35.0165Z" fill="#F58F84"/>
<path d="M33.5962 18.1872C33.4225 17.9678 33.4061 17.9568 33.1702 17.997C32.896 18.0354 32.7607 17.9696 32.7607 17.7959C32.7607 17.6552 32.9509 17.5382 33.311 17.4596C33.5633 17.4084 33.6255 17.4139 33.7479 17.4925C33.949 17.6223 34.0679 17.9294 34.0222 18.2C33.971 18.4925 33.832 18.487 33.5962 18.189V18.1872Z" fill="#F58F84"/>
<path d="M16.0098 25.626C15.9202 25.4011 16.2237 25.306 17.39 25.2C18.5802 25.0885 19.465 25.2 19.465 25.4633C19.465 25.5419 19.4028 25.5474 18.9495 25.509C18.1981 25.4358 17.423 25.4706 16.8014 25.5986C16.1451 25.7339 16.05 25.7393 16.0098 25.626Z" fill="#F58F84"/>
<path d="M20.5868 32.6096C20.5868 32.4688 20.7385 32.2568 20.9177 32.1434C21.1078 32.0264 21.1919 32.0191 23.084 31.9862C25.2376 31.9405 25.9908 31.8911 27.7129 31.6772C30.5959 31.3244 31.8135 30.7906 32.7458 29.467C33.5594 28.3171 33.936 26.7412 33.7842 25.1251C33.638 23.5602 33.1005 21.5456 32.287 19.4816C31.8555 18.3939 31.8555 18.3884 31.9835 18.2695C32.0457 18.2129 32.1078 18.0739 32.1243 17.9551C32.1462 17.8381 32.1864 17.7412 32.2138 17.7412C32.3436 17.7412 32.5904 18.105 32.7349 18.509C32.819 18.7504 33.0219 19.2897 33.1828 19.7046C33.3455 20.1196 33.6709 20.9789 33.9122 21.6114C34.148 22.2458 34.5301 23.244 34.7531 23.8271C35.2797 25.1964 35.3418 25.3865 35.3418 25.6279C35.3418 25.8125 35.2248 26.0648 34.3034 27.8107C34.1572 28.0904 33.967 28.4451 33.8829 28.5968C33.7989 28.754 33.5904 29.1416 33.4222 29.467C31.9067 32.361 31.8903 32.3902 31.5594 32.5529C31.3235 32.6644 31.2394 32.6644 25.9542 32.6644C22.5886 32.6644 20.585 32.6425 20.585 32.6078L20.5868 32.6096Z" fill="#E85222" fill-opacity="0.6"/>
<path d="M10.1401 29.4908C10.0396 29.2769 10.1968 29.0429 10.8531 28.3847C12.323 26.9259 13.9665 25.8034 15.3303 25.3226C16.7617 24.8235 19.0999 24.7504 20.1219 25.1763C20.3961 25.2933 20.8184 25.7102 20.9409 25.9899C21.0871 26.3098 21.0926 26.9496 20.9573 27.4213C20.7891 28.0045 20.323 28.8016 19.7745 29.4414C19.6502 29.5822 19.6685 29.531 19.8641 29.116C20.1895 28.4323 20.2224 27.999 19.9884 27.4944C19.7581 27.0063 19.4546 26.7211 18.8769 26.4341L18.3833 26.1873L17.6209 26.1709C16.7014 26.1434 15.9884 26.2714 15.1182 26.6133C14.4564 26.871 13.4582 27.4158 12.7965 27.8747C12.5387 28.0593 12.2242 28.2787 12.0944 28.3683C11.9701 28.4524 11.7014 28.6608 11.5003 28.8235C10.8604 29.3336 10.4235 29.637 10.3175 29.637C10.2553 29.637 10.1767 29.5749 10.1438 29.4908H10.1401ZM16.8001 25.5968C17.4235 25.467 18.1968 25.4341 18.9482 25.5072C19.4034 25.5456 19.4637 25.5401 19.4637 25.4615C19.4637 25.1983 18.5771 25.0849 17.3888 25.1983C16.2224 25.3043 15.9189 25.3994 16.0085 25.6242C16.0469 25.7357 16.1438 25.7303 16.8001 25.5968Z" fill="#E85222" fill-opacity="0.6"/>
<path d="M31.1668 32.6716C31.5306 32.6095 31.7719 32.4705 31.9401 32.2164C32.0644 32.0427 32.5452 31.1396 33.4154 29.4669C33.5891 29.1415 33.7792 28.7777 33.8524 28.6534C33.92 28.5291 34.1504 28.1031 34.3569 27.6991C34.8908 26.6845 34.9621 26.5547 35.0589 26.5163C35.2783 26.4322 36.1759 26.4267 36.6695 26.5163C38.4977 26.8362 39.4465 27.5876 40.143 29.2768C40.2783 29.6022 40.3898 29.9057 40.3898 29.9495C40.3898 29.9879 40.3441 30.0501 40.2838 30.0793C40.2052 30.125 40.154 30.1122 40.0754 30.0227C39.8176 29.7356 39.0937 29.1872 38.7573 29.0245C37.9109 28.6095 36.5525 28.5145 35.7061 28.8106C34.9145 29.0848 34.4611 29.3499 34.0791 29.7539C33.6531 30.2091 33.4282 30.6515 33.1028 31.6844C32.973 32.0884 32.8505 32.4413 32.8286 32.4815C32.739 32.6223 32.4301 32.6771 31.6677 32.6954C31.1175 32.7118 30.9712 32.7064 31.1687 32.6734L31.1668 32.6716ZM39.0315 28.1616C39.0535 27.988 38.8414 27.6461 38.611 27.4998C38.4154 27.3701 38.1851 27.3646 38.0845 27.4834C38.0169 27.562 38.0279 27.5894 38.1412 27.668C38.2143 27.7192 38.4154 27.8929 38.5891 28.0501C38.7628 28.2128 38.931 28.3371 38.9602 28.3298C38.9931 28.3188 39.0224 28.2457 39.0333 28.1616H39.0315ZM35.8067 27.4998C36.2728 27.2914 36.6988 27.2421 37.2929 27.3262C37.7354 27.3883 37.8652 27.3719 37.8652 27.2476C37.8652 27.0337 36.8268 26.7211 36.1211 26.7211C35.5434 26.7211 35.1723 26.8326 34.9767 27.0684C34.814 27.2585 34.8304 27.4158 35.0151 27.5785C35.1778 27.7137 35.3515 27.6955 35.8067 27.4998Z" fill="#E85222"/>
<path d="M19.3238 32.3573C18.6784 32.1946 17.1867 31.8125 16.013 31.5164C14.8412 31.2129 13.6401 30.9112 13.3476 30.8436C12.1026 30.5456 10.1666 30.0191 10.0148 29.9295C9.79544 29.7997 9.58887 29.403 9.58887 29.0995C9.58887 28.7796 9.89782 27.9935 10.3969 27.0301C11.1483 25.5767 11.8613 24.7029 12.7699 24.1014C13.6346 23.5347 13.4938 23.5566 15.704 23.5566C18.2854 23.5511 19.0532 23.6517 20.236 24.1343C21.2909 24.5603 23.2817 25.7888 23.1812 25.9515C23.1593 25.9899 22.9965 26.2092 22.8229 26.4396C21.8869 27.69 21.5834 28.7851 21.9764 29.531C22.1062 29.7833 22.1958 29.8729 22.4975 30.0465C23.4006 30.573 24.8869 30.765 26.587 30.5621C27.9783 30.3994 28.8759 30.0849 29.6949 29.4798C30.7717 28.6772 31.1318 28.1836 31.5523 26.9277C32.2488 24.829 32.1867 23.6169 31.2214 20.712C31.0258 20.1124 30.7954 19.4561 30.7168 19.2422C30.6382 19.0338 30.5706 18.8162 30.5706 18.7596C30.5706 18.6298 30.8119 18.5639 31.0861 18.6133C31.2543 18.6462 31.4572 18.5969 31.821 18.4451C31.8887 18.4177 31.9161 18.4287 31.9161 18.4835C31.9161 18.5292 32.0678 18.9552 32.258 19.4323C33.0934 21.542 33.6273 23.5438 33.779 25.127C33.9307 26.7431 33.5541 28.3189 32.7406 29.4688C31.8101 30.7924 30.5925 31.3262 27.7077 31.6791C25.9856 31.893 25.2342 31.9423 23.0788 31.988C21.1666 32.0209 21.1099 32.0264 20.907 32.1507C20.7772 32.2293 20.6711 32.3518 20.6273 32.4761C20.5943 32.5767 20.5486 32.6663 20.5267 32.6608C20.5103 32.6608 19.9709 32.52 19.3201 32.3573H19.3238ZM10.7735 29.3793C10.9691 29.233 11.2945 28.9862 11.4975 28.8235C11.6986 28.6608 11.9691 28.4524 12.0916 28.3683C12.2214 28.2787 12.534 28.0593 12.7936 27.8747C13.4554 27.414 14.4536 26.871 15.1154 26.6133C15.9856 26.2714 16.6967 26.1416 17.6181 26.1709L18.3805 26.1873L18.8741 26.4341C19.4518 26.7211 19.7552 27.0063 19.9856 27.4944C20.2214 27.999 20.1867 28.4304 19.8613 29.116C19.6656 29.531 19.6474 29.5822 19.7717 29.4414C20.322 28.8016 20.7863 28.0045 20.9545 27.4213C21.0898 26.9496 21.0843 26.3098 20.938 25.9899C20.8137 25.7102 20.3933 25.2933 20.119 25.1763C19.4006 24.8784 17.7351 24.8052 16.5066 25.0246C14.9252 25.3116 13.7406 25.9222 11.9344 27.3975C11.2561 27.9533 10.3183 28.8893 10.1848 29.1471C10.0898 29.3153 10.0843 29.3719 10.1391 29.4889C10.2342 29.6974 10.3695 29.6736 10.7735 29.3774V29.3793Z" fill="#E85222"/>
<path d="M33.5579 20.7119C33.3787 20.1781 32.6602 18.3061 32.5487 18.0867C32.4975 17.9807 32.386 17.8509 32.2964 17.807C32.2123 17.7558 32.1501 17.6827 32.1556 17.6388C32.183 17.4925 33.3732 17.1836 33.9235 17.1836C34.0862 17.1836 34.1246 17.211 34.1923 17.3682C34.4665 18.03 34.6475 19.4048 34.5798 20.37C34.5341 20.9696 34.5232 20.9806 34.0076 21.0318L33.6822 21.0647L33.5579 20.7119ZM34.0241 18.1982C34.0625 17.9514 33.9619 17.6589 33.7827 17.4962C33.6712 17.4011 33.631 17.3957 33.3403 17.4578C32.9417 17.5364 32.7626 17.6479 32.7626 17.8216C32.7626 17.9898 32.8869 18.0355 33.1776 17.9953C33.397 17.9624 33.4189 17.9733 33.5926 18.1854C33.8339 18.4834 33.9747 18.4889 34.0241 18.1964V18.1982Z" fill="#E85222"/>
</svg>
