<svg width="19" height="20" viewBox="0 0 19 20" fill="none" xmlns="http://www.w3.org/2000/svg">
<path d="M15.2329 6.67901C14.9707 6.46729 14.6477 6.3502 14.3161 6.34667L1.9617 6.21905C1.14766 6.21025 0.49407 6.87363 0.501801 7.70074C0.505759 8.12216 0.684273 8.52597 0.993562 8.81306L4.8746 12.4177L5.29126 17.6986C5.35854 18.526 6.07231 19.1549 6.88549 19.1032C7.06936 19.0915 7.24877 19.0448 7.41441 18.9657C7.61438 18.869 7.78936 18.7272 7.92631 18.5509L15.4955 8.78515C15.994 8.14158 15.8765 7.19862 15.2329 6.67901ZM7.14918 17.9222C6.98295 18.1366 6.67433 18.1701 6.45984 17.9968C6.35055 17.9086 6.28203 17.7784 6.27103 17.6381L5.86494 12.4959L14.6501 8.24673L7.14918 17.9222ZM5.42815 11.5928L1.64902 8.08201C1.49541 7.9435 1.44266 7.72326 1.51747 7.53272C1.58511 7.33842 1.76802 7.21205 1.97216 7.21864L14.2133 7.34361L5.42815 11.5928Z" fill="#E74F30"/>
</svg>
