<svg width="24" height="24" viewBox="0 0 24 24" fill="none" xmlns="http://www.w3.org/2000/svg">
<path d="M4 10L5.54415 5.36754C5.81638 4.55086 6.58066 4 7.44152 4H16.7544C17.4983 4 18.1587 4.47599 18.3939 5.18168V5.18168" stroke="white" stroke-width="2" stroke-linecap="round"/>
<path d="M14.5 17H3C2.44772 17 2 16.5523 2 16V11C2 10.4477 2.44772 10 3 10H14.5" stroke="white" stroke-width="2" stroke-linecap="round"/>
<rect x="3" y="17" width="3" height="4" rx="1" fill="white"/>
<circle cx="6.5" cy="13.5" r="1.5" fill="white"/>
<path fill-rule="evenodd" clip-rule="evenodd" d="M18 8.5H16.5C16.2239 8.5 16 8.27614 16 8C16 7.72386 16.2239 7.5 16.5 7.5H18.3819C18.6566 7.19313 19.0558 7 19.5 7C19.9443 7 20.3434 7.19313 20.6181 7.5H22.5C22.7761 7.5 23 7.72386 23 8C23 8.27614 22.7761 8.5 22.5 8.5H21C21 9.32843 20.3284 10 19.5 10C18.6716 10 18 9.32843 18 8.5ZM19 13C18.4477 13 18 13.4477 18 14V20C18 20.5523 18.4477 21 19 21H20C20.5523 21 21 20.5523 21 20V14C21 13.4477 20.5523 13 20 13H19ZM16.5 11.5C16.5 10.9477 16.9477 10.5 17.5 10.5H21.5C22.0523 10.5 22.5 10.9477 22.5 11.5V12.5V14.5C22.5 14.7761 22.2761 15 22 15C21.7239 15 21.5 14.7761 21.5 14.5V12.5H17.5V14.5C17.5 14.7761 17.2761 15 17 15C16.7239 15 16.5 14.7761 16.5 14.5V12.5V11.5Z" fill="white"/>
</svg>
