<svg width="24" height="24" viewBox="0 0 24 24" fill="none" xmlns="http://www.w3.org/2000/svg">
<path d="M20.772 8.155L19.404 4.051C18.995 2.824 17.852 2 16.559 2H7.441C6.148 2 5.005 2.824 4.596 4.051L3.228 8.155C2.507 8.457 2 9.169 2 10V15C2 15.738 2.404 16.376 3 16.723V17.897V19C3 19.553 3.447 20 4 20H5C5.553 20 6 19.553 6 19V17H18V19C18 19.553 18.447 20 19 20H20C20.553 20 21 19.553 21 19V16.723C21.596 16.376 22 15.739 22 15V10C22 9.169 21.493 8.457 20.772 8.155ZM7.441 4H16.558C16.989 4 17.371 4.274 17.507 4.684L18.613 8H17.819H6.181H5.387L6.492 4.684C6.629 4.274 7.011 4 7.441 4ZM5.5 14C4.672 14 4 13.328 4 12.5C4 11.672 4.672 11 5.5 11C6.328 11 7 11.672 7 12.5C7 13.328 6.328 14 5.5 14ZM18.5 14C17.672 14 17 13.328 17 12.5C17 11.672 17.672 11 18.5 11C19.328 11 20 11.672 20 12.5C20 13.328 19.328 14 18.5 14Z" fill="white"/>
</svg>
