<svg width="21" height="24" viewBox="0 0 21 24" fill="none" xmlns="http://www.w3.org/2000/svg">
<path d="M6.50701 2.385C5.07839 2.77872 3.65948 3.20685 2.25151 3.669C2.12294 3.71065 2.00866 3.78756 1.92167 3.89099C1.83469 3.99442 1.7785 4.1202 1.75951 4.254C0.928508 10.4895 2.84851 15.039 5.13901 18.036C6.10878 19.3176 7.26512 20.4466 8.56951 21.3855C9.08851 21.7515 9.54751 22.0155 9.90901 22.185C10.089 22.2705 10.236 22.3275 10.3485 22.362C10.3977 22.3793 10.4484 22.3918 10.5 22.3995C10.551 22.3912 10.6011 22.3787 10.65 22.362C10.764 22.3275 10.911 22.2705 11.091 22.185C11.451 22.0155 11.9115 21.75 12.4305 21.3855C13.7349 20.4466 14.8912 19.3176 15.861 18.036C18.1515 15.0405 20.0715 10.4895 19.2405 4.254C19.2217 4.12014 19.1656 3.99427 19.0786 3.89082C18.9915 3.78736 18.8772 3.71049 18.7485 3.669C17.772 3.3495 16.1235 2.829 14.493 2.3865C12.828 1.935 11.2965 1.6005 10.5 1.6005C9.70501 1.6005 8.17201 1.935 6.50701 2.3865V2.385ZM6.10801 0.84C7.73551 0.3975 9.46501 0 10.5 0C11.535 0 13.2645 0.3975 14.892 0.84C16.557 1.29 18.2355 1.8225 19.2225 2.145C19.6352 2.28128 20.001 2.5312 20.278 2.86605C20.555 3.20091 20.732 3.60711 20.7885 4.038C21.6825 10.7535 19.608 15.7305 17.091 19.023C16.0237 20.4315 14.751 21.6718 13.3155 22.7025C12.8191 23.0592 12.2932 23.3728 11.7435 23.64C11.3235 23.838 10.872 24 10.5 24C10.128 24 9.67801 23.838 9.25651 23.64C8.70678 23.3728 8.18087 23.0592 7.68451 22.7025C6.24905 21.6717 4.97638 20.4314 3.90901 19.023C1.39201 15.7305 -0.682492 10.7535 0.211508 4.038C0.268039 3.60711 0.444973 3.20091 0.721983 2.86605C0.998994 2.5312 1.36485 2.28128 1.77751 2.145C3.2103 1.67521 4.65422 1.24009 6.10801 0.84Z" fill="#E74F30"/>
<path fill-rule="evenodd" clip-rule="evenodd" d="M15.0319 9.22034C15.1018 9.29001 15.1572 9.37277 15.195 9.46389C15.2328 9.55501 15.2523 9.65269 15.2523 9.75134C15.2523 9.84999 15.2328 9.94767 15.195 10.0388C15.1572 10.1299 15.1018 10.2127 15.0319 10.2823L10.5319 14.7823C10.4623 14.8522 10.3795 14.9076 10.2884 14.9454C10.1973 14.9832 10.0996 15.0027 10.0009 15.0027C9.9023 15.0027 9.80462 14.9832 9.7135 14.9454C9.62238 14.9076 9.53962 14.8522 9.46995 14.7823L7.21995 12.5323C7.15022 12.4626 7.0949 12.3798 7.05716 12.2887C7.01942 12.1976 7 12.1 7 12.0013C7 11.9027 7.01942 11.8051 7.05716 11.714C7.0949 11.6229 7.15022 11.5401 7.21995 11.4703C7.28968 11.4006 7.37246 11.3453 7.46357 11.3076C7.55468 11.2698 7.65233 11.2504 7.75095 11.2504C7.84956 11.2504 7.94721 11.2698 8.03832 11.3076C8.12943 11.3453 8.21222 11.4006 8.28195 11.4703L10.0009 13.1908L13.9699 9.22034C14.0396 9.1505 14.1224 9.09508 14.2135 9.05727C14.3046 9.01946 14.4023 9 14.5009 9C14.5996 9 14.6973 9.01946 14.7884 9.05727C14.8795 9.09508 14.9623 9.1505 15.0319 9.22034Z" fill="#E74F30"/>
</svg>
