<svg width="36" height="36" viewBox="0 0 36 36" fill="none" xmlns="http://www.w3.org/2000/svg">
<path d="M16.9202 3.56886L16.559 3.91462L16.559 3.91462L16.9202 3.56886ZM22.1293 9.01019L22.4905 8.66443L22.1293 9.01019ZM16.2518 3.52963C16.2518 3.25349 16.028 3.02963 15.7518 3.02963C15.4757 3.02963 15.2518 3.25349 15.2518 3.52963H16.2518ZM22.1068 10.0902C22.383 10.0902 22.6068 9.86638 22.6068 9.59024C22.6068 9.3141 22.383 9.09024 22.1068 9.09024V10.0902ZM7.66364 14.0065C7.38749 14.0065 7.16364 14.2303 7.16364 14.5065C7.16364 14.7826 7.38749 15.0065 7.66364 15.0065V14.0065ZM14.5964 15.0065C14.8725 15.0065 15.0964 14.7826 15.0964 14.5065C15.0964 14.2303 14.8725 14.0065 14.5964 14.0065V15.0065ZM7.66364 16.3174C7.38749 16.3174 7.16364 16.5412 7.16364 16.8174C7.16364 17.0935 7.38749 17.3174 7.66364 17.3174V16.3174ZM16.3296 17.3174C16.6057 17.3174 16.8296 17.0935 16.8296 16.8174C16.8296 16.5412 16.6057 16.3174 16.3296 16.3174V17.3174ZM7.66364 18.6283C7.38749 18.6283 7.16364 18.8522 7.16364 19.1283C7.16364 19.4044 7.38749 19.6283 7.66364 19.6283V18.6283ZM16.3296 19.6283C16.6057 19.6283 16.8296 19.4044 16.8296 19.1283C16.8296 18.8522 16.6057 18.6283 16.3296 18.6283V19.6283ZM14.4757 27.7165H14.9757V26.7165H14.4757V27.7165ZM22.1846 16.6613V17.1613H23.1846V16.6613H22.1846ZM4.69727 25.2165V4.9519H3.69727V25.2165H4.69727ZM6.19727 3.4519H15.4755V2.4519H6.19727V3.4519ZM16.559 3.91462L21.7681 9.35595L22.4905 8.66443L17.2814 3.22309L16.559 3.91462ZM15.2518 3.52963V7.59024H16.2518V3.52963H15.2518ZM17.7518 10.0902H22.1068V9.09024H17.7518V10.0902ZM7.66364 15.0065H14.5964V14.0065H7.66364V15.0065ZM7.66364 17.3174H16.3296V16.3174H7.66364V17.3174ZM7.66364 19.6283H16.3296V18.6283H7.66364V19.6283ZM14.4757 26.7165H6.19727V27.7165H14.4757V26.7165ZM22.1846 10.3932V16.6613H23.1846V10.3932H22.1846ZM21.7681 9.35595C22.0354 9.63515 22.1846 10.0067 22.1846 10.3932H23.1846C23.1846 9.74906 22.9359 9.12975 22.4905 8.66443L21.7681 9.35595ZM15.4755 3.4519C15.8846 3.4519 16.2761 3.61905 16.559 3.91462L17.2814 3.2231C16.8098 2.73049 16.1574 2.4519 15.4755 2.4519V3.4519ZM3.69727 25.2165C3.69727 26.5972 4.81655 27.7165 6.19727 27.7165V26.7165C5.36884 26.7165 4.69727 26.0449 4.69727 25.2165H3.69727ZM15.2518 7.59024C15.2518 8.97095 16.3711 10.0902 17.7518 10.0902V9.09024C16.9234 9.09024 16.2518 8.41867 16.2518 7.59024H15.2518ZM4.69727 4.9519C4.69727 4.12348 5.36884 3.4519 6.19727 3.4519V2.4519C4.81655 2.4519 3.69727 3.57119 3.69727 4.9519H4.69727Z" fill="#4F4F4F"/>
<mask id="path-2-inside-1" fill="white">
<path fill-rule="evenodd" clip-rule="evenodd" d="M26.6522 20.7599L26.0973 18.6886L24.0264 19.2436L22.5101 17.7273L20.9938 19.2438L18.9219 18.6886L18.3668 20.7604L16.2938 21.316L16.8491 23.3888L15.3334 24.9047L16.8499 26.4214L16.2948 28.493L18.3652 29.0477L18.9204 31.1202L20.9929 30.5647L22.5097 32.0818L24.0266 30.5647L26.0981 31.1198L26.6533 29.0477L28.7238 28.4929L28.169 26.422L29.6865 24.9043L28.1699 23.3876L28.7252 21.3154L26.6522 20.7599Z"/>
</mask>
<path d="M26.0973 18.6886L26.87 18.4816L26.663 17.7088L25.8902 17.9159L26.0973 18.6886ZM26.6522 20.7599L25.8794 20.967L25.9989 21.4131L26.4451 21.5327L26.6522 20.7599ZM24.0264 19.2436L23.4607 19.8093L23.7873 20.1359L24.2335 20.0164L24.0264 19.2436ZM22.5101 17.7273L23.0759 17.1616L22.5101 16.5958L21.9444 17.1616L22.5101 17.7273ZM20.9938 19.2438L20.7867 20.0165L21.2329 20.1361L21.5595 19.8094L20.9938 19.2438ZM18.9219 18.6886L19.129 17.9159L18.3562 17.7088L18.1492 18.4816L18.9219 18.6886ZM18.3668 20.7604L18.5739 21.5331L19.02 21.4136L19.1395 20.9675L18.3668 20.7604ZM16.2938 21.316L16.0867 20.5432L15.3141 20.7503L15.5211 21.523L16.2938 21.316ZM16.8491 23.3888L17.4149 23.9545L17.7414 23.6279L17.6219 23.1818L16.8491 23.3888ZM15.3334 24.9047L14.7677 24.339L14.2021 24.9047L14.7677 25.4704L15.3334 24.9047ZM16.8499 26.4214L17.6227 26.6284L17.7422 26.1823L17.4156 25.8557L16.8499 26.4214ZM16.2948 28.493L15.5221 28.286L15.315 29.0587L16.0878 29.2658L16.2948 28.493ZM18.3652 29.0477L19.1379 28.8407L19.0184 28.3946L18.5722 28.275L18.3652 29.0477ZM18.9204 31.1202L18.1476 31.3272L18.3546 32.1L19.1274 31.8929L18.9204 31.1202ZM20.9929 30.5647L21.5586 29.9991L21.232 29.6724L20.7858 29.792L20.9929 30.5647ZM22.5097 32.0818L21.944 32.6474L22.5097 33.2132L23.0755 32.6474L22.5097 32.0818ZM24.0266 30.5647L24.2337 29.792L23.7875 29.6724L23.4609 29.9991L24.0266 30.5647ZM26.0981 31.1198L25.8911 31.8925L26.6638 32.0996L26.8709 31.3268L26.0981 31.1198ZM26.6533 29.0477L26.4462 28.275L26.0001 28.3946L25.8806 28.8407L26.6533 29.0477ZM28.7238 28.4929L28.9309 29.2656L29.7035 29.0585L29.4965 28.2858L28.7238 28.4929ZM28.169 26.422L27.6033 25.8563L27.2767 26.1829L27.3962 26.629L28.169 26.422ZM29.6865 24.9043L30.2522 25.47L30.8178 24.9043L30.2522 24.3386L29.6865 24.9043ZM28.1699 23.3876L27.3972 23.1806L27.2777 23.6267L27.6042 23.9533L28.1699 23.3876ZM28.7252 21.3154L29.4979 21.5225L29.705 20.7497L28.9322 20.5427L28.7252 21.3154ZM25.3245 18.8957L25.8794 20.967L27.4249 20.5529L26.87 18.4816L25.3245 18.8957ZM24.2335 20.0164L26.3043 19.4614L25.8902 17.9159L23.8193 18.4709L24.2335 20.0164ZM24.5921 18.678L23.0759 17.1616L21.9444 18.2929L23.4607 19.8093L24.5921 18.678ZM21.9444 17.1616L20.4281 18.6781L21.5595 19.8094L23.0759 18.2929L21.9444 17.1616ZM21.2008 18.471L19.129 17.9159L18.7149 19.4614L20.7867 20.0165L21.2008 18.471ZM18.1492 18.4816L17.594 20.5534L19.1395 20.9675L19.6947 18.8957L18.1492 18.4816ZM16.5009 22.0887L18.5739 21.5331L18.1597 19.9877L16.0867 20.5432L16.5009 22.0887ZM17.6219 23.1818L17.0666 21.1089L15.5211 21.523L16.0764 23.5958L17.6219 23.1818ZM16.2834 22.8232L14.7677 24.339L15.8991 25.4704L17.4149 23.9545L16.2834 22.8232ZM14.7677 25.4704L16.2842 26.987L17.4156 25.8557L15.8991 24.339L14.7677 25.4704ZM16.0772 26.2143L15.5221 28.286L17.0676 28.7001L17.6227 26.6284L16.0772 26.2143ZM16.0878 29.2658L18.1581 29.8205L18.5722 28.275L16.5019 27.7203L16.0878 29.2658ZM19.6931 30.9132L19.1379 28.8407L17.5924 29.2548L18.1476 31.3272L19.6931 30.9132ZM20.7858 29.792L18.7133 30.3475L19.1274 31.8929L21.2 31.3375L20.7858 29.792ZM20.4272 31.1304L21.944 32.6474L23.0755 31.5161L21.5586 29.9991L20.4272 31.1304ZM23.0755 32.6474L24.5923 31.1304L23.4609 29.9991L21.944 31.5161L23.0755 32.6474ZM23.8196 31.3375L25.8911 31.8925L26.3052 30.347L24.2337 29.792L23.8196 31.3375ZM26.8709 31.3268L27.4261 29.2548L25.8806 28.8407L25.3254 30.9127L26.8709 31.3268ZM28.5167 27.7201L26.4462 28.275L26.8604 29.8205L28.9309 29.2656L28.5167 27.7201ZM27.3962 26.629L27.951 28.6999L29.4965 28.2858L28.9417 26.2149L27.3962 26.629ZM28.7347 26.9876L30.2522 25.47L29.1208 24.3386L27.6033 25.8563L28.7347 26.9876ZM30.2522 24.3386L28.7357 22.8219L27.6042 23.9533L29.1208 25.47L30.2522 24.3386ZM28.9427 23.5947L29.4979 21.5225L27.9525 21.1084L27.3972 23.1806L28.9427 23.5947ZM28.9322 20.5427L26.8592 19.9872L26.4451 21.5327L28.5181 22.0882L28.9322 20.5427Z" fill="#4F4F4F" mask="url(#path-2-inside-1)"/>
<path d="M19.6865 25.2353L21.4197 27.2161L25.4638 22.5942" stroke="#E85222" stroke-linecap="round" stroke-linejoin="round"/>
</svg>
